<?xml version="1.0" encoding="utf-8"?>
<!DOCTYPE svg PUBLIC "-//W3C//DTD SVG 1.1//EN" "http://www.w3.org/Graphics/SVG/1.1/DTD/svg11.dtd">
<svg xmlns="http://www.w3.org/2000/svg" xmlns:xlink="http://www.w3.org/1999/xlink" version="1.1" class="marks" width="969" height="280" viewBox="0 0 969 280"><rect width="969" height="280" fill="white"/><g fill="none" stroke-miterlimit="10" transform="translate(54,12)"><g class="mark-group role-frame root" role="graphics-object" aria-roledescription="group mark container"><g transform="translate(0,0)"><path class="background" aria-hidden="true" d="M0.5,0.5h820v200h-820Z" stroke="#ddd"/><g><g class="mark-group role-axis" aria-hidden="true"><g transform="translate(0.5,0.5)"><path class="background" aria-hidden="true" d="M0,0h0v0h0Z" pointer-events="none"/><g><g class="mark-rule role-axis-grid" pointer-events="none"><line transform="translate(0,185)" x2="820" y2="0" stroke="#ddd" stroke-width="1" opacity="1"/><line transform="translate(0,154)" x2="820" y2="0" stroke="#ddd" stroke-width="1" opacity="1"/><line transform="translate(0,123)" x2="820" y2="0" stroke="#ddd" stroke-width="1" opacity="1"/><line transform="translate(0,92)" x2="820" y2="0" stroke="#ddd" stroke-width="1" opacity="1"/><line transform="translate(0,62)" x2="820" y2="0" stroke="#ddd" stroke-width="1" opacity="1"/><line transform="translate(0,31)" x2="820" y2="0" stroke="#ddd" stroke-width="1" opacity="1"/><line transform="translate(0,0)" x2="820" y2="0" stroke="#ddd" stroke-width="1" opacity="1"/></g></g><path class="foreground" aria-hidden="true" d="" pointer-events="none" display="none"/></g></g><g class="mark-group role-axis" role="graphics-symbol" aria-roledescription="axis" aria-label="X-axis titled 'year' for a discrete scale with 41 values: 2020, 2021, 2022, 2023, 2024, ending with 2060"><g transform="translate(0.5,200.5)"><path class="background" aria-hidden="true" d="M0,0h0v0h0Z" pointer-events="none"/><g><g class="mark-rule role-axis-tick" pointer-events="none"><line transform="translate(10,0)" x2="0" y2="5" stroke="#888" stroke-width="1" opacity="1"/><line transform="translate(30,0)" x2="0" y2="5" stroke="#888" stroke-width="1" opacity="1"/><line transform="translate(50,0)" x2="0" y2="5" stroke="#888" stroke-width="1" opacity="1"/><line transform="translate(70,0)" x2="0" y2="5" stroke="#888" stroke-width="1" opacity="1"/><line transform="translate(90,0)" x2="0" y2="5" stroke="#888" stroke-width="1" opacity="1"/><line transform="translate(110,0)" x2="0" y2="5" stroke="#888" stroke-width="1" opacity="1"/><line transform="translate(130,0)" x2="0" y2="5" stroke="#888" stroke-width="1" opacity="1"/><line transform="translate(150,0)" x2="0" y2="5" stroke="#888" stroke-width="1" opacity="1"/><line transform="translate(170,0)" x2="0" y2="5" stroke="#888" stroke-width="1" opacity="1"/><line transform="translate(190,0)" x2="0" y2="5" stroke="#888" stroke-width="1" opacity="1"/><line transform="translate(210,0)" x2="0" y2="5" stroke="#888" stroke-width="1" opacity="1"/><line transform="translate(230,0)" x2="0" y2="5" stroke="#888" stroke-width="1" opacity="1"/><line transform="translate(250,0)" x2="0" y2="5" stroke="#888" stroke-width="1" opacity="1"/><line transform="translate(270,0)" x2="0" y2="5" stroke="#888" stroke-width="1" opacity="1"/><line transform="translate(290,0)" x2="0" y2="5" stroke="#888" stroke-width="1" opacity="1"/><line transform="translate(310,0)" x2="0" y2="5" stroke="#888" stroke-width="1" opacity="1"/><line transform="translate(330,0)" x2="0" y2="5" stroke="#888" stroke-width="1" opacity="1"/><line transform="translate(350,0)" x2="0" y2="5" stroke="#888" stroke-width="1" opacity="1"/><line transform="translate(370,0)" x2="0" y2="5" stroke="#888" stroke-width="1" opacity="1"/><line transform="translate(390,0)" x2="0" y2="5" stroke="#888" stroke-width="1" opacity="1"/><line transform="translate(410,0)" x2="0" y2="5" stroke="#888" stroke-width="1" opacity="1"/><line transform="translate(430,0)" x2="0" y2="5" stroke="#888" stroke-width="1" opacity="1"/><line transform="translate(450,0)" x2="0" y2="5" stroke="#888" stroke-width="1" opacity="1"/><line transform="translate(470,0)" x2="0" y2="5" stroke="#888" stroke-width="1" opacity="1"/><line transform="translate(490,0)" x2="0" y2="5" stroke="#888" stroke-width="1" opacity="1"/><line transform="translate(510,0)" x2="0" y2="5" stroke="#888" stroke-width="1" opacity="1"/><line transform="translate(530,0)" x2="0" y2="5" stroke="#888" stroke-width="1" opacity="1"/><line transform="translate(550,0)" x2="0" y2="5" stroke="#888" stroke-width="1" opacity="1"/><line transform="translate(570,0)" x2="0" y2="5" stroke="#888" stroke-width="1" opacity="1"/><line transform="translate(590,0)" x2="0" y2="5" stroke="#888" stroke-width="1" opacity="1"/><line transform="translate(610,0)" x2="0" y2="5" stroke="#888" stroke-width="1" opacity="1"/><line transform="translate(630,0)" x2="0" y2="5" stroke="#888" stroke-width="1" opacity="1"/><line transform="translate(650,0)" x2="0" y2="5" stroke="#888" stroke-width="1" opacity="1"/><line transform="translate(670,0)" x2="0" y2="5" stroke="#888" stroke-width="1" opacity="1"/><line transform="translate(690,0)" x2="0" y2="5" stroke="#888" stroke-width="1" opacity="1"/><line transform="translate(710,0)" x2="0" y2="5" stroke="#888" stroke-width="1" opacity="1"/><line transform="translate(730,0)" x2="0" y2="5" stroke="#888" stroke-width="1" opacity="1"/><line transform="translate(750,0)" x2="0" y2="5" stroke="#888" stroke-width="1" opacity="1"/><line transform="translate(770,0)" x2="0" y2="5" stroke="#888" stroke-width="1" opacity="1"/><line transform="translate(790,0)" x2="0" y2="5" stroke="#888" stroke-width="1" opacity="1"/><line transform="translate(810,0)" x2="0" y2="5" stroke="#888" stroke-width="1" opacity="1"/></g><g class="mark-text role-axis-label" pointer-events="none"><text text-anchor="end" transform="translate(10,7) rotate(270) translate(0,4)" font-family="sans-serif" font-size="14px" fill="#000" opacity="1">2020</text><text text-anchor="end" transform="translate(30,7) rotate(270) translate(0,4)" font-family="sans-serif" font-size="14px" fill="#000" opacity="1">2021</text><text text-anchor="end" transform="translate(50,7) rotate(270) translate(0,4)" font-family="sans-serif" font-size="14px" fill="#000" opacity="1">2022</text><text text-anchor="end" transform="translate(70,7) rotate(270) translate(0,4)" font-family="sans-serif" font-size="14px" fill="#000" opacity="1">2023</text><text text-anchor="end" transform="translate(90,7) rotate(270) translate(0,4)" font-family="sans-serif" font-size="14px" fill="#000" opacity="1">2024</text><text text-anchor="end" transform="translate(110,7) rotate(270) translate(0,4)" font-family="sans-serif" font-size="14px" fill="#000" opacity="1">2025</text><text text-anchor="end" transform="translate(130,7) rotate(270) translate(0,4)" font-family="sans-serif" font-size="14px" fill="#000" opacity="1">2026</text><text text-anchor="end" transform="translate(150,7) rotate(270) translate(0,4)" font-family="sans-serif" font-size="14px" fill="#000" opacity="1">2027</text><text text-anchor="end" transform="translate(170,7) rotate(270) translate(0,4)" font-family="sans-serif" font-size="14px" fill="#000" opacity="1">2028</text><text text-anchor="end" transform="translate(190,7) rotate(270) translate(0,4)" font-family="sans-serif" font-size="14px" fill="#000" opacity="1">2029</text><text text-anchor="end" transform="translate(210,7) rotate(270) translate(0,4)" font-family="sans-serif" font-size="14px" fill="#000" opacity="1">2030</text><text text-anchor="end" transform="translate(230,7) rotate(270) translate(0,4)" font-family="sans-serif" font-size="14px" fill="#000" opacity="1">2031</text><text text-anchor="end" transform="translate(250,7) rotate(270) translate(0,4)" font-family="sans-serif" font-size="14px" fill="#000" opacity="1">2032</text><text text-anchor="end" transform="translate(270,7) rotate(270) translate(0,4)" font-family="sans-serif" font-size="14px" fill="#000" opacity="1">2033</text><text text-anchor="end" transform="translate(290,7) rotate(270) translate(0,4)" font-family="sans-serif" font-size="14px" fill="#000" opacity="1">2034</text><text text-anchor="end" transform="translate(310,7) rotate(270) translate(0,4)" font-family="sans-serif" font-size="14px" fill="#000" opacity="1">2035</text><text text-anchor="end" transform="translate(330,7) rotate(270) translate(0,4)" font-family="sans-serif" font-size="14px" fill="#000" opacity="1">2036</text><text text-anchor="end" transform="translate(350,7) rotate(270) translate(0,4)" font-family="sans-serif" font-size="14px" fill="#000" opacity="1">2037</text><text text-anchor="end" transform="translate(370,7) rotate(270) translate(0,4)" font-family="sans-serif" font-size="14px" fill="#000" opacity="1">2038</text><text text-anchor="end" transform="translate(390,7) rotate(270) translate(0,4)" font-family="sans-serif" font-size="14px" fill="#000" opacity="1">2039</text><text text-anchor="end" transform="translate(410,7) rotate(270) translate(0,4)" font-family="sans-serif" font-size="14px" fill="#000" opacity="1">2040</text><text text-anchor="end" transform="translate(430,7) rotate(270) translate(0,4)" font-family="sans-serif" font-size="14px" fill="#000" opacity="1">2041</text><text text-anchor="end" transform="translate(450,7) rotate(270) translate(0,4)" font-family="sans-serif" font-size="14px" fill="#000" opacity="1">2042</text><text text-anchor="end" transform="translate(470,7) rotate(270) translate(0,4)" font-family="sans-serif" font-size="14px" fill="#000" opacity="1">2043</text><text text-anchor="end" transform="translate(490,7) rotate(270) translate(0,4)" font-family="sans-serif" font-size="14px" fill="#000" opacity="1">2044</text><text text-anchor="end" transform="translate(510,7) rotate(270) translate(0,4)" font-family="sans-serif" font-size="14px" fill="#000" opacity="1">2045</text><text text-anchor="end" transform="translate(530,7) rotate(270) translate(0,4)" font-family="sans-serif" font-size="14px" fill="#000" opacity="1">2046</text><text text-anchor="end" transform="translate(550,7) rotate(270) translate(0,4)" font-family="sans-serif" font-size="14px" fill="#000" opacity="1">2047</text><text text-anchor="end" transform="translate(570,7) rotate(270) translate(0,4)" font-family="sans-serif" font-size="14px" fill="#000" opacity="1">2048</text><text text-anchor="end" transform="translate(590,7) rotate(270) translate(0,4)" font-family="sans-serif" font-size="14px" fill="#000" opacity="1">2049</text><text text-anchor="end" transform="translate(610,7) rotate(270) translate(0,4)" font-family="sans-serif" font-size="14px" fill="#000" opacity="1">2050</text><text text-anchor="end" transform="translate(630,7) rotate(270) translate(0,4)" font-family="sans-serif" font-size="14px" fill="#000" opacity="1">2051</text><text text-anchor="end" transform="translate(650,7) rotate(270) translate(0,4)" font-family="sans-serif" font-size="14px" fill="#000" opacity="1">2052</text><text text-anchor="end" transform="translate(670,7) rotate(270) translate(0,4)" font-family="sans-serif" font-size="14px" fill="#000" opacity="1">2053</text><text text-anchor="end" transform="translate(690,7) rotate(270) translate(0,4)" font-family="sans-serif" font-size="14px" fill="#000" opacity="1">2054</text><text text-anchor="end" transform="translate(710,7) rotate(270) translate(0,4)" font-family="sans-serif" font-size="14px" fill="#000" opacity="1">2055</text><text text-anchor="end" transform="translate(730,7) rotate(270) translate(0,4)" font-family="sans-serif" font-size="14px" fill="#000" opacity="1">2056</text><text text-anchor="end" transform="translate(750,7) rotate(270) translate(0,4)" font-family="sans-serif" font-size="14px" fill="#000" opacity="1">2057</text><text text-anchor="end" transform="translate(770,7) rotate(270) translate(0,4)" font-family="sans-serif" font-size="14px" fill="#000" opacity="1">2058</text><text text-anchor="end" transform="translate(790,7) rotate(270) translate(0,4)" font-family="sans-serif" font-size="14px" fill="#000" opacity="1">2059</text><text text-anchor="end" transform="translate(810,7) rotate(270) translate(0,4)" font-family="sans-serif" font-size="14px" fill="#000" opacity="1">2060</text></g><g class="mark-rule role-axis-domain" pointer-events="none"><line transform="translate(0,0)" x2="820" y2="0" stroke="#888" stroke-width="1" opacity="1"/></g><g class="mark-text role-axis-title" pointer-events="none"><text text-anchor="middle" transform="translate(410,60)" font-family="sans-serif" font-size="16px" font-weight="bold" fill="#000" opacity="1">year</text></g></g><path class="foreground" aria-hidden="true" d="" pointer-events="none" display="none"/></g></g><g class="mark-group role-axis" role="graphics-symbol" aria-roledescription="axis" aria-label="Y-axis titled 'Circularity ($/$)' for a linear scale with values from −0.1 to 1.2"><g transform="translate(0.5,0.5)"><path class="background" aria-hidden="true" d="M0,0h0v0h0Z" pointer-events="none"/><g><g class="mark-rule role-axis-tick" pointer-events="none"><line transform="translate(0,185)" x2="-5" y2="0" stroke="#888" stroke-width="1" opacity="1"/><line transform="translate(0,154)" x2="-5" y2="0" stroke="#888" stroke-width="1" opacity="1"/><line transform="translate(0,123)" x2="-5" y2="0" stroke="#888" stroke-width="1" opacity="1"/><line transform="translate(0,92)" x2="-5" y2="0" stroke="#888" stroke-width="1" opacity="1"/><line transform="translate(0,62)" x2="-5" y2="0" stroke="#888" stroke-width="1" opacity="1"/><line transform="translate(0,31)" x2="-5" y2="0" stroke="#888" stroke-width="1" opacity="1"/><line transform="translate(0,0)" x2="-5" y2="0" stroke="#888" stroke-width="1" opacity="1"/></g><g class="mark-text role-axis-label" pointer-events="none"><text text-anchor="end" transform="translate(-7,188.6153846153846)" font-family="sans-serif" font-size="14px" fill="#000" opacity="1">0.0</text><text text-anchor="end" transform="translate(-7,157.84615384615384)" font-family="sans-serif" font-size="14px" fill="#000" opacity="1">0.2</text><text text-anchor="end" transform="translate(-7,127.07692307692308)" font-family="sans-serif" font-size="14px" fill="#000" opacity="1">0.4</text><text text-anchor="end" transform="translate(-7,96.3076923076923)" font-family="sans-serif" font-size="14px" fill="#000" opacity="1">0.6</text><text text-anchor="end" transform="translate(-7,65.53846153846155)" font-family="sans-serif" font-size="14px" fill="#000" opacity="1">0.8</text><text text-anchor="end" transform="translate(-7,34.769230769230774)" font-family="sans-serif" font-size="14px" fill="#000" opacity="1">1.0</text><text text-anchor="end" transform="translate(-7,4)" font-family="sans-serif" font-size="14px" fill="#000" opacity="1">1.2</text></g><g class="mark-rule role-axis-domain" pointer-events="none"><line transform="translate(0,200)" x2="0" y2="-200" stroke="#888" stroke-width="1" opacity="1"/></g><g class="mark-text role-axis-title" pointer-events="none"><text text-anchor="middle" transform="translate(-33,100) rotate(-90) translate(0,-3)" font-family="sans-serif" font-size="16px" font-weight="bold" fill="#000" opacity="1">Circularity ($/$)</text></g></g><path class="foreground" aria-hidden="true" d="" pointer-events="none" display="none"/></g></g><g class="mark-group role-scope pathgroup" role="graphics-object" aria-roledescription="group mark container"><g transform="translate(0,0)"><path class="background" aria-hidden="true" d="M0,0h820v200h-820Z"/><g><g class="mark-area role-mark marks" role="graphics-object" aria-roledescription="area mark container"><path aria-label="year: 2020; Circularity ($/$): 0; variable: x22" role="graphics-symbol" aria-roledescription="area mark" d="M10,184.6153846153846L30,184.6153846153846L50,184.6153846153846L70,184.6153846153846L90,184.6153846153846L110,184.6153846153846L130,184.6153846153846L150,184.6153846153846L170,184.6153846153846L190,184.6153846153846L210,184.6153846153846L230,184.6153846153846L250,184.6153846153846L270,184.6153846153846L290,184.6153846153846L310,45.207811323504444L330,45.207811323504444L350,45.207811323504444L370,45.207811323504444L390,45.207811323504444L410,45.207811323504444L430,45.207811323504444L450,45.207811323504444L470,45.207811323504444L490,45.207811323504444L510,45.207811323504444L530,45.207811323504444L550,45.207811323504444L570,45.207811323504444L590,45.207811323504444L610,175.0789594041841L630,175.0789594041841L650,175.0789594041841L670,175.0789594041841L690,175.0789594041841L710,148.9390156698198L730,148.9390156698198L750,148.9390156698198L770,148.9390156698198L790,148.9390156698198L810,148.9390156698198L810,162.98004105028264L790,162.98004105028264L770,162.98004105028264L750,162.98004105028264L730,162.98004105028264L710,162.98004105028264L690,175.0789594041841L670,175.0789594041841L650,175.0789594041841L630,175.0789594041841L610,175.0789594041841L590,184.6153846153846L570,184.6153846153846L550,184.6153846153846L530,184.6153846153846L510,184.6153846153846L490,184.6153846153846L470,184.6153846153846L450,184.6153846153846L430,184.6153846153846L410,184.6153846153846L390,184.6153846153846L370,184.6153846153846L350,184.6153846153846L330,184.6153846153846L310,184.6153846153846L290,184.6153846153846L270,184.6153846153846L250,184.6153846153846L230,184.6153846153846L210,184.6153846153846L190,184.6153846153846L170,184.6153846153846L150,184.6153846153846L130,184.6153846153846L110,184.6153846153846L90,184.6153846153846L70,184.6153846153846L50,184.6153846153846L30,184.6153846153846L10,184.6153846153846Z" fill="#54a24b"/></g></g><path class="foreground" aria-hidden="true" d="" display="none"/></g><g transform="translate(0,0)"><path class="background" aria-hidden="true" d="M0,0h820v200h-820Z"/><g><g class="mark-area role-mark marks" role="graphics-object" aria-roledescription="area mark container"><path aria-label="year: 2020; Circularity ($/$): 0; variable: x29" role="graphics-symbol" aria-roledescription="area mark" d="M10,184.6153846153846L30,184.6153846153846L50,184.6153846153846L70,184.6153846153846L90,184.6153846153846L110,184.6153846153846L130,184.6153846153846L150,184.6153846153846L170,184.6153846153846L190,184.6153846153846L210,184.6153846153846L230,184.6153846153846L250,184.6153846153846L270,184.6153846153846L290,184.6153846153846L310,184.6153846153846L330,184.6153846153846L350,184.6153846153846L370,184.6153846153846L390,184.6153846153846L410,184.6153846153846L430,184.6153846153846L450,184.6153846153846L470,184.6153846153846L490,184.6153846153846L510,184.6153846153846L530,184.6153846153846L550,184.6153846153846L570,184.6153846153846L590,184.6153846153846L610,175.0789594041841L630,175.0789594041841L650,175.0789594041841L670,175.0789594041841L690,175.0789594041841L710,162.98004105028264L730,162.98004105028264L750,162.98004105028264L770,162.98004105028264L790,162.98004105028264L810,162.98004105028264L810,184.6153846153846L790,184.6153846153846L770,184.6153846153846L750,184.6153846153846L730,184.6153846153846L710,184.6153846153846L690,184.6153846153846L670,184.6153846153846L650,184.6153846153846L630,184.6153846153846L610,184.6153846153846L590,184.6153846153846L570,184.6153846153846L550,184.6153846153846L530,184.6153846153846L510,184.6153846153846L490,184.6153846153846L470,184.6153846153846L450,184.6153846153846L430,184.6153846153846L410,184.6153846153846L390,184.6153846153846L370,184.6153846153846L350,184.6153846153846L330,184.6153846153846L310,184.6153846153846L290,184.6153846153846L270,184.6153846153846L250,184.6153846153846L230,184.6153846153846L210,184.6153846153846L190,184.6153846153846L170,184.6153846153846L150,184.6153846153846L130,184.6153846153846L110,184.6153846153846L90,184.6153846153846L70,184.6153846153846L50,184.6153846153846L30,184.6153846153846L10,184.6153846153846Z" fill="#eeca3b"/></g></g><path class="foreground" aria-hidden="true" d="" display="none"/></g><g transform="translate(0,0)"><path class="background" aria-hidden="true" d="M0,0h820v200h-820Z"/><g><g class="mark-area role-mark marks" role="graphics-object" aria-roledescription="area mark container"><path aria-label="year: 2020; Circularity ($/$): 0; variable: x134" role="graphics-symbol" aria-roledescription="area mark" d="M10,184.6153846153846L30,184.6153846153846L50,184.6153846153846L70,184.6153846153846L90,184.6153846153846L110,184.61384615384614L130,184.61384615384614L150,184.61384615384614L170,184.61384615384614L190,184.61384615384614L210,184.61384615384614L230,184.61384615384614L250,184.61384615384614L270,184.61384615384614L290,184.61384615384614L310,30.769230769230795L330,30.769230769230795L350,30.769230769230795L370,30.769230769230795L390,30.769230769230795L410,30.769230769230795L430,30.769230769230795L450,30.769230769230795L470,30.769230769230795L490,30.769230769230795L510,30.769230769230795L530,30.769230769230795L550,30.769230769230795L570,30.769230769230795L590,30.769230769230795L610,1.118870588485188L630,1.118870588485188L650,1.118870588485188L670,1.118870588485188L690,1.118870588485188L710,30.769230769230727L730,30.769230769230727L750,30.769230769230727L770,30.769230769230727L790,30.769230769230727L810,30.769230769230727L810,148.9390156698198L790,148.9390156698198L770,148.9390156698198L750,148.9390156698198L730,148.9390156698198L710,148.9390156698198L690,175.0789594041841L670,175.0789594041841L650,175.0789594041841L630,175.0789594041841L610,175.0789594041841L590,30.769230769230795L570,30.769230769230795L550,30.769230769230795L530,30.769230769230795L510,30.769230769230795L490,30.769230769230795L470,30.769230769230795L450,30.769230769230795L430,30.769230769230795L410,30.769230769230795L390,30.769230769230795L370,30.769230769230795L350,30.769230769230795L330,30.769230769230795L310,30.769230769230795L290,184.61384615384614L270,184.61384615384614L250,184.61384615384614L230,184.61384615384614L210,184.61384615384614L190,184.61384615384614L170,184.61384615384614L150,184.61384615384614L130,184.61384615384614L110,184.61384615384614L90,184.6153846153846L70,184.6153846153846L50,184.6153846153846L30,184.6153846153846L10,184.6153846153846Z" fill="#f58518"/></g></g><path class="foreground" aria-hidden="true" d="" display="none"/></g><g transform="translate(0,0)"><path class="background" aria-hidden="true" d="M0,0h820v200h-820Z"/><g><g class="mark-area role-mark marks" role="graphics-object" aria-roledescription="area mark container"><path aria-label="year: 2020; Circularity ($/$): 0; variable: x177" role="graphics-symbol" aria-roledescription="area mark" d="M10,184.6153846153846L30,184.6153846153846L50,184.6153846153846L70,184.6153846153846L90,184.6153846153846L110,184.61384615384614L130,184.61384615384614L150,184.61384615384614L170,184.61384615384614L190,184.61384615384614L210,184.61384615384614L230,184.61384615384614L250,184.61384615384614L270,184.61384615384614L290,184.61384615384614L310,30.769230769230795L330,30.769230769230795L350,30.769230769230795L370,30.769230769230795L390,30.769230769230795L410,30.769230769230795L430,30.769230769230795L450,30.769230769230795L470,30.769230769230795L490,30.769230769230795L510,30.769230769230795L530,30.769230769230795L550,30.769230769230795L570,30.769230769230795L590,30.769230769230795L610,175.0789594041841L630,175.0789594041841L650,175.0789594041841L670,175.0789594041841L690,175.0789594041841L710,148.9390156698198L730,148.9390156698198L750,148.9390156698198L770,148.9390156698198L790,148.9390156698198L810,148.9390156698198L810,148.9390156698198L790,148.9390156698198L770,148.9390156698198L750,148.9390156698198L730,148.9390156698198L710,148.9390156698198L690,175.0789594041841L670,175.0789594041841L650,175.0789594041841L630,175.0789594041841L610,175.0789594041841L590,45.207811323504444L570,45.207811323504444L550,45.207811323504444L530,45.207811323504444L510,45.207811323504444L490,45.207811323504444L470,45.207811323504444L450,45.207811323504444L430,45.207811323504444L410,45.207811323504444L390,45.207811323504444L370,45.207811323504444L350,45.207811323504444L330,45.207811323504444L310,45.207811323504444L290,184.61384615384614L270,184.61384615384614L250,184.61384615384614L230,184.61384615384614L210,184.61384615384614L190,184.61384615384614L170,184.61384615384614L150,184.61384615384614L130,184.61384615384614L110,184.61384615384614L90,184.6153846153846L70,184.6153846153846L50,184.6153846153846L30,184.6153846153846L10,184.6153846153846Z" fill="#e45756"/></g></g><path class="foreground" aria-hidden="true" d="" display="none"/></g><g transform="translate(0,0)"><path class="background" aria-hidden="true" d="M0,0h820v200h-820Z"/><g><g class="mark-area role-mark marks" role="graphics-object" aria-roledescription="area mark container"><path aria-label="year: 2020; Circularity ($/$): 0; variable: x178" role="graphics-symbol" aria-roledescription="area mark" d="M10,184.6153846153846L30,184.6153846153846L50,184.6153846153846L70,184.6153846153846L90,184.6153846153846L110,184.61384615384614L130,184.61384615384614L150,184.61384615384614L170,184.61384615384614L190,184.61384615384614L210,184.61384615384614L230,184.61384615384614L250,184.61384615384614L270,184.61384615384614L290,184.61384615384614L310,45.207811323504444L330,45.207811323504444L350,45.207811323504444L370,45.207811323504444L390,45.207811323504444L410,45.207811323504444L430,45.207811323504444L450,45.207811323504444L470,45.207811323504444L490,45.207811323504444L510,45.207811323504444L530,45.207811323504444L550,45.207811323504444L570,45.207811323504444L590,45.207811323504444L610,175.0789594041841L630,175.0789594041841L650,175.0789594041841L670,175.0789594041841L690,175.0789594041841L710,148.9390156698198L730,148.9390156698198L750,148.9390156698198L770,148.9390156698198L790,148.9390156698198L810,148.9390156698198L810,148.9390156698198L790,148.9390156698198L770,148.9390156698198L750,148.9390156698198L730,148.9390156698198L710,148.9390156698198L690,175.0789594041841L670,175.0789594041841L650,175.0789594041841L630,175.0789594041841L610,175.0789594041841L590,45.207811323504444L570,45.207811323504444L550,45.207811323504444L530,45.207811323504444L510,45.207811323504444L490,45.207811323504444L470,45.207811323504444L450,45.207811323504444L430,45.207811323504444L410,45.207811323504444L390,45.207811323504444L370,45.207811323504444L350,45.207811323504444L330,45.207811323504444L310,45.207811323504444L290,184.6153846153846L270,184.6153846153846L250,184.6153846153846L230,184.6153846153846L210,184.6153846153846L190,184.6153846153846L170,184.6153846153846L150,184.6153846153846L130,184.6153846153846L110,184.6153846153846L90,184.6153846153846L70,184.6153846153846L50,184.6153846153846L30,184.6153846153846L10,184.6153846153846Z" fill="#72b7b2"/></g></g><path class="foreground" aria-hidden="true" d="" display="none"/></g><g transform="translate(0,0)"><path class="background" aria-hidden="true" d="M0,0h820v200h-820Z"/><g><g class="mark-area role-mark marks" role="graphics-object" aria-roledescription="area mark container"><path aria-label="year: 2020; Circularity ($/$): 0.15; variable: Conv" role="graphics-symbol" aria-roledescription="area mark" d="M10,161.53846153846155L30,161.53846153846155L50,161.53846153846155L70,161.53846153846155L90,161.53846153846155L110,184.61384615384614L130,184.61384615384614L150,184.61384615384614L170,184.61384615384614L190,184.61384615384614L210,184.61384615384614L230,184.61384615384614L250,184.61384615384614L270,184.61384615384614L290,184.61384615384614L310,30.769230769230795L330,30.769230769230795L350,30.769230769230795L370,30.769230769230795L390,30.769230769230795L410,30.769230769230795L430,30.769230769230795L450,30.769230769230795L470,30.769230769230795L490,30.769230769230795L510,30.769230769230795L530,30.769230769230795L550,30.769230769230795L570,30.769230769230795L590,30.769230769230795L610,1.118870588485188L630,1.118870588485188L650,1.118870588485188L670,1.118870588485188L690,1.118870588485188L710,184.6153846153846L730,184.6153846153846L750,184.6153846153846L770,184.6153846153846L790,184.6153846153846L810,184.6153846153846L810,184.6153846153846L790,184.6153846153846L770,184.6153846153846L750,184.6153846153846L730,184.6153846153846L710,184.6153846153846L690,1.118870588485188L670,1.118870588485188L650,1.118870588485188L630,1.118870588485188L610,1.118870588485188L590,30.769230769230795L570,30.769230769230795L550,30.769230769230795L530,30.769230769230795L510,30.769230769230795L490,30.769230769230795L470,30.769230769230795L450,30.769230769230795L430,30.769230769230795L410,30.769230769230795L390,30.769230769230795L370,30.769230769230795L350,30.769230769230795L330,30.769230769230795L310,30.769230769230795L290,184.61384615384614L270,184.61384615384614L250,184.61384615384614L230,184.61384615384614L210,184.61384615384614L190,184.61384615384614L170,184.61384615384614L150,184.61384615384614L130,184.61384615384614L110,184.61384615384614L90,184.6153846153846L70,184.6153846153846L50,184.6153846153846L30,184.6153846153846L10,184.6153846153846Z" fill="#4c78a8"/></g></g><path class="foreground" aria-hidden="true" d="" display="none"/></g></g><g class="mark-group role-legend" role="graphics-symbol" aria-roledescription="legend" aria-label="Symbol legend titled 'variable' for fill color with 6 values: Conv, x134, x177, x178, x22, x29"><g transform="translate(838,0)"><path class="background" aria-hidden="true" d="M0,0h72v97h-72Z" pointer-events="none"/><g><g class="mark-group role-legend-entry"><g transform="translate(0,21)"><path class="background" aria-hidden="true" d="M0,0h0v0h0Z" pointer-events="none"/><g><g class="mark-group role-scope" role="graphics-object" aria-roledescription="group mark container"><g transform="translate(0,0)"><path class="background" aria-hidden="true" d="M0,0h41v11h-41Z" pointer-events="none" opacity="1"/><g><g class="mark-symbol role-legend-symbol" pointer-events="none"><path transform="translate(6,6)" d="M5,0A5,5,0,1,1,-5,0A5,5,0,1,1,5,0" fill="#4c78a8" stroke-width="1.5" opacity="1"/></g><g class="mark-text role-legend-label" pointer-events="none"><text text-anchor="start" transform="translate(16,9)" font-family="sans-serif" font-size="10px" fill="#000" opacity="1">Conv</text></g></g><path class="foreground" aria-hidden="true" d="" pointer-events="none" display="none"/></g><g transform="translate(0,13)"><path class="background" aria-hidden="true" d="M0,0h41v11h-41Z" pointer-events="none" opacity="1"/><g><g class="mark-symbol role-legend-symbol" pointer-events="none"><path transform="translate(6,6)" d="M5,0A5,5,0,1,1,-5,0A5,5,0,1,1,5,0" fill="#f58518" stroke-width="1.5" opacity="1"/></g><g class="mark-text role-legend-label" pointer-events="none"><text text-anchor="start" transform="translate(16,9)" font-family="sans-serif" font-size="10px" fill="#000" opacity="1">x134</text></g></g><path class="foreground" aria-hidden="true" d="" pointer-events="none" display="none"/></g><g transform="translate(0,26)"><path class="background" aria-hidden="true" d="M0,0h41v11h-41Z" pointer-events="none" opacity="1"/><g><g class="mark-symbol role-legend-symbol" pointer-events="none"><path transform="translate(6,6)" d="M5,0A5,5,0,1,1,-5,0A5,5,0,1,1,5,0" fill="#e45756" stroke-width="1.5" opacity="1"/></g><g class="mark-text role-legend-label" pointer-events="none"><text text-anchor="start" transform="translate(16,9)" font-family="sans-serif" font-size="10px" fill="#000" opacity="1">x177</text></g></g><path class="foreground" aria-hidden="true" d="" pointer-events="none" display="none"/></g><g transform="translate(0,39)"><path class="background" aria-hidden="true" d="M0,0h41v11h-41Z" pointer-events="none" opacity="1"/><g><g class="mark-symbol role-legend-symbol" pointer-events="none"><path transform="translate(6,6)" d="M5,0A5,5,0,1,1,-5,0A5,5,0,1,1,5,0" fill="#72b7b2" stroke-width="1.5" opacity="1"/></g><g class="mark-text role-legend-label" pointer-events="none"><text text-anchor="start" transform="translate(16,9)" font-family="sans-serif" font-size="10px" fill="#000" opacity="1">x178</text></g></g><path class="foreground" aria-hidden="true" d="" pointer-events="none" display="none"/></g><g transform="translate(0,52)"><path class="background" aria-hidden="true" d="M0,0h41v11h-41Z" pointer-events="none" opacity="1"/><g><g class="mark-symbol role-legend-symbol" pointer-events="none"><path transform="translate(6,6)" d="M5,0A5,5,0,1,1,-5,0A5,5,0,1,1,5,0" fill="#54a24b" stroke-width="1.5" opacity="1"/></g><g class="mark-text role-legend-label" pointer-events="none"><text text-anchor="start" transform="translate(16,9)" font-family="sans-serif" font-size="10px" fill="#000" opacity="1">x22</text></g></g><path class="foreground" aria-hidden="true" d="" pointer-events="none" display="none"/></g><g transform="translate(0,65)"><path class="background" aria-hidden="true" d="M0,0h41v11h-41Z" pointer-events="none" opacity="1"/><g><g class="mark-symbol role-legend-symbol" pointer-events="none"><path transform="translate(6,6)" d="M5,0A5,5,0,1,1,-5,0A5,5,0,1,1,5,0" fill="#eeca3b" stroke-width="1.5" opacity="1"/></g><g class="mark-text role-legend-label" pointer-events="none"><text text-anchor="start" transform="translate(16,9)" font-family="sans-serif" font-size="10px" fill="#000" opacity="1">x29</text></g></g><path class="foreground" aria-hidden="true" d="" pointer-events="none" display="none"/></g></g></g><path class="foreground" aria-hidden="true" d="" pointer-events="none" display="none"/></g></g><g class="mark-text role-legend-title" pointer-events="none"><text text-anchor="start" transform="translate(0,13)" font-family="sans-serif" font-size="16px" font-weight="bold" fill="#000" opacity="1">variable</text></g></g><path class="foreground" aria-hidden="true" d="" pointer-events="none" display="none"/></g></g></g><path class="foreground" aria-hidden="true" d="" display="none"/></g></g></g></svg>
