<?xml version="1.0" encoding="utf-8"?>
<!DOCTYPE svg PUBLIC "-//W3C//DTD SVG 1.1//EN" "http://www.w3.org/Graphics/SVG/1.1/DTD/svg11.dtd">
<svg xmlns="http://www.w3.org/2000/svg" xmlns:xlink="http://www.w3.org/1999/xlink" version="1.1" class="marks" width="969" height="280" viewBox="0 0 969 280"><rect width="969" height="280" fill="white"/><g fill="none" stroke-miterlimit="10" transform="translate(54,12)"><g class="mark-group role-frame root" role="graphics-object" aria-roledescription="group mark container"><g transform="translate(0,0)"><path class="background" aria-hidden="true" d="M0.5,0.5h820v200h-820Z" stroke="#ddd"/><g><g class="mark-group role-axis" aria-hidden="true"><g transform="translate(0.5,0.5)"><path class="background" aria-hidden="true" d="M0,0h0v0h0Z" pointer-events="none"/><g><g class="mark-rule role-axis-grid" pointer-events="none"><line transform="translate(0,200)" x2="820" y2="0" stroke="#ddd" stroke-width="1" opacity="1"/><line transform="translate(0,160)" x2="820" y2="0" stroke="#ddd" stroke-width="1" opacity="1"/><line transform="translate(0,120)" x2="820" y2="0" stroke="#ddd" stroke-width="1" opacity="1"/><line transform="translate(0,80)" x2="820" y2="0" stroke="#ddd" stroke-width="1" opacity="1"/><line transform="translate(0,40)" x2="820" y2="0" stroke="#ddd" stroke-width="1" opacity="1"/><line transform="translate(0,0)" x2="820" y2="0" stroke="#ddd" stroke-width="1" opacity="1"/></g></g><path class="foreground" aria-hidden="true" d="" pointer-events="none" display="none"/></g></g><g class="mark-group role-axis" role="graphics-symbol" aria-roledescription="axis" aria-label="X-axis titled 'year' for a discrete scale with 41 values: 2020, 2021, 2022, 2023, 2024, ending with 2060"><g transform="translate(0.5,200.5)"><path class="background" aria-hidden="true" d="M0,0h0v0h0Z" pointer-events="none"/><g><g class="mark-rule role-axis-tick" pointer-events="none"><line transform="translate(10,0)" x2="0" y2="5" stroke="#888" stroke-width="1" opacity="1"/><line transform="translate(30,0)" x2="0" y2="5" stroke="#888" stroke-width="1" opacity="1"/><line transform="translate(50,0)" x2="0" y2="5" stroke="#888" stroke-width="1" opacity="1"/><line transform="translate(70,0)" x2="0" y2="5" stroke="#888" stroke-width="1" opacity="1"/><line transform="translate(90,0)" x2="0" y2="5" stroke="#888" stroke-width="1" opacity="1"/><line transform="translate(110,0)" x2="0" y2="5" stroke="#888" stroke-width="1" opacity="1"/><line transform="translate(130,0)" x2="0" y2="5" stroke="#888" stroke-width="1" opacity="1"/><line transform="translate(150,0)" x2="0" y2="5" stroke="#888" stroke-width="1" opacity="1"/><line transform="translate(170,0)" x2="0" y2="5" stroke="#888" stroke-width="1" opacity="1"/><line transform="translate(190,0)" x2="0" y2="5" stroke="#888" stroke-width="1" opacity="1"/><line transform="translate(210,0)" x2="0" y2="5" stroke="#888" stroke-width="1" opacity="1"/><line transform="translate(230,0)" x2="0" y2="5" stroke="#888" stroke-width="1" opacity="1"/><line transform="translate(250,0)" x2="0" y2="5" stroke="#888" stroke-width="1" opacity="1"/><line transform="translate(270,0)" x2="0" y2="5" stroke="#888" stroke-width="1" opacity="1"/><line transform="translate(290,0)" x2="0" y2="5" stroke="#888" stroke-width="1" opacity="1"/><line transform="translate(310,0)" x2="0" y2="5" stroke="#888" stroke-width="1" opacity="1"/><line transform="translate(330,0)" x2="0" y2="5" stroke="#888" stroke-width="1" opacity="1"/><line transform="translate(350,0)" x2="0" y2="5" stroke="#888" stroke-width="1" opacity="1"/><line transform="translate(370,0)" x2="0" y2="5" stroke="#888" stroke-width="1" opacity="1"/><line transform="translate(390,0)" x2="0" y2="5" stroke="#888" stroke-width="1" opacity="1"/><line transform="translate(410,0)" x2="0" y2="5" stroke="#888" stroke-width="1" opacity="1"/><line transform="translate(430,0)" x2="0" y2="5" stroke="#888" stroke-width="1" opacity="1"/><line transform="translate(450,0)" x2="0" y2="5" stroke="#888" stroke-width="1" opacity="1"/><line transform="translate(470,0)" x2="0" y2="5" stroke="#888" stroke-width="1" opacity="1"/><line transform="translate(490,0)" x2="0" y2="5" stroke="#888" stroke-width="1" opacity="1"/><line transform="translate(510,0)" x2="0" y2="5" stroke="#888" stroke-width="1" opacity="1"/><line transform="translate(530,0)" x2="0" y2="5" stroke="#888" stroke-width="1" opacity="1"/><line transform="translate(550,0)" x2="0" y2="5" stroke="#888" stroke-width="1" opacity="1"/><line transform="translate(570,0)" x2="0" y2="5" stroke="#888" stroke-width="1" opacity="1"/><line transform="translate(590,0)" x2="0" y2="5" stroke="#888" stroke-width="1" opacity="1"/><line transform="translate(610,0)" x2="0" y2="5" stroke="#888" stroke-width="1" opacity="1"/><line transform="translate(630,0)" x2="0" y2="5" stroke="#888" stroke-width="1" opacity="1"/><line transform="translate(650,0)" x2="0" y2="5" stroke="#888" stroke-width="1" opacity="1"/><line transform="translate(670,0)" x2="0" y2="5" stroke="#888" stroke-width="1" opacity="1"/><line transform="translate(690,0)" x2="0" y2="5" stroke="#888" stroke-width="1" opacity="1"/><line transform="translate(710,0)" x2="0" y2="5" stroke="#888" stroke-width="1" opacity="1"/><line transform="translate(730,0)" x2="0" y2="5" stroke="#888" stroke-width="1" opacity="1"/><line transform="translate(750,0)" x2="0" y2="5" stroke="#888" stroke-width="1" opacity="1"/><line transform="translate(770,0)" x2="0" y2="5" stroke="#888" stroke-width="1" opacity="1"/><line transform="translate(790,0)" x2="0" y2="5" stroke="#888" stroke-width="1" opacity="1"/><line transform="translate(810,0)" x2="0" y2="5" stroke="#888" stroke-width="1" opacity="1"/></g><g class="mark-text role-axis-label" pointer-events="none"><text text-anchor="end" transform="translate(10,7) rotate(270) translate(0,4)" font-family="sans-serif" font-size="14px" fill="#000" opacity="1">2020</text><text text-anchor="end" transform="translate(30,7) rotate(270) translate(0,4)" font-family="sans-serif" font-size="14px" fill="#000" opacity="1">2021</text><text text-anchor="end" transform="translate(50,7) rotate(270) translate(0,4)" font-family="sans-serif" font-size="14px" fill="#000" opacity="1">2022</text><text text-anchor="end" transform="translate(70,7) rotate(270) translate(0,4)" font-family="sans-serif" font-size="14px" fill="#000" opacity="1">2023</text><text text-anchor="end" transform="translate(90,7) rotate(270) translate(0,4)" font-family="sans-serif" font-size="14px" fill="#000" opacity="1">2024</text><text text-anchor="end" transform="translate(110,7) rotate(270) translate(0,4)" font-family="sans-serif" font-size="14px" fill="#000" opacity="1">2025</text><text text-anchor="end" transform="translate(130,7) rotate(270) translate(0,4)" font-family="sans-serif" font-size="14px" fill="#000" opacity="1">2026</text><text text-anchor="end" transform="translate(150,7) rotate(270) translate(0,4)" font-family="sans-serif" font-size="14px" fill="#000" opacity="1">2027</text><text text-anchor="end" transform="translate(170,7) rotate(270) translate(0,4)" font-family="sans-serif" font-size="14px" fill="#000" opacity="1">2028</text><text text-anchor="end" transform="translate(190,7) rotate(270) translate(0,4)" font-family="sans-serif" font-size="14px" fill="#000" opacity="1">2029</text><text text-anchor="end" transform="translate(210,7) rotate(270) translate(0,4)" font-family="sans-serif" font-size="14px" fill="#000" opacity="1">2030</text><text text-anchor="end" transform="translate(230,7) rotate(270) translate(0,4)" font-family="sans-serif" font-size="14px" fill="#000" opacity="1">2031</text><text text-anchor="end" transform="translate(250,7) rotate(270) translate(0,4)" font-family="sans-serif" font-size="14px" fill="#000" opacity="1">2032</text><text text-anchor="end" transform="translate(270,7) rotate(270) translate(0,4)" font-family="sans-serif" font-size="14px" fill="#000" opacity="1">2033</text><text text-anchor="end" transform="translate(290,7) rotate(270) translate(0,4)" font-family="sans-serif" font-size="14px" fill="#000" opacity="1">2034</text><text text-anchor="end" transform="translate(310,7) rotate(270) translate(0,4)" font-family="sans-serif" font-size="14px" fill="#000" opacity="1">2035</text><text text-anchor="end" transform="translate(330,7) rotate(270) translate(0,4)" font-family="sans-serif" font-size="14px" fill="#000" opacity="1">2036</text><text text-anchor="end" transform="translate(350,7) rotate(270) translate(0,4)" font-family="sans-serif" font-size="14px" fill="#000" opacity="1">2037</text><text text-anchor="end" transform="translate(370,7) rotate(270) translate(0,4)" font-family="sans-serif" font-size="14px" fill="#000" opacity="1">2038</text><text text-anchor="end" transform="translate(390,7) rotate(270) translate(0,4)" font-family="sans-serif" font-size="14px" fill="#000" opacity="1">2039</text><text text-anchor="end" transform="translate(410,7) rotate(270) translate(0,4)" font-family="sans-serif" font-size="14px" fill="#000" opacity="1">2040</text><text text-anchor="end" transform="translate(430,7) rotate(270) translate(0,4)" font-family="sans-serif" font-size="14px" fill="#000" opacity="1">2041</text><text text-anchor="end" transform="translate(450,7) rotate(270) translate(0,4)" font-family="sans-serif" font-size="14px" fill="#000" opacity="1">2042</text><text text-anchor="end" transform="translate(470,7) rotate(270) translate(0,4)" font-family="sans-serif" font-size="14px" fill="#000" opacity="1">2043</text><text text-anchor="end" transform="translate(490,7) rotate(270) translate(0,4)" font-family="sans-serif" font-size="14px" fill="#000" opacity="1">2044</text><text text-anchor="end" transform="translate(510,7) rotate(270) translate(0,4)" font-family="sans-serif" font-size="14px" fill="#000" opacity="1">2045</text><text text-anchor="end" transform="translate(530,7) rotate(270) translate(0,4)" font-family="sans-serif" font-size="14px" fill="#000" opacity="1">2046</text><text text-anchor="end" transform="translate(550,7) rotate(270) translate(0,4)" font-family="sans-serif" font-size="14px" fill="#000" opacity="1">2047</text><text text-anchor="end" transform="translate(570,7) rotate(270) translate(0,4)" font-family="sans-serif" font-size="14px" fill="#000" opacity="1">2048</text><text text-anchor="end" transform="translate(590,7) rotate(270) translate(0,4)" font-family="sans-serif" font-size="14px" fill="#000" opacity="1">2049</text><text text-anchor="end" transform="translate(610,7) rotate(270) translate(0,4)" font-family="sans-serif" font-size="14px" fill="#000" opacity="1">2050</text><text text-anchor="end" transform="translate(630,7) rotate(270) translate(0,4)" font-family="sans-serif" font-size="14px" fill="#000" opacity="1">2051</text><text text-anchor="end" transform="translate(650,7) rotate(270) translate(0,4)" font-family="sans-serif" font-size="14px" fill="#000" opacity="1">2052</text><text text-anchor="end" transform="translate(670,7) rotate(270) translate(0,4)" font-family="sans-serif" font-size="14px" fill="#000" opacity="1">2053</text><text text-anchor="end" transform="translate(690,7) rotate(270) translate(0,4)" font-family="sans-serif" font-size="14px" fill="#000" opacity="1">2054</text><text text-anchor="end" transform="translate(710,7) rotate(270) translate(0,4)" font-family="sans-serif" font-size="14px" fill="#000" opacity="1">2055</text><text text-anchor="end" transform="translate(730,7) rotate(270) translate(0,4)" font-family="sans-serif" font-size="14px" fill="#000" opacity="1">2056</text><text text-anchor="end" transform="translate(750,7) rotate(270) translate(0,4)" font-family="sans-serif" font-size="14px" fill="#000" opacity="1">2057</text><text text-anchor="end" transform="translate(770,7) rotate(270) translate(0,4)" font-family="sans-serif" font-size="14px" fill="#000" opacity="1">2058</text><text text-anchor="end" transform="translate(790,7) rotate(270) translate(0,4)" font-family="sans-serif" font-size="14px" fill="#000" opacity="1">2059</text><text text-anchor="end" transform="translate(810,7) rotate(270) translate(0,4)" font-family="sans-serif" font-size="14px" fill="#000" opacity="1">2060</text></g><g class="mark-rule role-axis-domain" pointer-events="none"><line transform="translate(0,0)" x2="820" y2="0" stroke="#888" stroke-width="1" opacity="1"/></g><g class="mark-text role-axis-title" pointer-events="none"><text text-anchor="middle" transform="translate(410,60)" font-family="sans-serif" font-size="16px" font-weight="bold" fill="#000" opacity="1">year</text></g></g><path class="foreground" aria-hidden="true" d="" pointer-events="none" display="none"/></g></g><g class="mark-group role-axis" role="graphics-symbol" aria-roledescription="axis" aria-label="Y-axis titled 'Circularity ($/$)' for a linear scale with values from 0.0 to 1.0"><g transform="translate(0.5,0.5)"><path class="background" aria-hidden="true" d="M0,0h0v0h0Z" pointer-events="none"/><g><g class="mark-rule role-axis-tick" pointer-events="none"><line transform="translate(0,200)" x2="-5" y2="0" stroke="#888" stroke-width="1" opacity="1"/><line transform="translate(0,160)" x2="-5" y2="0" stroke="#888" stroke-width="1" opacity="1"/><line transform="translate(0,120)" x2="-5" y2="0" stroke="#888" stroke-width="1" opacity="1"/><line transform="translate(0,80)" x2="-5" y2="0" stroke="#888" stroke-width="1" opacity="1"/><line transform="translate(0,40)" x2="-5" y2="0" stroke="#888" stroke-width="1" opacity="1"/><line transform="translate(0,0)" x2="-5" y2="0" stroke="#888" stroke-width="1" opacity="1"/></g><g class="mark-text role-axis-label" pointer-events="none"><text text-anchor="end" transform="translate(-7,204)" font-family="sans-serif" font-size="14px" fill="#000" opacity="1">0.0</text><text text-anchor="end" transform="translate(-7,164)" font-family="sans-serif" font-size="14px" fill="#000" opacity="1">0.2</text><text text-anchor="end" transform="translate(-7,124)" font-family="sans-serif" font-size="14px" fill="#000" opacity="1">0.4</text><text text-anchor="end" transform="translate(-7,84)" font-family="sans-serif" font-size="14px" fill="#000" opacity="1">0.6</text><text text-anchor="end" transform="translate(-7,43.99999999999999)" font-family="sans-serif" font-size="14px" fill="#000" opacity="1">0.8</text><text text-anchor="end" transform="translate(-7,4)" font-family="sans-serif" font-size="14px" fill="#000" opacity="1">1.0</text></g><g class="mark-rule role-axis-domain" pointer-events="none"><line transform="translate(0,200)" x2="0" y2="-200" stroke="#888" stroke-width="1" opacity="1"/></g><g class="mark-text role-axis-title" pointer-events="none"><text text-anchor="middle" transform="translate(-33,100) rotate(-90) translate(0,-3)" font-family="sans-serif" font-size="16px" font-weight="bold" fill="#000" opacity="1">Circularity ($/$)</text></g></g><path class="foreground" aria-hidden="true" d="" pointer-events="none" display="none"/></g></g><g class="mark-group role-scope pathgroup" role="graphics-object" aria-roledescription="group mark container"><g transform="translate(0,0)"><path class="background" aria-hidden="true" d="M0,0h820v200h-820Z"/><g><g class="mark-area role-mark marks" role="graphics-object" aria-roledescription="area mark container"><path aria-label="year: 2020; Circularity ($/$): 0; variable: x22" role="graphics-symbol" aria-roledescription="area mark" d="M10,200L30,200L50,200L70,200L90,200L110,200L130,200L150,200L170,200L190,200L210,200L230,200L250,200L270,200L290,200L310,18.770154720555766L330,18.770154720555766L350,18.770154720555766L370,18.770154720555766L390,18.770154720555766L410,18.770154720555766L430,18.770154720555766L450,18.770154720555766L470,18.770154720555766L490,18.770154720555766L510,18.770154720555766L530,18.770154720555766L550,18.770154720555766L570,18.770154720555766L590,18.770154720555766L610,198.23831369788246L630,198.23831369788246L650,198.23831369788246L670,198.23831369788246L690,198.23831369788246L710,181.7303575040546L730,181.7303575040546L750,181.7303575040546L770,181.7303575040546L790,181.7303575040546L810,181.7303575040546L810,200L790,200L770,200L750,200L730,200L710,200L690,200L670,200L650,200L630,200L610,200L590,200L570,200L550,200L530,200L510,200L490,200L470,200L450,200L430,200L410,200L390,200L370,200L350,200L330,200L310,200L290,200L270,200L250,200L230,200L210,200L190,200L170,200L150,200L130,200L110,200L90,200L70,200L50,200L30,200L10,200Z" fill="#54a24b"/></g></g><path class="foreground" aria-hidden="true" d="" display="none"/></g><g transform="translate(0,0)"><path class="background" aria-hidden="true" d="M0,0h820v200h-820Z"/><g><g class="mark-area role-mark marks" role="graphics-object" aria-roledescription="area mark container"><path aria-label="year: 2020; Circularity ($/$): 0; variable: x144" role="graphics-symbol" aria-roledescription="area mark" d="M10,200L30,200L50,200L70,200L90,200L110,199.99800000000002L130,199.99800000000002L150,199.99800000000002L170,199.99800000000002L190,199.99800000000002L210,199.99800000000002L230,199.99800000000002L250,199.99800000000002L270,199.99800000000002L290,199.99800000000002L310,4.440892098500626e-14L330,4.440892098500626e-14L350,4.440892098500626e-14L370,4.440892098500626e-14L390,4.440892098500626e-14L410,2.220446049250313e-14L430,2.220446049250313e-14L450,2.220446049250313e-14L470,2.220446049250313e-14L490,2.220446049250313e-14L510,2.220446049250313e-14L530,2.220446049250313e-14L550,2.220446049250313e-14L570,2.220446049250313e-14L590,2.220446049250313e-14L610,0L630,0L650,0L670,0L690,0L710,2.220446049250313e-14L730,2.220446049250313e-14L750,2.220446049250313e-14L770,2.220446049250313e-14L790,2.220446049250313e-14L810,2.220446049250313e-14L810,168.07747728071413L790,168.07747728071413L770,168.07747728071413L750,168.07747728071413L730,168.07747728071413L710,168.07747728071413L690,185.1038161335526L670,185.1038161335526L650,185.1038161335526L630,185.1038161335526L610,185.1038161335526L590,2.220446049250313e-14L570,2.220446049250313e-14L550,2.220446049250313e-14L530,2.220446049250313e-14L510,2.220446049250313e-14L490,2.220446049250313e-14L470,2.220446049250313e-14L450,2.220446049250313e-14L430,2.220446049250313e-14L410,2.220446049250313e-14L390,4.440892098500626e-14L370,4.440892098500626e-14L350,4.440892098500626e-14L330,4.440892098500626e-14L310,4.440892098500626e-14L290,199.99800000000002L270,199.99800000000002L250,199.99800000000002L230,199.99800000000002L210,199.99800000000002L190,199.99800000000002L170,199.99800000000002L150,199.99800000000002L130,199.99800000000002L110,199.99800000000002L90,200L70,200L50,200L30,200L10,200Z" fill="#f58518"/></g></g><path class="foreground" aria-hidden="true" d="" display="none"/></g><g transform="translate(0,0)"><path class="background" aria-hidden="true" d="M0,0h820v200h-820Z"/><g><g class="mark-area role-mark marks" role="graphics-object" aria-roledescription="area mark container"><path aria-label="year: 2020; Circularity ($/$): 0; variable: x177" role="graphics-symbol" aria-roledescription="area mark" d="M10,200L30,200L50,200L70,200L90,200L110,199.99800000000002L130,199.99800000000002L150,199.99800000000002L170,199.99800000000002L190,199.99800000000002L210,199.99800000000002L230,199.99800000000002L250,199.99800000000002L270,199.99800000000002L290,199.99800000000002L310,4.440892098500626e-14L330,4.440892098500626e-14L350,4.440892098500626e-14L370,4.440892098500626e-14L390,4.440892098500626e-14L410,2.220446049250313e-14L430,2.220446049250313e-14L450,2.220446049250313e-14L470,2.220446049250313e-14L490,2.220446049250313e-14L510,2.220446049250313e-14L530,2.220446049250313e-14L550,2.220446049250313e-14L570,2.220446049250313e-14L590,2.220446049250313e-14L610,185.1038161335526L630,185.1038161335526L650,185.1038161335526L670,185.1038161335526L690,185.1038161335526L710,168.07747728071413L730,168.07747728071413L750,168.07747728071413L770,168.07747728071413L790,168.07747728071413L810,168.07747728071413L810,181.7303575040546L790,181.7303575040546L770,181.7303575040546L750,181.7303575040546L730,181.7303575040546L710,181.7303575040546L690,198.23831369788246L670,198.23831369788246L650,198.23831369788246L630,198.23831369788246L610,198.23831369788246L590,18.770154720555766L570,18.770154720555766L550,18.770154720555766L530,18.770154720555766L510,18.770154720555766L490,18.770154720555766L470,18.770154720555766L450,18.770154720555766L430,18.770154720555766L410,18.770154720555766L390,18.770154720555766L370,18.770154720555766L350,18.770154720555766L330,18.770154720555766L310,18.770154720555766L290,199.99800000000002L270,199.99800000000002L250,199.99800000000002L230,199.99800000000002L210,199.99800000000002L190,199.99800000000002L170,199.99800000000002L150,199.99800000000002L130,199.99800000000002L110,199.99800000000002L90,200L70,200L50,200L30,200L10,200Z" fill="#e45756"/></g></g><path class="foreground" aria-hidden="true" d="" display="none"/></g><g transform="translate(0,0)"><path class="background" aria-hidden="true" d="M0,0h820v200h-820Z"/><g><g class="mark-area role-mark marks" role="graphics-object" aria-roledescription="area mark container"><path aria-label="year: 2020; Circularity ($/$): 0; variable: x178" role="graphics-symbol" aria-roledescription="area mark" d="M10,200L30,200L50,200L70,200L90,200L110,199.99800000000002L130,199.99800000000002L150,199.99800000000002L170,199.99800000000002L190,199.99800000000002L210,199.99800000000002L230,199.99800000000002L250,199.99800000000002L270,199.99800000000002L290,199.99800000000002L310,18.770154720555766L330,18.770154720555766L350,18.770154720555766L370,18.770154720555766L390,18.770154720555766L410,18.770154720555766L430,18.770154720555766L450,18.770154720555766L470,18.770154720555766L490,18.770154720555766L510,18.770154720555766L530,18.770154720555766L550,18.770154720555766L570,18.770154720555766L590,18.770154720555766L610,198.23831369788246L630,198.23831369788246L650,198.23831369788246L670,198.23831369788246L690,198.23831369788246L710,181.7303575040546L730,181.7303575040546L750,181.7303575040546L770,181.7303575040546L790,181.7303575040546L810,181.7303575040546L810,181.7303575040546L790,181.7303575040546L770,181.7303575040546L750,181.7303575040546L730,181.7303575040546L710,181.7303575040546L690,198.23831369788246L670,198.23831369788246L650,198.23831369788246L630,198.23831369788246L610,198.23831369788246L590,18.770154720555766L570,18.770154720555766L550,18.770154720555766L530,18.770154720555766L510,18.770154720555766L490,18.770154720555766L470,18.770154720555766L450,18.770154720555766L430,18.770154720555766L410,18.770154720555766L390,18.770154720555766L370,18.770154720555766L350,18.770154720555766L330,18.770154720555766L310,18.770154720555766L290,200L270,200L250,200L230,200L210,200L190,200L170,200L150,200L130,200L110,200L90,200L70,200L50,200L30,200L10,200Z" fill="#72b7b2"/></g></g><path class="foreground" aria-hidden="true" d="" display="none"/></g><g transform="translate(0,0)"><path class="background" aria-hidden="true" d="M0,0h820v200h-820Z"/><g><g class="mark-area role-mark marks" role="graphics-object" aria-roledescription="area mark container"><path aria-label="year: 2020; Circularity ($/$): 0.15; variable: Conv" role="graphics-symbol" aria-roledescription="area mark" d="M10,170L30,170L50,170L70,170L90,170L110,199.99800000000002L130,199.99800000000002L150,199.99800000000002L170,199.99800000000002L190,199.99800000000002L210,199.99800000000002L230,199.99800000000002L250,199.99800000000002L270,199.99800000000002L290,199.99800000000002L310,4.440892098500626e-14L330,4.440892098500626e-14L350,4.440892098500626e-14L370,4.440892098500626e-14L390,4.440892098500626e-14L410,2.220446049250313e-14L430,2.220446049250313e-14L450,2.220446049250313e-14L470,2.220446049250313e-14L490,2.220446049250313e-14L510,2.220446049250313e-14L530,2.220446049250313e-14L550,2.220446049250313e-14L570,2.220446049250313e-14L590,2.220446049250313e-14L610,0L630,0L650,0L670,0L690,0L710,2.220446049250313e-14L730,2.220446049250313e-14L750,2.220446049250313e-14L770,2.220446049250313e-14L790,2.220446049250313e-14L810,2.220446049250313e-14L810,2.220446049250313e-14L790,2.220446049250313e-14L770,2.220446049250313e-14L750,2.220446049250313e-14L730,2.220446049250313e-14L710,2.220446049250313e-14L690,0L670,0L650,0L630,0L610,0L590,2.220446049250313e-14L570,2.220446049250313e-14L550,2.220446049250313e-14L530,2.220446049250313e-14L510,2.220446049250313e-14L490,2.220446049250313e-14L470,2.220446049250313e-14L450,2.220446049250313e-14L430,2.220446049250313e-14L410,2.220446049250313e-14L390,4.440892098500626e-14L370,4.440892098500626e-14L350,4.440892098500626e-14L330,4.440892098500626e-14L310,4.440892098500626e-14L290,199.99800000000002L270,199.99800000000002L250,199.99800000000002L230,199.99800000000002L210,199.99800000000002L190,199.99800000000002L170,199.99800000000002L150,199.99800000000002L130,199.99800000000002L110,199.99800000000002L90,200L70,200L50,200L30,200L10,200Z" fill="#4c78a8"/></g></g><path class="foreground" aria-hidden="true" d="" display="none"/></g></g><g class="mark-group role-legend" role="graphics-symbol" aria-roledescription="legend" aria-label="Symbol legend titled 'variable' for fill color with 5 values: Conv, x144, x177, x178, x22"><g transform="translate(838,0)"><path class="background" aria-hidden="true" d="M0,0h72v84h-72Z" pointer-events="none"/><g><g class="mark-group role-legend-entry"><g transform="translate(0,21)"><path class="background" aria-hidden="true" d="M0,0h0v0h0Z" pointer-events="none"/><g><g class="mark-group role-scope" role="graphics-object" aria-roledescription="group mark container"><g transform="translate(0,0)"><path class="background" aria-hidden="true" d="M0,0h41v11h-41Z" pointer-events="none" opacity="1"/><g><g class="mark-symbol role-legend-symbol" pointer-events="none"><path transform="translate(6,6)" d="M5,0A5,5,0,1,1,-5,0A5,5,0,1,1,5,0" fill="#4c78a8" stroke-width="1.5" opacity="1"/></g><g class="mark-text role-legend-label" pointer-events="none"><text text-anchor="start" transform="translate(16,9)" font-family="sans-serif" font-size="10px" fill="#000" opacity="1">Conv</text></g></g><path class="foreground" aria-hidden="true" d="" pointer-events="none" display="none"/></g><g transform="translate(0,13)"><path class="background" aria-hidden="true" d="M0,0h41v11h-41Z" pointer-events="none" opacity="1"/><g><g class="mark-symbol role-legend-symbol" pointer-events="none"><path transform="translate(6,6)" d="M5,0A5,5,0,1,1,-5,0A5,5,0,1,1,5,0" fill="#f58518" stroke-width="1.5" opacity="1"/></g><g class="mark-text role-legend-label" pointer-events="none"><text text-anchor="start" transform="translate(16,9)" font-family="sans-serif" font-size="10px" fill="#000" opacity="1">x144</text></g></g><path class="foreground" aria-hidden="true" d="" pointer-events="none" display="none"/></g><g transform="translate(0,26)"><path class="background" aria-hidden="true" d="M0,0h41v11h-41Z" pointer-events="none" opacity="1"/><g><g class="mark-symbol role-legend-symbol" pointer-events="none"><path transform="translate(6,6)" d="M5,0A5,5,0,1,1,-5,0A5,5,0,1,1,5,0" fill="#e45756" stroke-width="1.5" opacity="1"/></g><g class="mark-text role-legend-label" pointer-events="none"><text text-anchor="start" transform="translate(16,9)" font-family="sans-serif" font-size="10px" fill="#000" opacity="1">x177</text></g></g><path class="foreground" aria-hidden="true" d="" pointer-events="none" display="none"/></g><g transform="translate(0,39)"><path class="background" aria-hidden="true" d="M0,0h41v11h-41Z" pointer-events="none" opacity="1"/><g><g class="mark-symbol role-legend-symbol" pointer-events="none"><path transform="translate(6,6)" d="M5,0A5,5,0,1,1,-5,0A5,5,0,1,1,5,0" fill="#72b7b2" stroke-width="1.5" opacity="1"/></g><g class="mark-text role-legend-label" pointer-events="none"><text text-anchor="start" transform="translate(16,9)" font-family="sans-serif" font-size="10px" fill="#000" opacity="1">x178</text></g></g><path class="foreground" aria-hidden="true" d="" pointer-events="none" display="none"/></g><g transform="translate(0,52)"><path class="background" aria-hidden="true" d="M0,0h41v11h-41Z" pointer-events="none" opacity="1"/><g><g class="mark-symbol role-legend-symbol" pointer-events="none"><path transform="translate(6,6)" d="M5,0A5,5,0,1,1,-5,0A5,5,0,1,1,5,0" fill="#54a24b" stroke-width="1.5" opacity="1"/></g><g class="mark-text role-legend-label" pointer-events="none"><text text-anchor="start" transform="translate(16,9)" font-family="sans-serif" font-size="10px" fill="#000" opacity="1">x22</text></g></g><path class="foreground" aria-hidden="true" d="" pointer-events="none" display="none"/></g></g></g><path class="foreground" aria-hidden="true" d="" pointer-events="none" display="none"/></g></g><g class="mark-text role-legend-title" pointer-events="none"><text text-anchor="start" transform="translate(0,13)" font-family="sans-serif" font-size="16px" font-weight="bold" fill="#000" opacity="1">variable</text></g></g><path class="foreground" aria-hidden="true" d="" pointer-events="none" display="none"/></g></g></g><path class="foreground" aria-hidden="true" d="" display="none"/></g></g></g></svg>
