<?xml version="1.0" encoding="utf-8"?>
<!DOCTYPE svg PUBLIC "-//W3C//DTD SVG 1.1//EN" "http://www.w3.org/Graphics/SVG/1.1/DTD/svg11.dtd">
<svg xmlns="http://www.w3.org/2000/svg" xmlns:xlink="http://www.w3.org/1999/xlink" version="1.1" class="marks" width="851" height="261" viewBox="0 0 851 261"><rect width="851" height="261" fill="white"/><g fill="none" stroke-miterlimit="10" transform="translate(33,10)"><g class="mark-group role-frame root" role="graphics-object" aria-roledescription="group mark container"><g transform="translate(0,0)"><path class="background" aria-hidden="true" d="M0.5,0.5h720v200h-720Z" stroke="#ddd"/><g><g class="mark-group role-axis" aria-hidden="true"><g transform="translate(0.5,0.5)"><path class="background" aria-hidden="true" d="M0,0h0v0h0Z" pointer-events="none"/><g><g class="mark-rule role-axis-grid" pointer-events="none"><line transform="translate(0,200)" x2="720" y2="0" stroke="#ddd" stroke-width="1" opacity="1"/><line transform="translate(0,150)" x2="720" y2="0" stroke="#ddd" stroke-width="1" opacity="1"/><line transform="translate(0,100)" x2="720" y2="0" stroke="#ddd" stroke-width="1" opacity="1"/><line transform="translate(0,50)" x2="720" y2="0" stroke="#ddd" stroke-width="1" opacity="1"/><line transform="translate(0,0)" x2="720" y2="0" stroke="#ddd" stroke-width="1" opacity="1"/></g></g><path class="foreground" aria-hidden="true" d="" pointer-events="none" display="none"/></g></g><g class="mark-group role-axis" role="graphics-symbol" aria-roledescription="axis" aria-label="X-axis titled 'year' for a discrete scale with 36 values: 2020, 2021, 2022, 2023, 2024, ending with 2055"><g transform="translate(0.5,200.5)"><path class="background" aria-hidden="true" d="M0,0h0v0h0Z" pointer-events="none"/><g><g class="mark-rule role-axis-tick" pointer-events="none"><line transform="translate(10,0)" x2="0" y2="5" stroke="#888" stroke-width="1" opacity="1"/><line transform="translate(30,0)" x2="0" y2="5" stroke="#888" stroke-width="1" opacity="1"/><line transform="translate(50,0)" x2="0" y2="5" stroke="#888" stroke-width="1" opacity="1"/><line transform="translate(70,0)" x2="0" y2="5" stroke="#888" stroke-width="1" opacity="1"/><line transform="translate(90,0)" x2="0" y2="5" stroke="#888" stroke-width="1" opacity="1"/><line transform="translate(110,0)" x2="0" y2="5" stroke="#888" stroke-width="1" opacity="1"/><line transform="translate(130,0)" x2="0" y2="5" stroke="#888" stroke-width="1" opacity="1"/><line transform="translate(150,0)" x2="0" y2="5" stroke="#888" stroke-width="1" opacity="1"/><line transform="translate(170,0)" x2="0" y2="5" stroke="#888" stroke-width="1" opacity="1"/><line transform="translate(190,0)" x2="0" y2="5" stroke="#888" stroke-width="1" opacity="1"/><line transform="translate(210,0)" x2="0" y2="5" stroke="#888" stroke-width="1" opacity="1"/><line transform="translate(230,0)" x2="0" y2="5" stroke="#888" stroke-width="1" opacity="1"/><line transform="translate(250,0)" x2="0" y2="5" stroke="#888" stroke-width="1" opacity="1"/><line transform="translate(270,0)" x2="0" y2="5" stroke="#888" stroke-width="1" opacity="1"/><line transform="translate(290,0)" x2="0" y2="5" stroke="#888" stroke-width="1" opacity="1"/><line transform="translate(310,0)" x2="0" y2="5" stroke="#888" stroke-width="1" opacity="1"/><line transform="translate(330,0)" x2="0" y2="5" stroke="#888" stroke-width="1" opacity="1"/><line transform="translate(350,0)" x2="0" y2="5" stroke="#888" stroke-width="1" opacity="1"/><line transform="translate(370,0)" x2="0" y2="5" stroke="#888" stroke-width="1" opacity="1"/><line transform="translate(390,0)" x2="0" y2="5" stroke="#888" stroke-width="1" opacity="1"/><line transform="translate(410,0)" x2="0" y2="5" stroke="#888" stroke-width="1" opacity="1"/><line transform="translate(430,0)" x2="0" y2="5" stroke="#888" stroke-width="1" opacity="1"/><line transform="translate(450,0)" x2="0" y2="5" stroke="#888" stroke-width="1" opacity="1"/><line transform="translate(470,0)" x2="0" y2="5" stroke="#888" stroke-width="1" opacity="1"/><line transform="translate(490,0)" x2="0" y2="5" stroke="#888" stroke-width="1" opacity="1"/><line transform="translate(510,0)" x2="0" y2="5" stroke="#888" stroke-width="1" opacity="1"/><line transform="translate(530,0)" x2="0" y2="5" stroke="#888" stroke-width="1" opacity="1"/><line transform="translate(550,0)" x2="0" y2="5" stroke="#888" stroke-width="1" opacity="1"/><line transform="translate(570,0)" x2="0" y2="5" stroke="#888" stroke-width="1" opacity="1"/><line transform="translate(590,0)" x2="0" y2="5" stroke="#888" stroke-width="1" opacity="1"/><line transform="translate(610,0)" x2="0" y2="5" stroke="#888" stroke-width="1" opacity="1"/><line transform="translate(630,0)" x2="0" y2="5" stroke="#888" stroke-width="1" opacity="1"/><line transform="translate(650,0)" x2="0" y2="5" stroke="#888" stroke-width="1" opacity="1"/><line transform="translate(670,0)" x2="0" y2="5" stroke="#888" stroke-width="1" opacity="1"/><line transform="translate(690,0)" x2="0" y2="5" stroke="#888" stroke-width="1" opacity="1"/><line transform="translate(710,0)" x2="0" y2="5" stroke="#888" stroke-width="1" opacity="1"/></g><g class="mark-text role-axis-label" pointer-events="none"><text text-anchor="end" transform="translate(10,7) rotate(270) translate(0,3)" font-family="sans-serif" font-size="10px" fill="#000" opacity="1">2020</text><text text-anchor="end" transform="translate(30,7) rotate(270) translate(0,3)" font-family="sans-serif" font-size="10px" fill="#000" opacity="1">2021</text><text text-anchor="end" transform="translate(50,7) rotate(270) translate(0,3)" font-family="sans-serif" font-size="10px" fill="#000" opacity="1">2022</text><text text-anchor="end" transform="translate(70,7) rotate(270) translate(0,3)" font-family="sans-serif" font-size="10px" fill="#000" opacity="1">2023</text><text text-anchor="end" transform="translate(90,7) rotate(270) translate(0,3)" font-family="sans-serif" font-size="10px" fill="#000" opacity="1">2024</text><text text-anchor="end" transform="translate(110,7) rotate(270) translate(0,3)" font-family="sans-serif" font-size="10px" fill="#000" opacity="1">2025</text><text text-anchor="end" transform="translate(130,7) rotate(270) translate(0,3)" font-family="sans-serif" font-size="10px" fill="#000" opacity="1">2026</text><text text-anchor="end" transform="translate(150,7) rotate(270) translate(0,3)" font-family="sans-serif" font-size="10px" fill="#000" opacity="1">2027</text><text text-anchor="end" transform="translate(170,7) rotate(270) translate(0,3)" font-family="sans-serif" font-size="10px" fill="#000" opacity="1">2028</text><text text-anchor="end" transform="translate(190,7) rotate(270) translate(0,3)" font-family="sans-serif" font-size="10px" fill="#000" opacity="1">2029</text><text text-anchor="end" transform="translate(210,7) rotate(270) translate(0,3)" font-family="sans-serif" font-size="10px" fill="#000" opacity="1">2030</text><text text-anchor="end" transform="translate(230,7) rotate(270) translate(0,3)" font-family="sans-serif" font-size="10px" fill="#000" opacity="1">2031</text><text text-anchor="end" transform="translate(250,7) rotate(270) translate(0,3)" font-family="sans-serif" font-size="10px" fill="#000" opacity="1">2032</text><text text-anchor="end" transform="translate(270,7) rotate(270) translate(0,3)" font-family="sans-serif" font-size="10px" fill="#000" opacity="1">2033</text><text text-anchor="end" transform="translate(290,7) rotate(270) translate(0,3)" font-family="sans-serif" font-size="10px" fill="#000" opacity="1">2034</text><text text-anchor="end" transform="translate(310,7) rotate(270) translate(0,3)" font-family="sans-serif" font-size="10px" fill="#000" opacity="1">2035</text><text text-anchor="end" transform="translate(330,7) rotate(270) translate(0,3)" font-family="sans-serif" font-size="10px" fill="#000" opacity="1">2036</text><text text-anchor="end" transform="translate(350,7) rotate(270) translate(0,3)" font-family="sans-serif" font-size="10px" fill="#000" opacity="1">2037</text><text text-anchor="end" transform="translate(370,7) rotate(270) translate(0,3)" font-family="sans-serif" font-size="10px" fill="#000" opacity="1">2038</text><text text-anchor="end" transform="translate(390,7) rotate(270) translate(0,3)" font-family="sans-serif" font-size="10px" fill="#000" opacity="1">2039</text><text text-anchor="end" transform="translate(410,7) rotate(270) translate(0,3)" font-family="sans-serif" font-size="10px" fill="#000" opacity="1">2040</text><text text-anchor="end" transform="translate(430,7) rotate(270) translate(0,3)" font-family="sans-serif" font-size="10px" fill="#000" opacity="1">2041</text><text text-anchor="end" transform="translate(450,7) rotate(270) translate(0,3)" font-family="sans-serif" font-size="10px" fill="#000" opacity="1">2042</text><text text-anchor="end" transform="translate(470,7) rotate(270) translate(0,3)" font-family="sans-serif" font-size="10px" fill="#000" opacity="1">2043</text><text text-anchor="end" transform="translate(490,7) rotate(270) translate(0,3)" font-family="sans-serif" font-size="10px" fill="#000" opacity="1">2044</text><text text-anchor="end" transform="translate(510,7) rotate(270) translate(0,3)" font-family="sans-serif" font-size="10px" fill="#000" opacity="1">2045</text><text text-anchor="end" transform="translate(530,7) rotate(270) translate(0,3)" font-family="sans-serif" font-size="10px" fill="#000" opacity="1">2046</text><text text-anchor="end" transform="translate(550,7) rotate(270) translate(0,3)" font-family="sans-serif" font-size="10px" fill="#000" opacity="1">2047</text><text text-anchor="end" transform="translate(570,7) rotate(270) translate(0,3)" font-family="sans-serif" font-size="10px" fill="#000" opacity="1">2048</text><text text-anchor="end" transform="translate(590,7) rotate(270) translate(0,3)" font-family="sans-serif" font-size="10px" fill="#000" opacity="1">2049</text><text text-anchor="end" transform="translate(610,7) rotate(270) translate(0,3)" font-family="sans-serif" font-size="10px" fill="#000" opacity="1">2050</text><text text-anchor="end" transform="translate(630,7) rotate(270) translate(0,3)" font-family="sans-serif" font-size="10px" fill="#000" opacity="1">2051</text><text text-anchor="end" transform="translate(650,7) rotate(270) translate(0,3)" font-family="sans-serif" font-size="10px" fill="#000" opacity="1">2052</text><text text-anchor="end" transform="translate(670,7) rotate(270) translate(0,3)" font-family="sans-serif" font-size="10px" fill="#000" opacity="1">2053</text><text text-anchor="end" transform="translate(690,7) rotate(270) translate(0,3)" font-family="sans-serif" font-size="10px" fill="#000" opacity="1">2054</text><text text-anchor="end" transform="translate(710,7) rotate(270) translate(0,3)" font-family="sans-serif" font-size="10px" fill="#000" opacity="1">2055</text></g><g class="mark-rule role-axis-domain" pointer-events="none"><line transform="translate(0,0)" x2="720" y2="0" stroke="#888" stroke-width="1" opacity="1"/></g><g class="mark-text role-axis-title" pointer-events="none"><text text-anchor="middle" transform="translate(360,44)" font-family="sans-serif" font-size="11px" font-weight="bold" fill="#000" opacity="1">year</text></g></g><path class="foreground" aria-hidden="true" d="" pointer-events="none" display="none"/></g></g><g class="mark-group role-axis" role="graphics-symbol" aria-roledescription="axis" aria-label="Y-axis titled 'CO2' for a linear scale with values from 0 to 8"><g transform="translate(0.5,0.5)"><path class="background" aria-hidden="true" d="M0,0h0v0h0Z" pointer-events="none"/><g><g class="mark-rule role-axis-tick" pointer-events="none"><line transform="translate(0,200)" x2="-5" y2="0" stroke="#888" stroke-width="1" opacity="1"/><line transform="translate(0,150)" x2="-5" y2="0" stroke="#888" stroke-width="1" opacity="1"/><line transform="translate(0,100)" x2="-5" y2="0" stroke="#888" stroke-width="1" opacity="1"/><line transform="translate(0,50)" x2="-5" y2="0" stroke="#888" stroke-width="1" opacity="1"/><line transform="translate(0,0)" x2="-5" y2="0" stroke="#888" stroke-width="1" opacity="1"/></g><g class="mark-text role-axis-label" pointer-events="none"><text text-anchor="end" transform="translate(-7,203)" font-family="sans-serif" font-size="10px" fill="#000" opacity="1">0</text><text text-anchor="end" transform="translate(-7,153)" font-family="sans-serif" font-size="10px" fill="#000" opacity="1">2</text><text text-anchor="end" transform="translate(-7,103)" font-family="sans-serif" font-size="10px" fill="#000" opacity="1">4</text><text text-anchor="end" transform="translate(-7,53)" font-family="sans-serif" font-size="10px" fill="#000" opacity="1">6</text><text text-anchor="end" transform="translate(-7,3)" font-family="sans-serif" font-size="10px" fill="#000" opacity="1">8</text></g><g class="mark-rule role-axis-domain" pointer-events="none"><line transform="translate(0,200)" x2="0" y2="-200" stroke="#888" stroke-width="1" opacity="1"/></g><g class="mark-text role-axis-title" pointer-events="none"><text text-anchor="middle" transform="translate(-17,100) rotate(-90) translate(0,-2)" font-family="sans-serif" font-size="11px" font-weight="bold" fill="#000" opacity="1">CO2</text></g></g><path class="foreground" aria-hidden="true" d="" pointer-events="none" display="none"/></g></g><g class="mark-group role-scope pathgroup" role="graphics-object" aria-roledescription="group mark container"><g transform="translate(0,0)"><path class="background" aria-hidden="true" d="M0,0h720v200h-720Z"/><g><g class="mark-area role-mark marks" role="graphics-object" aria-roledescription="area mark container"><path aria-label="year: 2020; CO2: 8; variable: Conv" role="graphics-symbol" aria-roledescription="area mark" d="M10,0L30,126.03750000000001L50,126.03750000000001L70,126.03750000000001L90,126.03750000000001L110,131.86852507878197L130,131.86852507878197L150,131.86852507878197L170,131.86852507878197L190,131.86852507878197L210,147.81971006836437L230,147.81971006836437L250,147.81971006836437L270,147.81971006836437L290,147.81971006836437L310,162.84563462906223L330,162.84563462906223L350,162.84563462906223L370,162.84563462906223L390,162.84563462906223L410,166.6730618408683L430,166.6730618408683L450,166.6730618408683L470,166.6730618408683L490,166.6730618408683L510,191.04656889803988L530,191.04656889803988L550,191.04656889803988L570,191.04656889803988L590,191.04656889803988L610,191.04656889803988L630,191.04656889803988L650,191.04656889803988L670,191.04656889803988L690,191.04656889803988L710,191.04656889803988L710,191.04656889803988L690,191.04656889803988L670,191.04656889803988L650,191.04656889803988L630,191.04656889803988L610,191.04656889803988L590,191.04656889803988L570,191.04656889803988L550,191.04656889803988L530,191.04656889803988L510,191.04656889803988L490,166.6730618408683L470,166.6730618408683L450,166.6730618408683L430,166.6730618408683L410,166.6730618408683L390,162.84563462906223L370,162.84563462906223L350,162.84563462906223L330,162.84563462906223L310,162.84563462906223L290,147.8197100683644L270,147.8197100683644L250,147.8197100683644L230,147.8197100683644L210,147.8197100683644L190,131.86852507878197L170,131.86852507878197L150,131.86852507878197L130,131.86852507878197L110,131.86852507878197L90,126.03750000000001L70,126.03750000000001L50,126.03750000000001L30,126.03750000000001L10,200Z" fill="#4c78a8"/></g></g><path class="foreground" aria-hidden="true" d="" display="none"/></g><g transform="translate(0,0)"><path class="background" aria-hidden="true" d="M0,0h720v200h-720Z"/><g><g class="mark-area role-mark marks" role="graphics-object" aria-roledescription="area mark container"><path aria-label="year: 2020; CO2: 0; variable: LABS12" role="graphics-symbol" aria-roledescription="area mark" d="M10,200L30,126.03750000000001L50,126.03750000000001L70,126.03750000000001L90,126.03750000000001L110,131.86852507878197L130,131.86852507878197L150,131.86852507878197L170,131.86852507878197L190,131.86852507878197L210,147.8197100683644L230,147.8197100683644L250,147.8197100683644L270,147.8197100683644L290,147.8197100683644L310,162.84563462906223L330,162.84563462906223L350,162.84563462906223L370,162.84563462906223L390,162.84563462906223L410,166.6730618408683L430,166.6730618408683L450,166.6730618408683L470,166.6730618408683L490,166.6730618408683L510,191.04656889803988L530,191.04656889803988L550,191.04656889803988L570,191.04656889803988L590,191.04656889803988L610,191.04656889803988L630,191.04656889803988L650,191.04656889803988L670,191.04656889803988L690,191.04656889803988L710,191.04656889803988L710,191.04656889803988L690,191.04656889803988L670,191.04656889803988L650,191.04656889803988L630,191.04656889803988L610,191.04656889803988L590,191.04656889803988L570,191.04656889803988L550,191.04656889803988L530,191.04656889803988L510,191.04656889803988L490,183.428360244837L470,183.428360244837L450,183.428360244837L430,183.428360244837L410,183.428360244837L390,162.84563462906223L370,162.84563462906223L350,162.84563462906223L330,162.84563462906223L310,162.84563462906223L290,175.49384783544636L270,175.49384783544636L250,175.49384783544636L230,175.49384783544636L210,175.49384783544636L190,131.86852507878197L170,131.86852507878197L150,131.86852507878197L130,131.86852507878197L110,131.86852507878197L90,126.03750000000001L70,126.03750000000001L50,126.03750000000001L30,126.03750000000001L10,200Z" fill="#f58518"/></g></g><path class="foreground" aria-hidden="true" d="" display="none"/></g><g transform="translate(0,0)"><path class="background" aria-hidden="true" d="M0,0h720v200h-720Z"/><g><g class="mark-area role-mark marks" role="graphics-object" aria-roledescription="area mark container"><path aria-label="year: 2020; CO2: 0; variable: LABS13" role="graphics-symbol" aria-roledescription="area mark" d="M10,200L30,126.03750000000001L50,126.03750000000001L70,126.03750000000001L90,126.03750000000001L110,131.86852507878197L130,131.86852507878197L150,131.86852507878197L170,131.86852507878197L190,131.86852507878197L210,175.49384783544636L230,175.49384783544636L250,175.49384783544636L270,175.49384783544636L290,175.49384783544636L310,162.84563462906223L330,162.84563462906223L350,162.84563462906223L370,162.84563462906223L390,162.84563462906223L410,183.428360244837L430,183.428360244837L450,183.428360244837L470,183.428360244837L490,183.428360244837L510,191.04656889803988L530,191.04656889803988L550,191.04656889803988L570,191.04656889803988L590,191.04656889803988L610,191.04656889803988L630,191.04656889803988L650,191.04656889803988L670,191.04656889803988L690,191.04656889803988L710,191.04656889803988L710,191.04656889803988L690,191.04656889803988L670,191.04656889803988L650,191.04656889803988L630,191.04656889803988L610,191.04656889803988L590,191.04656889803988L570,191.04656889803988L550,191.04656889803988L530,191.04656889803988L510,191.04656889803988L490,183.428360244837L470,183.428360244837L450,183.428360244837L430,183.428360244837L410,183.428360244837L390,162.84563462906223L370,162.84563462906223L350,162.84563462906223L330,162.84563462906223L310,162.84563462906223L290,175.49384783544636L270,175.49384783544636L250,175.49384783544636L230,175.49384783544636L210,175.49384783544636L190,131.86852507878197L170,131.86852507878197L150,131.86852507878197L130,131.86852507878197L110,131.86852507878197L90,200L70,200L50,200L30,200L10,200Z" fill="#e45756"/></g></g><path class="foreground" aria-hidden="true" d="" display="none"/></g><g transform="translate(0,0)"><path class="background" aria-hidden="true" d="M0,0h720v200h-720Z"/><g><g class="mark-area role-mark marks" role="graphics-object" aria-roledescription="area mark container"><path aria-label="year: 2020; CO2: 0; variable: LABS22" role="graphics-symbol" aria-roledescription="area mark" d="M10,200L30,200L50,200L70,200L90,200L110,131.86852507878197L130,131.86852507878197L150,131.86852507878197L170,131.86852507878197L190,131.86852507878197L210,175.49384783544636L230,175.49384783544636L250,175.49384783544636L270,175.49384783544636L290,175.49384783544636L310,162.84563462906223L330,162.84563462906223L350,162.84563462906223L370,162.84563462906223L390,162.84563462906223L410,183.428360244837L430,183.428360244837L450,183.428360244837L470,183.428360244837L490,183.428360244837L510,191.04656889803988L530,191.04656889803988L550,191.04656889803988L570,191.04656889803988L590,191.04656889803988L610,191.04656889803988L630,191.04656889803988L650,191.04656889803988L670,191.04656889803988L690,191.04656889803988L710,191.04656889803988L710,191.04656889803988L690,191.04656889803988L670,191.04656889803988L650,191.04656889803988L630,191.04656889803988L610,191.04656889803988L590,191.04656889803988L570,191.04656889803988L550,191.04656889803988L530,191.04656889803988L510,191.04656889803988L490,183.428360244837L470,183.428360244837L450,183.428360244837L430,183.428360244837L410,183.428360244837L390,178.39261325446324L370,178.39261325446324L350,178.39261325446324L330,178.39261325446324L310,178.39261325446324L290,175.49384783544636L270,175.49384783544636L250,175.49384783544636L230,175.49384783544636L210,175.49384783544636L190,131.86852507878197L170,131.86852507878197L150,131.86852507878197L130,131.86852507878197L110,131.86852507878197L90,200L70,200L50,200L30,200L10,200Z" fill="#72b7b2"/></g></g><path class="foreground" aria-hidden="true" d="" display="none"/></g><g transform="translate(0,0)"><path class="background" aria-hidden="true" d="M0,0h720v200h-720Z"/><g><g class="mark-area role-mark marks" role="graphics-object" aria-roledescription="area mark container"><path aria-label="year: 2020; CO2: 0; variable: LABS27" role="graphics-symbol" aria-roledescription="area mark" d="M10,200L30,200L50,200L70,200L90,200L110,131.86852507878197L130,131.86852507878197L150,131.86852507878197L170,131.86852507878197L190,131.86852507878197L210,175.49384783544636L230,175.49384783544636L250,175.49384783544636L270,175.49384783544636L290,175.49384783544636L310,178.39261325446324L330,178.39261325446324L350,178.39261325446324L370,178.39261325446324L390,178.39261325446324L410,183.428360244837L430,183.428360244837L450,183.428360244837L470,183.428360244837L490,183.428360244837L510,191.04656889803988L530,191.04656889803988L550,191.04656889803988L570,191.04656889803988L590,191.04656889803988L610,191.04656889803988L630,191.04656889803988L650,191.04656889803988L670,191.04656889803988L690,191.04656889803988L710,191.04656889803988L710,192.8178187284413L690,192.8178187284413L670,192.8178187284413L650,192.8178187284413L630,192.8178187284413L610,192.8178187284413L590,192.8178187284413L570,192.8178187284413L550,192.8178187284413L530,192.8178187284413L510,192.8178187284413L490,183.428360244837L470,183.428360244837L450,183.428360244837L430,183.428360244837L410,183.428360244837L390,178.39261325446324L370,178.39261325446324L350,178.39261325446324L330,178.39261325446324L310,178.39261325446324L290,175.49384783544636L270,175.49384783544636L250,175.49384783544636L230,175.49384783544636L210,175.49384783544636L190,131.86852507878197L170,131.86852507878197L150,131.86852507878197L130,131.86852507878197L110,131.86852507878197L90,200L70,200L50,200L30,200L10,200Z" fill="#54a24b"/></g></g><path class="foreground" aria-hidden="true" d="" display="none"/></g><g transform="translate(0,0)"><path class="background" aria-hidden="true" d="M0,0h720v200h-720Z"/><g><g class="mark-area role-mark marks" role="graphics-object" aria-roledescription="area mark container"><path aria-label="year: 2020; CO2: 0; variable: RecyclPLA2" role="graphics-symbol" aria-roledescription="area mark" d="M10,200L30,200L50,200L70,200L90,200L110,131.86852507878197L130,131.86852507878197L150,131.86852507878197L170,131.86852507878197L190,131.86852507878197L210,175.49384783544636L230,175.49384783544636L250,175.49384783544636L270,175.49384783544636L290,175.49384783544636L310,178.39261325446324L330,178.39261325446324L350,178.39261325446324L370,178.39261325446324L390,178.39261325446324L410,183.428360244837L430,183.428360244837L450,183.428360244837L470,183.428360244837L490,183.428360244837L510,192.8178187284413L530,192.8178187284413L550,192.8178187284413L570,192.8178187284413L590,192.8178187284413L610,192.8178187284413L630,192.8178187284413L650,192.8178187284413L670,192.8178187284413L690,192.8178187284413L710,192.8178187284413L710,192.8178187284413L690,192.8178187284413L670,192.8178187284413L650,192.8178187284413L630,192.8178187284413L610,192.8178187284413L590,192.8178187284413L570,192.8178187284413L550,192.8178187284413L530,192.8178187284413L510,192.8178187284413L490,183.428360244837L470,183.428360244837L450,183.428360244837L430,183.428360244837L410,183.428360244837L390,178.39261325446324L370,178.39261325446324L350,178.39261325446324L330,178.39261325446324L310,178.39261325446324L290,175.49384783544636L270,175.49384783544636L250,175.49384783544636L230,175.49384783544636L210,175.49384783544636L190,200L170,200L150,200L130,200L110,200L90,200L70,200L50,200L30,200L10,200Z" fill="#eeca3b"/></g></g><path class="foreground" aria-hidden="true" d="" display="none"/></g><g transform="translate(0,0)"><path class="background" aria-hidden="true" d="M0,0h720v200h-720Z"/><g><g class="mark-area role-mark marks" role="graphics-object" aria-roledescription="area mark container"><path aria-label="year: 2020; CO2: 0; variable: RecyclPLA4" role="graphics-symbol" aria-roledescription="area mark" d="M10,200L30,200L50,200L70,200L90,200L110,200L130,200L150,200L170,200L190,200L210,175.49384783544636L230,175.49384783544636L250,175.49384783544636L270,175.49384783544636L290,175.49384783544636L310,178.39261325446324L330,178.39261325446324L350,178.39261325446324L370,178.39261325446324L390,178.39261325446324L410,183.428360244837L430,183.428360244837L450,183.428360244837L470,183.428360244837L490,183.428360244837L510,192.8178187284413L530,192.8178187284413L550,192.8178187284413L570,192.8178187284413L590,192.8178187284413L610,192.8178187284413L630,192.8178187284413L650,192.8178187284413L670,192.8178187284413L690,192.8178187284413L710,192.8178187284413L710,200L690,200L670,200L650,200L630,200L610,200L590,200L570,200L550,200L530,200L510,200L490,183.428360244837L470,183.428360244837L450,183.428360244837L430,183.428360244837L410,183.428360244837L390,178.39261325446324L370,178.39261325446324L350,178.39261325446324L330,178.39261325446324L310,178.39261325446324L290,175.49384783544636L270,175.49384783544636L250,175.49384783544636L230,175.49384783544636L210,175.49384783544636L190,200L170,200L150,200L130,200L110,200L90,200L70,200L50,200L30,200L10,200Z" fill="#b279a2"/></g></g><path class="foreground" aria-hidden="true" d="" display="none"/></g><g transform="translate(0,0)"><path class="background" aria-hidden="true" d="M0,0h720v200h-720Z"/><g><g class="mark-area role-mark marks" role="graphics-object" aria-roledescription="area mark container"><path aria-label="year: 2020; CO2: 0; variable: RecyclPLA5" role="graphics-symbol" aria-roledescription="area mark" d="M10,200L30,200L50,200L70,200L90,200L110,200L130,200L150,200L170,200L190,200L210,175.49384783544636L230,175.49384783544636L250,175.49384783544636L270,175.49384783544636L290,175.49384783544636L310,178.39261325446324L330,178.39261325446324L350,178.39261325446324L370,178.39261325446324L390,178.39261325446324L410,183.428360244837L430,183.428360244837L450,183.428360244837L470,183.428360244837L490,183.428360244837L510,200L530,200L550,200L570,200L590,200L610,200L630,200L650,200L670,200L690,200L710,200L710,200L690,200L670,200L650,200L630,200L610,200L590,200L570,200L550,200L530,200L510,200L490,183.428360244837L470,183.428360244837L450,183.428360244837L430,183.428360244837L410,183.428360244837L390,178.39261325446324L370,178.39261325446324L350,178.39261325446324L330,178.39261325446324L310,178.39261325446324L290,200L270,200L250,200L230,200L210,200L190,200L170,200L150,200L130,200L110,200L90,200L70,200L50,200L30,200L10,200Z" fill="#ff9da6"/></g></g><path class="foreground" aria-hidden="true" d="" display="none"/></g><g transform="translate(0,0)"><path class="background" aria-hidden="true" d="M0,0h720v200h-720Z"/><g><g class="mark-area role-mark marks" role="graphics-object" aria-roledescription="area mark container"><path aria-label="year: 2020; CO2: 0; variable: RecyclPLA6" role="graphics-symbol" aria-roledescription="area mark" d="M10,200L30,200L50,200L70,200L90,200L110,200L130,200L150,200L170,200L190,200L210,200L230,200L250,200L270,200L290,200L310,178.39261325446324L330,178.39261325446324L350,178.39261325446324L370,178.39261325446324L390,178.39261325446324L410,183.428360244837L430,183.428360244837L450,183.428360244837L470,183.428360244837L490,183.428360244837L510,200L530,200L550,200L570,200L590,200L610,200L630,200L650,200L670,200L690,200L710,200L710,200L690,200L670,200L650,200L630,200L610,200L590,200L570,200L550,200L530,200L510,200L490,183.428360244837L470,183.428360244837L450,183.428360244837L430,183.428360244837L410,183.428360244837L390,200L370,200L350,200L330,200L310,200L290,200L270,200L250,200L230,200L210,200L190,200L170,200L150,200L130,200L110,200L90,200L70,200L50,200L30,200L10,200Z" fill="#9d755d"/></g></g><path class="foreground" aria-hidden="true" d="" display="none"/></g><g transform="translate(0,0)"><path class="background" aria-hidden="true" d="M0,0h720v200h-720Z"/><g><g class="mark-area role-mark marks" role="graphics-object" aria-roledescription="area mark container"><path aria-label="year: 2020; CO2: 0; variable: RecyclPLA7" role="graphics-symbol" aria-roledescription="area mark" d="M10,200L30,200L50,200L70,200L90,200L110,200L130,200L150,200L170,200L190,200L210,200L230,200L250,200L270,200L290,200L310,200L330,200L350,200L370,200L390,200L410,183.428360244837L430,183.428360244837L450,183.428360244837L470,183.428360244837L490,183.428360244837L510,200L530,200L550,200L570,200L590,200L610,200L630,200L650,200L670,200L690,200L710,200L710,200L690,200L670,200L650,200L630,200L610,200L590,200L570,200L550,200L530,200L510,200L490,200L470,200L450,200L430,200L410,200L390,200L370,200L350,200L330,200L310,200L290,200L270,200L250,200L230,200L210,200L190,200L170,200L150,200L130,200L110,200L90,200L70,200L50,200L30,200L10,200Z" fill="#bab0ac"/></g></g><path class="foreground" aria-hidden="true" d="" display="none"/></g></g><g class="mark-group role-legend" role="graphics-symbol" aria-roledescription="legend" aria-label="Symbol legend titled 'variable' for fill color with 10 values: Conv, LABS12, LABS13, LABS22, LABS27, ending with RecyclPLA7"><g transform="translate(738,0)"><path class="background" aria-hidden="true" d="M0,0h75v144h-75Z" pointer-events="none"/><g><g class="mark-group role-legend-entry"><g transform="translate(0,16)"><path class="background" aria-hidden="true" d="M0,0h0v0h0Z" pointer-events="none"/><g><g class="mark-group role-scope" role="graphics-object" aria-roledescription="group mark container"><g transform="translate(0,0)"><path class="background" aria-hidden="true" d="M0,0h75v11h-75Z" pointer-events="none" opacity="1"/><g><g class="mark-symbol role-legend-symbol" pointer-events="none"><path transform="translate(6,6)" d="M5,0A5,5,0,1,1,-5,0A5,5,0,1,1,5,0" fill="#4c78a8" stroke-width="1.5" opacity="1"/></g><g class="mark-text role-legend-label" pointer-events="none"><text text-anchor="start" transform="translate(16,9)" font-family="sans-serif" font-size="10px" fill="#000" opacity="1">Conv</text></g></g><path class="foreground" aria-hidden="true" d="" pointer-events="none" display="none"/></g><g transform="translate(0,13)"><path class="background" aria-hidden="true" d="M0,0h75v11h-75Z" pointer-events="none" opacity="1"/><g><g class="mark-symbol role-legend-symbol" pointer-events="none"><path transform="translate(6,6)" d="M5,0A5,5,0,1,1,-5,0A5,5,0,1,1,5,0" fill="#f58518" stroke-width="1.5" opacity="1"/></g><g class="mark-text role-legend-label" pointer-events="none"><text text-anchor="start" transform="translate(16,9)" font-family="sans-serif" font-size="10px" fill="#000" opacity="1">LABS12</text></g></g><path class="foreground" aria-hidden="true" d="" pointer-events="none" display="none"/></g><g transform="translate(0,26)"><path class="background" aria-hidden="true" d="M0,0h75v11h-75Z" pointer-events="none" opacity="1"/><g><g class="mark-symbol role-legend-symbol" pointer-events="none"><path transform="translate(6,6)" d="M5,0A5,5,0,1,1,-5,0A5,5,0,1,1,5,0" fill="#e45756" stroke-width="1.5" opacity="1"/></g><g class="mark-text role-legend-label" pointer-events="none"><text text-anchor="start" transform="translate(16,9)" font-family="sans-serif" font-size="10px" fill="#000" opacity="1">LABS13</text></g></g><path class="foreground" aria-hidden="true" d="" pointer-events="none" display="none"/></g><g transform="translate(0,39)"><path class="background" aria-hidden="true" d="M0,0h75v11h-75Z" pointer-events="none" opacity="1"/><g><g class="mark-symbol role-legend-symbol" pointer-events="none"><path transform="translate(6,6)" d="M5,0A5,5,0,1,1,-5,0A5,5,0,1,1,5,0" fill="#72b7b2" stroke-width="1.5" opacity="1"/></g><g class="mark-text role-legend-label" pointer-events="none"><text text-anchor="start" transform="translate(16,9)" font-family="sans-serif" font-size="10px" fill="#000" opacity="1">LABS22</text></g></g><path class="foreground" aria-hidden="true" d="" pointer-events="none" display="none"/></g><g transform="translate(0,52)"><path class="background" aria-hidden="true" d="M0,0h75v11h-75Z" pointer-events="none" opacity="1"/><g><g class="mark-symbol role-legend-symbol" pointer-events="none"><path transform="translate(6,6)" d="M5,0A5,5,0,1,1,-5,0A5,5,0,1,1,5,0" fill="#54a24b" stroke-width="1.5" opacity="1"/></g><g class="mark-text role-legend-label" pointer-events="none"><text text-anchor="start" transform="translate(16,9)" font-family="sans-serif" font-size="10px" fill="#000" opacity="1">LABS27</text></g></g><path class="foreground" aria-hidden="true" d="" pointer-events="none" display="none"/></g><g transform="translate(0,65)"><path class="background" aria-hidden="true" d="M0,0h75v11h-75Z" pointer-events="none" opacity="1"/><g><g class="mark-symbol role-legend-symbol" pointer-events="none"><path transform="translate(6,6)" d="M5,0A5,5,0,1,1,-5,0A5,5,0,1,1,5,0" fill="#eeca3b" stroke-width="1.5" opacity="1"/></g><g class="mark-text role-legend-label" pointer-events="none"><text text-anchor="start" transform="translate(16,9)" font-family="sans-serif" font-size="10px" fill="#000" opacity="1">RecyclPLA2</text></g></g><path class="foreground" aria-hidden="true" d="" pointer-events="none" display="none"/></g><g transform="translate(0,78)"><path class="background" aria-hidden="true" d="M0,0h75v11h-75Z" pointer-events="none" opacity="1"/><g><g class="mark-symbol role-legend-symbol" pointer-events="none"><path transform="translate(6,6)" d="M5,0A5,5,0,1,1,-5,0A5,5,0,1,1,5,0" fill="#b279a2" stroke-width="1.5" opacity="1"/></g><g class="mark-text role-legend-label" pointer-events="none"><text text-anchor="start" transform="translate(16,9)" font-family="sans-serif" font-size="10px" fill="#000" opacity="1">RecyclPLA4</text></g></g><path class="foreground" aria-hidden="true" d="" pointer-events="none" display="none"/></g><g transform="translate(0,91)"><path class="background" aria-hidden="true" d="M0,0h75v11h-75Z" pointer-events="none" opacity="1"/><g><g class="mark-symbol role-legend-symbol" pointer-events="none"><path transform="translate(6,6)" d="M5,0A5,5,0,1,1,-5,0A5,5,0,1,1,5,0" fill="#ff9da6" stroke-width="1.5" opacity="1"/></g><g class="mark-text role-legend-label" pointer-events="none"><text text-anchor="start" transform="translate(16,9)" font-family="sans-serif" font-size="10px" fill="#000" opacity="1">RecyclPLA5</text></g></g><path class="foreground" aria-hidden="true" d="" pointer-events="none" display="none"/></g><g transform="translate(0,104)"><path class="background" aria-hidden="true" d="M0,0h75v11h-75Z" pointer-events="none" opacity="1"/><g><g class="mark-symbol role-legend-symbol" pointer-events="none"><path transform="translate(6,6)" d="M5,0A5,5,0,1,1,-5,0A5,5,0,1,1,5,0" fill="#9d755d" stroke-width="1.5" opacity="1"/></g><g class="mark-text role-legend-label" pointer-events="none"><text text-anchor="start" transform="translate(16,9)" font-family="sans-serif" font-size="10px" fill="#000" opacity="1">RecyclPLA6</text></g></g><path class="foreground" aria-hidden="true" d="" pointer-events="none" display="none"/></g><g transform="translate(0,117)"><path class="background" aria-hidden="true" d="M0,0h75v11h-75Z" pointer-events="none" opacity="1"/><g><g class="mark-symbol role-legend-symbol" pointer-events="none"><path transform="translate(6,6)" d="M5,0A5,5,0,1,1,-5,0A5,5,0,1,1,5,0" fill="#bab0ac" stroke-width="1.5" opacity="1"/></g><g class="mark-text role-legend-label" pointer-events="none"><text text-anchor="start" transform="translate(16,9)" font-family="sans-serif" font-size="10px" fill="#000" opacity="1">RecyclPLA7</text></g></g><path class="foreground" aria-hidden="true" d="" pointer-events="none" display="none"/></g></g></g><path class="foreground" aria-hidden="true" d="" pointer-events="none" display="none"/></g></g><g class="mark-text role-legend-title" pointer-events="none"><text text-anchor="start" transform="translate(0,9)" font-family="sans-serif" font-size="11px" font-weight="bold" fill="#000" opacity="1">variable</text></g></g><path class="foreground" aria-hidden="true" d="" pointer-events="none" display="none"/></g></g></g><path class="foreground" aria-hidden="true" d="" display="none"/></g></g></g></svg>
