<?xml version="1.0" encoding="utf-8"?>
<!DOCTYPE svg PUBLIC "-//W3C//DTD SVG 1.1//EN" "http://www.w3.org/Graphics/SVG/1.1/DTD/svg11.dtd">
<svg xmlns="http://www.w3.org/2000/svg" xmlns:xlink="http://www.w3.org/1999/xlink" version="1.1" class="marks" width="956" height="280" viewBox="0 0 956 280"><rect width="956" height="280" fill="white"/><g fill="none" stroke-miterlimit="10" transform="translate(41,12)"><g class="mark-group role-frame root" role="graphics-object" aria-roledescription="group mark container"><g transform="translate(0,0)"><path class="background" aria-hidden="true" d="M0.5,0.5h820v200h-820Z" stroke="#ddd"/><g><g class="mark-group role-axis" aria-hidden="true"><g transform="translate(0.5,0.5)"><path class="background" aria-hidden="true" d="M0,0h0v0h0Z" pointer-events="none"/><g><g class="mark-rule role-axis-grid" pointer-events="none"><line transform="translate(0,200)" x2="820" y2="0" stroke="#ddd" stroke-width="1" opacity="1"/><line transform="translate(0,150)" x2="820" y2="0" stroke="#ddd" stroke-width="1" opacity="1"/><line transform="translate(0,100)" x2="820" y2="0" stroke="#ddd" stroke-width="1" opacity="1"/><line transform="translate(0,50)" x2="820" y2="0" stroke="#ddd" stroke-width="1" opacity="1"/><line transform="translate(0,0)" x2="820" y2="0" stroke="#ddd" stroke-width="1" opacity="1"/></g></g><path class="foreground" aria-hidden="true" d="" pointer-events="none" display="none"/></g></g><g class="mark-group role-axis" role="graphics-symbol" aria-roledescription="axis" aria-label="X-axis titled 'year' for a discrete scale with 41 values: 2020, 2021, 2022, 2023, 2024, ending with 2060"><g transform="translate(0.5,200.5)"><path class="background" aria-hidden="true" d="M0,0h0v0h0Z" pointer-events="none"/><g><g class="mark-rule role-axis-tick" pointer-events="none"><line transform="translate(10,0)" x2="0" y2="5" stroke="#888" stroke-width="1" opacity="1"/><line transform="translate(30,0)" x2="0" y2="5" stroke="#888" stroke-width="1" opacity="1"/><line transform="translate(50,0)" x2="0" y2="5" stroke="#888" stroke-width="1" opacity="1"/><line transform="translate(70,0)" x2="0" y2="5" stroke="#888" stroke-width="1" opacity="1"/><line transform="translate(90,0)" x2="0" y2="5" stroke="#888" stroke-width="1" opacity="1"/><line transform="translate(110,0)" x2="0" y2="5" stroke="#888" stroke-width="1" opacity="1"/><line transform="translate(130,0)" x2="0" y2="5" stroke="#888" stroke-width="1" opacity="1"/><line transform="translate(150,0)" x2="0" y2="5" stroke="#888" stroke-width="1" opacity="1"/><line transform="translate(170,0)" x2="0" y2="5" stroke="#888" stroke-width="1" opacity="1"/><line transform="translate(190,0)" x2="0" y2="5" stroke="#888" stroke-width="1" opacity="1"/><line transform="translate(210,0)" x2="0" y2="5" stroke="#888" stroke-width="1" opacity="1"/><line transform="translate(230,0)" x2="0" y2="5" stroke="#888" stroke-width="1" opacity="1"/><line transform="translate(250,0)" x2="0" y2="5" stroke="#888" stroke-width="1" opacity="1"/><line transform="translate(270,0)" x2="0" y2="5" stroke="#888" stroke-width="1" opacity="1"/><line transform="translate(290,0)" x2="0" y2="5" stroke="#888" stroke-width="1" opacity="1"/><line transform="translate(310,0)" x2="0" y2="5" stroke="#888" stroke-width="1" opacity="1"/><line transform="translate(330,0)" x2="0" y2="5" stroke="#888" stroke-width="1" opacity="1"/><line transform="translate(350,0)" x2="0" y2="5" stroke="#888" stroke-width="1" opacity="1"/><line transform="translate(370,0)" x2="0" y2="5" stroke="#888" stroke-width="1" opacity="1"/><line transform="translate(390,0)" x2="0" y2="5" stroke="#888" stroke-width="1" opacity="1"/><line transform="translate(410,0)" x2="0" y2="5" stroke="#888" stroke-width="1" opacity="1"/><line transform="translate(430,0)" x2="0" y2="5" stroke="#888" stroke-width="1" opacity="1"/><line transform="translate(450,0)" x2="0" y2="5" stroke="#888" stroke-width="1" opacity="1"/><line transform="translate(470,0)" x2="0" y2="5" stroke="#888" stroke-width="1" opacity="1"/><line transform="translate(490,0)" x2="0" y2="5" stroke="#888" stroke-width="1" opacity="1"/><line transform="translate(510,0)" x2="0" y2="5" stroke="#888" stroke-width="1" opacity="1"/><line transform="translate(530,0)" x2="0" y2="5" stroke="#888" stroke-width="1" opacity="1"/><line transform="translate(550,0)" x2="0" y2="5" stroke="#888" stroke-width="1" opacity="1"/><line transform="translate(570,0)" x2="0" y2="5" stroke="#888" stroke-width="1" opacity="1"/><line transform="translate(590,0)" x2="0" y2="5" stroke="#888" stroke-width="1" opacity="1"/><line transform="translate(610,0)" x2="0" y2="5" stroke="#888" stroke-width="1" opacity="1"/><line transform="translate(630,0)" x2="0" y2="5" stroke="#888" stroke-width="1" opacity="1"/><line transform="translate(650,0)" x2="0" y2="5" stroke="#888" stroke-width="1" opacity="1"/><line transform="translate(670,0)" x2="0" y2="5" stroke="#888" stroke-width="1" opacity="1"/><line transform="translate(690,0)" x2="0" y2="5" stroke="#888" stroke-width="1" opacity="1"/><line transform="translate(710,0)" x2="0" y2="5" stroke="#888" stroke-width="1" opacity="1"/><line transform="translate(730,0)" x2="0" y2="5" stroke="#888" stroke-width="1" opacity="1"/><line transform="translate(750,0)" x2="0" y2="5" stroke="#888" stroke-width="1" opacity="1"/><line transform="translate(770,0)" x2="0" y2="5" stroke="#888" stroke-width="1" opacity="1"/><line transform="translate(790,0)" x2="0" y2="5" stroke="#888" stroke-width="1" opacity="1"/><line transform="translate(810,0)" x2="0" y2="5" stroke="#888" stroke-width="1" opacity="1"/></g><g class="mark-text role-axis-label" pointer-events="none"><text text-anchor="end" transform="translate(10,7) rotate(270) translate(0,4)" font-family="sans-serif" font-size="14px" fill="#000" opacity="1">2020</text><text text-anchor="end" transform="translate(30,7) rotate(270) translate(0,4)" font-family="sans-serif" font-size="14px" fill="#000" opacity="1">2021</text><text text-anchor="end" transform="translate(50,7) rotate(270) translate(0,4)" font-family="sans-serif" font-size="14px" fill="#000" opacity="1">2022</text><text text-anchor="end" transform="translate(70,7) rotate(270) translate(0,4)" font-family="sans-serif" font-size="14px" fill="#000" opacity="1">2023</text><text text-anchor="end" transform="translate(90,7) rotate(270) translate(0,4)" font-family="sans-serif" font-size="14px" fill="#000" opacity="1">2024</text><text text-anchor="end" transform="translate(110,7) rotate(270) translate(0,4)" font-family="sans-serif" font-size="14px" fill="#000" opacity="1">2025</text><text text-anchor="end" transform="translate(130,7) rotate(270) translate(0,4)" font-family="sans-serif" font-size="14px" fill="#000" opacity="1">2026</text><text text-anchor="end" transform="translate(150,7) rotate(270) translate(0,4)" font-family="sans-serif" font-size="14px" fill="#000" opacity="1">2027</text><text text-anchor="end" transform="translate(170,7) rotate(270) translate(0,4)" font-family="sans-serif" font-size="14px" fill="#000" opacity="1">2028</text><text text-anchor="end" transform="translate(190,7) rotate(270) translate(0,4)" font-family="sans-serif" font-size="14px" fill="#000" opacity="1">2029</text><text text-anchor="end" transform="translate(210,7) rotate(270) translate(0,4)" font-family="sans-serif" font-size="14px" fill="#000" opacity="1">2030</text><text text-anchor="end" transform="translate(230,7) rotate(270) translate(0,4)" font-family="sans-serif" font-size="14px" fill="#000" opacity="1">2031</text><text text-anchor="end" transform="translate(250,7) rotate(270) translate(0,4)" font-family="sans-serif" font-size="14px" fill="#000" opacity="1">2032</text><text text-anchor="end" transform="translate(270,7) rotate(270) translate(0,4)" font-family="sans-serif" font-size="14px" fill="#000" opacity="1">2033</text><text text-anchor="end" transform="translate(290,7) rotate(270) translate(0,4)" font-family="sans-serif" font-size="14px" fill="#000" opacity="1">2034</text><text text-anchor="end" transform="translate(310,7) rotate(270) translate(0,4)" font-family="sans-serif" font-size="14px" fill="#000" opacity="1">2035</text><text text-anchor="end" transform="translate(330,7) rotate(270) translate(0,4)" font-family="sans-serif" font-size="14px" fill="#000" opacity="1">2036</text><text text-anchor="end" transform="translate(350,7) rotate(270) translate(0,4)" font-family="sans-serif" font-size="14px" fill="#000" opacity="1">2037</text><text text-anchor="end" transform="translate(370,7) rotate(270) translate(0,4)" font-family="sans-serif" font-size="14px" fill="#000" opacity="1">2038</text><text text-anchor="end" transform="translate(390,7) rotate(270) translate(0,4)" font-family="sans-serif" font-size="14px" fill="#000" opacity="1">2039</text><text text-anchor="end" transform="translate(410,7) rotate(270) translate(0,4)" font-family="sans-serif" font-size="14px" fill="#000" opacity="1">2040</text><text text-anchor="end" transform="translate(430,7) rotate(270) translate(0,4)" font-family="sans-serif" font-size="14px" fill="#000" opacity="1">2041</text><text text-anchor="end" transform="translate(450,7) rotate(270) translate(0,4)" font-family="sans-serif" font-size="14px" fill="#000" opacity="1">2042</text><text text-anchor="end" transform="translate(470,7) rotate(270) translate(0,4)" font-family="sans-serif" font-size="14px" fill="#000" opacity="1">2043</text><text text-anchor="end" transform="translate(490,7) rotate(270) translate(0,4)" font-family="sans-serif" font-size="14px" fill="#000" opacity="1">2044</text><text text-anchor="end" transform="translate(510,7) rotate(270) translate(0,4)" font-family="sans-serif" font-size="14px" fill="#000" opacity="1">2045</text><text text-anchor="end" transform="translate(530,7) rotate(270) translate(0,4)" font-family="sans-serif" font-size="14px" fill="#000" opacity="1">2046</text><text text-anchor="end" transform="translate(550,7) rotate(270) translate(0,4)" font-family="sans-serif" font-size="14px" fill="#000" opacity="1">2047</text><text text-anchor="end" transform="translate(570,7) rotate(270) translate(0,4)" font-family="sans-serif" font-size="14px" fill="#000" opacity="1">2048</text><text text-anchor="end" transform="translate(590,7) rotate(270) translate(0,4)" font-family="sans-serif" font-size="14px" fill="#000" opacity="1">2049</text><text text-anchor="end" transform="translate(610,7) rotate(270) translate(0,4)" font-family="sans-serif" font-size="14px" fill="#000" opacity="1">2050</text><text text-anchor="end" transform="translate(630,7) rotate(270) translate(0,4)" font-family="sans-serif" font-size="14px" fill="#000" opacity="1">2051</text><text text-anchor="end" transform="translate(650,7) rotate(270) translate(0,4)" font-family="sans-serif" font-size="14px" fill="#000" opacity="1">2052</text><text text-anchor="end" transform="translate(670,7) rotate(270) translate(0,4)" font-family="sans-serif" font-size="14px" fill="#000" opacity="1">2053</text><text text-anchor="end" transform="translate(690,7) rotate(270) translate(0,4)" font-family="sans-serif" font-size="14px" fill="#000" opacity="1">2054</text><text text-anchor="end" transform="translate(710,7) rotate(270) translate(0,4)" font-family="sans-serif" font-size="14px" fill="#000" opacity="1">2055</text><text text-anchor="end" transform="translate(730,7) rotate(270) translate(0,4)" font-family="sans-serif" font-size="14px" fill="#000" opacity="1">2056</text><text text-anchor="end" transform="translate(750,7) rotate(270) translate(0,4)" font-family="sans-serif" font-size="14px" fill="#000" opacity="1">2057</text><text text-anchor="end" transform="translate(770,7) rotate(270) translate(0,4)" font-family="sans-serif" font-size="14px" fill="#000" opacity="1">2058</text><text text-anchor="end" transform="translate(790,7) rotate(270) translate(0,4)" font-family="sans-serif" font-size="14px" fill="#000" opacity="1">2059</text><text text-anchor="end" transform="translate(810,7) rotate(270) translate(0,4)" font-family="sans-serif" font-size="14px" fill="#000" opacity="1">2060</text></g><g class="mark-rule role-axis-domain" pointer-events="none"><line transform="translate(0,0)" x2="820" y2="0" stroke="#888" stroke-width="1" opacity="1"/></g><g class="mark-text role-axis-title" pointer-events="none"><text text-anchor="middle" transform="translate(410,60)" font-family="sans-serif" font-size="16px" font-weight="bold" fill="#000" opacity="1">year</text></g></g><path class="foreground" aria-hidden="true" d="" pointer-events="none" display="none"/></g></g><g class="mark-group role-axis" role="graphics-symbol" aria-roledescription="axis" aria-label="Y-axis titled 'GHG Emissions' for a linear scale with values from 0 to 8"><g transform="translate(0.5,0.5)"><path class="background" aria-hidden="true" d="M0,0h0v0h0Z" pointer-events="none"/><g><g class="mark-rule role-axis-tick" pointer-events="none"><line transform="translate(0,200)" x2="-5" y2="0" stroke="#888" stroke-width="1" opacity="1"/><line transform="translate(0,150)" x2="-5" y2="0" stroke="#888" stroke-width="1" opacity="1"/><line transform="translate(0,100)" x2="-5" y2="0" stroke="#888" stroke-width="1" opacity="1"/><line transform="translate(0,50)" x2="-5" y2="0" stroke="#888" stroke-width="1" opacity="1"/><line transform="translate(0,0)" x2="-5" y2="0" stroke="#888" stroke-width="1" opacity="1"/></g><g class="mark-text role-axis-label" pointer-events="none"><text text-anchor="end" transform="translate(-7,204)" font-family="sans-serif" font-size="14px" fill="#000" opacity="1">0</text><text text-anchor="end" transform="translate(-7,154)" font-family="sans-serif" font-size="14px" fill="#000" opacity="1">2</text><text text-anchor="end" transform="translate(-7,104)" font-family="sans-serif" font-size="14px" fill="#000" opacity="1">4</text><text text-anchor="end" transform="translate(-7,54)" font-family="sans-serif" font-size="14px" fill="#000" opacity="1">6</text><text text-anchor="end" transform="translate(-7,4)" font-family="sans-serif" font-size="14px" fill="#000" opacity="1">8</text></g><g class="mark-rule role-axis-domain" pointer-events="none"><line transform="translate(0,200)" x2="0" y2="-200" stroke="#888" stroke-width="1" opacity="1"/></g><g class="mark-text role-axis-title" pointer-events="none"><text text-anchor="middle" transform="translate(-20,100) rotate(-90) translate(0,-3)" font-family="sans-serif" font-size="16px" font-weight="bold" fill="#000" opacity="1">GHG Emissions</text></g></g><path class="foreground" aria-hidden="true" d="" pointer-events="none" display="none"/></g></g><g class="mark-group role-scope pathgroup" role="graphics-object" aria-roledescription="group mark container"><g transform="translate(0,0)"><path class="background" aria-hidden="true" d="M0,0h820v200h-820Z"/><g><g class="mark-area role-mark marks" role="graphics-object" aria-roledescription="area mark container"><path aria-label="year: 2020; GHG Emissions: 0; variable: x1" role="graphics-symbol" aria-roledescription="area mark" d="M10,200L30,200L50,200L70,200L90,200L110,142.38278625629002L130,142.38278625629002L150,142.38278625629002L170,142.38278625629002L190,142.38278625629002L210,143.07807251258004L230,143.07807251258004L250,143.07807251258004L270,143.07807251258004L290,143.07807251258004L310,131.84961832623998L330,131.84961832623998L350,131.84961832623998L370,131.84961832623998L390,131.84961832623998L410,134.0469872234145L430,134.0469872234145L450,134.0469872234145L470,134.0469872234145L490,134.0469872234145L510,135.61109565627015L530,135.61109565627015L550,135.61109565627015L570,135.61109565627015L590,135.61109565627015L610,182.4999732606377L630,182.4999732606377L650,182.4999732606377L670,182.4999732606377L690,182.4999732606377L710,182.49998993197693L730,182.49998993197693L750,182.49998993197693L770,182.49998993197693L790,182.49998993197693L810,182.49998993197693L810,182.49998993687555L790,182.49998993687555L770,182.49998993687555L750,182.49998993687555L730,182.49998993687555L710,182.49998993687555L690,182.4999732606377L670,182.4999732606377L650,182.4999732606377L630,182.4999732606377L610,182.4999732606377L590,135.61109565627015L570,135.61109565627015L550,135.61109565627015L530,135.61109565627015L510,135.61109565627015L490,134.0469872234145L470,134.0469872234145L450,134.0469872234145L430,134.0469872234145L410,134.0469872234145L390,131.84961832623998L370,131.84961832623998L350,131.84961832623998L330,131.84961832623998L310,131.84961832623998L290,143.07807251258004L270,143.07807251258004L250,143.07807251258004L230,143.07807251258004L210,143.07807251258004L190,142.38278625629002L170,142.38278625629002L150,142.38278625629002L130,142.38278625629002L110,142.38278625629002L90,200L70,200L50,200L30,200L10,200Z" fill="#f58518"/></g></g><path class="foreground" aria-hidden="true" d="" display="none"/></g><g transform="translate(0,0)"><path class="background" aria-hidden="true" d="M0,0h820v200h-820Z"/><g><g class="mark-area role-mark marks" role="graphics-object" aria-roledescription="area mark container"><path aria-label="year: 2020; GHG Emissions: 0; variable: x22" role="graphics-symbol" aria-roledescription="area mark" d="M10,200L30,200L50,200L70,200L90,200L110,200L130,200L150,200L170,200L190,200L210,200L230,200L250,200L270,200L290,200L310,145.51378915100088L330,145.51378915100088L350,145.51378915100088L370,145.51378915100088L390,145.51378915100088L410,147.18814816590583L430,147.18814816590583L450,147.18814816590583L470,147.18814816590583L490,147.18814816590583L510,148.3799734339149L530,148.3799734339149L550,148.3799734339149L570,148.3799734339149L590,148.3799734339149L610,200L630,200L650,200L670,200L690,200L710,200L730,200L750,200L770,200L790,200L810,200L810,200L790,200L770,200L750,200L730,200L710,200L690,200L670,200L650,200L630,200L610,200L590,200L570,200L550,200L530,200L510,200L490,200L470,200L450,200L430,200L410,200L390,200L370,200L350,200L330,200L310,200L290,200L270,200L250,200L230,200L210,200L190,200L170,200L150,200L130,200L110,200L90,200L70,200L50,200L30,200L10,200Z" fill="#bab0ac"/></g></g><path class="foreground" aria-hidden="true" d="" display="none"/></g><g transform="translate(0,0)"><path class="background" aria-hidden="true" d="M0,0h820v200h-820Z"/><g><g class="mark-area role-mark marks" role="graphics-object" aria-roledescription="area mark container"><path aria-label="year: 2020; GHG Emissions: 0; variable: x134" role="graphics-symbol" aria-roledescription="area mark" d="M10,200L30,200L50,200L70,200L90,200L110,142.38278625629002L130,142.38278625629002L150,142.38278625629002L170,142.38278625629002L190,142.38278625629002L210,143.07807251258004L230,143.07807251258004L250,143.07807251258004L270,143.07807251258004L290,143.07807251258004L310,131.84961832623998L330,131.84961832623998L350,131.84961832623998L370,131.84961832623998L390,131.84961832623998L410,134.0469872234145L430,134.0469872234145L450,134.0469872234145L470,134.0469872234145L490,134.0469872234145L510,135.61109565627015L530,135.61109565627015L550,135.61109565627015L570,135.61109565627015L590,135.61109565627015L610,182.4999732606377L630,182.4999732606377L650,182.4999732606377L670,182.4999732606377L690,182.4999732606377L710,182.49998993687555L730,182.49998993687555L750,182.49998993687555L770,182.49998993687555L790,182.49998993687555L810,182.49998993687555L810,189.40450188378017L790,189.40450188378017L770,189.40450188378017L750,189.40450188378017L730,189.40450188378017L710,189.40450188378017L690,190.59979554606048L670,190.59979554606048L650,190.59979554606048L630,190.59979554606048L610,190.59979554606048L590,135.61109565627015L570,135.61109565627015L550,135.61109565627015L530,135.61109565627015L510,135.61109565627015L490,134.0469872234145L470,134.0469872234145L450,134.0469872234145L430,134.0469872234145L410,134.0469872234145L390,131.84961832623998L370,131.84961832623998L350,131.84961832623998L330,131.84961832623998L310,131.84961832623998L290,143.07807251258004L270,143.07807251258004L250,143.07807251258004L230,143.07807251258004L210,143.07807251258004L190,142.38278625629002L170,142.38278625629002L150,142.38278625629002L130,142.38278625629002L110,142.38278625629002L90,200L70,200L50,200L30,200L10,200Z" fill="#e45756"/></g></g><path class="foreground" aria-hidden="true" d="" display="none"/></g><g transform="translate(0,0)"><path class="background" aria-hidden="true" d="M0,0h820v200h-820Z"/><g><g class="mark-area role-mark marks" role="graphics-object" aria-roledescription="area mark container"><path aria-label="year: 2020; GHG Emissions: 0; variable: x157" role="graphics-symbol" aria-roledescription="area mark" d="M10,200L30,200L50,200L70,200L90,200L110,142.38278625629002L130,142.38278625629002L150,142.38278625629002L170,142.38278625629002L190,142.38278625629002L210,143.07807251258004L230,143.07807251258004L250,143.07807251258004L270,143.07807251258004L290,143.07807251258004L310,131.84961832623998L330,131.84961832623998L350,131.84961832623998L370,131.84961832623998L390,131.84961832623998L410,134.0469872234145L430,134.0469872234145L450,134.0469872234145L470,134.0469872234145L490,134.0469872234145L510,135.61109565627015L530,135.61109565627015L550,135.61109565627015L570,135.61109565627015L590,135.61109565627015L610,190.59979554606048L630,190.59979554606048L650,190.59979554606048L670,190.59979554606048L690,190.59979554606048L710,189.40450188378017L730,189.40450188378017L750,189.40450188378017L770,189.40450188378017L790,189.40450188378017L810,189.40450188378017L810,189.40450188378017L790,189.40450188378017L770,189.40450188378017L750,189.40450188378017L730,189.40450188378017L710,189.40450188378017L690,198.8832502271794L670,198.8832502271794L650,198.8832502271794L630,198.8832502271794L610,198.8832502271794L590,135.61109565627015L570,135.61109565627015L550,135.61109565627015L530,135.61109565627015L510,135.61109565627015L490,134.0469872234145L470,134.0469872234145L450,134.0469872234145L430,134.0469872234145L410,134.0469872234145L390,131.84961832623998L370,131.84961832623998L350,131.84961832623998L330,131.84961832623998L310,131.84961832623998L290,143.07807251258004L270,143.07807251258004L250,143.07807251258004L230,143.07807251258004L210,143.07807251258004L190,142.38278625629002L170,142.38278625629002L150,142.38278625629002L130,142.38278625629002L110,142.38278625629002L90,200L70,200L50,200L30,200L10,200Z" fill="#72b7b2"/></g></g><path class="foreground" aria-hidden="true" d="" display="none"/></g><g transform="translate(0,0)"><path class="background" aria-hidden="true" d="M0,0h820v200h-820Z"/><g><g class="mark-area role-mark marks" role="graphics-object" aria-roledescription="area mark container"><path aria-label="year: 2020; GHG Emissions: 0; variable: x158" role="graphics-symbol" aria-roledescription="area mark" d="M10,200L30,200L50,200L70,200L90,200L110,142.38278625629002L130,142.38278625629002L150,142.38278625629002L170,142.38278625629002L190,142.38278625629002L210,143.07807251258004L230,143.07807251258004L250,143.07807251258004L270,143.07807251258004L290,143.07807251258004L310,131.84961832623998L330,131.84961832623998L350,131.84961832623998L370,131.84961832623998L390,131.84961832623998L410,134.0469872234145L430,134.0469872234145L450,134.0469872234145L470,134.0469872234145L490,134.0469872234145L510,135.61109565627015L530,135.61109565627015L550,135.61109565627015L570,135.61109565627015L590,135.61109565627015L610,198.8832502271794L630,198.8832502271794L650,198.8832502271794L670,198.8832502271794L690,198.8832502271794L710,189.40450188378017L730,189.40450188378017L750,189.40450188378017L770,189.40450188378017L790,189.40450188378017L810,189.40450188378017L810,192.2746076168139L790,192.2746076168139L770,192.2746076168139L750,192.2746076168139L730,192.2746076168139L710,192.2746076168139L690,198.8832502271794L670,198.8832502271794L650,198.8832502271794L630,198.8832502271794L610,198.8832502271794L590,135.61109565627015L570,135.61109565627015L550,135.61109565627015L530,135.61109565627015L510,135.61109565627015L490,134.0469872234145L470,134.0469872234145L450,134.0469872234145L430,134.0469872234145L410,134.0469872234145L390,131.84961832623998L370,131.84961832623998L350,131.84961832623998L330,131.84961832623998L310,131.84961832623998L290,143.07807251258004L270,143.07807251258004L250,143.07807251258004L230,143.07807251258004L210,143.07807251258004L190,142.38278625629002L170,142.38278625629002L150,142.38278625629002L130,142.38278625629002L110,142.38278625629002L90,200L70,200L50,200L30,200L10,200Z" fill="#54a24b"/></g></g><path class="foreground" aria-hidden="true" d="" display="none"/></g><g transform="translate(0,0)"><path class="background" aria-hidden="true" d="M0,0h820v200h-820Z"/><g><g class="mark-area role-mark marks" role="graphics-object" aria-roledescription="area mark container"><path aria-label="year: 2020; GHG Emissions: 0; variable: x177" role="graphics-symbol" aria-roledescription="area mark" d="M10,200L30,200L50,200L70,200L90,200L110,142.38278625629002L130,142.38278625629002L150,142.38278625629002L170,142.38278625629002L190,142.38278625629002L210,143.07807251258004L230,143.07807251258004L250,143.07807251258004L270,143.07807251258004L290,143.07807251258004L310,131.84961832623998L330,131.84961832623998L350,131.84961832623998L370,131.84961832623998L390,131.84961832623998L410,134.0469872234145L430,134.0469872234145L450,134.0469872234145L470,134.0469872234145L490,134.0469872234145L510,135.61109565627015L530,135.61109565627015L550,135.61109565627015L570,135.61109565627015L590,135.61109565627015L610,198.8832502271794L630,198.8832502271794L650,198.8832502271794L670,198.8832502271794L690,198.8832502271794L710,192.2746076168139L730,192.2746076168139L750,192.2746076168139L770,192.2746076168139L790,192.2746076168139L810,192.2746076168139L810,200L790,200L770,200L750,200L730,200L710,200L690,200L670,200L650,200L630,200L610,200L590,148.37997223150182L570,148.37997223150182L550,148.37997223150182L530,148.37997223150182L510,148.37997223150182L490,147.18814816590583L470,147.18814816590583L450,147.18814816590583L430,147.18814816590583L410,147.18814816590583L390,145.51378915100088L370,145.51378915100088L350,145.51378915100088L330,145.51378915100088L310,145.51378915100088L290,143.07807251258004L270,143.07807251258004L250,143.07807251258004L230,143.07807251258004L210,143.07807251258004L190,142.38278625629002L170,142.38278625629002L150,142.38278625629002L130,142.38278625629002L110,142.38278625629002L90,200L70,200L50,200L30,200L10,200Z" fill="#eeca3b"/></g></g><path class="foreground" aria-hidden="true" d="" display="none"/></g><g transform="translate(0,0)"><path class="background" aria-hidden="true" d="M0,0h820v200h-820Z"/><g><g class="mark-area role-mark marks" role="graphics-object" aria-roledescription="area mark container"><path aria-label="year: 2020; GHG Emissions: 0; variable: x178" role="graphics-symbol" aria-roledescription="area mark" d="M10,200L30,200L50,200L70,200L90,200L110,142.38278625629002L130,142.38278625629002L150,142.38278625629002L170,142.38278625629002L190,142.38278625629002L210,143.07807251258004L230,143.07807251258004L250,143.07807251258004L270,143.07807251258004L290,143.07807251258004L310,145.51378915100088L330,145.51378915100088L350,145.51378915100088L370,145.51378915100088L390,145.51378915100088L410,147.18814816590583L430,147.18814816590583L450,147.18814816590583L470,147.18814816590583L490,147.18814816590583L510,148.37997223150182L530,148.37997223150182L550,148.37997223150182L570,148.37997223150182L590,148.37997223150182L610,200L630,200L650,200L670,200L690,200L710,200L730,200L750,200L770,200L790,200L810,200L810,200L790,200L770,200L750,200L730,200L710,200L690,200L670,200L650,200L630,200L610,200L590,148.37997223150182L570,148.37997223150182L550,148.37997223150182L530,148.37997223150182L510,148.37997223150182L490,147.18814816590583L470,147.18814816590583L450,147.18814816590583L430,147.18814816590583L410,147.18814816590583L390,145.51378915100088L370,145.51378915100088L350,145.51378915100088L330,145.51378915100088L310,145.51378915100088L290,200L270,200L250,200L230,200L210,200L190,200L170,200L150,200L130,200L110,200L90,200L70,200L50,200L30,200L10,200Z" fill="#b279a2"/></g></g><path class="foreground" aria-hidden="true" d="" display="none"/></g><g transform="translate(0,0)"><path class="background" aria-hidden="true" d="M0,0h820v200h-820Z"/><g><g class="mark-area role-mark marks" role="graphics-object" aria-roledescription="area mark container"><path aria-label="year: 2020; GHG Emissions: 0; variable: x186" role="graphics-symbol" aria-roledescription="area mark" d="M10,200L30,200L50,200L70,200L90,200L110,200L130,200L150,200L170,200L190,200L210,200L230,200L250,200L270,200L290,200L310,145.51378915100088L330,145.51378915100088L350,145.51378915100088L370,145.51378915100088L390,145.51378915100088L410,147.18814816590583L430,147.18814816590583L450,147.18814816590583L470,147.18814816590583L490,147.18814816590583L510,148.37997223150182L530,148.37997223150182L550,148.37997223150182L570,148.37997223150182L590,148.37997223150182L610,200L630,200L650,200L670,200L690,200L710,200L730,200L750,200L770,200L790,200L810,200L810,200L790,200L770,200L750,200L730,200L710,200L690,200L670,200L650,200L630,200L610,200L590,148.37997281509564L570,148.37997281509564L550,148.37997281509564L530,148.37997281509564L510,148.37997281509564L490,147.18814816590583L470,147.18814816590583L450,147.18814816590583L430,147.18814816590583L410,147.18814816590583L390,145.51378915100088L370,145.51378915100088L350,145.51378915100088L330,145.51378915100088L310,145.51378915100088L290,200L270,200L250,200L230,200L210,200L190,200L170,200L150,200L130,200L110,200L90,200L70,200L50,200L30,200L10,200Z" fill="#ff9da6"/></g></g><path class="foreground" aria-hidden="true" d="" display="none"/></g><g transform="translate(0,0)"><path class="background" aria-hidden="true" d="M0,0h820v200h-820Z"/><g><g class="mark-area role-mark marks" role="graphics-object" aria-roledescription="area mark container"><path aria-label="year: 2020; GHG Emissions: 0; variable: x187" role="graphics-symbol" aria-roledescription="area mark" d="M10,200L30,200L50,200L70,200L90,200L110,200L130,200L150,200L170,200L190,200L210,200L230,200L250,200L270,200L290,200L310,145.51378915100088L330,145.51378915100088L350,145.51378915100088L370,145.51378915100088L390,145.51378915100088L410,147.18814816590583L430,147.18814816590583L450,147.18814816590583L470,147.18814816590583L490,147.18814816590583L510,148.37997281509564L530,148.37997281509564L550,148.37997281509564L570,148.37997281509564L590,148.37997281509564L610,200L630,200L650,200L670,200L690,200L710,200L730,200L750,200L770,200L790,200L810,200L810,200L790,200L770,200L750,200L730,200L710,200L690,200L670,200L650,200L630,200L610,200L590,148.3799734339149L570,148.3799734339149L550,148.3799734339149L530,148.3799734339149L510,148.3799734339149L490,147.18814816590583L470,147.18814816590583L450,147.18814816590583L430,147.18814816590583L410,147.18814816590583L390,145.51378915100088L370,145.51378915100088L350,145.51378915100088L330,145.51378915100088L310,145.51378915100088L290,200L270,200L250,200L230,200L210,200L190,200L170,200L150,200L130,200L110,200L90,200L70,200L50,200L30,200L10,200Z" fill="#9d755d"/></g></g><path class="foreground" aria-hidden="true" d="" display="none"/></g><g transform="translate(0,0)"><path class="background" aria-hidden="true" d="M0,0h820v200h-820Z"/><g><g class="mark-area role-mark marks" role="graphics-object" aria-roledescription="area mark container"><path aria-label="year: 2020; GHG Emissions: 8; variable: Conv" role="graphics-symbol" aria-roledescription="area mark" d="M10,0L30,0L50,0L70,0L90,0L110,142.38278625629002L130,142.38278625629002L150,142.38278625629002L170,142.38278625629002L190,142.38278625629002L210,143.07807251258004L230,143.07807251258004L250,143.07807251258004L270,143.07807251258004L290,143.07807251258004L310,131.84961832623998L330,131.84961832623998L350,131.84961832623998L370,131.84961832623998L390,131.84961832623998L410,134.0469872234145L430,134.0469872234145L450,134.0469872234145L470,134.0469872234145L490,134.0469872234145L510,135.6110930377973L530,135.6110930377973L550,135.6110930377973L570,135.6110930377973L590,135.6110930377973L610,182.4999732606377L630,182.4999732606377L650,182.4999732606377L670,182.4999732606377L690,182.4999732606377L710,182.49998466768284L730,182.49998466768284L750,182.49998466768284L770,182.49998466768284L790,182.49998466768284L810,182.49998466768284L810,182.49998993197693L790,182.49998993197693L770,182.49998993197693L750,182.49998993197693L730,182.49998993197693L710,182.49998993197693L690,182.4999732606377L670,182.4999732606377L650,182.4999732606377L630,182.4999732606377L610,182.4999732606377L590,135.61109565627015L570,135.61109565627015L550,135.61109565627015L530,135.61109565627015L510,135.61109565627015L490,134.0469872234145L470,134.0469872234145L450,134.0469872234145L430,134.0469872234145L410,134.0469872234145L390,131.84961832623998L370,131.84961832623998L350,131.84961832623998L330,131.84961832623998L310,131.84961832623998L290,143.07807251258004L270,143.07807251258004L250,143.07807251258004L230,143.07807251258004L210,143.07807251258004L190,142.38278625629002L170,142.38278625629002L150,142.38278625629002L130,142.38278625629002L110,142.38278625629002L90,200L70,200L50,200L30,200L10,200Z" fill="#4c78a8"/></g></g><path class="foreground" aria-hidden="true" d="" display="none"/></g></g><g class="mark-group role-legend" role="graphics-symbol" aria-roledescription="legend" aria-label="Symbol legend titled 'variable' for fill color with 10 values: Conv, x1, x134, x157, x158, ending with x22"><g transform="translate(838,0)"><path class="background" aria-hidden="true" d="M0,0h72v149h-72Z" pointer-events="none"/><g><g class="mark-group role-legend-entry"><g transform="translate(0,21)"><path class="background" aria-hidden="true" d="M0,0h0v0h0Z" pointer-events="none"/><g><g class="mark-group role-scope" role="graphics-object" aria-roledescription="group mark container"><g transform="translate(0,0)"><path class="background" aria-hidden="true" d="M0,0h41v11h-41Z" pointer-events="none" opacity="1"/><g><g class="mark-symbol role-legend-symbol" pointer-events="none"><path transform="translate(6,6)" d="M5,0A5,5,0,1,1,-5,0A5,5,0,1,1,5,0" fill="#4c78a8" stroke-width="1.5" opacity="1"/></g><g class="mark-text role-legend-label" pointer-events="none"><text text-anchor="start" transform="translate(16,9)" font-family="sans-serif" font-size="10px" fill="#000" opacity="1">Conv</text></g></g><path class="foreground" aria-hidden="true" d="" pointer-events="none" display="none"/></g><g transform="translate(0,13)"><path class="background" aria-hidden="true" d="M0,0h41v11h-41Z" pointer-events="none" opacity="1"/><g><g class="mark-symbol role-legend-symbol" pointer-events="none"><path transform="translate(6,6)" d="M5,0A5,5,0,1,1,-5,0A5,5,0,1,1,5,0" fill="#f58518" stroke-width="1.5" opacity="1"/></g><g class="mark-text role-legend-label" pointer-events="none"><text text-anchor="start" transform="translate(16,9)" font-family="sans-serif" font-size="10px" fill="#000" opacity="1">x1</text></g></g><path class="foreground" aria-hidden="true" d="" pointer-events="none" display="none"/></g><g transform="translate(0,26)"><path class="background" aria-hidden="true" d="M0,0h41v11h-41Z" pointer-events="none" opacity="1"/><g><g class="mark-symbol role-legend-symbol" pointer-events="none"><path transform="translate(6,6)" d="M5,0A5,5,0,1,1,-5,0A5,5,0,1,1,5,0" fill="#e45756" stroke-width="1.5" opacity="1"/></g><g class="mark-text role-legend-label" pointer-events="none"><text text-anchor="start" transform="translate(16,9)" font-family="sans-serif" font-size="10px" fill="#000" opacity="1">x134</text></g></g><path class="foreground" aria-hidden="true" d="" pointer-events="none" display="none"/></g><g transform="translate(0,39)"><path class="background" aria-hidden="true" d="M0,0h41v11h-41Z" pointer-events="none" opacity="1"/><g><g class="mark-symbol role-legend-symbol" pointer-events="none"><path transform="translate(6,6)" d="M5,0A5,5,0,1,1,-5,0A5,5,0,1,1,5,0" fill="#72b7b2" stroke-width="1.5" opacity="1"/></g><g class="mark-text role-legend-label" pointer-events="none"><text text-anchor="start" transform="translate(16,9)" font-family="sans-serif" font-size="10px" fill="#000" opacity="1">x157</text></g></g><path class="foreground" aria-hidden="true" d="" pointer-events="none" display="none"/></g><g transform="translate(0,52)"><path class="background" aria-hidden="true" d="M0,0h41v11h-41Z" pointer-events="none" opacity="1"/><g><g class="mark-symbol role-legend-symbol" pointer-events="none"><path transform="translate(6,6)" d="M5,0A5,5,0,1,1,-5,0A5,5,0,1,1,5,0" fill="#54a24b" stroke-width="1.5" opacity="1"/></g><g class="mark-text role-legend-label" pointer-events="none"><text text-anchor="start" transform="translate(16,9)" font-family="sans-serif" font-size="10px" fill="#000" opacity="1">x158</text></g></g><path class="foreground" aria-hidden="true" d="" pointer-events="none" display="none"/></g><g transform="translate(0,65)"><path class="background" aria-hidden="true" d="M0,0h41v11h-41Z" pointer-events="none" opacity="1"/><g><g class="mark-symbol role-legend-symbol" pointer-events="none"><path transform="translate(6,6)" d="M5,0A5,5,0,1,1,-5,0A5,5,0,1,1,5,0" fill="#eeca3b" stroke-width="1.5" opacity="1"/></g><g class="mark-text role-legend-label" pointer-events="none"><text text-anchor="start" transform="translate(16,9)" font-family="sans-serif" font-size="10px" fill="#000" opacity="1">x177</text></g></g><path class="foreground" aria-hidden="true" d="" pointer-events="none" display="none"/></g><g transform="translate(0,78)"><path class="background" aria-hidden="true" d="M0,0h41v11h-41Z" pointer-events="none" opacity="1"/><g><g class="mark-symbol role-legend-symbol" pointer-events="none"><path transform="translate(6,6)" d="M5,0A5,5,0,1,1,-5,0A5,5,0,1,1,5,0" fill="#b279a2" stroke-width="1.5" opacity="1"/></g><g class="mark-text role-legend-label" pointer-events="none"><text text-anchor="start" transform="translate(16,9)" font-family="sans-serif" font-size="10px" fill="#000" opacity="1">x178</text></g></g><path class="foreground" aria-hidden="true" d="" pointer-events="none" display="none"/></g><g transform="translate(0,91)"><path class="background" aria-hidden="true" d="M0,0h41v11h-41Z" pointer-events="none" opacity="1"/><g><g class="mark-symbol role-legend-symbol" pointer-events="none"><path transform="translate(6,6)" d="M5,0A5,5,0,1,1,-5,0A5,5,0,1,1,5,0" fill="#ff9da6" stroke-width="1.5" opacity="1"/></g><g class="mark-text role-legend-label" pointer-events="none"><text text-anchor="start" transform="translate(16,9)" font-family="sans-serif" font-size="10px" fill="#000" opacity="1">x186</text></g></g><path class="foreground" aria-hidden="true" d="" pointer-events="none" display="none"/></g><g transform="translate(0,104)"><path class="background" aria-hidden="true" d="M0,0h41v11h-41Z" pointer-events="none" opacity="1"/><g><g class="mark-symbol role-legend-symbol" pointer-events="none"><path transform="translate(6,6)" d="M5,0A5,5,0,1,1,-5,0A5,5,0,1,1,5,0" fill="#9d755d" stroke-width="1.5" opacity="1"/></g><g class="mark-text role-legend-label" pointer-events="none"><text text-anchor="start" transform="translate(16,9)" font-family="sans-serif" font-size="10px" fill="#000" opacity="1">x187</text></g></g><path class="foreground" aria-hidden="true" d="" pointer-events="none" display="none"/></g><g transform="translate(0,117)"><path class="background" aria-hidden="true" d="M0,0h41v11h-41Z" pointer-events="none" opacity="1"/><g><g class="mark-symbol role-legend-symbol" pointer-events="none"><path transform="translate(6,6)" d="M5,0A5,5,0,1,1,-5,0A5,5,0,1,1,5,0" fill="#bab0ac" stroke-width="1.5" opacity="1"/></g><g class="mark-text role-legend-label" pointer-events="none"><text text-anchor="start" transform="translate(16,9)" font-family="sans-serif" font-size="10px" fill="#000" opacity="1">x22</text></g></g><path class="foreground" aria-hidden="true" d="" pointer-events="none" display="none"/></g></g></g><path class="foreground" aria-hidden="true" d="" pointer-events="none" display="none"/></g></g><g class="mark-text role-legend-title" pointer-events="none"><text text-anchor="start" transform="translate(0,13)" font-family="sans-serif" font-size="16px" font-weight="bold" fill="#000" opacity="1">variable</text></g></g><path class="foreground" aria-hidden="true" d="" pointer-events="none" display="none"/></g></g></g><path class="foreground" aria-hidden="true" d="" display="none"/></g></g></g></svg>
