<?xml version="1.0" encoding="utf-8"?>
<!DOCTYPE svg PUBLIC "-//W3C//DTD SVG 1.1//EN" "http://www.w3.org/Graphics/SVG/1.1/DTD/svg11.dtd">
<svg xmlns="http://www.w3.org/2000/svg" xmlns:xlink="http://www.w3.org/1999/xlink" version="1.1" class="marks" width="956" height="280" viewBox="0 0 956 280"><rect width="956" height="280" fill="white"/><g fill="none" stroke-miterlimit="10" transform="translate(41,12)"><g class="mark-group role-frame root" role="graphics-object" aria-roledescription="group mark container"><g transform="translate(0,0)"><path class="background" aria-hidden="true" d="M0.5,0.5h820v200h-820Z" stroke="#ddd"/><g><g class="mark-group role-axis" aria-hidden="true"><g transform="translate(0.5,0.5)"><path class="background" aria-hidden="true" d="M0,0h0v0h0Z" pointer-events="none"/><g><g class="mark-rule role-axis-grid" pointer-events="none"><line transform="translate(0,178)" x2="820" y2="0" stroke="#ddd" stroke-width="1" opacity="1"/><line transform="translate(0,133)" x2="820" y2="0" stroke="#ddd" stroke-width="1" opacity="1"/><line transform="translate(0,89)" x2="820" y2="0" stroke="#ddd" stroke-width="1" opacity="1"/><line transform="translate(0,44)" x2="820" y2="0" stroke="#ddd" stroke-width="1" opacity="1"/><line transform="translate(0,0)" x2="820" y2="0" stroke="#ddd" stroke-width="1" opacity="1"/></g></g><path class="foreground" aria-hidden="true" d="" pointer-events="none" display="none"/></g></g><g class="mark-group role-axis" role="graphics-symbol" aria-roledescription="axis" aria-label="X-axis titled 'year' for a discrete scale with 41 values: 2020, 2021, 2022, 2023, 2024, ending with 2060"><g transform="translate(0.5,200.5)"><path class="background" aria-hidden="true" d="M0,0h0v0h0Z" pointer-events="none"/><g><g class="mark-rule role-axis-tick" pointer-events="none"><line transform="translate(10,0)" x2="0" y2="5" stroke="#888" stroke-width="1" opacity="1"/><line transform="translate(30,0)" x2="0" y2="5" stroke="#888" stroke-width="1" opacity="1"/><line transform="translate(50,0)" x2="0" y2="5" stroke="#888" stroke-width="1" opacity="1"/><line transform="translate(70,0)" x2="0" y2="5" stroke="#888" stroke-width="1" opacity="1"/><line transform="translate(90,0)" x2="0" y2="5" stroke="#888" stroke-width="1" opacity="1"/><line transform="translate(110,0)" x2="0" y2="5" stroke="#888" stroke-width="1" opacity="1"/><line transform="translate(130,0)" x2="0" y2="5" stroke="#888" stroke-width="1" opacity="1"/><line transform="translate(150,0)" x2="0" y2="5" stroke="#888" stroke-width="1" opacity="1"/><line transform="translate(170,0)" x2="0" y2="5" stroke="#888" stroke-width="1" opacity="1"/><line transform="translate(190,0)" x2="0" y2="5" stroke="#888" stroke-width="1" opacity="1"/><line transform="translate(210,0)" x2="0" y2="5" stroke="#888" stroke-width="1" opacity="1"/><line transform="translate(230,0)" x2="0" y2="5" stroke="#888" stroke-width="1" opacity="1"/><line transform="translate(250,0)" x2="0" y2="5" stroke="#888" stroke-width="1" opacity="1"/><line transform="translate(270,0)" x2="0" y2="5" stroke="#888" stroke-width="1" opacity="1"/><line transform="translate(290,0)" x2="0" y2="5" stroke="#888" stroke-width="1" opacity="1"/><line transform="translate(310,0)" x2="0" y2="5" stroke="#888" stroke-width="1" opacity="1"/><line transform="translate(330,0)" x2="0" y2="5" stroke="#888" stroke-width="1" opacity="1"/><line transform="translate(350,0)" x2="0" y2="5" stroke="#888" stroke-width="1" opacity="1"/><line transform="translate(370,0)" x2="0" y2="5" stroke="#888" stroke-width="1" opacity="1"/><line transform="translate(390,0)" x2="0" y2="5" stroke="#888" stroke-width="1" opacity="1"/><line transform="translate(410,0)" x2="0" y2="5" stroke="#888" stroke-width="1" opacity="1"/><line transform="translate(430,0)" x2="0" y2="5" stroke="#888" stroke-width="1" opacity="1"/><line transform="translate(450,0)" x2="0" y2="5" stroke="#888" stroke-width="1" opacity="1"/><line transform="translate(470,0)" x2="0" y2="5" stroke="#888" stroke-width="1" opacity="1"/><line transform="translate(490,0)" x2="0" y2="5" stroke="#888" stroke-width="1" opacity="1"/><line transform="translate(510,0)" x2="0" y2="5" stroke="#888" stroke-width="1" opacity="1"/><line transform="translate(530,0)" x2="0" y2="5" stroke="#888" stroke-width="1" opacity="1"/><line transform="translate(550,0)" x2="0" y2="5" stroke="#888" stroke-width="1" opacity="1"/><line transform="translate(570,0)" x2="0" y2="5" stroke="#888" stroke-width="1" opacity="1"/><line transform="translate(590,0)" x2="0" y2="5" stroke="#888" stroke-width="1" opacity="1"/><line transform="translate(610,0)" x2="0" y2="5" stroke="#888" stroke-width="1" opacity="1"/><line transform="translate(630,0)" x2="0" y2="5" stroke="#888" stroke-width="1" opacity="1"/><line transform="translate(650,0)" x2="0" y2="5" stroke="#888" stroke-width="1" opacity="1"/><line transform="translate(670,0)" x2="0" y2="5" stroke="#888" stroke-width="1" opacity="1"/><line transform="translate(690,0)" x2="0" y2="5" stroke="#888" stroke-width="1" opacity="1"/><line transform="translate(710,0)" x2="0" y2="5" stroke="#888" stroke-width="1" opacity="1"/><line transform="translate(730,0)" x2="0" y2="5" stroke="#888" stroke-width="1" opacity="1"/><line transform="translate(750,0)" x2="0" y2="5" stroke="#888" stroke-width="1" opacity="1"/><line transform="translate(770,0)" x2="0" y2="5" stroke="#888" stroke-width="1" opacity="1"/><line transform="translate(790,0)" x2="0" y2="5" stroke="#888" stroke-width="1" opacity="1"/><line transform="translate(810,0)" x2="0" y2="5" stroke="#888" stroke-width="1" opacity="1"/></g><g class="mark-text role-axis-label" pointer-events="none"><text text-anchor="end" transform="translate(10,7) rotate(270) translate(0,4)" font-family="sans-serif" font-size="14px" fill="#000" opacity="1">2020</text><text text-anchor="end" transform="translate(30,7) rotate(270) translate(0,4)" font-family="sans-serif" font-size="14px" fill="#000" opacity="1">2021</text><text text-anchor="end" transform="translate(50,7) rotate(270) translate(0,4)" font-family="sans-serif" font-size="14px" fill="#000" opacity="1">2022</text><text text-anchor="end" transform="translate(70,7) rotate(270) translate(0,4)" font-family="sans-serif" font-size="14px" fill="#000" opacity="1">2023</text><text text-anchor="end" transform="translate(90,7) rotate(270) translate(0,4)" font-family="sans-serif" font-size="14px" fill="#000" opacity="1">2024</text><text text-anchor="end" transform="translate(110,7) rotate(270) translate(0,4)" font-family="sans-serif" font-size="14px" fill="#000" opacity="1">2025</text><text text-anchor="end" transform="translate(130,7) rotate(270) translate(0,4)" font-family="sans-serif" font-size="14px" fill="#000" opacity="1">2026</text><text text-anchor="end" transform="translate(150,7) rotate(270) translate(0,4)" font-family="sans-serif" font-size="14px" fill="#000" opacity="1">2027</text><text text-anchor="end" transform="translate(170,7) rotate(270) translate(0,4)" font-family="sans-serif" font-size="14px" fill="#000" opacity="1">2028</text><text text-anchor="end" transform="translate(190,7) rotate(270) translate(0,4)" font-family="sans-serif" font-size="14px" fill="#000" opacity="1">2029</text><text text-anchor="end" transform="translate(210,7) rotate(270) translate(0,4)" font-family="sans-serif" font-size="14px" fill="#000" opacity="1">2030</text><text text-anchor="end" transform="translate(230,7) rotate(270) translate(0,4)" font-family="sans-serif" font-size="14px" fill="#000" opacity="1">2031</text><text text-anchor="end" transform="translate(250,7) rotate(270) translate(0,4)" font-family="sans-serif" font-size="14px" fill="#000" opacity="1">2032</text><text text-anchor="end" transform="translate(270,7) rotate(270) translate(0,4)" font-family="sans-serif" font-size="14px" fill="#000" opacity="1">2033</text><text text-anchor="end" transform="translate(290,7) rotate(270) translate(0,4)" font-family="sans-serif" font-size="14px" fill="#000" opacity="1">2034</text><text text-anchor="end" transform="translate(310,7) rotate(270) translate(0,4)" font-family="sans-serif" font-size="14px" fill="#000" opacity="1">2035</text><text text-anchor="end" transform="translate(330,7) rotate(270) translate(0,4)" font-family="sans-serif" font-size="14px" fill="#000" opacity="1">2036</text><text text-anchor="end" transform="translate(350,7) rotate(270) translate(0,4)" font-family="sans-serif" font-size="14px" fill="#000" opacity="1">2037</text><text text-anchor="end" transform="translate(370,7) rotate(270) translate(0,4)" font-family="sans-serif" font-size="14px" fill="#000" opacity="1">2038</text><text text-anchor="end" transform="translate(390,7) rotate(270) translate(0,4)" font-family="sans-serif" font-size="14px" fill="#000" opacity="1">2039</text><text text-anchor="end" transform="translate(410,7) rotate(270) translate(0,4)" font-family="sans-serif" font-size="14px" fill="#000" opacity="1">2040</text><text text-anchor="end" transform="translate(430,7) rotate(270) translate(0,4)" font-family="sans-serif" font-size="14px" fill="#000" opacity="1">2041</text><text text-anchor="end" transform="translate(450,7) rotate(270) translate(0,4)" font-family="sans-serif" font-size="14px" fill="#000" opacity="1">2042</text><text text-anchor="end" transform="translate(470,7) rotate(270) translate(0,4)" font-family="sans-serif" font-size="14px" fill="#000" opacity="1">2043</text><text text-anchor="end" transform="translate(490,7) rotate(270) translate(0,4)" font-family="sans-serif" font-size="14px" fill="#000" opacity="1">2044</text><text text-anchor="end" transform="translate(510,7) rotate(270) translate(0,4)" font-family="sans-serif" font-size="14px" fill="#000" opacity="1">2045</text><text text-anchor="end" transform="translate(530,7) rotate(270) translate(0,4)" font-family="sans-serif" font-size="14px" fill="#000" opacity="1">2046</text><text text-anchor="end" transform="translate(550,7) rotate(270) translate(0,4)" font-family="sans-serif" font-size="14px" fill="#000" opacity="1">2047</text><text text-anchor="end" transform="translate(570,7) rotate(270) translate(0,4)" font-family="sans-serif" font-size="14px" fill="#000" opacity="1">2048</text><text text-anchor="end" transform="translate(590,7) rotate(270) translate(0,4)" font-family="sans-serif" font-size="14px" fill="#000" opacity="1">2049</text><text text-anchor="end" transform="translate(610,7) rotate(270) translate(0,4)" font-family="sans-serif" font-size="14px" fill="#000" opacity="1">2050</text><text text-anchor="end" transform="translate(630,7) rotate(270) translate(0,4)" font-family="sans-serif" font-size="14px" fill="#000" opacity="1">2051</text><text text-anchor="end" transform="translate(650,7) rotate(270) translate(0,4)" font-family="sans-serif" font-size="14px" fill="#000" opacity="1">2052</text><text text-anchor="end" transform="translate(670,7) rotate(270) translate(0,4)" font-family="sans-serif" font-size="14px" fill="#000" opacity="1">2053</text><text text-anchor="end" transform="translate(690,7) rotate(270) translate(0,4)" font-family="sans-serif" font-size="14px" fill="#000" opacity="1">2054</text><text text-anchor="end" transform="translate(710,7) rotate(270) translate(0,4)" font-family="sans-serif" font-size="14px" fill="#000" opacity="1">2055</text><text text-anchor="end" transform="translate(730,7) rotate(270) translate(0,4)" font-family="sans-serif" font-size="14px" fill="#000" opacity="1">2056</text><text text-anchor="end" transform="translate(750,7) rotate(270) translate(0,4)" font-family="sans-serif" font-size="14px" fill="#000" opacity="1">2057</text><text text-anchor="end" transform="translate(770,7) rotate(270) translate(0,4)" font-family="sans-serif" font-size="14px" fill="#000" opacity="1">2058</text><text text-anchor="end" transform="translate(790,7) rotate(270) translate(0,4)" font-family="sans-serif" font-size="14px" fill="#000" opacity="1">2059</text><text text-anchor="end" transform="translate(810,7) rotate(270) translate(0,4)" font-family="sans-serif" font-size="14px" fill="#000" opacity="1">2060</text></g><g class="mark-rule role-axis-domain" pointer-events="none"><line transform="translate(0,0)" x2="820" y2="0" stroke="#888" stroke-width="1" opacity="1"/></g><g class="mark-text role-axis-title" pointer-events="none"><text text-anchor="middle" transform="translate(410,60)" font-family="sans-serif" font-size="16px" font-weight="bold" fill="#000" opacity="1">year</text></g></g><path class="foreground" aria-hidden="true" d="" pointer-events="none" display="none"/></g></g><g class="mark-group role-axis" role="graphics-symbol" aria-roledescription="axis" aria-label="Y-axis titled 'GHG Emissions' for a linear scale with values from −1 to 8"><g transform="translate(0.5,0.5)"><path class="background" aria-hidden="true" d="M0,0h0v0h0Z" pointer-events="none"/><g><g class="mark-rule role-axis-tick" pointer-events="none"><line transform="translate(0,178)" x2="-5" y2="0" stroke="#888" stroke-width="1" opacity="1"/><line transform="translate(0,133)" x2="-5" y2="0" stroke="#888" stroke-width="1" opacity="1"/><line transform="translate(0,89)" x2="-5" y2="0" stroke="#888" stroke-width="1" opacity="1"/><line transform="translate(0,44)" x2="-5" y2="0" stroke="#888" stroke-width="1" opacity="1"/><line transform="translate(0,0)" x2="-5" y2="0" stroke="#888" stroke-width="1" opacity="1"/></g><g class="mark-text role-axis-label" pointer-events="none"><text text-anchor="end" transform="translate(-7,181.77777777777777)" font-family="sans-serif" font-size="14px" fill="#000" opacity="1">0</text><text text-anchor="end" transform="translate(-7,137.33333333333334)" font-family="sans-serif" font-size="14px" fill="#000" opacity="1">2</text><text text-anchor="end" transform="translate(-7,92.88888888888889)" font-family="sans-serif" font-size="14px" fill="#000" opacity="1">4</text><text text-anchor="end" transform="translate(-7,48.44444444444444)" font-family="sans-serif" font-size="14px" fill="#000" opacity="1">6</text><text text-anchor="end" transform="translate(-7,4)" font-family="sans-serif" font-size="14px" fill="#000" opacity="1">8</text></g><g class="mark-rule role-axis-domain" pointer-events="none"><line transform="translate(0,200)" x2="0" y2="-200" stroke="#888" stroke-width="1" opacity="1"/></g><g class="mark-text role-axis-title" pointer-events="none"><text text-anchor="middle" transform="translate(-20,100) rotate(-90) translate(0,-3)" font-family="sans-serif" font-size="16px" font-weight="bold" fill="#000" opacity="1">GHG Emissions</text></g></g><path class="foreground" aria-hidden="true" d="" pointer-events="none" display="none"/></g></g><g class="mark-group role-scope pathgroup" role="graphics-object" aria-roledescription="group mark container"><g transform="translate(0,0)"><path class="background" aria-hidden="true" d="M0,0h820v200h-820Z"/><g><g class="mark-area role-mark marks" role="graphics-object" aria-roledescription="area mark container"><path aria-label="year: 2020; GHG Emissions: 0; variable: x22" role="graphics-symbol" aria-roledescription="area mark" d="M10,177.77777777777777L30,177.77777777777777L50,177.77777777777777L70,177.77777777777777L90,177.77777777777777L110,177.77777777777777L130,177.77777777777777L150,177.77777777777777L170,177.77777777777777L190,177.77777777777777L210,177.77777777777777L230,177.77777777777777L250,177.77777777777777L270,177.77777777777777L290,177.77777777777777L310,131.0026001965383L330,131.0026001965383L350,131.0026001965383L370,131.0026001965383L390,131.0026001965383L410,133.06713287777401L430,133.06713287777401L450,133.06713287777401L470,133.06713287777401L490,133.06713287777401L510,134.7269457283884L530,134.7269457283884L550,134.7269457283884L570,134.7269457283884L590,134.7269457283884L610,175.6368554358829L630,175.6368554358829L650,175.6368554358829L670,175.6368554358829L690,175.6368554358829L710,171.0617910627811L730,171.0617910627811L750,171.0617910627811L770,171.0617910627811L790,171.0617910627811L810,171.0617910627811L810,175.06320901765022L790,175.06320901765022L770,175.06320901765022L750,175.06320901765022L730,175.06320901765022L710,175.06320901765022L690,175.6368554358829L670,175.6368554358829L650,175.6368554358829L630,175.6368554358829L610,175.6368554358829L590,177.77777777777777L570,177.77777777777777L550,177.77777777777777L530,177.77777777777777L510,177.77777777777777L490,177.77777777777777L470,177.77777777777777L450,177.77777777777777L430,177.77777777777777L410,177.77777777777777L390,177.77777777777777L370,177.77777777777777L350,177.77777777777777L330,177.77777777777777L310,177.77777777777777L290,177.77777777777777L270,177.77777777777777L250,177.77777777777777L230,177.77777777777777L210,177.77777777777777L190,177.77777777777777L170,177.77777777777777L150,177.77777777777777L130,177.77777777777777L110,177.77777777777777L90,177.77777777777777L70,177.77777777777777L50,177.77777777777777L30,177.77777777777777L10,177.77777777777777Z" fill="#54a24b"/></g></g><path class="foreground" aria-hidden="true" d="" display="none"/></g><g transform="translate(0,0)"><path class="background" aria-hidden="true" d="M0,0h820v200h-820Z"/><g><g class="mark-area role-mark marks" role="graphics-object" aria-roledescription="area mark container"><path aria-label="year: 2020; GHG Emissions: 0; variable: x29" role="graphics-symbol" aria-roledescription="area mark" d="M10,177.77777777777777L30,177.77777777777777L50,177.77777777777777L70,177.77777777777777L90,177.77777777777777L110,177.77777777777777L130,177.77777777777777L150,177.77777777777777L170,177.77777777777777L190,177.77777777777777L210,177.77777777777777L230,177.77777777777777L250,177.77777777777777L270,177.77777777777777L290,177.77777777777777L310,177.77777777777777L330,177.77777777777777L350,177.77777777777777L370,177.77777777777777L390,177.77777777777777L410,177.77777777777777L430,177.77777777777777L450,177.77777777777777L470,177.77777777777777L490,177.77777777777777L510,177.77777777777777L530,177.77777777777777L550,177.77777777777777L570,177.77777777777777L590,177.77777777777777L610,175.6368554358829L630,175.6368554358829L650,175.6368554358829L670,175.6368554358829L690,175.6368554358829L710,175.06320901765022L730,175.06320901765022L750,175.06320901765022L770,175.06320901765022L790,175.06320901765022L810,175.06320901765022L810,177.77777777777777L790,177.77777777777777L770,177.77777777777777L750,177.77777777777777L730,177.77777777777777L710,177.77777777777777L690,177.77777777777777L670,177.77777777777777L650,177.77777777777777L630,177.77777777777777L610,177.77777777777777L590,177.77777777777777L570,177.77777777777777L550,177.77777777777777L530,177.77777777777777L510,177.77777777777777L490,177.77777777777777L470,177.77777777777777L450,177.77777777777777L430,177.77777777777777L410,177.77777777777777L390,177.77777777777777L370,177.77777777777777L350,177.77777777777777L330,177.77777777777777L310,177.77777777777777L290,177.77777777777777L270,177.77777777777777L250,177.77777777777777L230,177.77777777777777L210,177.77777777777777L190,177.77777777777777L170,177.77777777777777L150,177.77777777777777L130,177.77777777777777L110,177.77777777777777L90,177.77777777777777L70,177.77777777777777L50,177.77777777777777L30,177.77777777777777L10,177.77777777777777Z" fill="#eeca3b"/></g></g><path class="foreground" aria-hidden="true" d="" display="none"/></g><g transform="translate(0,0)"><path class="background" aria-hidden="true" d="M0,0h820v200h-820Z"/><g><g class="mark-area role-mark marks" role="graphics-object" aria-roledescription="area mark container"><path aria-label="year: 2020; GHG Emissions: 0; variable: x134" role="graphics-symbol" aria-roledescription="area mark" d="M10,177.77777777777777L30,177.77777777777777L50,177.77777777777777L70,177.77777777777777L90,177.77777777777777L110,126.77776331831114L130,126.77776331831114L150,126.77776331831114L170,126.77776331831114L190,126.77776331831114L210,127.61108219217778L230,127.61108219217778L250,127.61108219217778L270,127.61108219217778L290,127.61108219217778L310,119.37426119498214L330,119.37426119498214L350,119.37426119498214L370,119.37426119498214L390,119.37426119498214L410,122.08368005949319L430,122.08368005949319L450,122.08368005949319L470,122.08368005949319L490,122.08368005949319L510,124.26195909081414L530,124.26195909081414L550,124.26195909081414L570,124.26195909081414L590,124.26195909081414L610,179.9186989350962L630,179.9186989350962L650,179.9186989350962L670,179.9186989350962L690,179.9186989350962L710,184.49376447156223L730,184.49376447156223L750,184.49376447156223L770,184.49376447156223L790,184.49376447156223L810,184.49376447156223L810,177.77777777777777L790,177.77777777777777L770,177.77777777777777L750,177.77777777777777L730,177.77777777777777L710,177.77777777777777L690,177.77777777777777L670,177.77777777777777L650,177.77777777777777L630,177.77777777777777L610,177.77777777777777L590,124.26195909081414L570,124.26195909081414L550,124.26195909081414L530,124.26195909081414L510,124.26195909081414L490,122.08368005949319L470,122.08368005949319L450,122.08368005949319L430,122.08368005949319L410,122.08368005949319L390,119.37426119498214L370,119.37426119498214L350,119.37426119498214L330,119.37426119498214L310,119.37426119498214L290,127.61108219217778L270,127.61108219217778L250,127.61108219217778L230,127.61108219217778L210,127.61108219217778L190,126.77776331831114L170,126.77776331831114L150,126.77776331831114L130,126.77776331831114L110,126.77776331831114L90,177.77777777777777L70,177.77777777777777L50,177.77777777777777L30,177.77777777777777L10,177.77777777777777Z" fill="#f58518"/></g></g><path class="foreground" aria-hidden="true" d="" display="none"/></g><g transform="translate(0,0)"><path class="background" aria-hidden="true" d="M0,0h820v200h-820Z"/><g><g class="mark-area role-mark marks" role="graphics-object" aria-roledescription="area mark container"><path aria-label="year: 2020; GHG Emissions: 0; variable: x177" role="graphics-symbol" aria-roledescription="area mark" d="M10,177.77777777777777L30,177.77777777777777L50,177.77777777777777L70,177.77777777777777L90,177.77777777777777L110,126.77776331831114L130,126.77776331831114L150,126.77776331831114L170,126.77776331831114L190,126.77776331831114L210,127.61108219217778L230,127.61108219217778L250,127.61108219217778L270,127.61108219217778L290,127.61108219217778L310,119.37426119498214L330,119.37426119498214L350,119.37426119498214L370,119.37426119498214L390,119.37426119498214L410,122.08368005949319L430,122.08368005949319L450,122.08368005949319L470,122.08368005949319L490,122.08368005949319L510,124.26195909081414L530,124.26195909081414L550,124.26195909081414L570,124.26195909081414L590,124.26195909081414L610,175.6368554358829L630,175.6368554358829L650,175.6368554358829L670,175.6368554358829L690,175.6368554358829L710,171.0617910627811L730,171.0617910627811L750,171.0617910627811L770,171.0617910627811L790,171.0617910627811L810,171.0617910627811L810,171.0617910627811L790,171.0617910627811L770,171.0617910627811L750,171.0617910627811L730,171.0617910627811L710,171.0617910627811L690,175.6368554358829L670,175.6368554358829L650,175.6368554358829L630,175.6368554358829L610,175.6368554358829L590,134.7269457283884L570,134.7269457283884L550,134.7269457283884L530,134.7269457283884L510,134.7269457283884L490,133.06713287777401L470,133.06713287777401L450,133.06713287777401L430,133.06713287777401L410,133.06713287777401L390,131.0026001965383L370,131.0026001965383L350,131.0026001965383L330,131.0026001965383L310,131.0026001965383L290,127.61108219217778L270,127.61108219217778L250,127.61108219217778L230,127.61108219217778L210,127.61108219217778L190,126.77776331831114L170,126.77776331831114L150,126.77776331831114L130,126.77776331831114L110,126.77776331831114L90,177.77777777777777L70,177.77777777777777L50,177.77777777777777L30,177.77777777777777L10,177.77777777777777Z" fill="#e45756"/></g></g><path class="foreground" aria-hidden="true" d="" display="none"/></g><g transform="translate(0,0)"><path class="background" aria-hidden="true" d="M0,0h820v200h-820Z"/><g><g class="mark-area role-mark marks" role="graphics-object" aria-roledescription="area mark container"><path aria-label="year: 2020; GHG Emissions: 0; variable: x178" role="graphics-symbol" aria-roledescription="area mark" d="M10,177.77777777777777L30,177.77777777777777L50,177.77777777777777L70,177.77777777777777L90,177.77777777777777L110,126.77776331831114L130,126.77776331831114L150,126.77776331831114L170,126.77776331831114L190,126.77776331831114L210,127.61108219217778L230,127.61108219217778L250,127.61108219217778L270,127.61108219217778L290,127.61108219217778L310,131.0026001965383L330,131.0026001965383L350,131.0026001965383L370,131.0026001965383L390,131.0026001965383L410,133.06713287777401L430,133.06713287777401L450,133.06713287777401L470,133.06713287777401L490,133.06713287777401L510,134.7269457283884L530,134.7269457283884L550,134.7269457283884L570,134.7269457283884L590,134.7269457283884L610,175.6368554358829L630,175.6368554358829L650,175.6368554358829L670,175.6368554358829L690,175.6368554358829L710,171.0617910627811L730,171.0617910627811L750,171.0617910627811L770,171.0617910627811L790,171.0617910627811L810,171.0617910627811L810,171.0617910627811L790,171.0617910627811L770,171.0617910627811L750,171.0617910627811L730,171.0617910627811L710,171.0617910627811L690,175.6368554358829L670,175.6368554358829L650,175.6368554358829L630,175.6368554358829L610,175.6368554358829L590,134.7269457283884L570,134.7269457283884L550,134.7269457283884L530,134.7269457283884L510,134.7269457283884L490,133.06713287777401L470,133.06713287777401L450,133.06713287777401L430,133.06713287777401L410,133.06713287777401L390,131.0026001965383L370,131.0026001965383L350,131.0026001965383L330,131.0026001965383L310,131.0026001965383L290,177.77777777777777L270,177.77777777777777L250,177.77777777777777L230,177.77777777777777L210,177.77777777777777L190,177.77777777777777L170,177.77777777777777L150,177.77777777777777L130,177.77777777777777L110,177.77777777777777L90,177.77777777777777L70,177.77777777777777L50,177.77777777777777L30,177.77777777777777L10,177.77777777777777Z" fill="#72b7b2"/></g></g><path class="foreground" aria-hidden="true" d="" display="none"/></g><g transform="translate(0,0)"><path class="background" aria-hidden="true" d="M0,0h820v200h-820Z"/><g><g class="mark-area role-mark marks" role="graphics-object" aria-roledescription="area mark container"><path aria-label="year: 2020; GHG Emissions: 8; variable: Conv" role="graphics-symbol" aria-roledescription="area mark" d="M10,0L30,0L50,0L70,0L90,0L110,126.77776331831114L130,126.77776331831114L150,126.77776331831114L170,126.77776331831114L190,126.77776331831114L210,127.61108219217778L230,127.61108219217778L250,127.61108219217778L270,127.61108219217778L290,127.61108219217778L310,119.37426119498214L330,119.37426119498214L350,119.37426119498214L370,119.37426119498214L390,119.37426119498214L410,122.08368005949315L430,122.08368005949315L450,122.08368005949315L470,122.08368005949315L490,122.08368005949315L510,124.2619590908141L530,124.2619590908141L550,124.2619590908141L570,124.2619590908141L590,124.2619590908141L610,175.6368554358829L630,175.6368554358829L650,175.6368554358829L670,175.6368554358829L690,175.6368554358829L710,184.49376447156226L730,184.49376447156226L750,184.49376447156226L770,184.49376447156226L790,184.49376447156226L810,184.49376447156226L810,184.49376447156223L790,184.49376447156223L770,184.49376447156223L750,184.49376447156223L730,184.49376447156223L710,184.49376447156223L690,175.6368554358829L670,175.6368554358829L650,175.6368554358829L630,175.6368554358829L610,175.6368554358829L590,124.26195909081414L570,124.26195909081414L550,124.26195909081414L530,124.26195909081414L510,124.26195909081414L490,122.08368005949319L470,122.08368005949319L450,122.08368005949319L430,122.08368005949319L410,122.08368005949319L390,119.37426119498214L370,119.37426119498214L350,119.37426119498214L330,119.37426119498214L310,119.37426119498214L290,127.61108219217778L270,127.61108219217778L250,127.61108219217778L230,127.61108219217778L210,127.61108219217778L190,126.77776331831114L170,126.77776331831114L150,126.77776331831114L130,126.77776331831114L110,126.77776331831114L90,177.77777777777777L70,177.77777777777777L50,177.77777777777777L30,177.77777777777777L10,177.77777777777777Z" fill="#4c78a8"/></g></g><path class="foreground" aria-hidden="true" d="" display="none"/></g></g><g class="mark-group role-legend" role="graphics-symbol" aria-roledescription="legend" aria-label="Symbol legend titled 'variable' for fill color with 6 values: Conv, x134, x177, x178, x22, x29"><g transform="translate(838,0)"><path class="background" aria-hidden="true" d="M0,0h72v97h-72Z" pointer-events="none"/><g><g class="mark-group role-legend-entry"><g transform="translate(0,21)"><path class="background" aria-hidden="true" d="M0,0h0v0h0Z" pointer-events="none"/><g><g class="mark-group role-scope" role="graphics-object" aria-roledescription="group mark container"><g transform="translate(0,0)"><path class="background" aria-hidden="true" d="M0,0h41v11h-41Z" pointer-events="none" opacity="1"/><g><g class="mark-symbol role-legend-symbol" pointer-events="none"><path transform="translate(6,6)" d="M5,0A5,5,0,1,1,-5,0A5,5,0,1,1,5,0" fill="#4c78a8" stroke-width="1.5" opacity="1"/></g><g class="mark-text role-legend-label" pointer-events="none"><text text-anchor="start" transform="translate(16,9)" font-family="sans-serif" font-size="10px" fill="#000" opacity="1">Conv</text></g></g><path class="foreground" aria-hidden="true" d="" pointer-events="none" display="none"/></g><g transform="translate(0,13)"><path class="background" aria-hidden="true" d="M0,0h41v11h-41Z" pointer-events="none" opacity="1"/><g><g class="mark-symbol role-legend-symbol" pointer-events="none"><path transform="translate(6,6)" d="M5,0A5,5,0,1,1,-5,0A5,5,0,1,1,5,0" fill="#f58518" stroke-width="1.5" opacity="1"/></g><g class="mark-text role-legend-label" pointer-events="none"><text text-anchor="start" transform="translate(16,9)" font-family="sans-serif" font-size="10px" fill="#000" opacity="1">x134</text></g></g><path class="foreground" aria-hidden="true" d="" pointer-events="none" display="none"/></g><g transform="translate(0,26)"><path class="background" aria-hidden="true" d="M0,0h41v11h-41Z" pointer-events="none" opacity="1"/><g><g class="mark-symbol role-legend-symbol" pointer-events="none"><path transform="translate(6,6)" d="M5,0A5,5,0,1,1,-5,0A5,5,0,1,1,5,0" fill="#e45756" stroke-width="1.5" opacity="1"/></g><g class="mark-text role-legend-label" pointer-events="none"><text text-anchor="start" transform="translate(16,9)" font-family="sans-serif" font-size="10px" fill="#000" opacity="1">x177</text></g></g><path class="foreground" aria-hidden="true" d="" pointer-events="none" display="none"/></g><g transform="translate(0,39)"><path class="background" aria-hidden="true" d="M0,0h41v11h-41Z" pointer-events="none" opacity="1"/><g><g class="mark-symbol role-legend-symbol" pointer-events="none"><path transform="translate(6,6)" d="M5,0A5,5,0,1,1,-5,0A5,5,0,1,1,5,0" fill="#72b7b2" stroke-width="1.5" opacity="1"/></g><g class="mark-text role-legend-label" pointer-events="none"><text text-anchor="start" transform="translate(16,9)" font-family="sans-serif" font-size="10px" fill="#000" opacity="1">x178</text></g></g><path class="foreground" aria-hidden="true" d="" pointer-events="none" display="none"/></g><g transform="translate(0,52)"><path class="background" aria-hidden="true" d="M0,0h41v11h-41Z" pointer-events="none" opacity="1"/><g><g class="mark-symbol role-legend-symbol" pointer-events="none"><path transform="translate(6,6)" d="M5,0A5,5,0,1,1,-5,0A5,5,0,1,1,5,0" fill="#54a24b" stroke-width="1.5" opacity="1"/></g><g class="mark-text role-legend-label" pointer-events="none"><text text-anchor="start" transform="translate(16,9)" font-family="sans-serif" font-size="10px" fill="#000" opacity="1">x22</text></g></g><path class="foreground" aria-hidden="true" d="" pointer-events="none" display="none"/></g><g transform="translate(0,65)"><path class="background" aria-hidden="true" d="M0,0h41v11h-41Z" pointer-events="none" opacity="1"/><g><g class="mark-symbol role-legend-symbol" pointer-events="none"><path transform="translate(6,6)" d="M5,0A5,5,0,1,1,-5,0A5,5,0,1,1,5,0" fill="#eeca3b" stroke-width="1.5" opacity="1"/></g><g class="mark-text role-legend-label" pointer-events="none"><text text-anchor="start" transform="translate(16,9)" font-family="sans-serif" font-size="10px" fill="#000" opacity="1">x29</text></g></g><path class="foreground" aria-hidden="true" d="" pointer-events="none" display="none"/></g></g></g><path class="foreground" aria-hidden="true" d="" pointer-events="none" display="none"/></g></g><g class="mark-text role-legend-title" pointer-events="none"><text text-anchor="start" transform="translate(0,13)" font-family="sans-serif" font-size="16px" font-weight="bold" fill="#000" opacity="1">variable</text></g></g><path class="foreground" aria-hidden="true" d="" pointer-events="none" display="none"/></g></g></g><path class="foreground" aria-hidden="true" d="" display="none"/></g></g></g></svg>
