<?xml version="1.0" encoding="utf-8"?>
<!DOCTYPE svg PUBLIC "-//W3C//DTD SVG 1.1//EN" "http://www.w3.org/Graphics/SVG/1.1/DTD/svg11.dtd">
<svg xmlns="http://www.w3.org/2000/svg" xmlns:xlink="http://www.w3.org/1999/xlink" version="1.1" class="marks" width="956" height="280" viewBox="0 0 956 280"><rect width="956" height="280" fill="white"/><g fill="none" stroke-miterlimit="10" transform="translate(41,12)"><g class="mark-group role-frame root" role="graphics-object" aria-roledescription="group mark container"><g transform="translate(0,0)"><path class="background" aria-hidden="true" d="M0.5,0.5h820v200h-820Z" stroke="#ddd"/><g><g class="mark-group role-axis" aria-hidden="true"><g transform="translate(0.5,0.5)"><path class="background" aria-hidden="true" d="M0,0h0v0h0Z" pointer-events="none"/><g><g class="mark-rule role-axis-grid" pointer-events="none"><line transform="translate(0,178)" x2="820" y2="0" stroke="#ddd" stroke-width="1" opacity="1"/><line transform="translate(0,133)" x2="820" y2="0" stroke="#ddd" stroke-width="1" opacity="1"/><line transform="translate(0,89)" x2="820" y2="0" stroke="#ddd" stroke-width="1" opacity="1"/><line transform="translate(0,44)" x2="820" y2="0" stroke="#ddd" stroke-width="1" opacity="1"/><line transform="translate(0,0)" x2="820" y2="0" stroke="#ddd" stroke-width="1" opacity="1"/></g></g><path class="foreground" aria-hidden="true" d="" pointer-events="none" display="none"/></g></g><g class="mark-group role-axis" role="graphics-symbol" aria-roledescription="axis" aria-label="X-axis titled 'year' for a discrete scale with 41 values: 2020, 2021, 2022, 2023, 2024, ending with 2060"><g transform="translate(0.5,200.5)"><path class="background" aria-hidden="true" d="M0,0h0v0h0Z" pointer-events="none"/><g><g class="mark-rule role-axis-tick" pointer-events="none"><line transform="translate(10,0)" x2="0" y2="5" stroke="#888" stroke-width="1" opacity="1"/><line transform="translate(30,0)" x2="0" y2="5" stroke="#888" stroke-width="1" opacity="1"/><line transform="translate(50,0)" x2="0" y2="5" stroke="#888" stroke-width="1" opacity="1"/><line transform="translate(70,0)" x2="0" y2="5" stroke="#888" stroke-width="1" opacity="1"/><line transform="translate(90,0)" x2="0" y2="5" stroke="#888" stroke-width="1" opacity="1"/><line transform="translate(110,0)" x2="0" y2="5" stroke="#888" stroke-width="1" opacity="1"/><line transform="translate(130,0)" x2="0" y2="5" stroke="#888" stroke-width="1" opacity="1"/><line transform="translate(150,0)" x2="0" y2="5" stroke="#888" stroke-width="1" opacity="1"/><line transform="translate(170,0)" x2="0" y2="5" stroke="#888" stroke-width="1" opacity="1"/><line transform="translate(190,0)" x2="0" y2="5" stroke="#888" stroke-width="1" opacity="1"/><line transform="translate(210,0)" x2="0" y2="5" stroke="#888" stroke-width="1" opacity="1"/><line transform="translate(230,0)" x2="0" y2="5" stroke="#888" stroke-width="1" opacity="1"/><line transform="translate(250,0)" x2="0" y2="5" stroke="#888" stroke-width="1" opacity="1"/><line transform="translate(270,0)" x2="0" y2="5" stroke="#888" stroke-width="1" opacity="1"/><line transform="translate(290,0)" x2="0" y2="5" stroke="#888" stroke-width="1" opacity="1"/><line transform="translate(310,0)" x2="0" y2="5" stroke="#888" stroke-width="1" opacity="1"/><line transform="translate(330,0)" x2="0" y2="5" stroke="#888" stroke-width="1" opacity="1"/><line transform="translate(350,0)" x2="0" y2="5" stroke="#888" stroke-width="1" opacity="1"/><line transform="translate(370,0)" x2="0" y2="5" stroke="#888" stroke-width="1" opacity="1"/><line transform="translate(390,0)" x2="0" y2="5" stroke="#888" stroke-width="1" opacity="1"/><line transform="translate(410,0)" x2="0" y2="5" stroke="#888" stroke-width="1" opacity="1"/><line transform="translate(430,0)" x2="0" y2="5" stroke="#888" stroke-width="1" opacity="1"/><line transform="translate(450,0)" x2="0" y2="5" stroke="#888" stroke-width="1" opacity="1"/><line transform="translate(470,0)" x2="0" y2="5" stroke="#888" stroke-width="1" opacity="1"/><line transform="translate(490,0)" x2="0" y2="5" stroke="#888" stroke-width="1" opacity="1"/><line transform="translate(510,0)" x2="0" y2="5" stroke="#888" stroke-width="1" opacity="1"/><line transform="translate(530,0)" x2="0" y2="5" stroke="#888" stroke-width="1" opacity="1"/><line transform="translate(550,0)" x2="0" y2="5" stroke="#888" stroke-width="1" opacity="1"/><line transform="translate(570,0)" x2="0" y2="5" stroke="#888" stroke-width="1" opacity="1"/><line transform="translate(590,0)" x2="0" y2="5" stroke="#888" stroke-width="1" opacity="1"/><line transform="translate(610,0)" x2="0" y2="5" stroke="#888" stroke-width="1" opacity="1"/><line transform="translate(630,0)" x2="0" y2="5" stroke="#888" stroke-width="1" opacity="1"/><line transform="translate(650,0)" x2="0" y2="5" stroke="#888" stroke-width="1" opacity="1"/><line transform="translate(670,0)" x2="0" y2="5" stroke="#888" stroke-width="1" opacity="1"/><line transform="translate(690,0)" x2="0" y2="5" stroke="#888" stroke-width="1" opacity="1"/><line transform="translate(710,0)" x2="0" y2="5" stroke="#888" stroke-width="1" opacity="1"/><line transform="translate(730,0)" x2="0" y2="5" stroke="#888" stroke-width="1" opacity="1"/><line transform="translate(750,0)" x2="0" y2="5" stroke="#888" stroke-width="1" opacity="1"/><line transform="translate(770,0)" x2="0" y2="5" stroke="#888" stroke-width="1" opacity="1"/><line transform="translate(790,0)" x2="0" y2="5" stroke="#888" stroke-width="1" opacity="1"/><line transform="translate(810,0)" x2="0" y2="5" stroke="#888" stroke-width="1" opacity="1"/></g><g class="mark-text role-axis-label" pointer-events="none"><text text-anchor="end" transform="translate(10,7) rotate(270) translate(0,4)" font-family="sans-serif" font-size="14px" fill="#000" opacity="1">2020</text><text text-anchor="end" transform="translate(30,7) rotate(270) translate(0,4)" font-family="sans-serif" font-size="14px" fill="#000" opacity="1">2021</text><text text-anchor="end" transform="translate(50,7) rotate(270) translate(0,4)" font-family="sans-serif" font-size="14px" fill="#000" opacity="1">2022</text><text text-anchor="end" transform="translate(70,7) rotate(270) translate(0,4)" font-family="sans-serif" font-size="14px" fill="#000" opacity="1">2023</text><text text-anchor="end" transform="translate(90,7) rotate(270) translate(0,4)" font-family="sans-serif" font-size="14px" fill="#000" opacity="1">2024</text><text text-anchor="end" transform="translate(110,7) rotate(270) translate(0,4)" font-family="sans-serif" font-size="14px" fill="#000" opacity="1">2025</text><text text-anchor="end" transform="translate(130,7) rotate(270) translate(0,4)" font-family="sans-serif" font-size="14px" fill="#000" opacity="1">2026</text><text text-anchor="end" transform="translate(150,7) rotate(270) translate(0,4)" font-family="sans-serif" font-size="14px" fill="#000" opacity="1">2027</text><text text-anchor="end" transform="translate(170,7) rotate(270) translate(0,4)" font-family="sans-serif" font-size="14px" fill="#000" opacity="1">2028</text><text text-anchor="end" transform="translate(190,7) rotate(270) translate(0,4)" font-family="sans-serif" font-size="14px" fill="#000" opacity="1">2029</text><text text-anchor="end" transform="translate(210,7) rotate(270) translate(0,4)" font-family="sans-serif" font-size="14px" fill="#000" opacity="1">2030</text><text text-anchor="end" transform="translate(230,7) rotate(270) translate(0,4)" font-family="sans-serif" font-size="14px" fill="#000" opacity="1">2031</text><text text-anchor="end" transform="translate(250,7) rotate(270) translate(0,4)" font-family="sans-serif" font-size="14px" fill="#000" opacity="1">2032</text><text text-anchor="end" transform="translate(270,7) rotate(270) translate(0,4)" font-family="sans-serif" font-size="14px" fill="#000" opacity="1">2033</text><text text-anchor="end" transform="translate(290,7) rotate(270) translate(0,4)" font-family="sans-serif" font-size="14px" fill="#000" opacity="1">2034</text><text text-anchor="end" transform="translate(310,7) rotate(270) translate(0,4)" font-family="sans-serif" font-size="14px" fill="#000" opacity="1">2035</text><text text-anchor="end" transform="translate(330,7) rotate(270) translate(0,4)" font-family="sans-serif" font-size="14px" fill="#000" opacity="1">2036</text><text text-anchor="end" transform="translate(350,7) rotate(270) translate(0,4)" font-family="sans-serif" font-size="14px" fill="#000" opacity="1">2037</text><text text-anchor="end" transform="translate(370,7) rotate(270) translate(0,4)" font-family="sans-serif" font-size="14px" fill="#000" opacity="1">2038</text><text text-anchor="end" transform="translate(390,7) rotate(270) translate(0,4)" font-family="sans-serif" font-size="14px" fill="#000" opacity="1">2039</text><text text-anchor="end" transform="translate(410,7) rotate(270) translate(0,4)" font-family="sans-serif" font-size="14px" fill="#000" opacity="1">2040</text><text text-anchor="end" transform="translate(430,7) rotate(270) translate(0,4)" font-family="sans-serif" font-size="14px" fill="#000" opacity="1">2041</text><text text-anchor="end" transform="translate(450,7) rotate(270) translate(0,4)" font-family="sans-serif" font-size="14px" fill="#000" opacity="1">2042</text><text text-anchor="end" transform="translate(470,7) rotate(270) translate(0,4)" font-family="sans-serif" font-size="14px" fill="#000" opacity="1">2043</text><text text-anchor="end" transform="translate(490,7) rotate(270) translate(0,4)" font-family="sans-serif" font-size="14px" fill="#000" opacity="1">2044</text><text text-anchor="end" transform="translate(510,7) rotate(270) translate(0,4)" font-family="sans-serif" font-size="14px" fill="#000" opacity="1">2045</text><text text-anchor="end" transform="translate(530,7) rotate(270) translate(0,4)" font-family="sans-serif" font-size="14px" fill="#000" opacity="1">2046</text><text text-anchor="end" transform="translate(550,7) rotate(270) translate(0,4)" font-family="sans-serif" font-size="14px" fill="#000" opacity="1">2047</text><text text-anchor="end" transform="translate(570,7) rotate(270) translate(0,4)" font-family="sans-serif" font-size="14px" fill="#000" opacity="1">2048</text><text text-anchor="end" transform="translate(590,7) rotate(270) translate(0,4)" font-family="sans-serif" font-size="14px" fill="#000" opacity="1">2049</text><text text-anchor="end" transform="translate(610,7) rotate(270) translate(0,4)" font-family="sans-serif" font-size="14px" fill="#000" opacity="1">2050</text><text text-anchor="end" transform="translate(630,7) rotate(270) translate(0,4)" font-family="sans-serif" font-size="14px" fill="#000" opacity="1">2051</text><text text-anchor="end" transform="translate(650,7) rotate(270) translate(0,4)" font-family="sans-serif" font-size="14px" fill="#000" opacity="1">2052</text><text text-anchor="end" transform="translate(670,7) rotate(270) translate(0,4)" font-family="sans-serif" font-size="14px" fill="#000" opacity="1">2053</text><text text-anchor="end" transform="translate(690,7) rotate(270) translate(0,4)" font-family="sans-serif" font-size="14px" fill="#000" opacity="1">2054</text><text text-anchor="end" transform="translate(710,7) rotate(270) translate(0,4)" font-family="sans-serif" font-size="14px" fill="#000" opacity="1">2055</text><text text-anchor="end" transform="translate(730,7) rotate(270) translate(0,4)" font-family="sans-serif" font-size="14px" fill="#000" opacity="1">2056</text><text text-anchor="end" transform="translate(750,7) rotate(270) translate(0,4)" font-family="sans-serif" font-size="14px" fill="#000" opacity="1">2057</text><text text-anchor="end" transform="translate(770,7) rotate(270) translate(0,4)" font-family="sans-serif" font-size="14px" fill="#000" opacity="1">2058</text><text text-anchor="end" transform="translate(790,7) rotate(270) translate(0,4)" font-family="sans-serif" font-size="14px" fill="#000" opacity="1">2059</text><text text-anchor="end" transform="translate(810,7) rotate(270) translate(0,4)" font-family="sans-serif" font-size="14px" fill="#000" opacity="1">2060</text></g><g class="mark-rule role-axis-domain" pointer-events="none"><line transform="translate(0,0)" x2="820" y2="0" stroke="#888" stroke-width="1" opacity="1"/></g><g class="mark-text role-axis-title" pointer-events="none"><text text-anchor="middle" transform="translate(410,60)" font-family="sans-serif" font-size="16px" font-weight="bold" fill="#000" opacity="1">year</text></g></g><path class="foreground" aria-hidden="true" d="" pointer-events="none" display="none"/></g></g><g class="mark-group role-axis" role="graphics-symbol" aria-roledescription="axis" aria-label="Y-axis titled 'GHG Emissions' for a linear scale with values from −1 to 8"><g transform="translate(0.5,0.5)"><path class="background" aria-hidden="true" d="M0,0h0v0h0Z" pointer-events="none"/><g><g class="mark-rule role-axis-tick" pointer-events="none"><line transform="translate(0,178)" x2="-5" y2="0" stroke="#888" stroke-width="1" opacity="1"/><line transform="translate(0,133)" x2="-5" y2="0" stroke="#888" stroke-width="1" opacity="1"/><line transform="translate(0,89)" x2="-5" y2="0" stroke="#888" stroke-width="1" opacity="1"/><line transform="translate(0,44)" x2="-5" y2="0" stroke="#888" stroke-width="1" opacity="1"/><line transform="translate(0,0)" x2="-5" y2="0" stroke="#888" stroke-width="1" opacity="1"/></g><g class="mark-text role-axis-label" pointer-events="none"><text text-anchor="end" transform="translate(-7,181.77777777777777)" font-family="sans-serif" font-size="14px" fill="#000" opacity="1">0</text><text text-anchor="end" transform="translate(-7,137.33333333333334)" font-family="sans-serif" font-size="14px" fill="#000" opacity="1">2</text><text text-anchor="end" transform="translate(-7,92.88888888888889)" font-family="sans-serif" font-size="14px" fill="#000" opacity="1">4</text><text text-anchor="end" transform="translate(-7,48.44444444444444)" font-family="sans-serif" font-size="14px" fill="#000" opacity="1">6</text><text text-anchor="end" transform="translate(-7,4)" font-family="sans-serif" font-size="14px" fill="#000" opacity="1">8</text></g><g class="mark-rule role-axis-domain" pointer-events="none"><line transform="translate(0,200)" x2="0" y2="-200" stroke="#888" stroke-width="1" opacity="1"/></g><g class="mark-text role-axis-title" pointer-events="none"><text text-anchor="middle" transform="translate(-20,100) rotate(-90) translate(0,-3)" font-family="sans-serif" font-size="16px" font-weight="bold" fill="#000" opacity="1">GHG Emissions</text></g></g><path class="foreground" aria-hidden="true" d="" pointer-events="none" display="none"/></g></g><g class="mark-group role-scope pathgroup" role="graphics-object" aria-roledescription="group mark container"><g transform="translate(0,0)"><path class="background" aria-hidden="true" d="M0,0h820v200h-820Z"/><g><g class="mark-area role-mark marks" role="graphics-object" aria-roledescription="area mark container"><path aria-label="year: 2020; GHG Emissions: 0; variable: x22" role="graphics-symbol" aria-roledescription="area mark" d="M10,177.77777777777777L30,177.77777777777777L50,177.77777777777777L70,177.77777777777777L90,177.77777777777777L110,177.77777777777777L130,177.77777777777777L150,177.77777777777777L170,177.77777777777777L190,177.77777777777777L210,177.77777777777777L230,177.77777777777777L250,177.77777777777777L270,177.77777777777777L290,177.77777777777777L310,134.3258017991787L330,134.3258017991787L350,134.3258017991787L370,134.3258017991787L390,134.3258017991787L410,138.0517467079835L430,138.0517467079835L450,138.0517467079835L470,138.0517467079835L490,138.0517467079835L510,139.77634189335868L530,139.77634189335868L550,139.77634189335868L570,139.77634189335868L590,139.77634189335868L610,177.42514042246214L630,177.42514042246214L650,177.42514042246214L670,177.42514042246214L690,177.42514042246214L710,174.24932190437173L730,174.24932190437173L750,174.24932190437173L770,174.24932190437173L790,174.24932190437173L810,174.24932190437173L810,177.77777777777777L790,177.77777777777777L770,177.77777777777777L750,177.77777777777777L730,177.77777777777777L710,177.77777777777777L690,177.77777777777777L670,177.77777777777777L650,177.77777777777777L630,177.77777777777777L610,177.77777777777777L590,177.77777777777777L570,177.77777777777777L550,177.77777777777777L530,177.77777777777777L510,177.77777777777777L490,177.77777777777777L470,177.77777777777777L450,177.77777777777777L430,177.77777777777777L410,177.77777777777777L390,177.77777777777777L370,177.77777777777777L350,177.77777777777777L330,177.77777777777777L310,177.77777777777777L290,177.77777777777777L270,177.77777777777777L250,177.77777777777777L230,177.77777777777777L210,177.77777777777777L190,177.77777777777777L170,177.77777777777777L150,177.77777777777777L130,177.77777777777777L110,177.77777777777777L90,177.77777777777777L70,177.77777777777777L50,177.77777777777777L30,177.77777777777777L10,177.77777777777777Z" fill="#54a24b"/></g></g><path class="foreground" aria-hidden="true" d="" display="none"/></g><g transform="translate(0,0)"><path class="background" aria-hidden="true" d="M0,0h820v200h-820Z"/><g><g class="mark-area role-mark marks" role="graphics-object" aria-roledescription="area mark container"><path aria-label="year: 2020; GHG Emissions: 0; variable: x144" role="graphics-symbol" aria-roledescription="area mark" d="M10,177.77777777777777L30,177.77777777777777L50,177.77777777777777L70,177.77777777777777L90,177.77777777777777L110,127.10877950199111L130,127.10877950199111L150,127.10877950199111L170,127.10877950199111L190,127.10877950199111L210,128.27311455953782L230,128.27311455953782L250,128.27311455953782L270,128.27311455953782L290,128.27311455953782L310,123.73551214276463L330,123.73551214276463L350,123.73551214276463L370,123.73551214276463L390,123.73551214276463L410,128.62530900371937L430,128.62530900371937L450,128.62530900371937L470,128.62530900371937L490,128.62530900371937L510,130.8886060546063L530,130.8886060546063L550,130.8886060546063L570,130.8886060546063L590,130.8886060546063L610,183.9726638253688L630,183.9726638253688L650,183.9726638253688L670,183.9726638253688L690,183.9726638253688L710,187.0892793571619L730,187.0892793571619L750,187.0892793571619L770,187.0892793571619L790,187.0892793571619L810,187.0892793571619L810,177.77777777777777L790,177.77777777777777L770,177.77777777777777L750,177.77777777777777L730,177.77777777777777L710,177.77777777777777L690,177.77777777777777L670,177.77777777777777L650,177.77777777777777L630,177.77777777777777L610,177.77777777777777L590,130.8886060546063L570,130.8886060546063L550,130.8886060546063L530,130.8886060546063L510,130.8886060546063L490,128.62530900371937L470,128.62530900371937L450,128.62530900371937L430,128.62530900371937L410,128.62530900371937L390,123.73551214276463L370,123.73551214276463L350,123.73551214276463L330,123.73551214276463L310,123.73551214276463L290,128.27311455953782L270,128.27311455953782L250,128.27311455953782L230,128.27311455953782L210,128.27311455953782L190,127.10877950199111L170,127.10877950199111L150,127.10877950199111L130,127.10877950199111L110,127.10877950199111L90,177.77777777777777L70,177.77777777777777L50,177.77777777777777L30,177.77777777777777L10,177.77777777777777Z" fill="#f58518"/></g></g><path class="foreground" aria-hidden="true" d="" display="none"/></g><g transform="translate(0,0)"><path class="background" aria-hidden="true" d="M0,0h820v200h-820Z"/><g><g class="mark-area role-mark marks" role="graphics-object" aria-roledescription="area mark container"><path aria-label="year: 2020; GHG Emissions: 0; variable: x177" role="graphics-symbol" aria-roledescription="area mark" d="M10,177.77777777777777L30,177.77777777777777L50,177.77777777777777L70,177.77777777777777L90,177.77777777777777L110,127.10877950199111L130,127.10877950199111L150,127.10877950199111L170,127.10877950199111L190,127.10877950199111L210,128.27311455953782L230,128.27311455953782L250,128.27311455953782L270,128.27311455953782L290,128.27311455953782L310,123.73551214276463L330,123.73551214276463L350,123.73551214276463L370,123.73551214276463L390,123.73551214276463L410,128.62530900371937L430,128.62530900371937L450,128.62530900371937L470,128.62530900371937L490,128.62530900371937L510,130.8886060546063L530,130.8886060546063L550,130.8886060546063L570,130.8886060546063L590,130.8886060546063L610,171.58286751535906L630,171.58286751535906L650,171.58286751535906L670,171.58286751535906L690,171.58286751535906L710,168.46627619839367L730,168.46627619839367L750,168.46627619839367L770,168.46627619839367L790,168.46627619839367L810,168.46627619839367L810,174.24932190437173L790,174.24932190437173L770,174.24932190437173L750,174.24932190437173L730,174.24932190437173L710,174.24932190437173L690,177.42514042246214L670,177.42514042246214L650,177.42514042246214L630,177.42514042246214L610,177.42514042246214L590,139.77634189335868L570,139.77634189335868L550,139.77634189335868L530,139.77634189335868L510,139.77634189335868L490,138.0517467079835L470,138.0517467079835L450,138.0517467079835L430,138.0517467079835L410,138.0517467079835L390,134.3258017991787L370,134.3258017991787L350,134.3258017991787L330,134.3258017991787L310,134.3258017991787L290,128.27311455953782L270,128.27311455953782L250,128.27311455953782L230,128.27311455953782L210,128.27311455953782L190,127.10877950199111L170,127.10877950199111L150,127.10877950199111L130,127.10877950199111L110,127.10877950199111L90,177.77777777777777L70,177.77777777777777L50,177.77777777777777L30,177.77777777777777L10,177.77777777777777Z" fill="#e45756"/></g></g><path class="foreground" aria-hidden="true" d="" display="none"/></g><g transform="translate(0,0)"><path class="background" aria-hidden="true" d="M0,0h820v200h-820Z"/><g><g class="mark-area role-mark marks" role="graphics-object" aria-roledescription="area mark container"><path aria-label="year: 2020; GHG Emissions: 0; variable: x178" role="graphics-symbol" aria-roledescription="area mark" d="M10,177.77777777777777L30,177.77777777777777L50,177.77777777777777L70,177.77777777777777L90,177.77777777777777L110,127.10877950199111L130,127.10877950199111L150,127.10877950199111L170,127.10877950199111L190,127.10877950199111L210,128.27311455953782L230,128.27311455953782L250,128.27311455953782L270,128.27311455953782L290,128.27311455953782L310,134.3258017991787L330,134.3258017991787L350,134.3258017991787L370,134.3258017991787L390,134.3258017991787L410,138.0517467079835L430,138.0517467079835L450,138.0517467079835L470,138.0517467079835L490,138.0517467079835L510,139.77634189335868L530,139.77634189335868L550,139.77634189335868L570,139.77634189335868L590,139.77634189335868L610,177.42514042246214L630,177.42514042246214L650,177.42514042246214L670,177.42514042246214L690,177.42514042246214L710,174.24932190437173L730,174.24932190437173L750,174.24932190437173L770,174.24932190437173L790,174.24932190437173L810,174.24932190437173L810,174.24932190437173L790,174.24932190437173L770,174.24932190437173L750,174.24932190437173L730,174.24932190437173L710,174.24932190437173L690,177.42514042246214L670,177.42514042246214L650,177.42514042246214L630,177.42514042246214L610,177.42514042246214L590,139.77634189335868L570,139.77634189335868L550,139.77634189335868L530,139.77634189335868L510,139.77634189335868L490,138.0517467079835L470,138.0517467079835L450,138.0517467079835L430,138.0517467079835L410,138.0517467079835L390,134.3258017991787L370,134.3258017991787L350,134.3258017991787L330,134.3258017991787L310,134.3258017991787L290,177.77777777777777L270,177.77777777777777L250,177.77777777777777L230,177.77777777777777L210,177.77777777777777L190,177.77777777777777L170,177.77777777777777L150,177.77777777777777L130,177.77777777777777L110,177.77777777777777L90,177.77777777777777L70,177.77777777777777L50,177.77777777777777L30,177.77777777777777L10,177.77777777777777Z" fill="#72b7b2"/></g></g><path class="foreground" aria-hidden="true" d="" display="none"/></g><g transform="translate(0,0)"><path class="background" aria-hidden="true" d="M0,0h820v200h-820Z"/><g><g class="mark-area role-mark marks" role="graphics-object" aria-roledescription="area mark container"><path aria-label="year: 2020; GHG Emissions: 8; variable: Conv" role="graphics-symbol" aria-roledescription="area mark" d="M10,0L30,0L50,0L70,0L90,0L110,127.10877950199111L130,127.10877950199111L150,127.10877950199111L170,127.10877950199111L190,127.10877950199111L210,128.27311455953782L230,128.27311455953782L250,128.27311455953782L270,128.27311455953782L290,128.27311455953782L310,123.73551214276462L330,123.73551214276462L350,123.73551214276462L370,123.73551214276462L390,123.73551214276462L410,128.62530900371937L430,128.62530900371937L450,128.62530900371937L470,128.62530900371937L490,128.62530900371937L510,130.8886060546063L530,130.8886060546063L550,130.8886060546063L570,130.8886060546063L590,130.8886060546063L610,171.58286751535906L630,171.58286751535906L650,171.58286751535906L670,171.58286751535906L690,171.58286751535906L710,168.46627619839367L730,168.46627619839367L750,168.46627619839367L770,168.46627619839367L790,168.46627619839367L810,168.46627619839367L810,168.46627619839367L790,168.46627619839367L770,168.46627619839367L750,168.46627619839367L730,168.46627619839367L710,168.46627619839367L690,171.58286751535906L670,171.58286751535906L650,171.58286751535906L630,171.58286751535906L610,171.58286751535906L590,130.8886060546063L570,130.8886060546063L550,130.8886060546063L530,130.8886060546063L510,130.8886060546063L490,128.62530900371937L470,128.62530900371937L450,128.62530900371937L430,128.62530900371937L410,128.62530900371937L390,123.73551214276463L370,123.73551214276463L350,123.73551214276463L330,123.73551214276463L310,123.73551214276463L290,128.27311455953782L270,128.27311455953782L250,128.27311455953782L230,128.27311455953782L210,128.27311455953782L190,127.10877950199111L170,127.10877950199111L150,127.10877950199111L130,127.10877950199111L110,127.10877950199111L90,177.77777777777777L70,177.77777777777777L50,177.77777777777777L30,177.77777777777777L10,177.77777777777777Z" fill="#4c78a8"/></g></g><path class="foreground" aria-hidden="true" d="" display="none"/></g></g><g class="mark-group role-legend" role="graphics-symbol" aria-roledescription="legend" aria-label="Symbol legend titled 'variable' for fill color with 5 values: Conv, x144, x177, x178, x22"><g transform="translate(838,0)"><path class="background" aria-hidden="true" d="M0,0h72v84h-72Z" pointer-events="none"/><g><g class="mark-group role-legend-entry"><g transform="translate(0,21)"><path class="background" aria-hidden="true" d="M0,0h0v0h0Z" pointer-events="none"/><g><g class="mark-group role-scope" role="graphics-object" aria-roledescription="group mark container"><g transform="translate(0,0)"><path class="background" aria-hidden="true" d="M0,0h41v11h-41Z" pointer-events="none" opacity="1"/><g><g class="mark-symbol role-legend-symbol" pointer-events="none"><path transform="translate(6,6)" d="M5,0A5,5,0,1,1,-5,0A5,5,0,1,1,5,0" fill="#4c78a8" stroke-width="1.5" opacity="1"/></g><g class="mark-text role-legend-label" pointer-events="none"><text text-anchor="start" transform="translate(16,9)" font-family="sans-serif" font-size="10px" fill="#000" opacity="1">Conv</text></g></g><path class="foreground" aria-hidden="true" d="" pointer-events="none" display="none"/></g><g transform="translate(0,13)"><path class="background" aria-hidden="true" d="M0,0h41v11h-41Z" pointer-events="none" opacity="1"/><g><g class="mark-symbol role-legend-symbol" pointer-events="none"><path transform="translate(6,6)" d="M5,0A5,5,0,1,1,-5,0A5,5,0,1,1,5,0" fill="#f58518" stroke-width="1.5" opacity="1"/></g><g class="mark-text role-legend-label" pointer-events="none"><text text-anchor="start" transform="translate(16,9)" font-family="sans-serif" font-size="10px" fill="#000" opacity="1">x144</text></g></g><path class="foreground" aria-hidden="true" d="" pointer-events="none" display="none"/></g><g transform="translate(0,26)"><path class="background" aria-hidden="true" d="M0,0h41v11h-41Z" pointer-events="none" opacity="1"/><g><g class="mark-symbol role-legend-symbol" pointer-events="none"><path transform="translate(6,6)" d="M5,0A5,5,0,1,1,-5,0A5,5,0,1,1,5,0" fill="#e45756" stroke-width="1.5" opacity="1"/></g><g class="mark-text role-legend-label" pointer-events="none"><text text-anchor="start" transform="translate(16,9)" font-family="sans-serif" font-size="10px" fill="#000" opacity="1">x177</text></g></g><path class="foreground" aria-hidden="true" d="" pointer-events="none" display="none"/></g><g transform="translate(0,39)"><path class="background" aria-hidden="true" d="M0,0h41v11h-41Z" pointer-events="none" opacity="1"/><g><g class="mark-symbol role-legend-symbol" pointer-events="none"><path transform="translate(6,6)" d="M5,0A5,5,0,1,1,-5,0A5,5,0,1,1,5,0" fill="#72b7b2" stroke-width="1.5" opacity="1"/></g><g class="mark-text role-legend-label" pointer-events="none"><text text-anchor="start" transform="translate(16,9)" font-family="sans-serif" font-size="10px" fill="#000" opacity="1">x178</text></g></g><path class="foreground" aria-hidden="true" d="" pointer-events="none" display="none"/></g><g transform="translate(0,52)"><path class="background" aria-hidden="true" d="M0,0h41v11h-41Z" pointer-events="none" opacity="1"/><g><g class="mark-symbol role-legend-symbol" pointer-events="none"><path transform="translate(6,6)" d="M5,0A5,5,0,1,1,-5,0A5,5,0,1,1,5,0" fill="#54a24b" stroke-width="1.5" opacity="1"/></g><g class="mark-text role-legend-label" pointer-events="none"><text text-anchor="start" transform="translate(16,9)" font-family="sans-serif" font-size="10px" fill="#000" opacity="1">x22</text></g></g><path class="foreground" aria-hidden="true" d="" pointer-events="none" display="none"/></g></g></g><path class="foreground" aria-hidden="true" d="" pointer-events="none" display="none"/></g></g><g class="mark-text role-legend-title" pointer-events="none"><text text-anchor="start" transform="translate(0,13)" font-family="sans-serif" font-size="16px" font-weight="bold" fill="#000" opacity="1">variable</text></g></g><path class="foreground" aria-hidden="true" d="" pointer-events="none" display="none"/></g></g></g><path class="foreground" aria-hidden="true" d="" display="none"/></g></g></g></svg>
