<?xml version="1.0" encoding="utf-8"?>
<!DOCTYPE svg PUBLIC "-//W3C//DTD SVG 1.1//EN" "http://www.w3.org/Graphics/SVG/1.1/DTD/svg11.dtd">
<svg xmlns="http://www.w3.org/2000/svg" xmlns:xlink="http://www.w3.org/1999/xlink" version="1.1" class="marks" width="925" height="261" viewBox="0 0 925 261"><rect width="925" height="261" fill="white"/><g fill="none" stroke-miterlimit="10" transform="translate(33,10)"><g class="mark-group role-frame root" role="graphics-object" aria-roledescription="group mark container"><g transform="translate(0,0)"><path class="background" aria-hidden="true" d="M0.5,0.5h820v200h-820Z" stroke="#ddd"/><g><g class="mark-group role-axis" aria-hidden="true"><g transform="translate(0.5,0.5)"><path class="background" aria-hidden="true" d="M0,0h0v0h0Z" pointer-events="none"/><g><g class="mark-rule role-axis-grid" pointer-events="none"><line transform="translate(0,178)" x2="820" y2="0" stroke="#ddd" stroke-width="1" opacity="1"/><line transform="translate(0,133)" x2="820" y2="0" stroke="#ddd" stroke-width="1" opacity="1"/><line transform="translate(0,89)" x2="820" y2="0" stroke="#ddd" stroke-width="1" opacity="1"/><line transform="translate(0,44)" x2="820" y2="0" stroke="#ddd" stroke-width="1" opacity="1"/><line transform="translate(0,0)" x2="820" y2="0" stroke="#ddd" stroke-width="1" opacity="1"/></g></g><path class="foreground" aria-hidden="true" d="" pointer-events="none" display="none"/></g></g><g class="mark-group role-axis" role="graphics-symbol" aria-roledescription="axis" aria-label="X-axis titled 'year' for a discrete scale with 41 values: 2020, 2021, 2022, 2023, 2024, ending with 2060"><g transform="translate(0.5,200.5)"><path class="background" aria-hidden="true" d="M0,0h0v0h0Z" pointer-events="none"/><g><g class="mark-rule role-axis-tick" pointer-events="none"><line transform="translate(10,0)" x2="0" y2="5" stroke="#888" stroke-width="1" opacity="1"/><line transform="translate(30,0)" x2="0" y2="5" stroke="#888" stroke-width="1" opacity="1"/><line transform="translate(50,0)" x2="0" y2="5" stroke="#888" stroke-width="1" opacity="1"/><line transform="translate(70,0)" x2="0" y2="5" stroke="#888" stroke-width="1" opacity="1"/><line transform="translate(90,0)" x2="0" y2="5" stroke="#888" stroke-width="1" opacity="1"/><line transform="translate(110,0)" x2="0" y2="5" stroke="#888" stroke-width="1" opacity="1"/><line transform="translate(130,0)" x2="0" y2="5" stroke="#888" stroke-width="1" opacity="1"/><line transform="translate(150,0)" x2="0" y2="5" stroke="#888" stroke-width="1" opacity="1"/><line transform="translate(170,0)" x2="0" y2="5" stroke="#888" stroke-width="1" opacity="1"/><line transform="translate(190,0)" x2="0" y2="5" stroke="#888" stroke-width="1" opacity="1"/><line transform="translate(210,0)" x2="0" y2="5" stroke="#888" stroke-width="1" opacity="1"/><line transform="translate(230,0)" x2="0" y2="5" stroke="#888" stroke-width="1" opacity="1"/><line transform="translate(250,0)" x2="0" y2="5" stroke="#888" stroke-width="1" opacity="1"/><line transform="translate(270,0)" x2="0" y2="5" stroke="#888" stroke-width="1" opacity="1"/><line transform="translate(290,0)" x2="0" y2="5" stroke="#888" stroke-width="1" opacity="1"/><line transform="translate(310,0)" x2="0" y2="5" stroke="#888" stroke-width="1" opacity="1"/><line transform="translate(330,0)" x2="0" y2="5" stroke="#888" stroke-width="1" opacity="1"/><line transform="translate(350,0)" x2="0" y2="5" stroke="#888" stroke-width="1" opacity="1"/><line transform="translate(370,0)" x2="0" y2="5" stroke="#888" stroke-width="1" opacity="1"/><line transform="translate(390,0)" x2="0" y2="5" stroke="#888" stroke-width="1" opacity="1"/><line transform="translate(410,0)" x2="0" y2="5" stroke="#888" stroke-width="1" opacity="1"/><line transform="translate(430,0)" x2="0" y2="5" stroke="#888" stroke-width="1" opacity="1"/><line transform="translate(450,0)" x2="0" y2="5" stroke="#888" stroke-width="1" opacity="1"/><line transform="translate(470,0)" x2="0" y2="5" stroke="#888" stroke-width="1" opacity="1"/><line transform="translate(490,0)" x2="0" y2="5" stroke="#888" stroke-width="1" opacity="1"/><line transform="translate(510,0)" x2="0" y2="5" stroke="#888" stroke-width="1" opacity="1"/><line transform="translate(530,0)" x2="0" y2="5" stroke="#888" stroke-width="1" opacity="1"/><line transform="translate(550,0)" x2="0" y2="5" stroke="#888" stroke-width="1" opacity="1"/><line transform="translate(570,0)" x2="0" y2="5" stroke="#888" stroke-width="1" opacity="1"/><line transform="translate(590,0)" x2="0" y2="5" stroke="#888" stroke-width="1" opacity="1"/><line transform="translate(610,0)" x2="0" y2="5" stroke="#888" stroke-width="1" opacity="1"/><line transform="translate(630,0)" x2="0" y2="5" stroke="#888" stroke-width="1" opacity="1"/><line transform="translate(650,0)" x2="0" y2="5" stroke="#888" stroke-width="1" opacity="1"/><line transform="translate(670,0)" x2="0" y2="5" stroke="#888" stroke-width="1" opacity="1"/><line transform="translate(690,0)" x2="0" y2="5" stroke="#888" stroke-width="1" opacity="1"/><line transform="translate(710,0)" x2="0" y2="5" stroke="#888" stroke-width="1" opacity="1"/><line transform="translate(730,0)" x2="0" y2="5" stroke="#888" stroke-width="1" opacity="1"/><line transform="translate(750,0)" x2="0" y2="5" stroke="#888" stroke-width="1" opacity="1"/><line transform="translate(770,0)" x2="0" y2="5" stroke="#888" stroke-width="1" opacity="1"/><line transform="translate(790,0)" x2="0" y2="5" stroke="#888" stroke-width="1" opacity="1"/><line transform="translate(810,0)" x2="0" y2="5" stroke="#888" stroke-width="1" opacity="1"/></g><g class="mark-text role-axis-label" pointer-events="none"><text text-anchor="end" transform="translate(10,7) rotate(270) translate(0,3)" font-family="sans-serif" font-size="10px" fill="#000" opacity="1">2020</text><text text-anchor="end" transform="translate(30,7) rotate(270) translate(0,3)" font-family="sans-serif" font-size="10px" fill="#000" opacity="1">2021</text><text text-anchor="end" transform="translate(50,7) rotate(270) translate(0,3)" font-family="sans-serif" font-size="10px" fill="#000" opacity="1">2022</text><text text-anchor="end" transform="translate(70,7) rotate(270) translate(0,3)" font-family="sans-serif" font-size="10px" fill="#000" opacity="1">2023</text><text text-anchor="end" transform="translate(90,7) rotate(270) translate(0,3)" font-family="sans-serif" font-size="10px" fill="#000" opacity="1">2024</text><text text-anchor="end" transform="translate(110,7) rotate(270) translate(0,3)" font-family="sans-serif" font-size="10px" fill="#000" opacity="1">2025</text><text text-anchor="end" transform="translate(130,7) rotate(270) translate(0,3)" font-family="sans-serif" font-size="10px" fill="#000" opacity="1">2026</text><text text-anchor="end" transform="translate(150,7) rotate(270) translate(0,3)" font-family="sans-serif" font-size="10px" fill="#000" opacity="1">2027</text><text text-anchor="end" transform="translate(170,7) rotate(270) translate(0,3)" font-family="sans-serif" font-size="10px" fill="#000" opacity="1">2028</text><text text-anchor="end" transform="translate(190,7) rotate(270) translate(0,3)" font-family="sans-serif" font-size="10px" fill="#000" opacity="1">2029</text><text text-anchor="end" transform="translate(210,7) rotate(270) translate(0,3)" font-family="sans-serif" font-size="10px" fill="#000" opacity="1">2030</text><text text-anchor="end" transform="translate(230,7) rotate(270) translate(0,3)" font-family="sans-serif" font-size="10px" fill="#000" opacity="1">2031</text><text text-anchor="end" transform="translate(250,7) rotate(270) translate(0,3)" font-family="sans-serif" font-size="10px" fill="#000" opacity="1">2032</text><text text-anchor="end" transform="translate(270,7) rotate(270) translate(0,3)" font-family="sans-serif" font-size="10px" fill="#000" opacity="1">2033</text><text text-anchor="end" transform="translate(290,7) rotate(270) translate(0,3)" font-family="sans-serif" font-size="10px" fill="#000" opacity="1">2034</text><text text-anchor="end" transform="translate(310,7) rotate(270) translate(0,3)" font-family="sans-serif" font-size="10px" fill="#000" opacity="1">2035</text><text text-anchor="end" transform="translate(330,7) rotate(270) translate(0,3)" font-family="sans-serif" font-size="10px" fill="#000" opacity="1">2036</text><text text-anchor="end" transform="translate(350,7) rotate(270) translate(0,3)" font-family="sans-serif" font-size="10px" fill="#000" opacity="1">2037</text><text text-anchor="end" transform="translate(370,7) rotate(270) translate(0,3)" font-family="sans-serif" font-size="10px" fill="#000" opacity="1">2038</text><text text-anchor="end" transform="translate(390,7) rotate(270) translate(0,3)" font-family="sans-serif" font-size="10px" fill="#000" opacity="1">2039</text><text text-anchor="end" transform="translate(410,7) rotate(270) translate(0,3)" font-family="sans-serif" font-size="10px" fill="#000" opacity="1">2040</text><text text-anchor="end" transform="translate(430,7) rotate(270) translate(0,3)" font-family="sans-serif" font-size="10px" fill="#000" opacity="1">2041</text><text text-anchor="end" transform="translate(450,7) rotate(270) translate(0,3)" font-family="sans-serif" font-size="10px" fill="#000" opacity="1">2042</text><text text-anchor="end" transform="translate(470,7) rotate(270) translate(0,3)" font-family="sans-serif" font-size="10px" fill="#000" opacity="1">2043</text><text text-anchor="end" transform="translate(490,7) rotate(270) translate(0,3)" font-family="sans-serif" font-size="10px" fill="#000" opacity="1">2044</text><text text-anchor="end" transform="translate(510,7) rotate(270) translate(0,3)" font-family="sans-serif" font-size="10px" fill="#000" opacity="1">2045</text><text text-anchor="end" transform="translate(530,7) rotate(270) translate(0,3)" font-family="sans-serif" font-size="10px" fill="#000" opacity="1">2046</text><text text-anchor="end" transform="translate(550,7) rotate(270) translate(0,3)" font-family="sans-serif" font-size="10px" fill="#000" opacity="1">2047</text><text text-anchor="end" transform="translate(570,7) rotate(270) translate(0,3)" font-family="sans-serif" font-size="10px" fill="#000" opacity="1">2048</text><text text-anchor="end" transform="translate(590,7) rotate(270) translate(0,3)" font-family="sans-serif" font-size="10px" fill="#000" opacity="1">2049</text><text text-anchor="end" transform="translate(610,7) rotate(270) translate(0,3)" font-family="sans-serif" font-size="10px" fill="#000" opacity="1">2050</text><text text-anchor="end" transform="translate(630,7) rotate(270) translate(0,3)" font-family="sans-serif" font-size="10px" fill="#000" opacity="1">2051</text><text text-anchor="end" transform="translate(650,7) rotate(270) translate(0,3)" font-family="sans-serif" font-size="10px" fill="#000" opacity="1">2052</text><text text-anchor="end" transform="translate(670,7) rotate(270) translate(0,3)" font-family="sans-serif" font-size="10px" fill="#000" opacity="1">2053</text><text text-anchor="end" transform="translate(690,7) rotate(270) translate(0,3)" font-family="sans-serif" font-size="10px" fill="#000" opacity="1">2054</text><text text-anchor="end" transform="translate(710,7) rotate(270) translate(0,3)" font-family="sans-serif" font-size="10px" fill="#000" opacity="1">2055</text><text text-anchor="end" transform="translate(730,7) rotate(270) translate(0,3)" font-family="sans-serif" font-size="10px" fill="#000" opacity="1">2056</text><text text-anchor="end" transform="translate(750,7) rotate(270) translate(0,3)" font-family="sans-serif" font-size="10px" fill="#000" opacity="1">2057</text><text text-anchor="end" transform="translate(770,7) rotate(270) translate(0,3)" font-family="sans-serif" font-size="10px" fill="#000" opacity="1">2058</text><text text-anchor="end" transform="translate(790,7) rotate(270) translate(0,3)" font-family="sans-serif" font-size="10px" fill="#000" opacity="1">2059</text><text text-anchor="end" transform="translate(810,7) rotate(270) translate(0,3)" font-family="sans-serif" font-size="10px" fill="#000" opacity="1">2060</text></g><g class="mark-rule role-axis-domain" pointer-events="none"><line transform="translate(0,0)" x2="820" y2="0" stroke="#888" stroke-width="1" opacity="1"/></g><g class="mark-text role-axis-title" pointer-events="none"><text text-anchor="middle" transform="translate(410,44)" font-family="sans-serif" font-size="11px" font-weight="bold" fill="#000" opacity="1">year</text></g></g><path class="foreground" aria-hidden="true" d="" pointer-events="none" display="none"/></g></g><g class="mark-group role-axis" role="graphics-symbol" aria-roledescription="axis" aria-label="Y-axis titled 'CO2' for a linear scale with values from −1 to 8"><g transform="translate(0.5,0.5)"><path class="background" aria-hidden="true" d="M0,0h0v0h0Z" pointer-events="none"/><g><g class="mark-rule role-axis-tick" pointer-events="none"><line transform="translate(0,178)" x2="-5" y2="0" stroke="#888" stroke-width="1" opacity="1"/><line transform="translate(0,133)" x2="-5" y2="0" stroke="#888" stroke-width="1" opacity="1"/><line transform="translate(0,89)" x2="-5" y2="0" stroke="#888" stroke-width="1" opacity="1"/><line transform="translate(0,44)" x2="-5" y2="0" stroke="#888" stroke-width="1" opacity="1"/><line transform="translate(0,0)" x2="-5" y2="0" stroke="#888" stroke-width="1" opacity="1"/></g><g class="mark-text role-axis-label" pointer-events="none"><text text-anchor="end" transform="translate(-7,180.77777777777777)" font-family="sans-serif" font-size="10px" fill="#000" opacity="1">0</text><text text-anchor="end" transform="translate(-7,136.33333333333334)" font-family="sans-serif" font-size="10px" fill="#000" opacity="1">2</text><text text-anchor="end" transform="translate(-7,91.88888888888889)" font-family="sans-serif" font-size="10px" fill="#000" opacity="1">4</text><text text-anchor="end" transform="translate(-7,47.44444444444444)" font-family="sans-serif" font-size="10px" fill="#000" opacity="1">6</text><text text-anchor="end" transform="translate(-7,3)" font-family="sans-serif" font-size="10px" fill="#000" opacity="1">8</text></g><g class="mark-rule role-axis-domain" pointer-events="none"><line transform="translate(0,200)" x2="0" y2="-200" stroke="#888" stroke-width="1" opacity="1"/></g><g class="mark-text role-axis-title" pointer-events="none"><text text-anchor="middle" transform="translate(-17,100) rotate(-90) translate(0,-2)" font-family="sans-serif" font-size="11px" font-weight="bold" fill="#000" opacity="1">CO2</text></g></g><path class="foreground" aria-hidden="true" d="" pointer-events="none" display="none"/></g></g><g class="mark-group role-scope pathgroup" role="graphics-object" aria-roledescription="group mark container"><g transform="translate(0,0)"><path class="background" aria-hidden="true" d="M0,0h820v200h-820Z"/><g><g class="mark-area role-mark marks" role="graphics-object" aria-roledescription="area mark container"><path aria-label="year: 2020; CO2: 0; variable: x28" role="graphics-symbol" aria-roledescription="area mark" d="M10,177.77777777777777L30,177.77777777777777L50,177.77777777777777L70,177.77777777777777L90,177.77777777777777L110,111.26861935359751L130,111.26861935359751L150,111.26861935359751L170,111.26861935359751L190,111.26861935359751L210,115.89858332897474L230,115.89858332897474L250,115.89858332897474L270,115.89858332897474L290,115.89858332897474L310,82.12128015816195L330,82.12128015816195L350,82.12128015816195L370,82.12128015816195L390,82.12128015816195L410,102.25679690732021L430,102.25679690732021L450,102.25679690732021L470,102.25679690732021L490,102.25679690732021L510,105.50843834072934L530,105.50843834072934L550,105.50843834072934L570,105.50843834072934L590,105.50843834072934L610,106.92928913298717L630,106.92928913298717L650,106.92928913298717L670,106.92928913298717L690,106.92928913298717L710,167.1105127905033L730,167.1105127905033L750,167.1105127905033L770,167.1105127905033L790,167.1105127905033L810,167.1105127905033L810,167.1105127905033L790,167.1105127905033L770,167.1105127905033L750,167.1105127905033L730,167.1105127905033L710,167.1105127905033L690,106.92928913298717L670,106.92928913298717L650,106.92928913298717L630,106.92928913298717L610,106.92928913298717L590,177.77777777777777L570,177.77777777777777L550,177.77777777777777L530,177.77777777777777L510,177.77777777777777L490,102.25679690732021L470,102.25679690732021L450,102.25679690732021L430,102.25679690732021L410,102.25679690732021L390,177.77777777777777L370,177.77777777777777L350,177.77777777777777L330,177.77777777777777L310,177.77777777777777L290,115.89858332897474L270,115.89858332897474L250,115.89858332897474L230,115.89858332897474L210,115.89858332897474L190,111.26861935359751L170,111.26861935359751L150,111.26861935359751L130,111.26861935359751L110,111.26861935359751L90,177.77777777777777L70,177.77777777777777L50,177.77777777777777L30,177.77777777777777L10,177.77777777777777Z" fill="#54a24b"/></g></g><path class="foreground" aria-hidden="true" d="" display="none"/></g><g transform="translate(0,0)"><path class="background" aria-hidden="true" d="M0,0h820v200h-820Z"/><g><g class="mark-area role-mark marks" role="graphics-object" aria-roledescription="area mark container"><path aria-label="year: 2020; CO2: 0; variable: x30" role="graphics-symbol" aria-roledescription="area mark" d="M10,177.77777777777777L30,177.77777777777777L50,177.77777777777777L70,177.77777777777777L90,177.77777777777777L110,111.26861935359751L130,111.26861935359751L150,111.26861935359751L170,111.26861935359751L190,111.26861935359751L210,115.89858332897474L230,115.89858332897474L250,115.89858332897474L270,115.89858332897474L290,115.89858332897474L310,177.77777777777777L330,177.77777777777777L350,177.77777777777777L370,177.77777777777777L390,177.77777777777777L410,102.25679690732021L430,102.25679690732021L450,102.25679690732021L470,102.25679690732021L490,102.25679690732021L510,177.77777777777777L530,177.77777777777777L550,177.77777777777777L570,177.77777777777777L590,177.77777777777777L610,106.92928913298717L630,106.92928913298717L650,106.92928913298717L670,106.92928913298717L690,106.92928913298717L710,167.1105127905033L730,167.1105127905033L750,167.1105127905033L770,167.1105127905033L790,167.1105127905033L810,167.1105127905033L810,167.1105127905033L790,167.1105127905033L770,167.1105127905033L750,167.1105127905033L730,167.1105127905033L710,167.1105127905033L690,106.92928913298717L670,106.92928913298717L650,106.92928913298717L630,106.92928913298717L610,106.92928913298717L590,177.77777777777777L570,177.77777777777777L550,177.77777777777777L530,177.77777777777777L510,177.77777777777777L490,102.25679690732021L470,102.25679690732021L450,102.25679690732021L430,102.25679690732021L410,102.25679690732021L390,177.77777777777777L370,177.77777777777777L350,177.77777777777777L330,177.77777777777777L310,177.77777777777777L290,177.77777777777777L270,177.77777777777777L250,177.77777777777777L230,177.77777777777777L210,177.77777777777777L190,111.26861935359751L170,111.26861935359751L150,111.26861935359751L130,111.26861935359751L110,111.26861935359751L90,177.77777777777777L70,177.77777777777777L50,177.77777777777777L30,177.77777777777777L10,177.77777777777777Z" fill="#eeca3b"/></g></g><path class="foreground" aria-hidden="true" d="" display="none"/></g><g transform="translate(0,0)"><path class="background" aria-hidden="true" d="M0,0h820v200h-820Z"/><g><g class="mark-area role-mark marks" role="graphics-object" aria-roledescription="area mark container"><path aria-label="year: 2020; CO2: 0; variable: x34" role="graphics-symbol" aria-roledescription="area mark" d="M10,177.77777777777777L30,177.77777777777777L50,177.77777777777777L70,177.77777777777777L90,177.77777777777777L110,111.26861935359751L130,111.26861935359751L150,111.26861935359751L170,111.26861935359751L190,111.26861935359751L210,177.77777777777777L230,177.77777777777777L250,177.77777777777777L270,177.77777777777777L290,177.77777777777777L310,177.77777777777777L330,177.77777777777777L350,177.77777777777777L370,177.77777777777777L390,177.77777777777777L410,102.25679690732021L430,102.25679690732021L450,102.25679690732021L470,102.25679690732021L490,102.25679690732021L510,177.77777777777777L530,177.77777777777777L550,177.77777777777777L570,177.77777777777777L590,177.77777777777777L610,106.92928913298717L630,106.92928913298717L650,106.92928913298717L670,106.92928913298717L690,106.92928913298717L710,167.1105127905033L730,167.1105127905033L750,167.1105127905033L770,167.1105127905033L790,167.1105127905033L810,167.1105127905033L810,167.1105127905033L790,167.1105127905033L770,167.1105127905033L750,167.1105127905033L730,167.1105127905033L710,167.1105127905033L690,106.92928913298717L670,106.92928913298717L650,106.92928913298717L630,106.92928913298717L610,106.92928913298717L590,177.77777777777777L570,177.77777777777777L550,177.77777777777777L530,177.77777777777777L510,177.77777777777777L490,102.25679690732021L470,102.25679690732021L450,102.25679690732021L430,102.25679690732021L410,102.25679690732021L390,177.77777777777777L370,177.77777777777777L350,177.77777777777777L330,177.77777777777777L310,177.77777777777777L290,177.77777777777777L270,177.77777777777777L250,177.77777777777777L230,177.77777777777777L210,177.77777777777777L190,177.77777777777777L170,177.77777777777777L150,177.77777777777777L130,177.77777777777777L110,177.77777777777777L90,177.77777777777777L70,177.77777777777777L50,177.77777777777777L30,177.77777777777777L10,177.77777777777777Z" fill="#b279a2"/></g></g><path class="foreground" aria-hidden="true" d="" display="none"/></g><g transform="translate(0,0)"><path class="background" aria-hidden="true" d="M0,0h820v200h-820Z"/><g><g class="mark-area role-mark marks" role="graphics-object" aria-roledescription="area mark container"><path aria-label="year: 2020; CO2: 0; variable: x37" role="graphics-symbol" aria-roledescription="area mark" d="M10,177.77777777777777L30,177.77777777777777L50,177.77777777777777L70,177.77777777777777L90,177.77777777777777L110,177.77777777777777L130,177.77777777777777L150,177.77777777777777L170,177.77777777777777L190,177.77777777777777L210,177.77777777777777L230,177.77777777777777L250,177.77777777777777L270,177.77777777777777L290,177.77777777777777L310,177.77777777777777L330,177.77777777777777L350,177.77777777777777L370,177.77777777777777L390,177.77777777777777L410,102.25679690732021L430,102.25679690732021L450,102.25679690732021L470,102.25679690732021L490,102.25679690732021L510,177.77777777777777L530,177.77777777777777L550,177.77777777777777L570,177.77777777777777L590,177.77777777777777L610,106.92928913298717L630,106.92928913298717L650,106.92928913298717L670,106.92928913298717L690,106.92928913298717L710,167.1105127905033L730,167.1105127905033L750,167.1105127905033L770,167.1105127905033L790,167.1105127905033L810,167.1105127905033L810,177.77777777777777L790,177.77777777777777L770,177.77777777777777L750,177.77777777777777L730,177.77777777777777L710,177.77777777777777L690,106.92928913298717L670,106.92928913298717L650,106.92928913298717L630,106.92928913298717L610,106.92928913298717L590,177.77777777777777L570,177.77777777777777L550,177.77777777777777L530,177.77777777777777L510,177.77777777777777L490,102.25679690732021L470,102.25679690732021L450,102.25679690732021L430,102.25679690732021L410,102.25679690732021L390,177.77777777777777L370,177.77777777777777L350,177.77777777777777L330,177.77777777777777L310,177.77777777777777L290,177.77777777777777L270,177.77777777777777L250,177.77777777777777L230,177.77777777777777L210,177.77777777777777L190,177.77777777777777L170,177.77777777777777L150,177.77777777777777L130,177.77777777777777L110,177.77777777777777L90,177.77777777777777L70,177.77777777777777L50,177.77777777777777L30,177.77777777777777L10,177.77777777777777Z" fill="#ff9da6"/></g></g><path class="foreground" aria-hidden="true" d="" display="none"/></g><g transform="translate(0,0)"><path class="background" aria-hidden="true" d="M0,0h820v200h-820Z"/><g><g class="mark-area role-mark marks" role="graphics-object" aria-roledescription="area mark container"><path aria-label="year: 2020; CO2: 0; variable: x48" role="graphics-symbol" aria-roledescription="area mark" d="M10,177.77777777777777L30,177.77777777777777L50,177.77777777777777L70,177.77777777777777L90,177.77777777777777L110,177.77777777777777L130,177.77777777777777L150,177.77777777777777L170,177.77777777777777L190,177.77777777777777L210,177.77777777777777L230,177.77777777777777L250,177.77777777777777L270,177.77777777777777L290,177.77777777777777L310,177.77777777777777L330,177.77777777777777L350,177.77777777777777L370,177.77777777777777L390,177.77777777777777L410,102.25679690732021L430,102.25679690732021L450,102.25679690732021L470,102.25679690732021L490,102.25679690732021L510,177.77777777777777L530,177.77777777777777L550,177.77777777777777L570,177.77777777777777L590,177.77777777777777L610,106.92928913298717L630,106.92928913298717L650,106.92928913298717L670,106.92928913298717L690,106.92928913298717L710,177.77777777777777L730,177.77777777777777L750,177.77777777777777L770,177.77777777777777L790,177.77777777777777L810,177.77777777777777L810,177.77777777777777L790,177.77777777777777L770,177.77777777777777L750,177.77777777777777L730,177.77777777777777L710,177.77777777777777L690,177.77777777777777L670,177.77777777777777L650,177.77777777777777L630,177.77777777777777L610,177.77777777777777L590,177.77777777777777L570,177.77777777777777L550,177.77777777777777L530,177.77777777777777L510,177.77777777777777L490,177.77777777777777L470,177.77777777777777L450,177.77777777777777L430,177.77777777777777L410,177.77777777777777L390,177.77777777777777L370,177.77777777777777L350,177.77777777777777L330,177.77777777777777L310,177.77777777777777L290,177.77777777777777L270,177.77777777777777L250,177.77777777777777L230,177.77777777777777L210,177.77777777777777L190,177.77777777777777L170,177.77777777777777L150,177.77777777777777L130,177.77777777777777L110,177.77777777777777L90,177.77777777777777L70,177.77777777777777L50,177.77777777777777L30,177.77777777777777L10,177.77777777777777Z" fill="#9d755d"/></g></g><path class="foreground" aria-hidden="true" d="" display="none"/></g><g transform="translate(0,0)"><path class="background" aria-hidden="true" d="M0,0h820v200h-820Z"/><g><g class="mark-area role-mark marks" role="graphics-object" aria-roledescription="area mark container"><path aria-label="year: 2020; CO2: 0; variable: x158" role="graphics-symbol" aria-roledescription="area mark" d="M10,177.77777777777777L30,177.77777777777777L50,177.77777777777777L70,177.77777777777777L90,177.77777777777777L110,111.26861935359751L130,111.26861935359751L150,111.26861935359751L170,111.26861935359751L190,111.26861935359751L210,115.89858332897474L230,115.89858332897474L250,115.89858332897474L270,115.89858332897474L290,115.89858332897474L310,82.12128015816195L330,82.12128015816195L350,82.12128015816195L370,82.12128015816195L390,82.12128015816195L410,102.16793977365018L430,102.16793977365018L450,102.16793977365018L470,102.16793977365018L490,102.16793977365018L510,94.19690612100781L530,94.19690612100781L550,94.19690612100781L570,94.19690612100781L590,94.19690612100781L610,178.0533325801951L630,178.0533325801951L650,178.0533325801951L670,178.0533325801951L690,178.0533325801951L710,167.1105127905033L730,167.1105127905033L750,167.1105127905033L770,167.1105127905033L790,167.1105127905033L810,167.1105127905033L810,167.1105127905033L790,167.1105127905033L770,167.1105127905033L750,167.1105127905033L730,167.1105127905033L710,167.1105127905033L690,177.77777777777777L670,177.77777777777777L650,177.77777777777777L630,177.77777777777777L610,177.77777777777777L590,94.19690612100781L570,94.19690612100781L550,94.19690612100781L530,94.19690612100781L510,94.19690612100781L490,102.25679690731964L470,102.25679690731964L450,102.25679690731964L430,102.25679690731964L410,102.25679690731964L390,82.12128015816195L370,82.12128015816195L350,82.12128015816195L330,82.12128015816195L310,82.12128015816195L290,115.89858332897474L270,115.89858332897474L250,115.89858332897474L230,115.89858332897474L210,115.89858332897474L190,111.26861935359751L170,111.26861935359751L150,111.26861935359751L130,111.26861935359751L110,111.26861935359751L90,177.77777777777777L70,177.77777777777777L50,177.77777777777777L30,177.77777777777777L10,177.77777777777777Z" fill="#f58518"/></g></g><path class="foreground" aria-hidden="true" d="" display="none"/></g><g transform="translate(0,0)"><path class="background" aria-hidden="true" d="M0,0h820v200h-820Z"/><g><g class="mark-area role-mark marks" role="graphics-object" aria-roledescription="area mark container"><path aria-label="year: 2020; CO2: 0; variable: x159" role="graphics-symbol" aria-roledescription="area mark" d="M10,177.77777777777777L30,177.77777777777777L50,177.77777777777777L70,177.77777777777777L90,177.77777777777777L110,111.26861935359751L130,111.26861935359751L150,111.26861935359751L170,111.26861935359751L190,111.26861935359751L210,115.89858332897474L230,115.89858332897474L250,115.89858332897474L270,115.89858332897474L290,115.89858332897474L310,82.12128015816195L330,82.12128015816195L350,82.12128015816195L370,82.12128015816195L390,82.12128015816195L410,102.25679690731964L430,102.25679690731964L450,102.25679690731964L470,102.25679690731964L490,102.25679690731964L510,94.19690612100781L530,94.19690612100781L550,94.19690612100781L570,94.19690612100781L590,94.19690612100781L610,106.92928913298717L630,106.92928913298717L650,106.92928913298717L670,106.92928913298717L690,106.92928913298717L710,167.1105127905033L730,167.1105127905033L750,167.1105127905033L770,167.1105127905033L790,167.1105127905033L810,167.1105127905033L810,167.1105127905033L790,167.1105127905033L770,167.1105127905033L750,167.1105127905033L730,167.1105127905033L710,167.1105127905033L690,106.92928913298717L670,106.92928913298717L650,106.92928913298717L630,106.92928913298717L610,106.92928913298717L590,105.50843834072934L570,105.50843834072934L550,105.50843834072934L530,105.50843834072934L510,105.50843834072934L490,102.25679690731964L470,102.25679690731964L450,102.25679690731964L430,102.25679690731964L410,102.25679690731964L390,82.12128015816195L370,82.12128015816195L350,82.12128015816195L330,82.12128015816195L310,82.12128015816195L290,115.89858332897474L270,115.89858332897474L250,115.89858332897474L230,115.89858332897474L210,115.89858332897474L190,111.26861935359751L170,111.26861935359751L150,111.26861935359751L130,111.26861935359751L110,111.26861935359751L90,177.77777777777777L70,177.77777777777777L50,177.77777777777777L30,177.77777777777777L10,177.77777777777777Z" fill="#e45756"/></g></g><path class="foreground" aria-hidden="true" d="" display="none"/></g><g transform="translate(0,0)"><path class="background" aria-hidden="true" d="M0,0h820v200h-820Z"/><g><g class="mark-area role-mark marks" role="graphics-object" aria-roledescription="area mark container"><path aria-label="year: 2020; CO2: 0; variable: x163" role="graphics-symbol" aria-roledescription="area mark" d="M10,177.77777777777777L30,177.77777777777777L50,177.77777777777777L70,177.77777777777777L90,177.77777777777777L110,111.26861935359751L130,111.26861935359751L150,111.26861935359751L170,111.26861935359751L190,111.26861935359751L210,115.89858332897474L230,115.89858332897474L250,115.89858332897474L270,115.89858332897474L290,115.89858332897474L310,82.12128015816195L330,82.12128015816195L350,82.12128015816195L370,82.12128015816195L390,82.12128015816195L410,102.25679690731964L430,102.25679690731964L450,102.25679690731964L470,102.25679690731964L490,102.25679690731964L510,105.50843834072934L530,105.50843834072934L550,105.50843834072934L570,105.50843834072934L590,105.50843834072934L610,106.92928913298717L630,106.92928913298717L650,106.92928913298717L670,106.92928913298717L690,106.92928913298717L710,189.35453657730045L730,189.35453657730045L750,189.35453657730045L770,189.35453657730045L790,189.35453657730045L810,189.35453657730045L810,177.77777777777777L790,177.77777777777777L770,177.77777777777777L750,177.77777777777777L730,177.77777777777777L710,177.77777777777777L690,106.92928913298717L670,106.92928913298717L650,106.92928913298717L630,106.92928913298717L610,106.92928913298717L590,105.50843834072934L570,105.50843834072934L550,105.50843834072934L530,105.50843834072934L510,105.50843834072934L490,102.25679690732021L470,102.25679690732021L450,102.25679690732021L430,102.25679690732021L410,102.25679690732021L390,82.12128015816195L370,82.12128015816195L350,82.12128015816195L330,82.12128015816195L310,82.12128015816195L290,115.89858332897474L270,115.89858332897474L250,115.89858332897474L230,115.89858332897474L210,115.89858332897474L190,111.26861935359751L170,111.26861935359751L150,111.26861935359751L130,111.26861935359751L110,111.26861935359751L90,177.77777777777777L70,177.77777777777777L50,177.77777777777777L30,177.77777777777777L10,177.77777777777777Z" fill="#72b7b2"/></g></g><path class="foreground" aria-hidden="true" d="" display="none"/></g><g transform="translate(0,0)"><path class="background" aria-hidden="true" d="M0,0h820v200h-820Z"/><g><g class="mark-area role-mark marks" role="graphics-object" aria-roledescription="area mark container"><path aria-label="year: 2020; CO2: 8; variable: Conv" role="graphics-symbol" aria-roledescription="area mark" d="M10,0L30,0L50,0L70,0L90,0L110,111.26861935359751L130,111.26861935359751L150,111.26861935359751L170,111.26861935359751L190,111.26861935359751L210,115.89858332897474L230,115.89858332897474L250,115.89858332897474L270,115.89858332897474L290,115.89858332897474L310,82.12128015816195L330,82.12128015816195L350,82.12128015816195L370,82.12128015816195L390,82.12128015816195L410,102.16793977365018L430,102.16793977365018L450,102.16793977365018L470,102.16793977365018L490,102.16793977365018L510,94.19690612100781L530,94.19690612100781L550,94.19690612100781L570,94.19690612100781L590,94.19690612100781L610,106.92928913298717L630,106.92928913298717L650,106.92928913298717L670,106.92928913298717L690,106.92928913298717L710,167.1105127905033L730,167.1105127905033L750,167.1105127905033L770,167.1105127905033L790,167.1105127905033L810,167.1105127905033L810,167.1105127905033L790,167.1105127905033L770,167.1105127905033L750,167.1105127905033L730,167.1105127905033L710,167.1105127905033L690,106.92928913298717L670,106.92928913298717L650,106.92928913298717L630,106.92928913298717L610,106.92928913298717L590,94.19690612100781L570,94.19690612100781L550,94.19690612100781L530,94.19690612100781L510,94.19690612100781L490,102.16793977365018L470,102.16793977365018L450,102.16793977365018L430,102.16793977365018L410,102.16793977365018L390,82.12128015816195L370,82.12128015816195L350,82.12128015816195L330,82.12128015816195L310,82.12128015816195L290,115.89858332897474L270,115.89858332897474L250,115.89858332897474L230,115.89858332897474L210,115.89858332897474L190,111.26861935359751L170,111.26861935359751L150,111.26861935359751L130,111.26861935359751L110,111.26861935359751L90,177.77777777777777L70,177.77777777777777L50,177.77777777777777L30,177.77777777777777L10,177.77777777777777Z" fill="#4c78a8"/></g></g><path class="foreground" aria-hidden="true" d="" display="none"/></g></g><g class="mark-group role-legend" role="graphics-symbol" aria-roledescription="legend" aria-label="Symbol legend titled 'variable' for fill color with 9 values: Conv, x158, x159, x163, x28, ending with x48"><g transform="translate(838,0)"><path class="background" aria-hidden="true" d="M0,0h49v131h-49Z" pointer-events="none"/><g><g class="mark-group role-legend-entry"><g transform="translate(0,16)"><path class="background" aria-hidden="true" d="M0,0h0v0h0Z" pointer-events="none"/><g><g class="mark-group role-scope" role="graphics-object" aria-roledescription="group mark container"><g transform="translate(0,0)"><path class="background" aria-hidden="true" d="M0,0h41v11h-41Z" pointer-events="none" opacity="1"/><g><g class="mark-symbol role-legend-symbol" pointer-events="none"><path transform="translate(6,6)" d="M5,0A5,5,0,1,1,-5,0A5,5,0,1,1,5,0" fill="#4c78a8" stroke-width="1.5" opacity="1"/></g><g class="mark-text role-legend-label" pointer-events="none"><text text-anchor="start" transform="translate(16,9)" font-family="sans-serif" font-size="10px" fill="#000" opacity="1">Conv</text></g></g><path class="foreground" aria-hidden="true" d="" pointer-events="none" display="none"/></g><g transform="translate(0,13)"><path class="background" aria-hidden="true" d="M0,0h41v11h-41Z" pointer-events="none" opacity="1"/><g><g class="mark-symbol role-legend-symbol" pointer-events="none"><path transform="translate(6,6)" d="M5,0A5,5,0,1,1,-5,0A5,5,0,1,1,5,0" fill="#f58518" stroke-width="1.5" opacity="1"/></g><g class="mark-text role-legend-label" pointer-events="none"><text text-anchor="start" transform="translate(16,9)" font-family="sans-serif" font-size="10px" fill="#000" opacity="1">x158</text></g></g><path class="foreground" aria-hidden="true" d="" pointer-events="none" display="none"/></g><g transform="translate(0,26)"><path class="background" aria-hidden="true" d="M0,0h41v11h-41Z" pointer-events="none" opacity="1"/><g><g class="mark-symbol role-legend-symbol" pointer-events="none"><path transform="translate(6,6)" d="M5,0A5,5,0,1,1,-5,0A5,5,0,1,1,5,0" fill="#e45756" stroke-width="1.5" opacity="1"/></g><g class="mark-text role-legend-label" pointer-events="none"><text text-anchor="start" transform="translate(16,9)" font-family="sans-serif" font-size="10px" fill="#000" opacity="1">x159</text></g></g><path class="foreground" aria-hidden="true" d="" pointer-events="none" display="none"/></g><g transform="translate(0,39)"><path class="background" aria-hidden="true" d="M0,0h41v11h-41Z" pointer-events="none" opacity="1"/><g><g class="mark-symbol role-legend-symbol" pointer-events="none"><path transform="translate(6,6)" d="M5,0A5,5,0,1,1,-5,0A5,5,0,1,1,5,0" fill="#72b7b2" stroke-width="1.5" opacity="1"/></g><g class="mark-text role-legend-label" pointer-events="none"><text text-anchor="start" transform="translate(16,9)" font-family="sans-serif" font-size="10px" fill="#000" opacity="1">x163</text></g></g><path class="foreground" aria-hidden="true" d="" pointer-events="none" display="none"/></g><g transform="translate(0,52)"><path class="background" aria-hidden="true" d="M0,0h41v11h-41Z" pointer-events="none" opacity="1"/><g><g class="mark-symbol role-legend-symbol" pointer-events="none"><path transform="translate(6,6)" d="M5,0A5,5,0,1,1,-5,0A5,5,0,1,1,5,0" fill="#54a24b" stroke-width="1.5" opacity="1"/></g><g class="mark-text role-legend-label" pointer-events="none"><text text-anchor="start" transform="translate(16,9)" font-family="sans-serif" font-size="10px" fill="#000" opacity="1">x28</text></g></g><path class="foreground" aria-hidden="true" d="" pointer-events="none" display="none"/></g><g transform="translate(0,65)"><path class="background" aria-hidden="true" d="M0,0h41v11h-41Z" pointer-events="none" opacity="1"/><g><g class="mark-symbol role-legend-symbol" pointer-events="none"><path transform="translate(6,6)" d="M5,0A5,5,0,1,1,-5,0A5,5,0,1,1,5,0" fill="#eeca3b" stroke-width="1.5" opacity="1"/></g><g class="mark-text role-legend-label" pointer-events="none"><text text-anchor="start" transform="translate(16,9)" font-family="sans-serif" font-size="10px" fill="#000" opacity="1">x30</text></g></g><path class="foreground" aria-hidden="true" d="" pointer-events="none" display="none"/></g><g transform="translate(0,78)"><path class="background" aria-hidden="true" d="M0,0h41v11h-41Z" pointer-events="none" opacity="1"/><g><g class="mark-symbol role-legend-symbol" pointer-events="none"><path transform="translate(6,6)" d="M5,0A5,5,0,1,1,-5,0A5,5,0,1,1,5,0" fill="#b279a2" stroke-width="1.5" opacity="1"/></g><g class="mark-text role-legend-label" pointer-events="none"><text text-anchor="start" transform="translate(16,9)" font-family="sans-serif" font-size="10px" fill="#000" opacity="1">x34</text></g></g><path class="foreground" aria-hidden="true" d="" pointer-events="none" display="none"/></g><g transform="translate(0,91)"><path class="background" aria-hidden="true" d="M0,0h41v11h-41Z" pointer-events="none" opacity="1"/><g><g class="mark-symbol role-legend-symbol" pointer-events="none"><path transform="translate(6,6)" d="M5,0A5,5,0,1,1,-5,0A5,5,0,1,1,5,0" fill="#ff9da6" stroke-width="1.5" opacity="1"/></g><g class="mark-text role-legend-label" pointer-events="none"><text text-anchor="start" transform="translate(16,9)" font-family="sans-serif" font-size="10px" fill="#000" opacity="1">x37</text></g></g><path class="foreground" aria-hidden="true" d="" pointer-events="none" display="none"/></g><g transform="translate(0,104)"><path class="background" aria-hidden="true" d="M0,0h41v11h-41Z" pointer-events="none" opacity="1"/><g><g class="mark-symbol role-legend-symbol" pointer-events="none"><path transform="translate(6,6)" d="M5,0A5,5,0,1,1,-5,0A5,5,0,1,1,5,0" fill="#9d755d" stroke-width="1.5" opacity="1"/></g><g class="mark-text role-legend-label" pointer-events="none"><text text-anchor="start" transform="translate(16,9)" font-family="sans-serif" font-size="10px" fill="#000" opacity="1">x48</text></g></g><path class="foreground" aria-hidden="true" d="" pointer-events="none" display="none"/></g></g></g><path class="foreground" aria-hidden="true" d="" pointer-events="none" display="none"/></g></g><g class="mark-text role-legend-title" pointer-events="none"><text text-anchor="start" transform="translate(0,9)" font-family="sans-serif" font-size="11px" font-weight="bold" fill="#000" opacity="1">variable</text></g></g><path class="foreground" aria-hidden="true" d="" pointer-events="none" display="none"/></g></g></g><path class="foreground" aria-hidden="true" d="" display="none"/></g></g></g></svg>
