<?xml version="1.0" encoding="utf-8"?>
<!DOCTYPE svg PUBLIC "-//W3C//DTD SVG 1.1//EN" "http://www.w3.org/Graphics/SVG/1.1/DTD/svg11.dtd">
<svg xmlns="http://www.w3.org/2000/svg" xmlns:xlink="http://www.w3.org/1999/xlink" version="1.1" class="marks" width="349" height="251" viewBox="0 0 349 251"><rect width="349" height="251" fill="white"/><g fill="none" stroke-miterlimit="10" transform="translate(54,5)"><g class="mark-group role-frame root" role="graphics-object" aria-roledescription="group mark container"><g transform="translate(0,0)"><path class="background" aria-hidden="true" d="M0.5,0.5h200v200h-200Z" stroke="#ddd"/><g><g class="mark-group role-axis" aria-hidden="true"><g transform="translate(0.5,200.5)"><path class="background" aria-hidden="true" d="M0,0h0v0h0Z" pointer-events="none"/><g><g class="mark-rule role-axis-grid" pointer-events="none"><line transform="translate(0,-200)" x2="0" y2="200" stroke="#ddd" stroke-width="1" opacity="1"/><line transform="translate(29,-200)" x2="0" y2="200" stroke="#ddd" stroke-width="1" opacity="1"/><line transform="translate(57,-200)" x2="0" y2="200" stroke="#ddd" stroke-width="1" opacity="1"/><line transform="translate(86,-200)" x2="0" y2="200" stroke="#ddd" stroke-width="1" opacity="1"/><line transform="translate(114,-200)" x2="0" y2="200" stroke="#ddd" stroke-width="1" opacity="1"/><line transform="translate(143,-200)" x2="0" y2="200" stroke="#ddd" stroke-width="1" opacity="1"/><line transform="translate(171,-200)" x2="0" y2="200" stroke="#ddd" stroke-width="1" opacity="1"/><line transform="translate(200,-200)" x2="0" y2="200" stroke="#ddd" stroke-width="1" opacity="1"/></g></g><path class="foreground" aria-hidden="true" d="" pointer-events="none" display="none"/></g></g><g class="mark-group role-axis" aria-hidden="true"><g transform="translate(0.5,0.5)"><path class="background" aria-hidden="true" d="M0,0h0v0h0Z" pointer-events="none"/><g><g class="mark-rule role-axis-grid" pointer-events="none"><line transform="translate(0,200)" x2="200" y2="0" stroke="#ddd" stroke-width="1" opacity="1"/><line transform="translate(0,164)" x2="200" y2="0" stroke="#ddd" stroke-width="1" opacity="1"/><line transform="translate(0,127)" x2="200" y2="0" stroke="#ddd" stroke-width="1" opacity="1"/><line transform="translate(0,91)" x2="200" y2="0" stroke="#ddd" stroke-width="1" opacity="1"/><line transform="translate(0,55)" x2="200" y2="0" stroke="#ddd" stroke-width="1" opacity="1"/><line transform="translate(0,18)" x2="200" y2="0" stroke="#ddd" stroke-width="1" opacity="1"/></g></g><path class="foreground" aria-hidden="true" d="" pointer-events="none" display="none"/></g></g><g class="mark-group role-axis" role="graphics-symbol" aria-roledescription="axis" aria-label="X-axis titled 'Year' for a linear scale with values from 0 to 35"><g transform="translate(0.5,200.5)"><path class="background" aria-hidden="true" d="M0,0h0v0h0Z" pointer-events="none"/><g><g class="mark-rule role-axis-tick" pointer-events="none"><line transform="translate(0,0)" x2="0" y2="5" stroke="#888" stroke-width="1" opacity="1"/><line transform="translate(29,0)" x2="0" y2="5" stroke="#888" stroke-width="1" opacity="1"/><line transform="translate(57,0)" x2="0" y2="5" stroke="#888" stroke-width="1" opacity="1"/><line transform="translate(86,0)" x2="0" y2="5" stroke="#888" stroke-width="1" opacity="1"/><line transform="translate(114,0)" x2="0" y2="5" stroke="#888" stroke-width="1" opacity="1"/><line transform="translate(143,0)" x2="0" y2="5" stroke="#888" stroke-width="1" opacity="1"/><line transform="translate(171,0)" x2="0" y2="5" stroke="#888" stroke-width="1" opacity="1"/><line transform="translate(200,0)" x2="0" y2="5" stroke="#888" stroke-width="1" opacity="1"/></g><g class="mark-text role-axis-label" pointer-events="none"><text text-anchor="start" transform="translate(0,18)" font-family="sans-serif" font-size="14px" fill="#000" opacity="1">0</text><text text-anchor="middle" transform="translate(28.57142857142857,18)" font-family="sans-serif" font-size="14px" fill="#000" opacity="1">5</text><text text-anchor="middle" transform="translate(57.14285714285714,18)" font-family="sans-serif" font-size="14px" fill="#000" opacity="1">10</text><text text-anchor="middle" transform="translate(85.71428571428571,18)" font-family="sans-serif" font-size="14px" fill="#000" opacity="1">15</text><text text-anchor="middle" transform="translate(114.28571428571428,18)" font-family="sans-serif" font-size="14px" fill="#000" opacity="1">20</text><text text-anchor="middle" transform="translate(142.85714285714286,18)" font-family="sans-serif" font-size="14px" fill="#000" opacity="1">25</text><text text-anchor="middle" transform="translate(171.42857142857142,18)" font-family="sans-serif" font-size="14px" fill="#000" opacity="1">30</text><text text-anchor="end" transform="translate(200,18)" font-family="sans-serif" font-size="14px" fill="#000" opacity="1">35</text></g><g class="mark-rule role-axis-domain" pointer-events="none"><line transform="translate(0,0)" x2="200" y2="0" stroke="#888" stroke-width="1" opacity="1"/></g><g class="mark-text role-axis-title" pointer-events="none"><text text-anchor="middle" transform="translate(100,38)" font-family="sans-serif" font-size="16px" font-weight="bold" fill="#000" opacity="1">Year</text></g></g><path class="foreground" aria-hidden="true" d="" pointer-events="none" display="none"/></g></g><g class="mark-group role-axis" role="graphics-symbol" aria-roledescription="axis" aria-label="Y-axis titled 'Fraction' for a linear scale with values from 0.0 to 1.1"><g transform="translate(0.5,0.5)"><path class="background" aria-hidden="true" d="M0,0h0v0h0Z" pointer-events="none"/><g><g class="mark-rule role-axis-tick" pointer-events="none"><line transform="translate(0,200)" x2="-5" y2="0" stroke="#888" stroke-width="1" opacity="1"/><line transform="translate(0,164)" x2="-5" y2="0" stroke="#888" stroke-width="1" opacity="1"/><line transform="translate(0,127)" x2="-5" y2="0" stroke="#888" stroke-width="1" opacity="1"/><line transform="translate(0,91)" x2="-5" y2="0" stroke="#888" stroke-width="1" opacity="1"/><line transform="translate(0,55)" x2="-5" y2="0" stroke="#888" stroke-width="1" opacity="1"/><line transform="translate(0,18)" x2="-5" y2="0" stroke="#888" stroke-width="1" opacity="1"/></g><g class="mark-text role-axis-label" pointer-events="none"><text text-anchor="end" transform="translate(-7,204)" font-family="sans-serif" font-size="14px" fill="#000" opacity="1">0.0</text><text text-anchor="end" transform="translate(-7,167.63636363636363)" font-family="sans-serif" font-size="14px" fill="#000" opacity="1">0.2</text><text text-anchor="end" transform="translate(-7,131.27272727272725)" font-family="sans-serif" font-size="14px" fill="#000" opacity="1">0.4</text><text text-anchor="end" transform="translate(-7,94.90909090909092)" font-family="sans-serif" font-size="14px" fill="#000" opacity="1">0.6</text><text text-anchor="end" transform="translate(-7,58.54545454545454)" font-family="sans-serif" font-size="14px" fill="#000" opacity="1">0.8</text><text text-anchor="end" transform="translate(-7,22.181818181818187)" font-family="sans-serif" font-size="14px" fill="#000" opacity="1">1.0</text></g><g class="mark-rule role-axis-domain" pointer-events="none"><line transform="translate(0,200)" x2="0" y2="-200" stroke="#888" stroke-width="1" opacity="1"/></g><g class="mark-text role-axis-title" pointer-events="none"><text text-anchor="middle" transform="translate(-33,100) rotate(-90) translate(0,-3)" font-family="sans-serif" font-size="16px" font-weight="bold" fill="#000" opacity="1">Fraction</text></g></g><path class="foreground" aria-hidden="true" d="" pointer-events="none" display="none"/></g></g><g class="mark-group role-scope pathgroup" role="graphics-object" aria-roledescription="group mark container"><g transform="translate(0,0)"><path class="background" aria-hidden="true" d="M0,0h200v200h-200Z"/><g><g class="mark-area role-mark marks" role="graphics-object" aria-roledescription="area mark container"><path aria-label="Year: 0; Fraction: 0; variable: x22" role="graphics-symbol" aria-roledescription="area mark" d="M0,200L28.57142857142857,200L57.14285714285714,200L85.71428571428571,70.75044732133462L114.28571428571428,70.75044732133462L142.85714285714286,70.75044732133462L171.42857142857142,200L200,199.99999976236532L200,199.99999976236532L171.42857142857142,200L142.85714285714286,200L114.28571428571428,200L85.71428571428571,200L57.14285714285714,200L28.57142857142857,200L0,200Z" fill="#b279a2"/></g></g><path class="foreground" aria-hidden="true" d="" display="none"/></g><g transform="translate(0,0)"><path class="background" aria-hidden="true" d="M0,0h200v200h-200Z"/><g><g class="mark-area role-mark marks" role="graphics-object" aria-roledescription="area mark container"><path aria-label="Year: 0; Fraction: 0; variable: x134" role="graphics-symbol" aria-roledescription="area mark" d="M0,200L28.57142857142857,18.181818181818187L57.14285714285714,18.181818181818187L85.71428571428571,18.18181818181821L114.28571428571428,18.18181818181821L142.85714285714286,18.181818181818187L171.42857142857142,18.181818181818187L200,18.18181808706929L200,121.35707554161326L171.42857142857142,109.95562808774618L142.85714285714286,18.181818181818187L114.28571428571428,18.18181818181821L85.71428571428571,18.18181818181821L57.14285714285714,18.181818181818187L28.57142857142857,18.181818181818187L0,200Z" fill="#f58518"/></g></g><path class="foreground" aria-hidden="true" d="" display="none"/></g><g transform="translate(0,0)"><path class="background" aria-hidden="true" d="M0,0h200v200h-200Z"/><g><g class="mark-area role-mark marks" role="graphics-object" aria-roledescription="area mark container"><path aria-label="Year: 0; Fraction: 0; variable: x157" role="graphics-symbol" aria-roledescription="area mark" d="M0,200L28.57142857142857,18.181818181818187L57.14285714285714,18.181818181818187L85.71428571428571,18.18181818181821L114.28571428571428,18.18181818181821L142.85714285714286,18.181818181818187L171.42857142857142,109.95562808774618L200,121.35707554161326L200,121.35707554161326L171.42857142857142,178.7106385478286L142.85714285714286,18.181818181818187L114.28571428571428,18.18181818181821L85.71428571428571,18.18181818181821L57.14285714285714,18.181818181818187L28.57142857142857,18.181818181818187L0,200Z" fill="#e45756"/></g></g><path class="foreground" aria-hidden="true" d="" display="none"/></g><g transform="translate(0,0)"><path class="background" aria-hidden="true" d="M0,0h200v200h-200Z"/><g><g class="mark-area role-mark marks" role="graphics-object" aria-roledescription="area mark container"><path aria-label="Year: 0; Fraction: 0; variable: x158" role="graphics-symbol" aria-roledescription="area mark" d="M0,200L28.57142857142857,18.181818181818187L57.14285714285714,18.181818181818187L85.71428571428571,18.18181818181821L114.28571428571428,18.18181818181821L142.85714285714286,18.181818181818187L171.42857142857142,178.7106385478286L200,121.35707554161326L200,163.13352679275363L171.42857142857142,178.7106385478286L142.85714285714286,18.181818181818187L114.28571428571428,18.18181818181821L85.71428571428571,18.18181818181821L57.14285714285714,18.181818181818187L28.57142857142857,18.181818181818187L0,200Z" fill="#72b7b2"/></g></g><path class="foreground" aria-hidden="true" d="" display="none"/></g><g transform="translate(0,0)"><path class="background" aria-hidden="true" d="M0,0h200v200h-200Z"/><g><g class="mark-area role-mark marks" role="graphics-object" aria-roledescription="area mark container"><path aria-label="Year: 0; Fraction: 0; variable: x177" role="graphics-symbol" aria-roledescription="area mark" d="M0,200L28.57142857142857,18.181818181818187L57.14285714285714,18.181818181818187L85.71428571428571,18.18181818181821L114.28571428571428,18.18181818181821L142.85714285714286,18.181818181818187L171.42857142857142,178.7106385478286L200,163.13352679275363L200,199.99999976236532L171.42857142857142,200L142.85714285714286,70.75044732133462L114.28571428571428,70.75044732133462L85.71428571428571,70.75044732133462L57.14285714285714,18.181818181818187L28.57142857142857,18.181818181818187L0,200Z" fill="#54a24b"/></g></g><path class="foreground" aria-hidden="true" d="" display="none"/></g><g transform="translate(0,0)"><path class="background" aria-hidden="true" d="M0,0h200v200h-200Z"/><g><g class="mark-area role-mark marks" role="graphics-object" aria-roledescription="area mark container"><path aria-label="Year: 0; Fraction: 0; variable: x178" role="graphics-symbol" aria-roledescription="area mark" d="M0,200L28.57142857142857,18.181818181818187L57.14285714285714,18.181818181818187L85.71428571428571,70.75044732133462L114.28571428571428,70.75044732133462L142.85714285714286,70.75044732133462L171.42857142857142,200L200,199.99999976236532L200,199.99999976236532L171.42857142857142,200L142.85714285714286,70.75044732133462L114.28571428571428,70.75044732133462L85.71428571428571,70.75044732133462L57.14285714285714,200L28.57142857142857,200L0,200Z" fill="#eeca3b"/></g></g><path class="foreground" aria-hidden="true" d="" display="none"/></g><g transform="translate(0,0)"><path class="background" aria-hidden="true" d="M0,0h200v200h-200Z"/><g><g class="mark-area role-mark marks" role="graphics-object" aria-roledescription="area mark container"><path aria-label="Year: 0; Fraction: 0; variable: x235" role="graphics-symbol" aria-roledescription="area mark" d="M0,200L28.57142857142857,200L57.14285714285714,200L85.71428571428571,200L114.28571428571428,200L142.85714285714286,200L171.42857142857142,200L200,199.99999976236532L200,199.99999978987205L171.42857142857142,200L142.85714285714286,200L114.28571428571428,200L85.71428571428571,200L57.14285714285714,200L28.57142857142857,200L0,200Z" fill="#ff9da6"/></g></g><path class="foreground" aria-hidden="true" d="" display="none"/></g><g transform="translate(0,0)"><path class="background" aria-hidden="true" d="M0,0h200v200h-200Z"/><g><g class="mark-area role-mark marks" role="graphics-object" aria-roledescription="area mark container"><path aria-label="Year: 0; Fraction: 0; variable: x253" role="graphics-symbol" aria-roledescription="area mark" d="M0,200L28.57142857142857,200L57.14285714285714,200L85.71428571428571,200L114.28571428571428,200L142.85714285714286,200L171.42857142857142,200L200,199.99999978987205L200,200L171.42857142857142,200L142.85714285714286,200L114.28571428571428,200L85.71428571428571,200L57.14285714285714,200L28.57142857142857,200L0,200Z" fill="#9d755d"/></g></g><path class="foreground" aria-hidden="true" d="" display="none"/></g><g transform="translate(0,0)"><path class="background" aria-hidden="true" d="M0,0h200v200h-200Z"/><g><g class="mark-area role-mark marks" role="graphics-object" aria-roledescription="area mark container"><path aria-label="Year: 0; Fraction: 1; variable: Conv" role="graphics-symbol" aria-roledescription="area mark" d="M0,18.181818181818187L28.57142857142857,18.181818181818187L57.14285714285714,18.181818181818187L85.71428571428571,18.18181818181821L114.28571428571428,18.18181818181821L142.85714285714286,18.181818181818187L171.42857142857142,18.181818181818187L200,18.18181808706929L200,18.18181808706929L171.42857142857142,18.181818181818187L142.85714285714286,18.181818181818187L114.28571428571428,18.18181818181821L85.71428571428571,18.18181818181821L57.14285714285714,18.181818181818187L28.57142857142857,18.181818181818187L0,200Z" fill="#4c78a8"/></g></g><path class="foreground" aria-hidden="true" d="" display="none"/></g></g><g class="mark-group role-legend" role="graphics-symbol" aria-roledescription="legend" aria-label="Symbol legend titled 'variable' for fill color with 9 values: Conv, x134, x157, x158, x177, ending with x253"><g transform="translate(218,0)"><path class="background" aria-hidden="true" d="M0,0h72v136h-72Z" pointer-events="none"/><g><g class="mark-group role-legend-entry"><g transform="translate(0,21)"><path class="background" aria-hidden="true" d="M0,0h0v0h0Z" pointer-events="none"/><g><g class="mark-group role-scope" role="graphics-object" aria-roledescription="group mark container"><g transform="translate(0,0)"><path class="background" aria-hidden="true" d="M0,0h41v11h-41Z" pointer-events="none" opacity="1"/><g><g class="mark-symbol role-legend-symbol" pointer-events="none"><path transform="translate(6,6)" d="M5,0A5,5,0,1,1,-5,0A5,5,0,1,1,5,0" fill="#4c78a8" stroke-width="1.5" opacity="1"/></g><g class="mark-text role-legend-label" pointer-events="none"><text text-anchor="start" transform="translate(16,9)" font-family="sans-serif" font-size="10px" fill="#000" opacity="1">Conv</text></g></g><path class="foreground" aria-hidden="true" d="" pointer-events="none" display="none"/></g><g transform="translate(0,13)"><path class="background" aria-hidden="true" d="M0,0h41v11h-41Z" pointer-events="none" opacity="1"/><g><g class="mark-symbol role-legend-symbol" pointer-events="none"><path transform="translate(6,6)" d="M5,0A5,5,0,1,1,-5,0A5,5,0,1,1,5,0" fill="#f58518" stroke-width="1.5" opacity="1"/></g><g class="mark-text role-legend-label" pointer-events="none"><text text-anchor="start" transform="translate(16,9)" font-family="sans-serif" font-size="10px" fill="#000" opacity="1">x134</text></g></g><path class="foreground" aria-hidden="true" d="" pointer-events="none" display="none"/></g><g transform="translate(0,26)"><path class="background" aria-hidden="true" d="M0,0h41v11h-41Z" pointer-events="none" opacity="1"/><g><g class="mark-symbol role-legend-symbol" pointer-events="none"><path transform="translate(6,6)" d="M5,0A5,5,0,1,1,-5,0A5,5,0,1,1,5,0" fill="#e45756" stroke-width="1.5" opacity="1"/></g><g class="mark-text role-legend-label" pointer-events="none"><text text-anchor="start" transform="translate(16,9)" font-family="sans-serif" font-size="10px" fill="#000" opacity="1">x157</text></g></g><path class="foreground" aria-hidden="true" d="" pointer-events="none" display="none"/></g><g transform="translate(0,39)"><path class="background" aria-hidden="true" d="M0,0h41v11h-41Z" pointer-events="none" opacity="1"/><g><g class="mark-symbol role-legend-symbol" pointer-events="none"><path transform="translate(6,6)" d="M5,0A5,5,0,1,1,-5,0A5,5,0,1,1,5,0" fill="#72b7b2" stroke-width="1.5" opacity="1"/></g><g class="mark-text role-legend-label" pointer-events="none"><text text-anchor="start" transform="translate(16,9)" font-family="sans-serif" font-size="10px" fill="#000" opacity="1">x158</text></g></g><path class="foreground" aria-hidden="true" d="" pointer-events="none" display="none"/></g><g transform="translate(0,52)"><path class="background" aria-hidden="true" d="M0,0h41v11h-41Z" pointer-events="none" opacity="1"/><g><g class="mark-symbol role-legend-symbol" pointer-events="none"><path transform="translate(6,6)" d="M5,0A5,5,0,1,1,-5,0A5,5,0,1,1,5,0" fill="#54a24b" stroke-width="1.5" opacity="1"/></g><g class="mark-text role-legend-label" pointer-events="none"><text text-anchor="start" transform="translate(16,9)" font-family="sans-serif" font-size="10px" fill="#000" opacity="1">x177</text></g></g><path class="foreground" aria-hidden="true" d="" pointer-events="none" display="none"/></g><g transform="translate(0,65)"><path class="background" aria-hidden="true" d="M0,0h41v11h-41Z" pointer-events="none" opacity="1"/><g><g class="mark-symbol role-legend-symbol" pointer-events="none"><path transform="translate(6,6)" d="M5,0A5,5,0,1,1,-5,0A5,5,0,1,1,5,0" fill="#eeca3b" stroke-width="1.5" opacity="1"/></g><g class="mark-text role-legend-label" pointer-events="none"><text text-anchor="start" transform="translate(16,9)" font-family="sans-serif" font-size="10px" fill="#000" opacity="1">x178</text></g></g><path class="foreground" aria-hidden="true" d="" pointer-events="none" display="none"/></g><g transform="translate(0,78)"><path class="background" aria-hidden="true" d="M0,0h41v11h-41Z" pointer-events="none" opacity="1"/><g><g class="mark-symbol role-legend-symbol" pointer-events="none"><path transform="translate(6,6)" d="M5,0A5,5,0,1,1,-5,0A5,5,0,1,1,5,0" fill="#b279a2" stroke-width="1.5" opacity="1"/></g><g class="mark-text role-legend-label" pointer-events="none"><text text-anchor="start" transform="translate(16,9)" font-family="sans-serif" font-size="10px" fill="#000" opacity="1">x22</text></g></g><path class="foreground" aria-hidden="true" d="" pointer-events="none" display="none"/></g><g transform="translate(0,91)"><path class="background" aria-hidden="true" d="M0,0h41v11h-41Z" pointer-events="none" opacity="1"/><g><g class="mark-symbol role-legend-symbol" pointer-events="none"><path transform="translate(6,6)" d="M5,0A5,5,0,1,1,-5,0A5,5,0,1,1,5,0" fill="#ff9da6" stroke-width="1.5" opacity="1"/></g><g class="mark-text role-legend-label" pointer-events="none"><text text-anchor="start" transform="translate(16,9)" font-family="sans-serif" font-size="10px" fill="#000" opacity="1">x235</text></g></g><path class="foreground" aria-hidden="true" d="" pointer-events="none" display="none"/></g><g transform="translate(0,104)"><path class="background" aria-hidden="true" d="M0,0h41v11h-41Z" pointer-events="none" opacity="1"/><g><g class="mark-symbol role-legend-symbol" pointer-events="none"><path transform="translate(6,6)" d="M5,0A5,5,0,1,1,-5,0A5,5,0,1,1,5,0" fill="#9d755d" stroke-width="1.5" opacity="1"/></g><g class="mark-text role-legend-label" pointer-events="none"><text text-anchor="start" transform="translate(16,9)" font-family="sans-serif" font-size="10px" fill="#000" opacity="1">x253</text></g></g><path class="foreground" aria-hidden="true" d="" pointer-events="none" display="none"/></g></g></g><path class="foreground" aria-hidden="true" d="" pointer-events="none" display="none"/></g></g><g class="mark-text role-legend-title" pointer-events="none"><text text-anchor="start" transform="translate(0,13)" font-family="sans-serif" font-size="16px" font-weight="bold" fill="#000" opacity="1">variable</text></g></g><path class="foreground" aria-hidden="true" d="" pointer-events="none" display="none"/></g></g></g><path class="foreground" aria-hidden="true" d="" display="none"/></g></g></g></svg>
