<?xml version="1.0" encoding="utf-8"?>
<!DOCTYPE svg PUBLIC "-//W3C//DTD SVG 1.1//EN" "http://www.w3.org/Graphics/SVG/1.1/DTD/svg11.dtd">
<svg xmlns="http://www.w3.org/2000/svg" xmlns:xlink="http://www.w3.org/1999/xlink" version="1.1" class="marks" width="934" height="261" viewBox="0 0 934 261"><rect width="934" height="261" fill="white"/><g fill="none" stroke-miterlimit="10" transform="translate(42,10)"><g class="mark-group role-frame root" role="graphics-object" aria-roledescription="group mark container"><g transform="translate(0,0)"><path class="background" aria-hidden="true" d="M0.5,0.5h820v200h-820Z" stroke="#ddd"/><g><g class="mark-group role-axis" aria-hidden="true"><g transform="translate(0.5,0.5)"><path class="background" aria-hidden="true" d="M0,0h0v0h0Z" pointer-events="none"/><g><g class="mark-rule role-axis-grid" pointer-events="none"><line transform="translate(0,200)" x2="820" y2="0" stroke="#ddd" stroke-width="1" opacity="1"/><line transform="translate(0,171)" x2="820" y2="0" stroke="#ddd" stroke-width="1" opacity="1"/><line transform="translate(0,143)" x2="820" y2="0" stroke="#ddd" stroke-width="1" opacity="1"/><line transform="translate(0,114)" x2="820" y2="0" stroke="#ddd" stroke-width="1" opacity="1"/><line transform="translate(0,86)" x2="820" y2="0" stroke="#ddd" stroke-width="1" opacity="1"/><line transform="translate(0,57)" x2="820" y2="0" stroke="#ddd" stroke-width="1" opacity="1"/><line transform="translate(0,29)" x2="820" y2="0" stroke="#ddd" stroke-width="1" opacity="1"/><line transform="translate(0,0)" x2="820" y2="0" stroke="#ddd" stroke-width="1" opacity="1"/></g></g><path class="foreground" aria-hidden="true" d="" pointer-events="none" display="none"/></g></g><g class="mark-group role-axis" role="graphics-symbol" aria-roledescription="axis" aria-label="X-axis titled 'year' for a discrete scale with 41 values: 2020, 2021, 2022, 2023, 2024, ending with 2060"><g transform="translate(0.5,200.5)"><path class="background" aria-hidden="true" d="M0,0h0v0h0Z" pointer-events="none"/><g><g class="mark-rule role-axis-tick" pointer-events="none"><line transform="translate(10,0)" x2="0" y2="5" stroke="#888" stroke-width="1" opacity="1"/><line transform="translate(30,0)" x2="0" y2="5" stroke="#888" stroke-width="1" opacity="1"/><line transform="translate(50,0)" x2="0" y2="5" stroke="#888" stroke-width="1" opacity="1"/><line transform="translate(70,0)" x2="0" y2="5" stroke="#888" stroke-width="1" opacity="1"/><line transform="translate(90,0)" x2="0" y2="5" stroke="#888" stroke-width="1" opacity="1"/><line transform="translate(110,0)" x2="0" y2="5" stroke="#888" stroke-width="1" opacity="1"/><line transform="translate(130,0)" x2="0" y2="5" stroke="#888" stroke-width="1" opacity="1"/><line transform="translate(150,0)" x2="0" y2="5" stroke="#888" stroke-width="1" opacity="1"/><line transform="translate(170,0)" x2="0" y2="5" stroke="#888" stroke-width="1" opacity="1"/><line transform="translate(190,0)" x2="0" y2="5" stroke="#888" stroke-width="1" opacity="1"/><line transform="translate(210,0)" x2="0" y2="5" stroke="#888" stroke-width="1" opacity="1"/><line transform="translate(230,0)" x2="0" y2="5" stroke="#888" stroke-width="1" opacity="1"/><line transform="translate(250,0)" x2="0" y2="5" stroke="#888" stroke-width="1" opacity="1"/><line transform="translate(270,0)" x2="0" y2="5" stroke="#888" stroke-width="1" opacity="1"/><line transform="translate(290,0)" x2="0" y2="5" stroke="#888" stroke-width="1" opacity="1"/><line transform="translate(310,0)" x2="0" y2="5" stroke="#888" stroke-width="1" opacity="1"/><line transform="translate(330,0)" x2="0" y2="5" stroke="#888" stroke-width="1" opacity="1"/><line transform="translate(350,0)" x2="0" y2="5" stroke="#888" stroke-width="1" opacity="1"/><line transform="translate(370,0)" x2="0" y2="5" stroke="#888" stroke-width="1" opacity="1"/><line transform="translate(390,0)" x2="0" y2="5" stroke="#888" stroke-width="1" opacity="1"/><line transform="translate(410,0)" x2="0" y2="5" stroke="#888" stroke-width="1" opacity="1"/><line transform="translate(430,0)" x2="0" y2="5" stroke="#888" stroke-width="1" opacity="1"/><line transform="translate(450,0)" x2="0" y2="5" stroke="#888" stroke-width="1" opacity="1"/><line transform="translate(470,0)" x2="0" y2="5" stroke="#888" stroke-width="1" opacity="1"/><line transform="translate(490,0)" x2="0" y2="5" stroke="#888" stroke-width="1" opacity="1"/><line transform="translate(510,0)" x2="0" y2="5" stroke="#888" stroke-width="1" opacity="1"/><line transform="translate(530,0)" x2="0" y2="5" stroke="#888" stroke-width="1" opacity="1"/><line transform="translate(550,0)" x2="0" y2="5" stroke="#888" stroke-width="1" opacity="1"/><line transform="translate(570,0)" x2="0" y2="5" stroke="#888" stroke-width="1" opacity="1"/><line transform="translate(590,0)" x2="0" y2="5" stroke="#888" stroke-width="1" opacity="1"/><line transform="translate(610,0)" x2="0" y2="5" stroke="#888" stroke-width="1" opacity="1"/><line transform="translate(630,0)" x2="0" y2="5" stroke="#888" stroke-width="1" opacity="1"/><line transform="translate(650,0)" x2="0" y2="5" stroke="#888" stroke-width="1" opacity="1"/><line transform="translate(670,0)" x2="0" y2="5" stroke="#888" stroke-width="1" opacity="1"/><line transform="translate(690,0)" x2="0" y2="5" stroke="#888" stroke-width="1" opacity="1"/><line transform="translate(710,0)" x2="0" y2="5" stroke="#888" stroke-width="1" opacity="1"/><line transform="translate(730,0)" x2="0" y2="5" stroke="#888" stroke-width="1" opacity="1"/><line transform="translate(750,0)" x2="0" y2="5" stroke="#888" stroke-width="1" opacity="1"/><line transform="translate(770,0)" x2="0" y2="5" stroke="#888" stroke-width="1" opacity="1"/><line transform="translate(790,0)" x2="0" y2="5" stroke="#888" stroke-width="1" opacity="1"/><line transform="translate(810,0)" x2="0" y2="5" stroke="#888" stroke-width="1" opacity="1"/></g><g class="mark-text role-axis-label" pointer-events="none"><text text-anchor="end" transform="translate(10,7) rotate(270) translate(0,3)" font-family="sans-serif" font-size="10px" fill="#000" opacity="1">2020</text><text text-anchor="end" transform="translate(30,7) rotate(270) translate(0,3)" font-family="sans-serif" font-size="10px" fill="#000" opacity="1">2021</text><text text-anchor="end" transform="translate(50,7) rotate(270) translate(0,3)" font-family="sans-serif" font-size="10px" fill="#000" opacity="1">2022</text><text text-anchor="end" transform="translate(70,7) rotate(270) translate(0,3)" font-family="sans-serif" font-size="10px" fill="#000" opacity="1">2023</text><text text-anchor="end" transform="translate(90,7) rotate(270) translate(0,3)" font-family="sans-serif" font-size="10px" fill="#000" opacity="1">2024</text><text text-anchor="end" transform="translate(110,7) rotate(270) translate(0,3)" font-family="sans-serif" font-size="10px" fill="#000" opacity="1">2025</text><text text-anchor="end" transform="translate(130,7) rotate(270) translate(0,3)" font-family="sans-serif" font-size="10px" fill="#000" opacity="1">2026</text><text text-anchor="end" transform="translate(150,7) rotate(270) translate(0,3)" font-family="sans-serif" font-size="10px" fill="#000" opacity="1">2027</text><text text-anchor="end" transform="translate(170,7) rotate(270) translate(0,3)" font-family="sans-serif" font-size="10px" fill="#000" opacity="1">2028</text><text text-anchor="end" transform="translate(190,7) rotate(270) translate(0,3)" font-family="sans-serif" font-size="10px" fill="#000" opacity="1">2029</text><text text-anchor="end" transform="translate(210,7) rotate(270) translate(0,3)" font-family="sans-serif" font-size="10px" fill="#000" opacity="1">2030</text><text text-anchor="end" transform="translate(230,7) rotate(270) translate(0,3)" font-family="sans-serif" font-size="10px" fill="#000" opacity="1">2031</text><text text-anchor="end" transform="translate(250,7) rotate(270) translate(0,3)" font-family="sans-serif" font-size="10px" fill="#000" opacity="1">2032</text><text text-anchor="end" transform="translate(270,7) rotate(270) translate(0,3)" font-family="sans-serif" font-size="10px" fill="#000" opacity="1">2033</text><text text-anchor="end" transform="translate(290,7) rotate(270) translate(0,3)" font-family="sans-serif" font-size="10px" fill="#000" opacity="1">2034</text><text text-anchor="end" transform="translate(310,7) rotate(270) translate(0,3)" font-family="sans-serif" font-size="10px" fill="#000" opacity="1">2035</text><text text-anchor="end" transform="translate(330,7) rotate(270) translate(0,3)" font-family="sans-serif" font-size="10px" fill="#000" opacity="1">2036</text><text text-anchor="end" transform="translate(350,7) rotate(270) translate(0,3)" font-family="sans-serif" font-size="10px" fill="#000" opacity="1">2037</text><text text-anchor="end" transform="translate(370,7) rotate(270) translate(0,3)" font-family="sans-serif" font-size="10px" fill="#000" opacity="1">2038</text><text text-anchor="end" transform="translate(390,7) rotate(270) translate(0,3)" font-family="sans-serif" font-size="10px" fill="#000" opacity="1">2039</text><text text-anchor="end" transform="translate(410,7) rotate(270) translate(0,3)" font-family="sans-serif" font-size="10px" fill="#000" opacity="1">2040</text><text text-anchor="end" transform="translate(430,7) rotate(270) translate(0,3)" font-family="sans-serif" font-size="10px" fill="#000" opacity="1">2041</text><text text-anchor="end" transform="translate(450,7) rotate(270) translate(0,3)" font-family="sans-serif" font-size="10px" fill="#000" opacity="1">2042</text><text text-anchor="end" transform="translate(470,7) rotate(270) translate(0,3)" font-family="sans-serif" font-size="10px" fill="#000" opacity="1">2043</text><text text-anchor="end" transform="translate(490,7) rotate(270) translate(0,3)" font-family="sans-serif" font-size="10px" fill="#000" opacity="1">2044</text><text text-anchor="end" transform="translate(510,7) rotate(270) translate(0,3)" font-family="sans-serif" font-size="10px" fill="#000" opacity="1">2045</text><text text-anchor="end" transform="translate(530,7) rotate(270) translate(0,3)" font-family="sans-serif" font-size="10px" fill="#000" opacity="1">2046</text><text text-anchor="end" transform="translate(550,7) rotate(270) translate(0,3)" font-family="sans-serif" font-size="10px" fill="#000" opacity="1">2047</text><text text-anchor="end" transform="translate(570,7) rotate(270) translate(0,3)" font-family="sans-serif" font-size="10px" fill="#000" opacity="1">2048</text><text text-anchor="end" transform="translate(590,7) rotate(270) translate(0,3)" font-family="sans-serif" font-size="10px" fill="#000" opacity="1">2049</text><text text-anchor="end" transform="translate(610,7) rotate(270) translate(0,3)" font-family="sans-serif" font-size="10px" fill="#000" opacity="1">2050</text><text text-anchor="end" transform="translate(630,7) rotate(270) translate(0,3)" font-family="sans-serif" font-size="10px" fill="#000" opacity="1">2051</text><text text-anchor="end" transform="translate(650,7) rotate(270) translate(0,3)" font-family="sans-serif" font-size="10px" fill="#000" opacity="1">2052</text><text text-anchor="end" transform="translate(670,7) rotate(270) translate(0,3)" font-family="sans-serif" font-size="10px" fill="#000" opacity="1">2053</text><text text-anchor="end" transform="translate(690,7) rotate(270) translate(0,3)" font-family="sans-serif" font-size="10px" fill="#000" opacity="1">2054</text><text text-anchor="end" transform="translate(710,7) rotate(270) translate(0,3)" font-family="sans-serif" font-size="10px" fill="#000" opacity="1">2055</text><text text-anchor="end" transform="translate(730,7) rotate(270) translate(0,3)" font-family="sans-serif" font-size="10px" fill="#000" opacity="1">2056</text><text text-anchor="end" transform="translate(750,7) rotate(270) translate(0,3)" font-family="sans-serif" font-size="10px" fill="#000" opacity="1">2057</text><text text-anchor="end" transform="translate(770,7) rotate(270) translate(0,3)" font-family="sans-serif" font-size="10px" fill="#000" opacity="1">2058</text><text text-anchor="end" transform="translate(790,7) rotate(270) translate(0,3)" font-family="sans-serif" font-size="10px" fill="#000" opacity="1">2059</text><text text-anchor="end" transform="translate(810,7) rotate(270) translate(0,3)" font-family="sans-serif" font-size="10px" fill="#000" opacity="1">2060</text></g><g class="mark-rule role-axis-domain" pointer-events="none"><line transform="translate(0,0)" x2="820" y2="0" stroke="#888" stroke-width="1" opacity="1"/></g><g class="mark-text role-axis-title" pointer-events="none"><text text-anchor="middle" transform="translate(410,44)" font-family="sans-serif" font-size="11px" font-weight="bold" fill="#000" opacity="1">year</text></g></g><path class="foreground" aria-hidden="true" d="" pointer-events="none" display="none"/></g></g><g class="mark-group role-axis" role="graphics-symbol" aria-roledescription="axis" aria-label="Y-axis titled 'Value-chain adopted (%)' for a linear scale with values from 0.0 to 3.5"><g transform="translate(0.5,0.5)"><path class="background" aria-hidden="true" d="M0,0h0v0h0Z" pointer-events="none"/><g><g class="mark-rule role-axis-tick" pointer-events="none"><line transform="translate(0,200)" x2="-5" y2="0" stroke="#888" stroke-width="1" opacity="1"/><line transform="translate(0,171)" x2="-5" y2="0" stroke="#888" stroke-width="1" opacity="1"/><line transform="translate(0,143)" x2="-5" y2="0" stroke="#888" stroke-width="1" opacity="1"/><line transform="translate(0,114)" x2="-5" y2="0" stroke="#888" stroke-width="1" opacity="1"/><line transform="translate(0,86)" x2="-5" y2="0" stroke="#888" stroke-width="1" opacity="1"/><line transform="translate(0,57)" x2="-5" y2="0" stroke="#888" stroke-width="1" opacity="1"/><line transform="translate(0,29)" x2="-5" y2="0" stroke="#888" stroke-width="1" opacity="1"/><line transform="translate(0,0)" x2="-5" y2="0" stroke="#888" stroke-width="1" opacity="1"/></g><g class="mark-text role-axis-label" pointer-events="none"><text text-anchor="end" transform="translate(-7,203)" font-family="sans-serif" font-size="10px" fill="#000" opacity="1">0.0</text><text text-anchor="end" transform="translate(-7,174.42857142857144)" font-family="sans-serif" font-size="10px" fill="#000" opacity="1">0.5</text><text text-anchor="end" transform="translate(-7,145.85714285714286)" font-family="sans-serif" font-size="10px" fill="#000" opacity="1">1.0</text><text text-anchor="end" transform="translate(-7,117.28571428571428)" font-family="sans-serif" font-size="10px" fill="#000" opacity="1">1.5</text><text text-anchor="end" transform="translate(-7,88.71428571428572)" font-family="sans-serif" font-size="10px" fill="#000" opacity="1">2.0</text><text text-anchor="end" transform="translate(-7,60.14285714285714)" font-family="sans-serif" font-size="10px" fill="#000" opacity="1">2.5</text><text text-anchor="end" transform="translate(-7,31.57142857142858)" font-family="sans-serif" font-size="10px" fill="#000" opacity="1">3.0</text><text text-anchor="end" transform="translate(-7,3)" font-family="sans-serif" font-size="10px" fill="#000" opacity="1">3.5</text></g><g class="mark-rule role-axis-domain" pointer-events="none"><line transform="translate(0,200)" x2="0" y2="-200" stroke="#888" stroke-width="1" opacity="1"/></g><g class="mark-text role-axis-title" pointer-events="none"><text text-anchor="middle" transform="translate(-26,100) rotate(-90) translate(0,-2)" font-family="sans-serif" font-size="11px" font-weight="bold" fill="#000" opacity="1">Value-chain adopted (%)</text></g></g><path class="foreground" aria-hidden="true" d="" pointer-events="none" display="none"/></g></g><g class="mark-group role-scope pathgroup" role="graphics-object" aria-roledescription="group mark container"><g transform="translate(0,0)"><path class="background" aria-hidden="true" d="M0,0h820v200h-820Z"/><g><g class="mark-area role-mark marks" role="graphics-object" aria-roledescription="area mark container"><path aria-label="year: 2020; Value-chain adopted (%): 0; variable: x28" role="graphics-symbol" aria-roledescription="area mark" d="M10,200L30,200L50,200L70,200L90,200L110,152.94857142857143L130,152.94857142857143L150,152.94857142857143L170,152.94857142857143L190,152.94857142857143L210,147.27555671549965L230,147.27555671549965L250,147.27555671549965L270,147.27555671549965L290,147.27555671549965L310,92.51102626365928L330,92.51102626365928L350,92.51102626365928L370,92.51102626365928L390,92.51102626365928L410,84.33285299998997L430,84.33285299998997L450,84.33285299998997L470,84.33285299998997L490,84.33285299998997L510,80.97157156771664L530,80.97157156771664L550,80.97157156771664L570,80.97157156771664L590,80.97157156771664L610,39.87599263635022L630,39.87599263635022L650,39.87599263635022L670,39.87599263635022L690,39.87599263635022L710,187.7954447786787L730,187.7954447786787L750,187.7954447786787L770,187.7954447786787L790,187.7954447786787L810,187.7954447786787L810,187.7954447786787L790,187.7954447786787L770,187.7954447786787L750,187.7954447786787L730,187.7954447786787L710,187.7954447786787L690,39.87599263635022L670,39.87599263635022L650,39.87599263635022L630,39.87599263635022L610,39.87599263635022L590,200L570,200L550,200L530,200L510,200L490,84.33285299998997L470,84.33285299998997L450,84.33285299998997L430,84.33285299998997L410,84.33285299998997L390,200L370,200L350,200L330,200L310,200L290,147.27555671549965L270,147.27555671549965L250,147.27555671549965L230,147.27555671549965L210,147.27555671549965L190,152.94857142857143L170,152.94857142857143L150,152.94857142857143L130,152.94857142857143L110,152.94857142857143L90,200L70,200L50,200L30,200L10,200Z" fill="#54a24b"/></g></g><path class="foreground" aria-hidden="true" d="" display="none"/></g><g transform="translate(0,0)"><path class="background" aria-hidden="true" d="M0,0h820v200h-820Z"/><g><g class="mark-area role-mark marks" role="graphics-object" aria-roledescription="area mark container"><path aria-label="year: 2020; Value-chain adopted (%): 0; variable: x30" role="graphics-symbol" aria-roledescription="area mark" d="M10,200L30,200L50,200L70,200L90,200L110,152.94857142857143L130,152.94857142857143L150,152.94857142857143L170,152.94857142857143L190,152.94857142857143L210,147.27555671549965L230,147.27555671549965L250,147.27555671549965L270,147.27555671549965L290,147.27555671549965L310,200L330,200L350,200L370,200L390,200L410,84.33285299998997L430,84.33285299998997L450,84.33285299998997L470,84.33285299998997L490,84.33285299998997L510,200L530,200L550,200L570,200L590,200L610,39.87599263635022L630,39.87599263635022L650,39.87599263635022L670,39.87599263635022L690,39.87599263635022L710,187.7954447786787L730,187.7954447786787L750,187.7954447786787L770,187.7954447786787L790,187.7954447786787L810,187.7954447786787L810,187.7954447786787L790,187.7954447786787L770,187.7954447786787L750,187.7954447786787L730,187.7954447786787L710,187.7954447786787L690,39.87599263635022L670,39.87599263635022L650,39.87599263635022L630,39.87599263635022L610,39.87599263635022L590,200L570,200L550,200L530,200L510,200L490,84.33285299998997L470,84.33285299998997L450,84.33285299998997L430,84.33285299998997L410,84.33285299998997L390,200L370,200L350,200L330,200L310,200L290,200L270,200L250,200L230,200L210,200L190,152.94857142857143L170,152.94857142857143L150,152.94857142857143L130,152.94857142857143L110,152.94857142857143L90,200L70,200L50,200L30,200L10,200Z" fill="#eeca3b"/></g></g><path class="foreground" aria-hidden="true" d="" display="none"/></g><g transform="translate(0,0)"><path class="background" aria-hidden="true" d="M0,0h820v200h-820Z"/><g><g class="mark-area role-mark marks" role="graphics-object" aria-roledescription="area mark container"><path aria-label="year: 2020; Value-chain adopted (%): 0; variable: x34" role="graphics-symbol" aria-roledescription="area mark" d="M10,200L30,200L50,200L70,200L90,200L110,152.94857142857143L130,152.94857142857143L150,152.94857142857143L170,152.94857142857143L190,152.94857142857143L210,200L230,200L250,200L270,200L290,200L310,200L330,200L350,200L370,200L390,200L410,84.33285299998997L430,84.33285299998997L450,84.33285299998997L470,84.33285299998997L490,84.33285299998997L510,200L530,200L550,200L570,200L590,200L610,39.87599263635022L630,39.87599263635022L650,39.87599263635022L670,39.87599263635022L690,39.87599263635022L710,187.7954447786787L730,187.7954447786787L750,187.7954447786787L770,187.7954447786787L790,187.7954447786787L810,187.7954447786787L810,187.7954447786787L790,187.7954447786787L770,187.7954447786787L750,187.7954447786787L730,187.7954447786787L710,187.7954447786787L690,39.87599263635022L670,39.87599263635022L650,39.87599263635022L630,39.87599263635022L610,39.87599263635022L590,200L570,200L550,200L530,200L510,200L490,84.33285299998997L470,84.33285299998997L450,84.33285299998997L430,84.33285299998997L410,84.33285299998997L390,200L370,200L350,200L330,200L310,200L290,200L270,200L250,200L230,200L210,200L190,200L170,200L150,200L130,200L110,200L90,200L70,200L50,200L30,200L10,200Z" fill="#b279a2"/></g></g><path class="foreground" aria-hidden="true" d="" display="none"/></g><g transform="translate(0,0)"><path class="background" aria-hidden="true" d="M0,0h820v200h-820Z"/><g><g class="mark-area role-mark marks" role="graphics-object" aria-roledescription="area mark container"><path aria-label="year: 2020; Value-chain adopted (%): 0; variable: x37" role="graphics-symbol" aria-roledescription="area mark" d="M10,200L30,200L50,200L70,200L90,200L110,200L130,200L150,200L170,200L190,200L210,200L230,200L250,200L270,200L290,200L310,200L330,200L350,200L370,200L390,200L410,84.33285299998997L430,84.33285299998997L450,84.33285299998997L470,84.33285299998997L490,84.33285299998997L510,200L530,200L550,200L570,200L590,200L610,39.87599263635022L630,39.87599263635022L650,39.87599263635022L670,39.87599263635022L690,39.87599263635022L710,187.7954447786787L730,187.7954447786787L750,187.7954447786787L770,187.7954447786787L790,187.7954447786787L810,187.7954447786787L810,200L790,200L770,200L750,200L730,200L710,200L690,39.87599263635022L670,39.87599263635022L650,39.87599263635022L630,39.87599263635022L610,39.87599263635022L590,200L570,200L550,200L530,200L510,200L490,84.33285299998997L470,84.33285299998997L450,84.33285299998997L430,84.33285299998997L410,84.33285299998997L390,200L370,200L350,200L330,200L310,200L290,200L270,200L250,200L230,200L210,200L190,200L170,200L150,200L130,200L110,200L90,200L70,200L50,200L30,200L10,200Z" fill="#ff9da6"/></g></g><path class="foreground" aria-hidden="true" d="" display="none"/></g><g transform="translate(0,0)"><path class="background" aria-hidden="true" d="M0,0h820v200h-820Z"/><g><g class="mark-area role-mark marks" role="graphics-object" aria-roledescription="area mark container"><path aria-label="year: 2020; Value-chain adopted (%): 0; variable: x48" role="graphics-symbol" aria-roledescription="area mark" d="M10,200L30,200L50,200L70,200L90,200L110,200L130,200L150,200L170,200L190,200L210,200L230,200L250,200L270,200L290,200L310,200L330,200L350,200L370,200L390,200L410,84.33285299998997L430,84.33285299998997L450,84.33285299998997L470,84.33285299998997L490,84.33285299998997L510,200L530,200L550,200L570,200L590,200L610,39.87599263635022L630,39.87599263635022L650,39.87599263635022L670,39.87599263635022L690,39.87599263635022L710,200L730,200L750,200L770,200L790,200L810,200L810,200L790,200L770,200L750,200L730,200L710,200L690,200L670,200L650,200L630,200L610,200L590,200L570,200L550,200L530,200L510,200L490,200L470,200L450,200L430,200L410,200L390,200L370,200L350,200L330,200L310,200L290,200L270,200L250,200L230,200L210,200L190,200L170,200L150,200L130,200L110,200L90,200L70,200L50,200L30,200L10,200Z" fill="#9d755d"/></g></g><path class="foreground" aria-hidden="true" d="" display="none"/></g><g transform="translate(0,0)"><path class="background" aria-hidden="true" d="M0,0h820v200h-820Z"/><g><g class="mark-area role-mark marks" role="graphics-object" aria-roledescription="area mark container"><path aria-label="year: 2020; Value-chain adopted (%): 0; variable: x158" role="graphics-symbol" aria-roledescription="area mark" d="M10,200L30,200L50,200L70,200L90,200L110,152.94857142857143L130,152.94857142857143L150,152.94857142857143L170,152.94857142857143L190,152.94857142857143L210,147.27555671549965L230,147.27555671549965L250,147.27555671549965L270,147.27555671549965L290,147.27555671549965L310,92.51102626365928L330,92.51102626365928L350,92.51102626365928L370,92.51102626365928L390,92.51102626365928L410,77.1176627488828L430,77.1176627488828L450,77.1176627488828L470,77.1176627488828L490,77.1176627488828L510,63.78813178338483L530,63.78813178338483L550,63.78813178338483L570,63.78813178338483L590,63.78813178338483L610,29.887632009643394L630,29.887632009643394L650,29.887632009643394L670,29.887632009643394L690,29.887632009643394L710,142.85714285714286L730,142.85714285714286L750,142.85714285714286L770,142.85714285714286L790,142.85714285714286L810,142.85714285714286L810,142.85714285714286L790,142.85714285714286L770,142.85714285714286L750,142.85714285714286L730,142.85714285714286L710,142.85714285714286L690,39.87599263635022L670,39.87599263635022L650,39.87599263635022L630,39.87599263635022L610,39.87599263635022L590,63.78813178338483L570,63.78813178338483L550,63.78813178338483L530,63.78813178338483L510,63.78813178338483L490,84.3328529999811L470,84.3328529999811L450,84.3328529999811L430,84.3328529999811L410,84.3328529999811L390,92.51102626365928L370,92.51102626365928L350,92.51102626365928L330,92.51102626365928L310,92.51102626365928L290,147.27555671549965L270,147.27555671549965L250,147.27555671549965L230,147.27555671549965L210,147.27555671549965L190,152.94857142857143L170,152.94857142857143L150,152.94857142857143L130,152.94857142857143L110,152.94857142857143L90,200L70,200L50,200L30,200L10,200Z" fill="#f58518"/></g></g><path class="foreground" aria-hidden="true" d="" display="none"/></g><g transform="translate(0,0)"><path class="background" aria-hidden="true" d="M0,0h820v200h-820Z"/><g><g class="mark-area role-mark marks" role="graphics-object" aria-roledescription="area mark container"><path aria-label="year: 2020; Value-chain adopted (%): 0; variable: x159" role="graphics-symbol" aria-roledescription="area mark" d="M10,200L30,200L50,200L70,200L90,200L110,152.94857142857143L130,152.94857142857143L150,152.94857142857143L170,152.94857142857143L190,152.94857142857143L210,147.27555671549965L230,147.27555671549965L250,147.27555671549965L270,147.27555671549965L290,147.27555671549965L310,92.51102626365928L330,92.51102626365928L350,92.51102626365928L370,92.51102626365928L390,92.51102626365928L410,84.3328529999811L430,84.3328529999811L450,84.3328529999811L470,84.3328529999811L490,84.3328529999811L510,63.78813178338483L530,63.78813178338483L550,63.78813178338483L570,63.78813178338483L590,63.78813178338483L610,39.87599263635022L630,39.87599263635022L650,39.87599263635022L670,39.87599263635022L690,39.87599263635022L710,142.85714285714286L730,142.85714285714286L750,142.85714285714286L770,142.85714285714286L790,142.85714285714286L810,142.85714285714286L810,142.85714285714286L790,142.85714285714286L770,142.85714285714286L750,142.85714285714286L730,142.85714285714286L710,142.85714285714286L690,39.87599263635022L670,39.87599263635022L650,39.87599263635022L630,39.87599263635022L610,39.87599263635022L590,80.97157156771664L570,80.97157156771664L550,80.97157156771664L530,80.97157156771664L510,80.97157156771664L490,84.3328529999811L470,84.3328529999811L450,84.3328529999811L430,84.3328529999811L410,84.3328529999811L390,92.51102626365928L370,92.51102626365928L350,92.51102626365928L330,92.51102626365928L310,92.51102626365928L290,147.27555671549965L270,147.27555671549965L250,147.27555671549965L230,147.27555671549965L210,147.27555671549965L190,152.94857142857143L170,152.94857142857143L150,152.94857142857143L130,152.94857142857143L110,152.94857142857143L90,200L70,200L50,200L30,200L10,200Z" fill="#e45756"/></g></g><path class="foreground" aria-hidden="true" d="" display="none"/></g><g transform="translate(0,0)"><path class="background" aria-hidden="true" d="M0,0h820v200h-820Z"/><g><g class="mark-area role-mark marks" role="graphics-object" aria-roledescription="area mark container"><path aria-label="year: 2020; Value-chain adopted (%): 0; variable: x163" role="graphics-symbol" aria-roledescription="area mark" d="M10,200L30,200L50,200L70,200L90,200L110,152.94857142857143L130,152.94857142857143L150,152.94857142857143L170,152.94857142857143L190,152.94857142857143L210,147.27555671549965L230,147.27555671549965L250,147.27555671549965L270,147.27555671549965L290,147.27555671549965L310,92.51102626365928L330,92.51102626365928L350,92.51102626365928L370,92.51102626365928L390,92.51102626365928L410,84.3328529999811L430,84.3328529999811L450,84.3328529999811L470,84.3328529999811L490,84.3328529999811L510,80.97157156771664L530,80.97157156771664L550,80.97157156771664L570,80.97157156771664L590,80.97157156771664L610,39.87599263635022L630,39.87599263635022L650,39.87599263635022L670,39.87599263635022L690,39.87599263635022L710,142.85714285714286L730,142.85714285714286L750,142.85714285714286L770,142.85714285714286L790,142.85714285714286L810,142.85714285714286L810,187.7954447786787L790,187.7954447786787L770,187.7954447786787L750,187.7954447786787L730,187.7954447786787L710,187.7954447786787L690,39.87599263635022L670,39.87599263635022L650,39.87599263635022L630,39.87599263635022L610,39.87599263635022L590,80.97157156771664L570,80.97157156771664L550,80.97157156771664L530,80.97157156771664L510,80.97157156771664L490,84.33285299998997L470,84.33285299998997L450,84.33285299998997L430,84.33285299998997L410,84.33285299998997L390,92.51102626365928L370,92.51102626365928L350,92.51102626365928L330,92.51102626365928L310,92.51102626365928L290,147.27555671549965L270,147.27555671549965L250,147.27555671549965L230,147.27555671549965L210,147.27555671549965L190,152.94857142857143L170,152.94857142857143L150,152.94857142857143L130,152.94857142857143L110,152.94857142857143L90,200L70,200L50,200L30,200L10,200Z" fill="#72b7b2"/></g></g><path class="foreground" aria-hidden="true" d="" display="none"/></g><g transform="translate(0,0)"><path class="background" aria-hidden="true" d="M0,0h820v200h-820Z"/><g><g class="mark-area role-mark marks" role="graphics-object" aria-roledescription="area mark container"><path aria-label="year: 2020; Value-chain adopted (%): 3.2; variable: Conv" role="graphics-symbol" aria-roledescription="area mark" d="M10,17.142857142857125L30,17.142857142857125L50,17.142857142857125L70,17.142857142857125L90,17.142857142857125L110,152.94857142857143L130,152.94857142857143L150,152.94857142857143L170,152.94857142857143L190,152.94857142857143L210,147.27555671549965L230,147.27555671549965L250,147.27555671549965L270,147.27555671549965L290,147.27555671549965L310,92.51102626365928L330,92.51102626365928L350,92.51102626365928L370,92.51102626365928L390,92.51102626365928L410,77.1176627488828L430,77.1176627488828L450,77.1176627488828L470,77.1176627488828L490,77.1176627488828L510,63.78813178338483L530,63.78813178338483L550,63.78813178338483L570,63.78813178338483L590,63.78813178338483L610,29.887632009643394L630,29.887632009643394L650,29.887632009643394L670,29.887632009643394L690,29.887632009643394L710,142.85714285714286L730,142.85714285714286L750,142.85714285714286L770,142.85714285714286L790,142.85714285714286L810,142.85714285714286L810,142.85714285714286L790,142.85714285714286L770,142.85714285714286L750,142.85714285714286L730,142.85714285714286L710,142.85714285714286L690,29.887632009643394L670,29.887632009643394L650,29.887632009643394L630,29.887632009643394L610,29.887632009643394L590,63.78813178338483L570,63.78813178338483L550,63.78813178338483L530,63.78813178338483L510,63.78813178338483L490,77.1176627488828L470,77.1176627488828L450,77.1176627488828L430,77.1176627488828L410,77.1176627488828L390,92.51102626365928L370,92.51102626365928L350,92.51102626365928L330,92.51102626365928L310,92.51102626365928L290,147.27555671549965L270,147.27555671549965L250,147.27555671549965L230,147.27555671549965L210,147.27555671549965L190,152.94857142857143L170,152.94857142857143L150,152.94857142857143L130,152.94857142857143L110,152.94857142857143L90,200L70,200L50,200L30,200L10,200Z" fill="#4c78a8"/></g></g><path class="foreground" aria-hidden="true" d="" display="none"/></g></g><g class="mark-group role-legend" role="graphics-symbol" aria-roledescription="legend" aria-label="Symbol legend titled 'variable' for fill color with 9 values: Conv, x158, x159, x163, x28, ending with x48"><g transform="translate(838,0)"><path class="background" aria-hidden="true" d="M0,0h49v131h-49Z" pointer-events="none"/><g><g class="mark-group role-legend-entry"><g transform="translate(0,16)"><path class="background" aria-hidden="true" d="M0,0h0v0h0Z" pointer-events="none"/><g><g class="mark-group role-scope" role="graphics-object" aria-roledescription="group mark container"><g transform="translate(0,0)"><path class="background" aria-hidden="true" d="M0,0h41v11h-41Z" pointer-events="none" opacity="1"/><g><g class="mark-symbol role-legend-symbol" pointer-events="none"><path transform="translate(6,6)" d="M5,0A5,5,0,1,1,-5,0A5,5,0,1,1,5,0" fill="#4c78a8" stroke-width="1.5" opacity="1"/></g><g class="mark-text role-legend-label" pointer-events="none"><text text-anchor="start" transform="translate(16,9)" font-family="sans-serif" font-size="10px" fill="#000" opacity="1">Conv</text></g></g><path class="foreground" aria-hidden="true" d="" pointer-events="none" display="none"/></g><g transform="translate(0,13)"><path class="background" aria-hidden="true" d="M0,0h41v11h-41Z" pointer-events="none" opacity="1"/><g><g class="mark-symbol role-legend-symbol" pointer-events="none"><path transform="translate(6,6)" d="M5,0A5,5,0,1,1,-5,0A5,5,0,1,1,5,0" fill="#f58518" stroke-width="1.5" opacity="1"/></g><g class="mark-text role-legend-label" pointer-events="none"><text text-anchor="start" transform="translate(16,9)" font-family="sans-serif" font-size="10px" fill="#000" opacity="1">x158</text></g></g><path class="foreground" aria-hidden="true" d="" pointer-events="none" display="none"/></g><g transform="translate(0,26)"><path class="background" aria-hidden="true" d="M0,0h41v11h-41Z" pointer-events="none" opacity="1"/><g><g class="mark-symbol role-legend-symbol" pointer-events="none"><path transform="translate(6,6)" d="M5,0A5,5,0,1,1,-5,0A5,5,0,1,1,5,0" fill="#e45756" stroke-width="1.5" opacity="1"/></g><g class="mark-text role-legend-label" pointer-events="none"><text text-anchor="start" transform="translate(16,9)" font-family="sans-serif" font-size="10px" fill="#000" opacity="1">x159</text></g></g><path class="foreground" aria-hidden="true" d="" pointer-events="none" display="none"/></g><g transform="translate(0,39)"><path class="background" aria-hidden="true" d="M0,0h41v11h-41Z" pointer-events="none" opacity="1"/><g><g class="mark-symbol role-legend-symbol" pointer-events="none"><path transform="translate(6,6)" d="M5,0A5,5,0,1,1,-5,0A5,5,0,1,1,5,0" fill="#72b7b2" stroke-width="1.5" opacity="1"/></g><g class="mark-text role-legend-label" pointer-events="none"><text text-anchor="start" transform="translate(16,9)" font-family="sans-serif" font-size="10px" fill="#000" opacity="1">x163</text></g></g><path class="foreground" aria-hidden="true" d="" pointer-events="none" display="none"/></g><g transform="translate(0,52)"><path class="background" aria-hidden="true" d="M0,0h41v11h-41Z" pointer-events="none" opacity="1"/><g><g class="mark-symbol role-legend-symbol" pointer-events="none"><path transform="translate(6,6)" d="M5,0A5,5,0,1,1,-5,0A5,5,0,1,1,5,0" fill="#54a24b" stroke-width="1.5" opacity="1"/></g><g class="mark-text role-legend-label" pointer-events="none"><text text-anchor="start" transform="translate(16,9)" font-family="sans-serif" font-size="10px" fill="#000" opacity="1">x28</text></g></g><path class="foreground" aria-hidden="true" d="" pointer-events="none" display="none"/></g><g transform="translate(0,65)"><path class="background" aria-hidden="true" d="M0,0h41v11h-41Z" pointer-events="none" opacity="1"/><g><g class="mark-symbol role-legend-symbol" pointer-events="none"><path transform="translate(6,6)" d="M5,0A5,5,0,1,1,-5,0A5,5,0,1,1,5,0" fill="#eeca3b" stroke-width="1.5" opacity="1"/></g><g class="mark-text role-legend-label" pointer-events="none"><text text-anchor="start" transform="translate(16,9)" font-family="sans-serif" font-size="10px" fill="#000" opacity="1">x30</text></g></g><path class="foreground" aria-hidden="true" d="" pointer-events="none" display="none"/></g><g transform="translate(0,78)"><path class="background" aria-hidden="true" d="M0,0h41v11h-41Z" pointer-events="none" opacity="1"/><g><g class="mark-symbol role-legend-symbol" pointer-events="none"><path transform="translate(6,6)" d="M5,0A5,5,0,1,1,-5,0A5,5,0,1,1,5,0" fill="#b279a2" stroke-width="1.5" opacity="1"/></g><g class="mark-text role-legend-label" pointer-events="none"><text text-anchor="start" transform="translate(16,9)" font-family="sans-serif" font-size="10px" fill="#000" opacity="1">x34</text></g></g><path class="foreground" aria-hidden="true" d="" pointer-events="none" display="none"/></g><g transform="translate(0,91)"><path class="background" aria-hidden="true" d="M0,0h41v11h-41Z" pointer-events="none" opacity="1"/><g><g class="mark-symbol role-legend-symbol" pointer-events="none"><path transform="translate(6,6)" d="M5,0A5,5,0,1,1,-5,0A5,5,0,1,1,5,0" fill="#ff9da6" stroke-width="1.5" opacity="1"/></g><g class="mark-text role-legend-label" pointer-events="none"><text text-anchor="start" transform="translate(16,9)" font-family="sans-serif" font-size="10px" fill="#000" opacity="1">x37</text></g></g><path class="foreground" aria-hidden="true" d="" pointer-events="none" display="none"/></g><g transform="translate(0,104)"><path class="background" aria-hidden="true" d="M0,0h41v11h-41Z" pointer-events="none" opacity="1"/><g><g class="mark-symbol role-legend-symbol" pointer-events="none"><path transform="translate(6,6)" d="M5,0A5,5,0,1,1,-5,0A5,5,0,1,1,5,0" fill="#9d755d" stroke-width="1.5" opacity="1"/></g><g class="mark-text role-legend-label" pointer-events="none"><text text-anchor="start" transform="translate(16,9)" font-family="sans-serif" font-size="10px" fill="#000" opacity="1">x48</text></g></g><path class="foreground" aria-hidden="true" d="" pointer-events="none" display="none"/></g></g></g><path class="foreground" aria-hidden="true" d="" pointer-events="none" display="none"/></g></g><g class="mark-text role-legend-title" pointer-events="none"><text text-anchor="start" transform="translate(0,9)" font-family="sans-serif" font-size="11px" font-weight="bold" fill="#000" opacity="1">variable</text></g></g><path class="foreground" aria-hidden="true" d="" pointer-events="none" display="none"/></g></g></g><path class="foreground" aria-hidden="true" d="" display="none"/></g></g></g></svg>
