<?xml version="1.0" encoding="utf-8"?>
<!DOCTYPE svg PUBLIC "-//W3C//DTD SVG 1.1//EN" "http://www.w3.org/Graphics/SVG/1.1/DTD/svg11.dtd">
<svg xmlns="http://www.w3.org/2000/svg" xmlns:xlink="http://www.w3.org/1999/xlink" version="1.1" class="marks" width="969" height="280" viewBox="0 0 969 280"><rect width="969" height="280" fill="white"/><g fill="none" stroke-miterlimit="10" transform="translate(54,12)"><g class="mark-group role-frame root" role="graphics-object" aria-roledescription="group mark container"><g transform="translate(0,0)"><path class="background" aria-hidden="true" d="M0.5,0.5h820v200h-820Z" stroke="#ddd"/><g><g class="mark-group role-axis" aria-hidden="true"><g transform="translate(0.5,0.5)"><path class="background" aria-hidden="true" d="M0,0h0v0h0Z" pointer-events="none"/><g><g class="mark-rule role-axis-grid" pointer-events="none"><line transform="translate(0,200)" x2="820" y2="0" stroke="#ddd" stroke-width="1" opacity="1"/><line transform="translate(0,171)" x2="820" y2="0" stroke="#ddd" stroke-width="1" opacity="1"/><line transform="translate(0,143)" x2="820" y2="0" stroke="#ddd" stroke-width="1" opacity="1"/><line transform="translate(0,114)" x2="820" y2="0" stroke="#ddd" stroke-width="1" opacity="1"/><line transform="translate(0,86)" x2="820" y2="0" stroke="#ddd" stroke-width="1" opacity="1"/><line transform="translate(0,57)" x2="820" y2="0" stroke="#ddd" stroke-width="1" opacity="1"/><line transform="translate(0,29)" x2="820" y2="0" stroke="#ddd" stroke-width="1" opacity="1"/><line transform="translate(0,0)" x2="820" y2="0" stroke="#ddd" stroke-width="1" opacity="1"/></g></g><path class="foreground" aria-hidden="true" d="" pointer-events="none" display="none"/></g></g><g class="mark-group role-axis" role="graphics-symbol" aria-roledescription="axis" aria-label="X-axis titled 'year' for a discrete scale with 41 values: 2020, 2021, 2022, 2023, 2024, ending with 2060"><g transform="translate(0.5,200.5)"><path class="background" aria-hidden="true" d="M0,0h0v0h0Z" pointer-events="none"/><g><g class="mark-rule role-axis-tick" pointer-events="none"><line transform="translate(10,0)" x2="0" y2="5" stroke="#888" stroke-width="1" opacity="1"/><line transform="translate(30,0)" x2="0" y2="5" stroke="#888" stroke-width="1" opacity="1"/><line transform="translate(50,0)" x2="0" y2="5" stroke="#888" stroke-width="1" opacity="1"/><line transform="translate(70,0)" x2="0" y2="5" stroke="#888" stroke-width="1" opacity="1"/><line transform="translate(90,0)" x2="0" y2="5" stroke="#888" stroke-width="1" opacity="1"/><line transform="translate(110,0)" x2="0" y2="5" stroke="#888" stroke-width="1" opacity="1"/><line transform="translate(130,0)" x2="0" y2="5" stroke="#888" stroke-width="1" opacity="1"/><line transform="translate(150,0)" x2="0" y2="5" stroke="#888" stroke-width="1" opacity="1"/><line transform="translate(170,0)" x2="0" y2="5" stroke="#888" stroke-width="1" opacity="1"/><line transform="translate(190,0)" x2="0" y2="5" stroke="#888" stroke-width="1" opacity="1"/><line transform="translate(210,0)" x2="0" y2="5" stroke="#888" stroke-width="1" opacity="1"/><line transform="translate(230,0)" x2="0" y2="5" stroke="#888" stroke-width="1" opacity="1"/><line transform="translate(250,0)" x2="0" y2="5" stroke="#888" stroke-width="1" opacity="1"/><line transform="translate(270,0)" x2="0" y2="5" stroke="#888" stroke-width="1" opacity="1"/><line transform="translate(290,0)" x2="0" y2="5" stroke="#888" stroke-width="1" opacity="1"/><line transform="translate(310,0)" x2="0" y2="5" stroke="#888" stroke-width="1" opacity="1"/><line transform="translate(330,0)" x2="0" y2="5" stroke="#888" stroke-width="1" opacity="1"/><line transform="translate(350,0)" x2="0" y2="5" stroke="#888" stroke-width="1" opacity="1"/><line transform="translate(370,0)" x2="0" y2="5" stroke="#888" stroke-width="1" opacity="1"/><line transform="translate(390,0)" x2="0" y2="5" stroke="#888" stroke-width="1" opacity="1"/><line transform="translate(410,0)" x2="0" y2="5" stroke="#888" stroke-width="1" opacity="1"/><line transform="translate(430,0)" x2="0" y2="5" stroke="#888" stroke-width="1" opacity="1"/><line transform="translate(450,0)" x2="0" y2="5" stroke="#888" stroke-width="1" opacity="1"/><line transform="translate(470,0)" x2="0" y2="5" stroke="#888" stroke-width="1" opacity="1"/><line transform="translate(490,0)" x2="0" y2="5" stroke="#888" stroke-width="1" opacity="1"/><line transform="translate(510,0)" x2="0" y2="5" stroke="#888" stroke-width="1" opacity="1"/><line transform="translate(530,0)" x2="0" y2="5" stroke="#888" stroke-width="1" opacity="1"/><line transform="translate(550,0)" x2="0" y2="5" stroke="#888" stroke-width="1" opacity="1"/><line transform="translate(570,0)" x2="0" y2="5" stroke="#888" stroke-width="1" opacity="1"/><line transform="translate(590,0)" x2="0" y2="5" stroke="#888" stroke-width="1" opacity="1"/><line transform="translate(610,0)" x2="0" y2="5" stroke="#888" stroke-width="1" opacity="1"/><line transform="translate(630,0)" x2="0" y2="5" stroke="#888" stroke-width="1" opacity="1"/><line transform="translate(650,0)" x2="0" y2="5" stroke="#888" stroke-width="1" opacity="1"/><line transform="translate(670,0)" x2="0" y2="5" stroke="#888" stroke-width="1" opacity="1"/><line transform="translate(690,0)" x2="0" y2="5" stroke="#888" stroke-width="1" opacity="1"/><line transform="translate(710,0)" x2="0" y2="5" stroke="#888" stroke-width="1" opacity="1"/><line transform="translate(730,0)" x2="0" y2="5" stroke="#888" stroke-width="1" opacity="1"/><line transform="translate(750,0)" x2="0" y2="5" stroke="#888" stroke-width="1" opacity="1"/><line transform="translate(770,0)" x2="0" y2="5" stroke="#888" stroke-width="1" opacity="1"/><line transform="translate(790,0)" x2="0" y2="5" stroke="#888" stroke-width="1" opacity="1"/><line transform="translate(810,0)" x2="0" y2="5" stroke="#888" stroke-width="1" opacity="1"/></g><g class="mark-text role-axis-label" pointer-events="none"><text text-anchor="end" transform="translate(10,7) rotate(270) translate(0,4)" font-family="sans-serif" font-size="14px" fill="#000" opacity="1">2020</text><text text-anchor="end" transform="translate(30,7) rotate(270) translate(0,4)" font-family="sans-serif" font-size="14px" fill="#000" opacity="1">2021</text><text text-anchor="end" transform="translate(50,7) rotate(270) translate(0,4)" font-family="sans-serif" font-size="14px" fill="#000" opacity="1">2022</text><text text-anchor="end" transform="translate(70,7) rotate(270) translate(0,4)" font-family="sans-serif" font-size="14px" fill="#000" opacity="1">2023</text><text text-anchor="end" transform="translate(90,7) rotate(270) translate(0,4)" font-family="sans-serif" font-size="14px" fill="#000" opacity="1">2024</text><text text-anchor="end" transform="translate(110,7) rotate(270) translate(0,4)" font-family="sans-serif" font-size="14px" fill="#000" opacity="1">2025</text><text text-anchor="end" transform="translate(130,7) rotate(270) translate(0,4)" font-family="sans-serif" font-size="14px" fill="#000" opacity="1">2026</text><text text-anchor="end" transform="translate(150,7) rotate(270) translate(0,4)" font-family="sans-serif" font-size="14px" fill="#000" opacity="1">2027</text><text text-anchor="end" transform="translate(170,7) rotate(270) translate(0,4)" font-family="sans-serif" font-size="14px" fill="#000" opacity="1">2028</text><text text-anchor="end" transform="translate(190,7) rotate(270) translate(0,4)" font-family="sans-serif" font-size="14px" fill="#000" opacity="1">2029</text><text text-anchor="end" transform="translate(210,7) rotate(270) translate(0,4)" font-family="sans-serif" font-size="14px" fill="#000" opacity="1">2030</text><text text-anchor="end" transform="translate(230,7) rotate(270) translate(0,4)" font-family="sans-serif" font-size="14px" fill="#000" opacity="1">2031</text><text text-anchor="end" transform="translate(250,7) rotate(270) translate(0,4)" font-family="sans-serif" font-size="14px" fill="#000" opacity="1">2032</text><text text-anchor="end" transform="translate(270,7) rotate(270) translate(0,4)" font-family="sans-serif" font-size="14px" fill="#000" opacity="1">2033</text><text text-anchor="end" transform="translate(290,7) rotate(270) translate(0,4)" font-family="sans-serif" font-size="14px" fill="#000" opacity="1">2034</text><text text-anchor="end" transform="translate(310,7) rotate(270) translate(0,4)" font-family="sans-serif" font-size="14px" fill="#000" opacity="1">2035</text><text text-anchor="end" transform="translate(330,7) rotate(270) translate(0,4)" font-family="sans-serif" font-size="14px" fill="#000" opacity="1">2036</text><text text-anchor="end" transform="translate(350,7) rotate(270) translate(0,4)" font-family="sans-serif" font-size="14px" fill="#000" opacity="1">2037</text><text text-anchor="end" transform="translate(370,7) rotate(270) translate(0,4)" font-family="sans-serif" font-size="14px" fill="#000" opacity="1">2038</text><text text-anchor="end" transform="translate(390,7) rotate(270) translate(0,4)" font-family="sans-serif" font-size="14px" fill="#000" opacity="1">2039</text><text text-anchor="end" transform="translate(410,7) rotate(270) translate(0,4)" font-family="sans-serif" font-size="14px" fill="#000" opacity="1">2040</text><text text-anchor="end" transform="translate(430,7) rotate(270) translate(0,4)" font-family="sans-serif" font-size="14px" fill="#000" opacity="1">2041</text><text text-anchor="end" transform="translate(450,7) rotate(270) translate(0,4)" font-family="sans-serif" font-size="14px" fill="#000" opacity="1">2042</text><text text-anchor="end" transform="translate(470,7) rotate(270) translate(0,4)" font-family="sans-serif" font-size="14px" fill="#000" opacity="1">2043</text><text text-anchor="end" transform="translate(490,7) rotate(270) translate(0,4)" font-family="sans-serif" font-size="14px" fill="#000" opacity="1">2044</text><text text-anchor="end" transform="translate(510,7) rotate(270) translate(0,4)" font-family="sans-serif" font-size="14px" fill="#000" opacity="1">2045</text><text text-anchor="end" transform="translate(530,7) rotate(270) translate(0,4)" font-family="sans-serif" font-size="14px" fill="#000" opacity="1">2046</text><text text-anchor="end" transform="translate(550,7) rotate(270) translate(0,4)" font-family="sans-serif" font-size="14px" fill="#000" opacity="1">2047</text><text text-anchor="end" transform="translate(570,7) rotate(270) translate(0,4)" font-family="sans-serif" font-size="14px" fill="#000" opacity="1">2048</text><text text-anchor="end" transform="translate(590,7) rotate(270) translate(0,4)" font-family="sans-serif" font-size="14px" fill="#000" opacity="1">2049</text><text text-anchor="end" transform="translate(610,7) rotate(270) translate(0,4)" font-family="sans-serif" font-size="14px" fill="#000" opacity="1">2050</text><text text-anchor="end" transform="translate(630,7) rotate(270) translate(0,4)" font-family="sans-serif" font-size="14px" fill="#000" opacity="1">2051</text><text text-anchor="end" transform="translate(650,7) rotate(270) translate(0,4)" font-family="sans-serif" font-size="14px" fill="#000" opacity="1">2052</text><text text-anchor="end" transform="translate(670,7) rotate(270) translate(0,4)" font-family="sans-serif" font-size="14px" fill="#000" opacity="1">2053</text><text text-anchor="end" transform="translate(690,7) rotate(270) translate(0,4)" font-family="sans-serif" font-size="14px" fill="#000" opacity="1">2054</text><text text-anchor="end" transform="translate(710,7) rotate(270) translate(0,4)" font-family="sans-serif" font-size="14px" fill="#000" opacity="1">2055</text><text text-anchor="end" transform="translate(730,7) rotate(270) translate(0,4)" font-family="sans-serif" font-size="14px" fill="#000" opacity="1">2056</text><text text-anchor="end" transform="translate(750,7) rotate(270) translate(0,4)" font-family="sans-serif" font-size="14px" fill="#000" opacity="1">2057</text><text text-anchor="end" transform="translate(770,7) rotate(270) translate(0,4)" font-family="sans-serif" font-size="14px" fill="#000" opacity="1">2058</text><text text-anchor="end" transform="translate(790,7) rotate(270) translate(0,4)" font-family="sans-serif" font-size="14px" fill="#000" opacity="1">2059</text><text text-anchor="end" transform="translate(810,7) rotate(270) translate(0,4)" font-family="sans-serif" font-size="14px" fill="#000" opacity="1">2060</text></g><g class="mark-rule role-axis-domain" pointer-events="none"><line transform="translate(0,0)" x2="820" y2="0" stroke="#888" stroke-width="1" opacity="1"/></g><g class="mark-text role-axis-title" pointer-events="none"><text text-anchor="middle" transform="translate(410,60)" font-family="sans-serif" font-size="16px" font-weight="bold" fill="#000" opacity="1">year</text></g></g><path class="foreground" aria-hidden="true" d="" pointer-events="none" display="none"/></g></g><g class="mark-group role-axis" role="graphics-symbol" aria-roledescription="axis" aria-label="Y-axis titled 'Operating Cost' for a linear scale with values from 0.0 to 3.5"><g transform="translate(0.5,0.5)"><path class="background" aria-hidden="true" d="M0,0h0v0h0Z" pointer-events="none"/><g><g class="mark-rule role-axis-tick" pointer-events="none"><line transform="translate(0,200)" x2="-5" y2="0" stroke="#888" stroke-width="1" opacity="1"/><line transform="translate(0,171)" x2="-5" y2="0" stroke="#888" stroke-width="1" opacity="1"/><line transform="translate(0,143)" x2="-5" y2="0" stroke="#888" stroke-width="1" opacity="1"/><line transform="translate(0,114)" x2="-5" y2="0" stroke="#888" stroke-width="1" opacity="1"/><line transform="translate(0,86)" x2="-5" y2="0" stroke="#888" stroke-width="1" opacity="1"/><line transform="translate(0,57)" x2="-5" y2="0" stroke="#888" stroke-width="1" opacity="1"/><line transform="translate(0,29)" x2="-5" y2="0" stroke="#888" stroke-width="1" opacity="1"/><line transform="translate(0,0)" x2="-5" y2="0" stroke="#888" stroke-width="1" opacity="1"/></g><g class="mark-text role-axis-label" pointer-events="none"><text text-anchor="end" transform="translate(-7,204)" font-family="sans-serif" font-size="14px" fill="#000" opacity="1">0.0</text><text text-anchor="end" transform="translate(-7,175.42857142857144)" font-family="sans-serif" font-size="14px" fill="#000" opacity="1">0.5</text><text text-anchor="end" transform="translate(-7,146.85714285714286)" font-family="sans-serif" font-size="14px" fill="#000" opacity="1">1.0</text><text text-anchor="end" transform="translate(-7,118.28571428571428)" font-family="sans-serif" font-size="14px" fill="#000" opacity="1">1.5</text><text text-anchor="end" transform="translate(-7,89.71428571428572)" font-family="sans-serif" font-size="14px" fill="#000" opacity="1">2.0</text><text text-anchor="end" transform="translate(-7,61.14285714285714)" font-family="sans-serif" font-size="14px" fill="#000" opacity="1">2.5</text><text text-anchor="end" transform="translate(-7,32.571428571428584)" font-family="sans-serif" font-size="14px" fill="#000" opacity="1">3.0</text><text text-anchor="end" transform="translate(-7,4)" font-family="sans-serif" font-size="14px" fill="#000" opacity="1">3.5</text></g><g class="mark-rule role-axis-domain" pointer-events="none"><line transform="translate(0,200)" x2="0" y2="-200" stroke="#888" stroke-width="1" opacity="1"/></g><g class="mark-text role-axis-title" pointer-events="none"><text text-anchor="middle" transform="translate(-33,100) rotate(-90) translate(0,-3)" font-family="sans-serif" font-size="16px" font-weight="bold" fill="#000" opacity="1">Operating Cost</text></g></g><path class="foreground" aria-hidden="true" d="" pointer-events="none" display="none"/></g></g><g class="mark-group role-scope pathgroup" role="graphics-object" aria-roledescription="group mark container"><g transform="translate(0,0)"><path class="background" aria-hidden="true" d="M0,0h820v200h-820Z"/><g><g class="mark-area role-mark marks" role="graphics-object" aria-roledescription="area mark container"><path aria-label="year: 2020; Operating Cost: 0; variable: x22" role="graphics-symbol" aria-roledescription="area mark" d="M10,200L30,200L50,200L70,200L90,200L110,200L130,200L150,200L170,200L190,200L210,200L230,200L250,200L270,200L290,200L310,164.136758395029L330,164.136758395029L350,164.136758395029L370,164.136758395029L390,164.136758395029L410,169.51920230149713L430,169.51920230149713L450,169.51920230149713L470,169.51920230149713L490,169.51920230149713L510,174.093835728216L530,174.093835728216L550,174.093835728216L570,174.093835728216L590,174.093835728216L610,200L630,200L650,200L670,200L690,200L710,199.9999999253148L730,199.9999999253148L750,199.9999999253148L770,199.9999999253148L790,199.9999999253148L810,199.9999999253148L810,199.9999999253148L790,199.9999999253148L770,199.9999999253148L750,199.9999999253148L730,199.9999999253148L710,199.9999999253148L690,200L670,200L650,200L630,200L610,200L590,200L570,200L550,200L530,200L510,200L490,200L470,200L450,200L430,200L410,200L390,200L370,200L350,200L330,200L310,200L290,200L270,200L250,200L230,200L210,200L190,200L170,200L150,200L130,200L110,200L90,200L70,200L50,200L30,200L10,200Z" fill="#b279a2"/></g></g><path class="foreground" aria-hidden="true" d="" display="none"/></g><g transform="translate(0,0)"><path class="background" aria-hidden="true" d="M0,0h820v200h-820Z"/><g><g class="mark-area role-mark marks" role="graphics-object" aria-roledescription="area mark container"><path aria-label="year: 2020; Operating Cost: 0; variable: x134" role="graphics-symbol" aria-roledescription="area mark" d="M10,200L30,200L50,200L70,200L90,200L110,190.2057142857143L130,190.2057142857143L150,190.2057142857143L170,190.2057142857143L190,190.2057142857143L210,191.6756648842056L230,191.6756648842056L250,191.6756648842056L270,191.6756648842056L290,191.6756648842056L310,156.1084084709596L330,156.1084084709596L350,156.1084084709596L370,156.1084084709596L390,156.1084084709596L410,162.69576696947095L430,162.69576696947095L450,162.69576696947095L470,162.69576696947095L490,162.69576696947095L510,168.2944784293075L530,168.2944784293075L550,168.2944784293075L570,168.2944784293075L590,168.2944784293075L610,114.72281058564162L630,114.72281058564162L650,114.72281058564162L670,114.72281058564162L690,114.72281058564162L710,142.85714282736464L730,142.85714282736464L750,142.85714282736464L770,142.85714282736464L790,142.85714282736464L810,142.85714282736464L810,175.28365231307845L790,175.28365231307845L770,175.28365231307845L750,175.28365231307845L730,175.28365231307845L710,175.28365231307845L690,163.76864163750628L670,163.76864163750628L650,163.76864163750628L630,163.76864163750628L610,163.76864163750628L590,168.2944784293075L570,168.2944784293075L550,168.2944784293075L530,168.2944784293075L510,168.2944784293075L490,162.69576696947095L470,162.69576696947095L450,162.69576696947095L430,162.69576696947095L410,162.69576696947095L390,156.1084084709596L370,156.1084084709596L350,156.1084084709596L330,156.1084084709596L310,156.1084084709596L290,191.6756648842056L270,191.6756648842056L250,191.6756648842056L230,191.6756648842056L210,191.6756648842056L190,190.2057142857143L170,190.2057142857143L150,190.2057142857143L130,190.2057142857143L110,190.2057142857143L90,200L70,200L50,200L30,200L10,200Z" fill="#f58518"/></g></g><path class="foreground" aria-hidden="true" d="" display="none"/></g><g transform="translate(0,0)"><path class="background" aria-hidden="true" d="M0,0h820v200h-820Z"/><g><g class="mark-area role-mark marks" role="graphics-object" aria-roledescription="area mark container"><path aria-label="year: 2020; Operating Cost: 0; variable: x157" role="graphics-symbol" aria-roledescription="area mark" d="M10,200L30,200L50,200L70,200L90,200L110,190.2057142857143L130,190.2057142857143L150,190.2057142857143L170,190.2057142857143L190,190.2057142857143L210,191.6756648842056L230,191.6756648842056L250,191.6756648842056L270,191.6756648842056L290,191.6756648842056L310,156.1084084709596L330,156.1084084709596L350,156.1084084709596L370,156.1084084709596L390,156.1084084709596L410,162.69576696947095L430,162.69576696947095L450,162.69576696947095L470,162.69576696947095L490,162.69576696947095L510,168.2944784293075L530,168.2944784293075L550,168.2944784293075L570,168.2944784293075L590,168.2944784293075L610,163.76864163750628L630,163.76864163750628L650,163.76864163750628L670,163.76864163750628L690,163.76864163750628L710,175.28365231307845L730,175.28365231307845L750,175.28365231307845L770,175.28365231307845L790,175.28365231307845L810,175.28365231307845L810,175.28365231307845L790,175.28365231307845L770,175.28365231307845L750,175.28365231307845L730,175.28365231307845L710,175.28365231307845L690,198.00385246533097L670,198.00385246533097L650,198.00385246533097L630,198.00385246533097L610,198.00385246533097L590,168.2944784293075L570,168.2944784293075L550,168.2944784293075L530,168.2944784293075L510,168.2944784293075L490,162.69576696947095L470,162.69576696947095L450,162.69576696947095L430,162.69576696947095L410,162.69576696947095L390,156.1084084709596L370,156.1084084709596L350,156.1084084709596L330,156.1084084709596L310,156.1084084709596L290,191.6756648842056L270,191.6756648842056L250,191.6756648842056L230,191.6756648842056L210,191.6756648842056L190,190.2057142857143L170,190.2057142857143L150,190.2057142857143L130,190.2057142857143L110,190.2057142857143L90,200L70,200L50,200L30,200L10,200Z" fill="#e45756"/></g></g><path class="foreground" aria-hidden="true" d="" display="none"/></g><g transform="translate(0,0)"><path class="background" aria-hidden="true" d="M0,0h820v200h-820Z"/><g><g class="mark-area role-mark marks" role="graphics-object" aria-roledescription="area mark container"><path aria-label="year: 2020; Operating Cost: 0; variable: x158" role="graphics-symbol" aria-roledescription="area mark" d="M10,200L30,200L50,200L70,200L90,200L110,190.2057142857143L130,190.2057142857143L150,190.2057142857143L170,190.2057142857143L190,190.2057142857143L210,191.6756648842056L230,191.6756648842056L250,191.6756648842056L270,191.6756648842056L290,191.6756648842056L310,156.1084084709596L330,156.1084084709596L350,156.1084084709596L370,156.1084084709596L390,156.1084084709596L410,162.69576696947095L430,162.69576696947095L450,162.69576696947095L470,162.69576696947095L490,162.69576696947095L510,168.2944784293075L530,168.2944784293075L550,168.2944784293075L570,168.2944784293075L590,168.2944784293075L610,198.00385246533097L630,198.00385246533097L650,198.00385246533097L670,198.00385246533097L690,198.00385246533097L710,175.28365231307845L730,175.28365231307845L750,175.28365231307845L770,175.28365231307845L790,175.28365231307845L810,175.28365231307845L810,188.41339413486543L790,188.41339413486543L770,188.41339413486543L750,188.41339413486543L730,188.41339413486543L710,188.41339413486543L690,198.00385246533097L670,198.00385246533097L650,198.00385246533097L630,198.00385246533097L610,198.00385246533097L590,168.2944784293075L570,168.2944784293075L550,168.2944784293075L530,168.2944784293075L510,168.2944784293075L490,162.69576696947095L470,162.69576696947095L450,162.69576696947095L430,162.69576696947095L410,162.69576696947095L390,156.1084084709596L370,156.1084084709596L350,156.1084084709596L330,156.1084084709596L310,156.1084084709596L290,191.6756648842056L270,191.6756648842056L250,191.6756648842056L230,191.6756648842056L210,191.6756648842056L190,190.2057142857143L170,190.2057142857143L150,190.2057142857143L130,190.2057142857143L110,190.2057142857143L90,200L70,200L50,200L30,200L10,200Z" fill="#72b7b2"/></g></g><path class="foreground" aria-hidden="true" d="" display="none"/></g><g transform="translate(0,0)"><path class="background" aria-hidden="true" d="M0,0h820v200h-820Z"/><g><g class="mark-area role-mark marks" role="graphics-object" aria-roledescription="area mark container"><path aria-label="year: 2020; Operating Cost: 0; variable: x177" role="graphics-symbol" aria-roledescription="area mark" d="M10,200L30,200L50,200L70,200L90,200L110,190.2057142857143L130,190.2057142857143L150,190.2057142857143L170,190.2057142857143L190,190.2057142857143L210,191.6756648842056L230,191.6756648842056L250,191.6756648842056L270,191.6756648842056L290,191.6756648842056L310,156.1084084709596L330,156.1084084709596L350,156.1084084709596L370,156.1084084709596L390,156.1084084709596L410,162.69576696947095L430,162.69576696947095L450,162.69576696947095L470,162.69576696947095L490,162.69576696947095L510,168.2944784293075L530,168.2944784293075L550,168.2944784293075L570,168.2944784293075L590,168.2944784293075L610,198.00385246533097L630,198.00385246533097L650,198.00385246533097L670,198.00385246533097L690,198.00385246533097L710,188.41339413486543L730,188.41339413486543L750,188.41339413486543L770,188.41339413486543L790,188.41339413486543L810,188.41339413486543L810,199.9999999253148L790,199.9999999253148L770,199.9999999253148L750,199.9999999253148L730,199.9999999253148L710,199.9999999253148L690,200L670,200L650,200L630,200L610,200L590,174.093835728216L570,174.093835728216L550,174.093835728216L530,174.093835728216L510,174.093835728216L490,169.51920230149713L470,169.51920230149713L450,169.51920230149713L430,169.51920230149713L410,169.51920230149713L390,164.136758395029L370,164.136758395029L350,164.136758395029L330,164.136758395029L310,164.136758395029L290,191.6756648842056L270,191.6756648842056L250,191.6756648842056L230,191.6756648842056L210,191.6756648842056L190,190.2057142857143L170,190.2057142857143L150,190.2057142857143L130,190.2057142857143L110,190.2057142857143L90,200L70,200L50,200L30,200L10,200Z" fill="#54a24b"/></g></g><path class="foreground" aria-hidden="true" d="" display="none"/></g><g transform="translate(0,0)"><path class="background" aria-hidden="true" d="M0,0h820v200h-820Z"/><g><g class="mark-area role-mark marks" role="graphics-object" aria-roledescription="area mark container"><path aria-label="year: 2020; Operating Cost: 0; variable: x178" role="graphics-symbol" aria-roledescription="area mark" d="M10,200L30,200L50,200L70,200L90,200L110,190.2057142857143L130,190.2057142857143L150,190.2057142857143L170,190.2057142857143L190,190.2057142857143L210,191.6756648842056L230,191.6756648842056L250,191.6756648842056L270,191.6756648842056L290,191.6756648842056L310,164.136758395029L330,164.136758395029L350,164.136758395029L370,164.136758395029L390,164.136758395029L410,169.51920230149713L430,169.51920230149713L450,169.51920230149713L470,169.51920230149713L490,169.51920230149713L510,174.093835728216L530,174.093835728216L550,174.093835728216L570,174.093835728216L590,174.093835728216L610,200L630,200L650,200L670,200L690,200L710,199.9999999253148L730,199.9999999253148L750,199.9999999253148L770,199.9999999253148L790,199.9999999253148L810,199.9999999253148L810,199.9999999253148L790,199.9999999253148L770,199.9999999253148L750,199.9999999253148L730,199.9999999253148L710,199.9999999253148L690,200L670,200L650,200L630,200L610,200L590,174.093835728216L570,174.093835728216L550,174.093835728216L530,174.093835728216L510,174.093835728216L490,169.51920230149713L470,169.51920230149713L450,169.51920230149713L430,169.51920230149713L410,169.51920230149713L390,164.136758395029L370,164.136758395029L350,164.136758395029L330,164.136758395029L310,164.136758395029L290,200L270,200L250,200L230,200L210,200L190,200L170,200L150,200L130,200L110,200L90,200L70,200L50,200L30,200L10,200Z" fill="#eeca3b"/></g></g><path class="foreground" aria-hidden="true" d="" display="none"/></g><g transform="translate(0,0)"><path class="background" aria-hidden="true" d="M0,0h820v200h-820Z"/><g><g class="mark-area role-mark marks" role="graphics-object" aria-roledescription="area mark container"><path aria-label="year: 2020; Operating Cost: 0; variable: x235" role="graphics-symbol" aria-roledescription="area mark" d="M10,200L30,200L50,200L70,200L90,200L110,200L130,200L150,200L170,200L190,200L210,200L230,200L250,200L270,200L290,200L310,200L330,200L350,200L370,200L390,200L410,200L430,200L450,200L470,200L490,200L510,200L530,200L550,200L570,200L590,200L610,200L630,200L650,200L670,200L690,200L710,199.9999999253148L730,199.9999999253148L750,199.9999999253148L770,199.9999999253148L790,199.9999999253148L810,199.9999999253148L810,199.99999993395977L790,199.99999993395977L770,199.99999993395977L750,199.99999993395977L730,199.99999993395977L710,199.99999993395977L690,200L670,200L650,200L630,200L610,200L590,200L570,200L550,200L530,200L510,200L490,200L470,200L450,200L430,200L410,200L390,200L370,200L350,200L330,200L310,200L290,200L270,200L250,200L230,200L210,200L190,200L170,200L150,200L130,200L110,200L90,200L70,200L50,200L30,200L10,200Z" fill="#ff9da6"/></g></g><path class="foreground" aria-hidden="true" d="" display="none"/></g><g transform="translate(0,0)"><path class="background" aria-hidden="true" d="M0,0h820v200h-820Z"/><g><g class="mark-area role-mark marks" role="graphics-object" aria-roledescription="area mark container"><path aria-label="year: 2020; Operating Cost: 0; variable: x253" role="graphics-symbol" aria-roledescription="area mark" d="M10,200L30,200L50,200L70,200L90,200L110,200L130,200L150,200L170,200L190,200L210,200L230,200L250,200L270,200L290,200L310,200L330,200L350,200L370,200L390,200L410,200L430,200L450,200L470,200L490,200L510,200L530,200L550,200L570,200L590,200L610,200L630,200L650,200L670,200L690,200L710,199.99999993395977L730,199.99999993395977L750,199.99999993395977L770,199.99999993395977L790,199.99999993395977L810,199.99999993395977L810,200L790,200L770,200L750,200L730,200L710,200L690,200L670,200L650,200L630,200L610,200L590,200L570,200L550,200L530,200L510,200L490,200L470,200L450,200L430,200L410,200L390,200L370,200L350,200L330,200L310,200L290,200L270,200L250,200L230,200L210,200L190,200L170,200L150,200L130,200L110,200L90,200L70,200L50,200L30,200L10,200Z" fill="#9d755d"/></g></g><path class="foreground" aria-hidden="true" d="" display="none"/></g><g transform="translate(0,0)"><path class="background" aria-hidden="true" d="M0,0h820v200h-820Z"/><g><g class="mark-area role-mark marks" role="graphics-object" aria-roledescription="area mark container"><path aria-label="year: 2020; Operating Cost: 3.2; variable: Conv" role="graphics-symbol" aria-roledescription="area mark" d="M10,17.142857142857125L30,17.142857142857125L50,17.142857142857125L70,17.142857142857125L90,17.142857142857125L110,190.2057142857143L130,190.2057142857143L150,190.2057142857143L170,190.2057142857143L190,190.2057142857143L210,191.6756648842056L230,191.6756648842056L250,191.6756648842056L270,191.6756648842056L290,191.6756648842056L310,156.10840847095955L330,156.10840847095955L350,156.10840847095955L370,156.10840847095955L390,156.10840847095955L410,162.69576696947092L430,162.69576696947092L450,162.69576696947092L470,162.69576696947092L490,162.69576696947092L510,168.2944784293075L530,168.2944784293075L550,168.2944784293075L570,168.2944784293075L590,168.2944784293075L610,114.72281058564162L630,114.72281058564162L650,114.72281058564162L670,114.72281058564162L690,114.72281058564162L710,142.85714282736464L730,142.85714282736464L750,142.85714282736464L770,142.85714282736464L790,142.85714282736464L810,142.85714282736464L810,142.85714282736464L790,142.85714282736464L770,142.85714282736464L750,142.85714282736464L730,142.85714282736464L710,142.85714282736464L690,114.72281058564162L670,114.72281058564162L650,114.72281058564162L630,114.72281058564162L610,114.72281058564162L590,168.2944784293075L570,168.2944784293075L550,168.2944784293075L530,168.2944784293075L510,168.2944784293075L490,162.69576696947095L470,162.69576696947095L450,162.69576696947095L430,162.69576696947095L410,162.69576696947095L390,156.1084084709596L370,156.1084084709596L350,156.1084084709596L330,156.1084084709596L310,156.1084084709596L290,191.6756648842056L270,191.6756648842056L250,191.6756648842056L230,191.6756648842056L210,191.6756648842056L190,190.2057142857143L170,190.2057142857143L150,190.2057142857143L130,190.2057142857143L110,190.2057142857143L90,200L70,200L50,200L30,200L10,200Z" fill="#4c78a8"/></g></g><path class="foreground" aria-hidden="true" d="" display="none"/></g></g><g class="mark-group role-legend" role="graphics-symbol" aria-roledescription="legend" aria-label="Symbol legend titled 'variable' for fill color with 9 values: Conv, x134, x157, x158, x177, ending with x253"><g transform="translate(838,0)"><path class="background" aria-hidden="true" d="M0,0h72v136h-72Z" pointer-events="none"/><g><g class="mark-group role-legend-entry"><g transform="translate(0,21)"><path class="background" aria-hidden="true" d="M0,0h0v0h0Z" pointer-events="none"/><g><g class="mark-group role-scope" role="graphics-object" aria-roledescription="group mark container"><g transform="translate(0,0)"><path class="background" aria-hidden="true" d="M0,0h41v11h-41Z" pointer-events="none" opacity="1"/><g><g class="mark-symbol role-legend-symbol" pointer-events="none"><path transform="translate(6,6)" d="M5,0A5,5,0,1,1,-5,0A5,5,0,1,1,5,0" fill="#4c78a8" stroke-width="1.5" opacity="1"/></g><g class="mark-text role-legend-label" pointer-events="none"><text text-anchor="start" transform="translate(16,9)" font-family="sans-serif" font-size="10px" fill="#000" opacity="1">Conv</text></g></g><path class="foreground" aria-hidden="true" d="" pointer-events="none" display="none"/></g><g transform="translate(0,13)"><path class="background" aria-hidden="true" d="M0,0h41v11h-41Z" pointer-events="none" opacity="1"/><g><g class="mark-symbol role-legend-symbol" pointer-events="none"><path transform="translate(6,6)" d="M5,0A5,5,0,1,1,-5,0A5,5,0,1,1,5,0" fill="#f58518" stroke-width="1.5" opacity="1"/></g><g class="mark-text role-legend-label" pointer-events="none"><text text-anchor="start" transform="translate(16,9)" font-family="sans-serif" font-size="10px" fill="#000" opacity="1">x134</text></g></g><path class="foreground" aria-hidden="true" d="" pointer-events="none" display="none"/></g><g transform="translate(0,26)"><path class="background" aria-hidden="true" d="M0,0h41v11h-41Z" pointer-events="none" opacity="1"/><g><g class="mark-symbol role-legend-symbol" pointer-events="none"><path transform="translate(6,6)" d="M5,0A5,5,0,1,1,-5,0A5,5,0,1,1,5,0" fill="#e45756" stroke-width="1.5" opacity="1"/></g><g class="mark-text role-legend-label" pointer-events="none"><text text-anchor="start" transform="translate(16,9)" font-family="sans-serif" font-size="10px" fill="#000" opacity="1">x157</text></g></g><path class="foreground" aria-hidden="true" d="" pointer-events="none" display="none"/></g><g transform="translate(0,39)"><path class="background" aria-hidden="true" d="M0,0h41v11h-41Z" pointer-events="none" opacity="1"/><g><g class="mark-symbol role-legend-symbol" pointer-events="none"><path transform="translate(6,6)" d="M5,0A5,5,0,1,1,-5,0A5,5,0,1,1,5,0" fill="#72b7b2" stroke-width="1.5" opacity="1"/></g><g class="mark-text role-legend-label" pointer-events="none"><text text-anchor="start" transform="translate(16,9)" font-family="sans-serif" font-size="10px" fill="#000" opacity="1">x158</text></g></g><path class="foreground" aria-hidden="true" d="" pointer-events="none" display="none"/></g><g transform="translate(0,52)"><path class="background" aria-hidden="true" d="M0,0h41v11h-41Z" pointer-events="none" opacity="1"/><g><g class="mark-symbol role-legend-symbol" pointer-events="none"><path transform="translate(6,6)" d="M5,0A5,5,0,1,1,-5,0A5,5,0,1,1,5,0" fill="#54a24b" stroke-width="1.5" opacity="1"/></g><g class="mark-text role-legend-label" pointer-events="none"><text text-anchor="start" transform="translate(16,9)" font-family="sans-serif" font-size="10px" fill="#000" opacity="1">x177</text></g></g><path class="foreground" aria-hidden="true" d="" pointer-events="none" display="none"/></g><g transform="translate(0,65)"><path class="background" aria-hidden="true" d="M0,0h41v11h-41Z" pointer-events="none" opacity="1"/><g><g class="mark-symbol role-legend-symbol" pointer-events="none"><path transform="translate(6,6)" d="M5,0A5,5,0,1,1,-5,0A5,5,0,1,1,5,0" fill="#eeca3b" stroke-width="1.5" opacity="1"/></g><g class="mark-text role-legend-label" pointer-events="none"><text text-anchor="start" transform="translate(16,9)" font-family="sans-serif" font-size="10px" fill="#000" opacity="1">x178</text></g></g><path class="foreground" aria-hidden="true" d="" pointer-events="none" display="none"/></g><g transform="translate(0,78)"><path class="background" aria-hidden="true" d="M0,0h41v11h-41Z" pointer-events="none" opacity="1"/><g><g class="mark-symbol role-legend-symbol" pointer-events="none"><path transform="translate(6,6)" d="M5,0A5,5,0,1,1,-5,0A5,5,0,1,1,5,0" fill="#b279a2" stroke-width="1.5" opacity="1"/></g><g class="mark-text role-legend-label" pointer-events="none"><text text-anchor="start" transform="translate(16,9)" font-family="sans-serif" font-size="10px" fill="#000" opacity="1">x22</text></g></g><path class="foreground" aria-hidden="true" d="" pointer-events="none" display="none"/></g><g transform="translate(0,91)"><path class="background" aria-hidden="true" d="M0,0h41v11h-41Z" pointer-events="none" opacity="1"/><g><g class="mark-symbol role-legend-symbol" pointer-events="none"><path transform="translate(6,6)" d="M5,0A5,5,0,1,1,-5,0A5,5,0,1,1,5,0" fill="#ff9da6" stroke-width="1.5" opacity="1"/></g><g class="mark-text role-legend-label" pointer-events="none"><text text-anchor="start" transform="translate(16,9)" font-family="sans-serif" font-size="10px" fill="#000" opacity="1">x235</text></g></g><path class="foreground" aria-hidden="true" d="" pointer-events="none" display="none"/></g><g transform="translate(0,104)"><path class="background" aria-hidden="true" d="M0,0h41v11h-41Z" pointer-events="none" opacity="1"/><g><g class="mark-symbol role-legend-symbol" pointer-events="none"><path transform="translate(6,6)" d="M5,0A5,5,0,1,1,-5,0A5,5,0,1,1,5,0" fill="#9d755d" stroke-width="1.5" opacity="1"/></g><g class="mark-text role-legend-label" pointer-events="none"><text text-anchor="start" transform="translate(16,9)" font-family="sans-serif" font-size="10px" fill="#000" opacity="1">x253</text></g></g><path class="foreground" aria-hidden="true" d="" pointer-events="none" display="none"/></g></g></g><path class="foreground" aria-hidden="true" d="" pointer-events="none" display="none"/></g></g><g class="mark-text role-legend-title" pointer-events="none"><text text-anchor="start" transform="translate(0,13)" font-family="sans-serif" font-size="16px" font-weight="bold" fill="#000" opacity="1">variable</text></g></g><path class="foreground" aria-hidden="true" d="" pointer-events="none" display="none"/></g></g></g><path class="foreground" aria-hidden="true" d="" display="none"/></g></g></g></svg>
