<?xml version="1.0" encoding="utf-8"?>
<!DOCTYPE svg PUBLIC "-//W3C//DTD SVG 1.1//EN" "http://www.w3.org/Graphics/SVG/1.1/DTD/svg11.dtd">
<svg xmlns="http://www.w3.org/2000/svg" xmlns:xlink="http://www.w3.org/1999/xlink" version="1.1" class="marks" width="956" height="273" viewBox="0 0 956 273"><rect width="956" height="273" fill="white"/><g fill="none" stroke-miterlimit="10" transform="translate(41,5)"><g class="mark-group role-frame root" role="graphics-object" aria-roledescription="group mark container"><g transform="translate(0,0)"><path class="background" aria-hidden="true" d="M0.5,0.5h820v200h-820Z" stroke="#ddd"/><g><g class="mark-group role-axis" aria-hidden="true"><g transform="translate(0.5,0.5)"><path class="background" aria-hidden="true" d="M0,0h0v0h0Z" pointer-events="none"/><g><g class="mark-rule role-axis-grid" pointer-events="none"><line transform="translate(0,175)" x2="820" y2="0" stroke="#ddd" stroke-width="1" opacity="1"/><line transform="translate(0,125)" x2="820" y2="0" stroke="#ddd" stroke-width="1" opacity="1"/><line transform="translate(0,75)" x2="820" y2="0" stroke="#ddd" stroke-width="1" opacity="1"/><line transform="translate(0,25)" x2="820" y2="0" stroke="#ddd" stroke-width="1" opacity="1"/></g></g><path class="foreground" aria-hidden="true" d="" pointer-events="none" display="none"/></g></g><g class="mark-group role-axis" role="graphics-symbol" aria-roledescription="axis" aria-label="X-axis titled 'year' for a discrete scale with 41 values: 2020, 2021, 2022, 2023, 2024, ending with 2060"><g transform="translate(0.5,200.5)"><path class="background" aria-hidden="true" d="M0,0h0v0h0Z" pointer-events="none"/><g><g class="mark-rule role-axis-tick" pointer-events="none"><line transform="translate(10,0)" x2="0" y2="5" stroke="#888" stroke-width="1" opacity="1"/><line transform="translate(30,0)" x2="0" y2="5" stroke="#888" stroke-width="1" opacity="1"/><line transform="translate(50,0)" x2="0" y2="5" stroke="#888" stroke-width="1" opacity="1"/><line transform="translate(70,0)" x2="0" y2="5" stroke="#888" stroke-width="1" opacity="1"/><line transform="translate(90,0)" x2="0" y2="5" stroke="#888" stroke-width="1" opacity="1"/><line transform="translate(110,0)" x2="0" y2="5" stroke="#888" stroke-width="1" opacity="1"/><line transform="translate(130,0)" x2="0" y2="5" stroke="#888" stroke-width="1" opacity="1"/><line transform="translate(150,0)" x2="0" y2="5" stroke="#888" stroke-width="1" opacity="1"/><line transform="translate(170,0)" x2="0" y2="5" stroke="#888" stroke-width="1" opacity="1"/><line transform="translate(190,0)" x2="0" y2="5" stroke="#888" stroke-width="1" opacity="1"/><line transform="translate(210,0)" x2="0" y2="5" stroke="#888" stroke-width="1" opacity="1"/><line transform="translate(230,0)" x2="0" y2="5" stroke="#888" stroke-width="1" opacity="1"/><line transform="translate(250,0)" x2="0" y2="5" stroke="#888" stroke-width="1" opacity="1"/><line transform="translate(270,0)" x2="0" y2="5" stroke="#888" stroke-width="1" opacity="1"/><line transform="translate(290,0)" x2="0" y2="5" stroke="#888" stroke-width="1" opacity="1"/><line transform="translate(310,0)" x2="0" y2="5" stroke="#888" stroke-width="1" opacity="1"/><line transform="translate(330,0)" x2="0" y2="5" stroke="#888" stroke-width="1" opacity="1"/><line transform="translate(350,0)" x2="0" y2="5" stroke="#888" stroke-width="1" opacity="1"/><line transform="translate(370,0)" x2="0" y2="5" stroke="#888" stroke-width="1" opacity="1"/><line transform="translate(390,0)" x2="0" y2="5" stroke="#888" stroke-width="1" opacity="1"/><line transform="translate(410,0)" x2="0" y2="5" stroke="#888" stroke-width="1" opacity="1"/><line transform="translate(430,0)" x2="0" y2="5" stroke="#888" stroke-width="1" opacity="1"/><line transform="translate(450,0)" x2="0" y2="5" stroke="#888" stroke-width="1" opacity="1"/><line transform="translate(470,0)" x2="0" y2="5" stroke="#888" stroke-width="1" opacity="1"/><line transform="translate(490,0)" x2="0" y2="5" stroke="#888" stroke-width="1" opacity="1"/><line transform="translate(510,0)" x2="0" y2="5" stroke="#888" stroke-width="1" opacity="1"/><line transform="translate(530,0)" x2="0" y2="5" stroke="#888" stroke-width="1" opacity="1"/><line transform="translate(550,0)" x2="0" y2="5" stroke="#888" stroke-width="1" opacity="1"/><line transform="translate(570,0)" x2="0" y2="5" stroke="#888" stroke-width="1" opacity="1"/><line transform="translate(590,0)" x2="0" y2="5" stroke="#888" stroke-width="1" opacity="1"/><line transform="translate(610,0)" x2="0" y2="5" stroke="#888" stroke-width="1" opacity="1"/><line transform="translate(630,0)" x2="0" y2="5" stroke="#888" stroke-width="1" opacity="1"/><line transform="translate(650,0)" x2="0" y2="5" stroke="#888" stroke-width="1" opacity="1"/><line transform="translate(670,0)" x2="0" y2="5" stroke="#888" stroke-width="1" opacity="1"/><line transform="translate(690,0)" x2="0" y2="5" stroke="#888" stroke-width="1" opacity="1"/><line transform="translate(710,0)" x2="0" y2="5" stroke="#888" stroke-width="1" opacity="1"/><line transform="translate(730,0)" x2="0" y2="5" stroke="#888" stroke-width="1" opacity="1"/><line transform="translate(750,0)" x2="0" y2="5" stroke="#888" stroke-width="1" opacity="1"/><line transform="translate(770,0)" x2="0" y2="5" stroke="#888" stroke-width="1" opacity="1"/><line transform="translate(790,0)" x2="0" y2="5" stroke="#888" stroke-width="1" opacity="1"/><line transform="translate(810,0)" x2="0" y2="5" stroke="#888" stroke-width="1" opacity="1"/></g><g class="mark-text role-axis-label" pointer-events="none"><text text-anchor="end" transform="translate(10,7) rotate(270) translate(0,4)" font-family="sans-serif" font-size="14px" fill="#000" opacity="1">2020</text><text text-anchor="end" transform="translate(30,7) rotate(270) translate(0,4)" font-family="sans-serif" font-size="14px" fill="#000" opacity="1">2021</text><text text-anchor="end" transform="translate(50,7) rotate(270) translate(0,4)" font-family="sans-serif" font-size="14px" fill="#000" opacity="1">2022</text><text text-anchor="end" transform="translate(70,7) rotate(270) translate(0,4)" font-family="sans-serif" font-size="14px" fill="#000" opacity="1">2023</text><text text-anchor="end" transform="translate(90,7) rotate(270) translate(0,4)" font-family="sans-serif" font-size="14px" fill="#000" opacity="1">2024</text><text text-anchor="end" transform="translate(110,7) rotate(270) translate(0,4)" font-family="sans-serif" font-size="14px" fill="#000" opacity="1">2025</text><text text-anchor="end" transform="translate(130,7) rotate(270) translate(0,4)" font-family="sans-serif" font-size="14px" fill="#000" opacity="1">2026</text><text text-anchor="end" transform="translate(150,7) rotate(270) translate(0,4)" font-family="sans-serif" font-size="14px" fill="#000" opacity="1">2027</text><text text-anchor="end" transform="translate(170,7) rotate(270) translate(0,4)" font-family="sans-serif" font-size="14px" fill="#000" opacity="1">2028</text><text text-anchor="end" transform="translate(190,7) rotate(270) translate(0,4)" font-family="sans-serif" font-size="14px" fill="#000" opacity="1">2029</text><text text-anchor="end" transform="translate(210,7) rotate(270) translate(0,4)" font-family="sans-serif" font-size="14px" fill="#000" opacity="1">2030</text><text text-anchor="end" transform="translate(230,7) rotate(270) translate(0,4)" font-family="sans-serif" font-size="14px" fill="#000" opacity="1">2031</text><text text-anchor="end" transform="translate(250,7) rotate(270) translate(0,4)" font-family="sans-serif" font-size="14px" fill="#000" opacity="1">2032</text><text text-anchor="end" transform="translate(270,7) rotate(270) translate(0,4)" font-family="sans-serif" font-size="14px" fill="#000" opacity="1">2033</text><text text-anchor="end" transform="translate(290,7) rotate(270) translate(0,4)" font-family="sans-serif" font-size="14px" fill="#000" opacity="1">2034</text><text text-anchor="end" transform="translate(310,7) rotate(270) translate(0,4)" font-family="sans-serif" font-size="14px" fill="#000" opacity="1">2035</text><text text-anchor="end" transform="translate(330,7) rotate(270) translate(0,4)" font-family="sans-serif" font-size="14px" fill="#000" opacity="1">2036</text><text text-anchor="end" transform="translate(350,7) rotate(270) translate(0,4)" font-family="sans-serif" font-size="14px" fill="#000" opacity="1">2037</text><text text-anchor="end" transform="translate(370,7) rotate(270) translate(0,4)" font-family="sans-serif" font-size="14px" fill="#000" opacity="1">2038</text><text text-anchor="end" transform="translate(390,7) rotate(270) translate(0,4)" font-family="sans-serif" font-size="14px" fill="#000" opacity="1">2039</text><text text-anchor="end" transform="translate(410,7) rotate(270) translate(0,4)" font-family="sans-serif" font-size="14px" fill="#000" opacity="1">2040</text><text text-anchor="end" transform="translate(430,7) rotate(270) translate(0,4)" font-family="sans-serif" font-size="14px" fill="#000" opacity="1">2041</text><text text-anchor="end" transform="translate(450,7) rotate(270) translate(0,4)" font-family="sans-serif" font-size="14px" fill="#000" opacity="1">2042</text><text text-anchor="end" transform="translate(470,7) rotate(270) translate(0,4)" font-family="sans-serif" font-size="14px" fill="#000" opacity="1">2043</text><text text-anchor="end" transform="translate(490,7) rotate(270) translate(0,4)" font-family="sans-serif" font-size="14px" fill="#000" opacity="1">2044</text><text text-anchor="end" transform="translate(510,7) rotate(270) translate(0,4)" font-family="sans-serif" font-size="14px" fill="#000" opacity="1">2045</text><text text-anchor="end" transform="translate(530,7) rotate(270) translate(0,4)" font-family="sans-serif" font-size="14px" fill="#000" opacity="1">2046</text><text text-anchor="end" transform="translate(550,7) rotate(270) translate(0,4)" font-family="sans-serif" font-size="14px" fill="#000" opacity="1">2047</text><text text-anchor="end" transform="translate(570,7) rotate(270) translate(0,4)" font-family="sans-serif" font-size="14px" fill="#000" opacity="1">2048</text><text text-anchor="end" transform="translate(590,7) rotate(270) translate(0,4)" font-family="sans-serif" font-size="14px" fill="#000" opacity="1">2049</text><text text-anchor="end" transform="translate(610,7) rotate(270) translate(0,4)" font-family="sans-serif" font-size="14px" fill="#000" opacity="1">2050</text><text text-anchor="end" transform="translate(630,7) rotate(270) translate(0,4)" font-family="sans-serif" font-size="14px" fill="#000" opacity="1">2051</text><text text-anchor="end" transform="translate(650,7) rotate(270) translate(0,4)" font-family="sans-serif" font-size="14px" fill="#000" opacity="1">2052</text><text text-anchor="end" transform="translate(670,7) rotate(270) translate(0,4)" font-family="sans-serif" font-size="14px" fill="#000" opacity="1">2053</text><text text-anchor="end" transform="translate(690,7) rotate(270) translate(0,4)" font-family="sans-serif" font-size="14px" fill="#000" opacity="1">2054</text><text text-anchor="end" transform="translate(710,7) rotate(270) translate(0,4)" font-family="sans-serif" font-size="14px" fill="#000" opacity="1">2055</text><text text-anchor="end" transform="translate(730,7) rotate(270) translate(0,4)" font-family="sans-serif" font-size="14px" fill="#000" opacity="1">2056</text><text text-anchor="end" transform="translate(750,7) rotate(270) translate(0,4)" font-family="sans-serif" font-size="14px" fill="#000" opacity="1">2057</text><text text-anchor="end" transform="translate(770,7) rotate(270) translate(0,4)" font-family="sans-serif" font-size="14px" fill="#000" opacity="1">2058</text><text text-anchor="end" transform="translate(790,7) rotate(270) translate(0,4)" font-family="sans-serif" font-size="14px" fill="#000" opacity="1">2059</text><text text-anchor="end" transform="translate(810,7) rotate(270) translate(0,4)" font-family="sans-serif" font-size="14px" fill="#000" opacity="1">2060</text></g><g class="mark-rule role-axis-domain" pointer-events="none"><line transform="translate(0,0)" x2="820" y2="0" stroke="#888" stroke-width="1" opacity="1"/></g><g class="mark-text role-axis-title" pointer-events="none"><text text-anchor="middle" transform="translate(410,60)" font-family="sans-serif" font-size="16px" font-weight="bold" fill="#000" opacity="1">year</text></g></g><path class="foreground" aria-hidden="true" d="" pointer-events="none" display="none"/></g></g><g class="mark-group role-axis" role="graphics-symbol" aria-roledescription="axis" aria-label="Y-axis titled 'Operating Cost' for a linear scale with values from −1 to 4"><g transform="translate(0.5,0.5)"><path class="background" aria-hidden="true" d="M0,0h0v0h0Z" pointer-events="none"/><g><g class="mark-rule role-axis-tick" pointer-events="none"><line transform="translate(0,175)" x2="-5" y2="0" stroke="#888" stroke-width="1" opacity="1"/><line transform="translate(0,125)" x2="-5" y2="0" stroke="#888" stroke-width="1" opacity="1"/><line transform="translate(0,75)" x2="-5" y2="0" stroke="#888" stroke-width="1" opacity="1"/><line transform="translate(0,25)" x2="-5" y2="0" stroke="#888" stroke-width="1" opacity="1"/></g><g class="mark-text role-axis-label" pointer-events="none"><text text-anchor="end" transform="translate(-7,179)" font-family="sans-serif" font-size="14px" fill="#000" opacity="1">0</text><text text-anchor="end" transform="translate(-7,129)" font-family="sans-serif" font-size="14px" fill="#000" opacity="1">1</text><text text-anchor="end" transform="translate(-7,79)" font-family="sans-serif" font-size="14px" fill="#000" opacity="1">2</text><text text-anchor="end" transform="translate(-7,29)" font-family="sans-serif" font-size="14px" fill="#000" opacity="1">3</text></g><g class="mark-rule role-axis-domain" pointer-events="none"><line transform="translate(0,200)" x2="0" y2="-200" stroke="#888" stroke-width="1" opacity="1"/></g><g class="mark-text role-axis-title" pointer-events="none"><text text-anchor="middle" transform="translate(-20,100) rotate(-90) translate(0,-3)" font-family="sans-serif" font-size="16px" font-weight="bold" fill="#000" opacity="1">Operating Cost</text></g></g><path class="foreground" aria-hidden="true" d="" pointer-events="none" display="none"/></g></g><g class="mark-group role-scope pathgroup" role="graphics-object" aria-roledescription="group mark container"><g transform="translate(0,0)"><path class="background" aria-hidden="true" d="M0,0h820v200h-820Z"/><g><g class="mark-area role-mark marks" role="graphics-object" aria-roledescription="area mark container"><path aria-label="year: 2020; Operating Cost: 0; variable: x22" role="graphics-symbol" aria-roledescription="area mark" d="M10,175L30,175L50,175L70,175L90,175L110,175L130,175L150,175L170,175L190,175L210,175L230,175L250,175L270,175L290,175L310,143.61966359565037L330,143.61966359565037L350,143.61966359565037L370,143.61966359565037L390,143.61966359565037L410,148.32930201381L430,148.32930201381L450,148.32930201381L470,148.32930201381L490,148.32930201381L510,152.332106262189L530,152.332106262189L550,152.332106262189L570,152.332106262189L590,152.332106262189L610,171.3073737575233L630,171.3073737575233L650,171.3073737575233L670,171.3073737575233L690,171.3073737575233L710,153.6413454341796L730,153.6413454341796L750,153.6413454341796L770,153.6413454341796L790,153.6413454341796L810,153.6413454341796L810,157.22127267090232L790,157.22127267090232L770,157.22127267090232L750,157.22127267090232L730,157.22127267090232L710,157.22127267090232L690,171.3073737575233L670,171.3073737575233L650,171.3073737575233L630,171.3073737575233L610,171.3073737575233L590,175L570,175L550,175L530,175L510,175L490,175L470,175L450,175L430,175L410,175L390,175L370,175L350,175L330,175L310,175L290,175L270,175L250,175L230,175L210,175L190,175L170,175L150,175L130,175L110,175L90,175L70,175L50,175L30,175L10,175Z" fill="#54a24b"/></g></g><path class="foreground" aria-hidden="true" d="" display="none"/></g><g transform="translate(0,0)"><path class="background" aria-hidden="true" d="M0,0h820v200h-820Z"/><g><g class="mark-area role-mark marks" role="graphics-object" aria-roledescription="area mark container"><path aria-label="year: 2020; Operating Cost: 0; variable: x29" role="graphics-symbol" aria-roledescription="area mark" d="M10,175L30,175L50,175L70,175L90,175L110,175L130,175L150,175L170,175L190,175L210,175L230,175L250,175L270,175L290,175L310,175L330,175L350,175L370,175L390,175L410,175L430,175L450,175L470,175L490,175L510,175L530,175L550,175L570,175L590,175L610,171.3073737575233L630,171.3073737575233L650,171.3073737575233L670,171.3073737575233L690,171.3073737575233L710,157.22127267090232L730,157.22127267090232L750,157.22127267090232L770,157.22127267090232L790,157.22127267090232L810,157.22127267090232L810,175L790,175L770,175L750,175L730,175L710,175L690,175L670,175L650,175L630,175L610,175L590,175L570,175L550,175L530,175L510,175L490,175L470,175L450,175L430,175L410,175L390,175L370,175L350,175L330,175L310,175L290,175L270,175L250,175L230,175L210,175L190,175L170,175L150,175L130,175L110,175L90,175L70,175L50,175L30,175L10,175Z" fill="#eeca3b"/></g></g><path class="foreground" aria-hidden="true" d="" display="none"/></g><g transform="translate(0,0)"><path class="background" aria-hidden="true" d="M0,0h820v200h-820Z"/><g><g class="mark-area role-mark marks" role="graphics-object" aria-roledescription="area mark container"><path aria-label="year: 2020; Operating Cost: 0; variable: x134" role="graphics-symbol" aria-roledescription="area mark" d="M10,175L30,175L50,175L70,175L90,175L110,166.42999999999998L130,166.42999999999998L150,166.42999999999998L170,166.42999999999998L190,166.42999999999998L210,167.7162067736799L230,167.7162067736799L250,167.7162067736799L270,167.7162067736799L290,167.7162067736799L310,136.59485741208962L330,136.59485741208962L350,136.59485741208962L370,136.59485741208962L390,136.59485741208962L410,142.3587960982871L430,142.3587960982871L450,142.3587960982871L470,142.3587960982871L490,142.3587960982871L510,147.25766862564407L530,147.25766862564407L550,147.25766862564407L570,147.25766862564407L590,147.25766862564407L610,99.61131433966158L630,99.61131433966158L650,99.61131433966158L670,99.61131433966158L690,99.61131433966158L710,125L730,125L750,125L770,125L790,125L810,125L810,153.6413454341796L790,153.6413454341796L770,153.6413454341796L750,153.6413454341796L730,153.6413454341796L710,153.6413454341796L690,171.3073737575233L670,171.3073737575233L650,171.3073737575233L630,171.3073737575233L610,171.3073737575233L590,147.25766862564407L570,147.25766862564407L550,147.25766862564407L530,147.25766862564407L510,147.25766862564407L490,142.3587960982871L470,142.3587960982871L450,142.3587960982871L430,142.3587960982871L410,142.3587960982871L390,136.59485741208962L370,136.59485741208962L350,136.59485741208962L330,136.59485741208962L310,136.59485741208962L290,167.7162067736799L270,167.7162067736799L250,167.7162067736799L230,167.7162067736799L210,167.7162067736799L190,166.42999999999998L170,166.42999999999998L150,166.42999999999998L130,166.42999999999998L110,166.42999999999998L90,175L70,175L50,175L30,175L10,175Z" fill="#f58518"/></g></g><path class="foreground" aria-hidden="true" d="" display="none"/></g><g transform="translate(0,0)"><path class="background" aria-hidden="true" d="M0,0h820v200h-820Z"/><g><g class="mark-area role-mark marks" role="graphics-object" aria-roledescription="area mark container"><path aria-label="year: 2020; Operating Cost: 0; variable: x177" role="graphics-symbol" aria-roledescription="area mark" d="M10,175L30,175L50,175L70,175L90,175L110,166.42999999999998L130,166.42999999999998L150,166.42999999999998L170,166.42999999999998L190,166.42999999999998L210,167.7162067736799L230,167.7162067736799L250,167.7162067736799L270,167.7162067736799L290,167.7162067736799L310,136.59485741208962L330,136.59485741208962L350,136.59485741208962L370,136.59485741208962L390,136.59485741208962L410,142.3587960982871L430,142.3587960982871L450,142.3587960982871L470,142.3587960982871L490,142.3587960982871L510,147.25766862564407L530,147.25766862564407L550,147.25766862564407L570,147.25766862564407L590,147.25766862564407L610,171.3073737575233L630,171.3073737575233L650,171.3073737575233L670,171.3073737575233L690,171.3073737575233L710,153.6413454341796L730,153.6413454341796L750,153.6413454341796L770,153.6413454341796L790,153.6413454341796L810,153.6413454341796L810,153.6413454341796L790,153.6413454341796L770,153.6413454341796L750,153.6413454341796L730,153.6413454341796L710,153.6413454341796L690,171.3073737575233L670,171.3073737575233L650,171.3073737575233L630,171.3073737575233L610,171.3073737575233L590,152.332106262189L570,152.332106262189L550,152.332106262189L530,152.332106262189L510,152.332106262189L490,148.32930201381L470,148.32930201381L450,148.32930201381L430,148.32930201381L410,148.32930201381L390,143.61966359565037L370,143.61966359565037L350,143.61966359565037L330,143.61966359565037L310,143.61966359565037L290,167.7162067736799L270,167.7162067736799L250,167.7162067736799L230,167.7162067736799L210,167.7162067736799L190,166.42999999999998L170,166.42999999999998L150,166.42999999999998L130,166.42999999999998L110,166.42999999999998L90,175L70,175L50,175L30,175L10,175Z" fill="#e45756"/></g></g><path class="foreground" aria-hidden="true" d="" display="none"/></g><g transform="translate(0,0)"><path class="background" aria-hidden="true" d="M0,0h820v200h-820Z"/><g><g class="mark-area role-mark marks" role="graphics-object" aria-roledescription="area mark container"><path aria-label="year: 2020; Operating Cost: 0; variable: x178" role="graphics-symbol" aria-roledescription="area mark" d="M10,175L30,175L50,175L70,175L90,175L110,166.42999999999998L130,166.42999999999998L150,166.42999999999998L170,166.42999999999998L190,166.42999999999998L210,167.7162067736799L230,167.7162067736799L250,167.7162067736799L270,167.7162067736799L290,167.7162067736799L310,143.61966359565037L330,143.61966359565037L350,143.61966359565037L370,143.61966359565037L390,143.61966359565037L410,148.32930201381L430,148.32930201381L450,148.32930201381L470,148.32930201381L490,148.32930201381L510,152.332106262189L530,152.332106262189L550,152.332106262189L570,152.332106262189L590,152.332106262189L610,171.3073737575233L630,171.3073737575233L650,171.3073737575233L670,171.3073737575233L690,171.3073737575233L710,153.6413454341796L730,153.6413454341796L750,153.6413454341796L770,153.6413454341796L790,153.6413454341796L810,153.6413454341796L810,153.6413454341796L790,153.6413454341796L770,153.6413454341796L750,153.6413454341796L730,153.6413454341796L710,153.6413454341796L690,171.3073737575233L670,171.3073737575233L650,171.3073737575233L630,171.3073737575233L610,171.3073737575233L590,152.332106262189L570,152.332106262189L550,152.332106262189L530,152.332106262189L510,152.332106262189L490,148.32930201381L470,148.32930201381L450,148.32930201381L430,148.32930201381L410,148.32930201381L390,143.61966359565037L370,143.61966359565037L350,143.61966359565037L330,143.61966359565037L310,143.61966359565037L290,175L270,175L250,175L230,175L210,175L190,175L170,175L150,175L130,175L110,175L90,175L70,175L50,175L30,175L10,175Z" fill="#72b7b2"/></g></g><path class="foreground" aria-hidden="true" d="" display="none"/></g><g transform="translate(0,0)"><path class="background" aria-hidden="true" d="M0,0h820v200h-820Z"/><g><g class="mark-area role-mark marks" role="graphics-object" aria-roledescription="area mark container"><path aria-label="year: 2020; Operating Cost: 3.2; variable: Conv" role="graphics-symbol" aria-roledescription="area mark" d="M10,14.999999999999991L30,14.999999999999991L50,14.999999999999991L70,14.999999999999991L90,14.999999999999991L110,166.42999999999998L130,166.42999999999998L150,166.42999999999998L170,166.42999999999998L190,166.42999999999998L210,167.7162067736799L230,167.7162067736799L250,167.7162067736799L270,167.7162067736799L290,167.7162067736799L310,136.5948574120896L330,136.5948574120896L350,136.5948574120896L370,136.5948574120896L390,136.5948574120896L410,142.35879609828706L430,142.35879609828706L450,142.35879609828706L470,142.35879609828706L490,142.35879609828706L510,147.25766862564404L530,147.25766862564404L550,147.25766862564404L570,147.25766862564404L590,147.25766862564404L610,99.61131433966158L630,99.61131433966158L650,99.61131433966158L670,99.61131433966158L690,99.61131433966158L710,175L730,175L750,175L770,175L790,175L810,175L810,175L790,175L770,175L750,175L730,175L710,175L690,99.61131433966158L670,99.61131433966158L650,99.61131433966158L630,99.61131433966158L610,99.61131433966158L590,147.25766862564407L570,147.25766862564407L550,147.25766862564407L530,147.25766862564407L510,147.25766862564407L490,142.3587960982871L470,142.3587960982871L450,142.3587960982871L430,142.3587960982871L410,142.3587960982871L390,136.59485741208962L370,136.59485741208962L350,136.59485741208962L330,136.59485741208962L310,136.59485741208962L290,167.7162067736799L270,167.7162067736799L250,167.7162067736799L230,167.7162067736799L210,167.7162067736799L190,166.42999999999998L170,166.42999999999998L150,166.42999999999998L130,166.42999999999998L110,166.42999999999998L90,175L70,175L50,175L30,175L10,175Z" fill="#4c78a8"/></g></g><path class="foreground" aria-hidden="true" d="" display="none"/></g></g><g class="mark-group role-legend" role="graphics-symbol" aria-roledescription="legend" aria-label="Symbol legend titled 'variable' for fill color with 6 values: Conv, x134, x177, x178, x22, x29"><g transform="translate(838,0)"><path class="background" aria-hidden="true" d="M0,0h72v97h-72Z" pointer-events="none"/><g><g class="mark-group role-legend-entry"><g transform="translate(0,21)"><path class="background" aria-hidden="true" d="M0,0h0v0h0Z" pointer-events="none"/><g><g class="mark-group role-scope" role="graphics-object" aria-roledescription="group mark container"><g transform="translate(0,0)"><path class="background" aria-hidden="true" d="M0,0h41v11h-41Z" pointer-events="none" opacity="1"/><g><g class="mark-symbol role-legend-symbol" pointer-events="none"><path transform="translate(6,6)" d="M5,0A5,5,0,1,1,-5,0A5,5,0,1,1,5,0" fill="#4c78a8" stroke-width="1.5" opacity="1"/></g><g class="mark-text role-legend-label" pointer-events="none"><text text-anchor="start" transform="translate(16,9)" font-family="sans-serif" font-size="10px" fill="#000" opacity="1">Conv</text></g></g><path class="foreground" aria-hidden="true" d="" pointer-events="none" display="none"/></g><g transform="translate(0,13)"><path class="background" aria-hidden="true" d="M0,0h41v11h-41Z" pointer-events="none" opacity="1"/><g><g class="mark-symbol role-legend-symbol" pointer-events="none"><path transform="translate(6,6)" d="M5,0A5,5,0,1,1,-5,0A5,5,0,1,1,5,0" fill="#f58518" stroke-width="1.5" opacity="1"/></g><g class="mark-text role-legend-label" pointer-events="none"><text text-anchor="start" transform="translate(16,9)" font-family="sans-serif" font-size="10px" fill="#000" opacity="1">x134</text></g></g><path class="foreground" aria-hidden="true" d="" pointer-events="none" display="none"/></g><g transform="translate(0,26)"><path class="background" aria-hidden="true" d="M0,0h41v11h-41Z" pointer-events="none" opacity="1"/><g><g class="mark-symbol role-legend-symbol" pointer-events="none"><path transform="translate(6,6)" d="M5,0A5,5,0,1,1,-5,0A5,5,0,1,1,5,0" fill="#e45756" stroke-width="1.5" opacity="1"/></g><g class="mark-text role-legend-label" pointer-events="none"><text text-anchor="start" transform="translate(16,9)" font-family="sans-serif" font-size="10px" fill="#000" opacity="1">x177</text></g></g><path class="foreground" aria-hidden="true" d="" pointer-events="none" display="none"/></g><g transform="translate(0,39)"><path class="background" aria-hidden="true" d="M0,0h41v11h-41Z" pointer-events="none" opacity="1"/><g><g class="mark-symbol role-legend-symbol" pointer-events="none"><path transform="translate(6,6)" d="M5,0A5,5,0,1,1,-5,0A5,5,0,1,1,5,0" fill="#72b7b2" stroke-width="1.5" opacity="1"/></g><g class="mark-text role-legend-label" pointer-events="none"><text text-anchor="start" transform="translate(16,9)" font-family="sans-serif" font-size="10px" fill="#000" opacity="1">x178</text></g></g><path class="foreground" aria-hidden="true" d="" pointer-events="none" display="none"/></g><g transform="translate(0,52)"><path class="background" aria-hidden="true" d="M0,0h41v11h-41Z" pointer-events="none" opacity="1"/><g><g class="mark-symbol role-legend-symbol" pointer-events="none"><path transform="translate(6,6)" d="M5,0A5,5,0,1,1,-5,0A5,5,0,1,1,5,0" fill="#54a24b" stroke-width="1.5" opacity="1"/></g><g class="mark-text role-legend-label" pointer-events="none"><text text-anchor="start" transform="translate(16,9)" font-family="sans-serif" font-size="10px" fill="#000" opacity="1">x22</text></g></g><path class="foreground" aria-hidden="true" d="" pointer-events="none" display="none"/></g><g transform="translate(0,65)"><path class="background" aria-hidden="true" d="M0,0h41v11h-41Z" pointer-events="none" opacity="1"/><g><g class="mark-symbol role-legend-symbol" pointer-events="none"><path transform="translate(6,6)" d="M5,0A5,5,0,1,1,-5,0A5,5,0,1,1,5,0" fill="#eeca3b" stroke-width="1.5" opacity="1"/></g><g class="mark-text role-legend-label" pointer-events="none"><text text-anchor="start" transform="translate(16,9)" font-family="sans-serif" font-size="10px" fill="#000" opacity="1">x29</text></g></g><path class="foreground" aria-hidden="true" d="" pointer-events="none" display="none"/></g></g></g><path class="foreground" aria-hidden="true" d="" pointer-events="none" display="none"/></g></g><g class="mark-text role-legend-title" pointer-events="none"><text text-anchor="start" transform="translate(0,13)" font-family="sans-serif" font-size="16px" font-weight="bold" fill="#000" opacity="1">variable</text></g></g><path class="foreground" aria-hidden="true" d="" pointer-events="none" display="none"/></g></g></g><path class="foreground" aria-hidden="true" d="" display="none"/></g></g></g></svg>
