<?xml version="1.0" encoding="utf-8"?>
<!DOCTYPE svg PUBLIC "-//W3C//DTD SVG 1.1//EN" "http://www.w3.org/Graphics/SVG/1.1/DTD/svg11.dtd">
<svg xmlns="http://www.w3.org/2000/svg" xmlns:xlink="http://www.w3.org/1999/xlink" version="1.1" class="marks" width="974" height="283" viewBox="0 0 974 283"><rect width="974" height="283" fill="white"/><g fill="none" stroke-miterlimit="10" transform="translate(59,15)"><g class="mark-group role-frame root" role="graphics-object" aria-roledescription="group mark container"><g transform="translate(0,0)"><path class="background" aria-hidden="true" d="M0.5,0.5h820v200h-820Z" stroke="#ddd"/><g><g class="mark-group role-axis" aria-hidden="true"><g transform="translate(0.5,0.5)"><path class="background" aria-hidden="true" d="M0,0h0v0h0Z" pointer-events="none"/><g><g class="mark-rule role-axis-grid" pointer-events="none"><line transform="translate(0,200)" x2="820" y2="0" stroke="#ddd" stroke-width="1" opacity="1"/><line transform="translate(0,160)" x2="820" y2="0" stroke="#ddd" stroke-width="1" opacity="1"/><line transform="translate(0,120)" x2="820" y2="0" stroke="#ddd" stroke-width="1" opacity="1"/><line transform="translate(0,80)" x2="820" y2="0" stroke="#ddd" stroke-width="1" opacity="1"/><line transform="translate(0,40)" x2="820" y2="0" stroke="#ddd" stroke-width="1" opacity="1"/><line transform="translate(0,0)" x2="820" y2="0" stroke="#ddd" stroke-width="1" opacity="1"/></g></g><path class="foreground" aria-hidden="true" d="" pointer-events="none" display="none"/></g></g><g class="mark-group role-axis" role="graphics-symbol" aria-roledescription="axis" aria-label="X-axis titled 'year' for a discrete scale with 41 values: 2020, 2021, 2022, 2023, 2024, ending with 2060"><g transform="translate(0.5,200.5)"><path class="background" aria-hidden="true" d="M0,0h0v0h0Z" pointer-events="none"/><g><g class="mark-rule role-axis-tick" pointer-events="none"><line transform="translate(10,0)" x2="0" y2="5" stroke="#888" stroke-width="1" opacity="1"/><line transform="translate(30,0)" x2="0" y2="5" stroke="#888" stroke-width="1" opacity="1"/><line transform="translate(50,0)" x2="0" y2="5" stroke="#888" stroke-width="1" opacity="1"/><line transform="translate(70,0)" x2="0" y2="5" stroke="#888" stroke-width="1" opacity="1"/><line transform="translate(90,0)" x2="0" y2="5" stroke="#888" stroke-width="1" opacity="1"/><line transform="translate(110,0)" x2="0" y2="5" stroke="#888" stroke-width="1" opacity="1"/><line transform="translate(130,0)" x2="0" y2="5" stroke="#888" stroke-width="1" opacity="1"/><line transform="translate(150,0)" x2="0" y2="5" stroke="#888" stroke-width="1" opacity="1"/><line transform="translate(170,0)" x2="0" y2="5" stroke="#888" stroke-width="1" opacity="1"/><line transform="translate(190,0)" x2="0" y2="5" stroke="#888" stroke-width="1" opacity="1"/><line transform="translate(210,0)" x2="0" y2="5" stroke="#888" stroke-width="1" opacity="1"/><line transform="translate(230,0)" x2="0" y2="5" stroke="#888" stroke-width="1" opacity="1"/><line transform="translate(250,0)" x2="0" y2="5" stroke="#888" stroke-width="1" opacity="1"/><line transform="translate(270,0)" x2="0" y2="5" stroke="#888" stroke-width="1" opacity="1"/><line transform="translate(290,0)" x2="0" y2="5" stroke="#888" stroke-width="1" opacity="1"/><line transform="translate(310,0)" x2="0" y2="5" stroke="#888" stroke-width="1" opacity="1"/><line transform="translate(330,0)" x2="0" y2="5" stroke="#888" stroke-width="1" opacity="1"/><line transform="translate(350,0)" x2="0" y2="5" stroke="#888" stroke-width="1" opacity="1"/><line transform="translate(370,0)" x2="0" y2="5" stroke="#888" stroke-width="1" opacity="1"/><line transform="translate(390,0)" x2="0" y2="5" stroke="#888" stroke-width="1" opacity="1"/><line transform="translate(410,0)" x2="0" y2="5" stroke="#888" stroke-width="1" opacity="1"/><line transform="translate(430,0)" x2="0" y2="5" stroke="#888" stroke-width="1" opacity="1"/><line transform="translate(450,0)" x2="0" y2="5" stroke="#888" stroke-width="1" opacity="1"/><line transform="translate(470,0)" x2="0" y2="5" stroke="#888" stroke-width="1" opacity="1"/><line transform="translate(490,0)" x2="0" y2="5" stroke="#888" stroke-width="1" opacity="1"/><line transform="translate(510,0)" x2="0" y2="5" stroke="#888" stroke-width="1" opacity="1"/><line transform="translate(530,0)" x2="0" y2="5" stroke="#888" stroke-width="1" opacity="1"/><line transform="translate(550,0)" x2="0" y2="5" stroke="#888" stroke-width="1" opacity="1"/><line transform="translate(570,0)" x2="0" y2="5" stroke="#888" stroke-width="1" opacity="1"/><line transform="translate(590,0)" x2="0" y2="5" stroke="#888" stroke-width="1" opacity="1"/><line transform="translate(610,0)" x2="0" y2="5" stroke="#888" stroke-width="1" opacity="1"/><line transform="translate(630,0)" x2="0" y2="5" stroke="#888" stroke-width="1" opacity="1"/><line transform="translate(650,0)" x2="0" y2="5" stroke="#888" stroke-width="1" opacity="1"/><line transform="translate(670,0)" x2="0" y2="5" stroke="#888" stroke-width="1" opacity="1"/><line transform="translate(690,0)" x2="0" y2="5" stroke="#888" stroke-width="1" opacity="1"/><line transform="translate(710,0)" x2="0" y2="5" stroke="#888" stroke-width="1" opacity="1"/><line transform="translate(730,0)" x2="0" y2="5" stroke="#888" stroke-width="1" opacity="1"/><line transform="translate(750,0)" x2="0" y2="5" stroke="#888" stroke-width="1" opacity="1"/><line transform="translate(770,0)" x2="0" y2="5" stroke="#888" stroke-width="1" opacity="1"/><line transform="translate(790,0)" x2="0" y2="5" stroke="#888" stroke-width="1" opacity="1"/><line transform="translate(810,0)" x2="0" y2="5" stroke="#888" stroke-width="1" opacity="1"/></g><g class="mark-text role-axis-label" pointer-events="none"><text text-anchor="end" transform="translate(10,7) rotate(270) translate(0,4)" font-family="sans-serif" font-size="14px" fill="#000" opacity="1">2020</text><text text-anchor="end" transform="translate(30,7) rotate(270) translate(0,4)" font-family="sans-serif" font-size="14px" fill="#000" opacity="1">2021</text><text text-anchor="end" transform="translate(50,7) rotate(270) translate(0,4)" font-family="sans-serif" font-size="14px" fill="#000" opacity="1">2022</text><text text-anchor="end" transform="translate(70,7) rotate(270) translate(0,4)" font-family="sans-serif" font-size="14px" fill="#000" opacity="1">2023</text><text text-anchor="end" transform="translate(90,7) rotate(270) translate(0,4)" font-family="sans-serif" font-size="14px" fill="#000" opacity="1">2024</text><text text-anchor="end" transform="translate(110,7) rotate(270) translate(0,4)" font-family="sans-serif" font-size="14px" fill="#000" opacity="1">2025</text><text text-anchor="end" transform="translate(130,7) rotate(270) translate(0,4)" font-family="sans-serif" font-size="14px" fill="#000" opacity="1">2026</text><text text-anchor="end" transform="translate(150,7) rotate(270) translate(0,4)" font-family="sans-serif" font-size="14px" fill="#000" opacity="1">2027</text><text text-anchor="end" transform="translate(170,7) rotate(270) translate(0,4)" font-family="sans-serif" font-size="14px" fill="#000" opacity="1">2028</text><text text-anchor="end" transform="translate(190,7) rotate(270) translate(0,4)" font-family="sans-serif" font-size="14px" fill="#000" opacity="1">2029</text><text text-anchor="end" transform="translate(210,7) rotate(270) translate(0,4)" font-family="sans-serif" font-size="14px" fill="#000" opacity="1">2030</text><text text-anchor="end" transform="translate(230,7) rotate(270) translate(0,4)" font-family="sans-serif" font-size="14px" fill="#000" opacity="1">2031</text><text text-anchor="end" transform="translate(250,7) rotate(270) translate(0,4)" font-family="sans-serif" font-size="14px" fill="#000" opacity="1">2032</text><text text-anchor="end" transform="translate(270,7) rotate(270) translate(0,4)" font-family="sans-serif" font-size="14px" fill="#000" opacity="1">2033</text><text text-anchor="end" transform="translate(290,7) rotate(270) translate(0,4)" font-family="sans-serif" font-size="14px" fill="#000" opacity="1">2034</text><text text-anchor="end" transform="translate(310,7) rotate(270) translate(0,4)" font-family="sans-serif" font-size="14px" fill="#000" opacity="1">2035</text><text text-anchor="end" transform="translate(330,7) rotate(270) translate(0,4)" font-family="sans-serif" font-size="14px" fill="#000" opacity="1">2036</text><text text-anchor="end" transform="translate(350,7) rotate(270) translate(0,4)" font-family="sans-serif" font-size="14px" fill="#000" opacity="1">2037</text><text text-anchor="end" transform="translate(370,7) rotate(270) translate(0,4)" font-family="sans-serif" font-size="14px" fill="#000" opacity="1">2038</text><text text-anchor="end" transform="translate(390,7) rotate(270) translate(0,4)" font-family="sans-serif" font-size="14px" fill="#000" opacity="1">2039</text><text text-anchor="end" transform="translate(410,7) rotate(270) translate(0,4)" font-family="sans-serif" font-size="14px" fill="#000" opacity="1">2040</text><text text-anchor="end" transform="translate(430,7) rotate(270) translate(0,4)" font-family="sans-serif" font-size="14px" fill="#000" opacity="1">2041</text><text text-anchor="end" transform="translate(450,7) rotate(270) translate(0,4)" font-family="sans-serif" font-size="14px" fill="#000" opacity="1">2042</text><text text-anchor="end" transform="translate(470,7) rotate(270) translate(0,4)" font-family="sans-serif" font-size="14px" fill="#000" opacity="1">2043</text><text text-anchor="end" transform="translate(490,7) rotate(270) translate(0,4)" font-family="sans-serif" font-size="14px" fill="#000" opacity="1">2044</text><text text-anchor="end" transform="translate(510,7) rotate(270) translate(0,4)" font-family="sans-serif" font-size="14px" fill="#000" opacity="1">2045</text><text text-anchor="end" transform="translate(530,7) rotate(270) translate(0,4)" font-family="sans-serif" font-size="14px" fill="#000" opacity="1">2046</text><text text-anchor="end" transform="translate(550,7) rotate(270) translate(0,4)" font-family="sans-serif" font-size="14px" fill="#000" opacity="1">2047</text><text text-anchor="end" transform="translate(570,7) rotate(270) translate(0,4)" font-family="sans-serif" font-size="14px" fill="#000" opacity="1">2048</text><text text-anchor="end" transform="translate(590,7) rotate(270) translate(0,4)" font-family="sans-serif" font-size="14px" fill="#000" opacity="1">2049</text><text text-anchor="end" transform="translate(610,7) rotate(270) translate(0,4)" font-family="sans-serif" font-size="14px" fill="#000" opacity="1">2050</text><text text-anchor="end" transform="translate(630,7) rotate(270) translate(0,4)" font-family="sans-serif" font-size="14px" fill="#000" opacity="1">2051</text><text text-anchor="end" transform="translate(650,7) rotate(270) translate(0,4)" font-family="sans-serif" font-size="14px" fill="#000" opacity="1">2052</text><text text-anchor="end" transform="translate(670,7) rotate(270) translate(0,4)" font-family="sans-serif" font-size="14px" fill="#000" opacity="1">2053</text><text text-anchor="end" transform="translate(690,7) rotate(270) translate(0,4)" font-family="sans-serif" font-size="14px" fill="#000" opacity="1">2054</text><text text-anchor="end" transform="translate(710,7) rotate(270) translate(0,4)" font-family="sans-serif" font-size="14px" fill="#000" opacity="1">2055</text><text text-anchor="end" transform="translate(730,7) rotate(270) translate(0,4)" font-family="sans-serif" font-size="14px" fill="#000" opacity="1">2056</text><text text-anchor="end" transform="translate(750,7) rotate(270) translate(0,4)" font-family="sans-serif" font-size="14px" fill="#000" opacity="1">2057</text><text text-anchor="end" transform="translate(770,7) rotate(270) translate(0,4)" font-family="sans-serif" font-size="14px" fill="#000" opacity="1">2058</text><text text-anchor="end" transform="translate(790,7) rotate(270) translate(0,4)" font-family="sans-serif" font-size="14px" fill="#000" opacity="1">2059</text><text text-anchor="end" transform="translate(810,7) rotate(270) translate(0,4)" font-family="sans-serif" font-size="14px" fill="#000" opacity="1">2060</text></g><g class="mark-rule role-axis-domain" pointer-events="none"><line transform="translate(0,0)" x2="820" y2="0" stroke="#888" stroke-width="1" opacity="1"/></g><g class="mark-text role-axis-title" pointer-events="none"><text text-anchor="middle" transform="translate(410,60)" font-family="sans-serif" font-size="16px" font-weight="bold" fill="#000" opacity="1">year</text></g></g><path class="foreground" aria-hidden="true" d="" pointer-events="none" display="none"/></g></g><g class="mark-group role-axis" role="graphics-symbol" aria-roledescription="axis" aria-label="Y-axis titled 'Value-chain adopted (%)' for a linear scale with values from 0 to 100"><g transform="translate(0.5,0.5)"><path class="background" aria-hidden="true" d="M0,0h0v0h0Z" pointer-events="none"/><g><g class="mark-rule role-axis-tick" pointer-events="none"><line transform="translate(0,200)" x2="-5" y2="0" stroke="#888" stroke-width="1" opacity="1"/><line transform="translate(0,160)" x2="-5" y2="0" stroke="#888" stroke-width="1" opacity="1"/><line transform="translate(0,120)" x2="-5" y2="0" stroke="#888" stroke-width="1" opacity="1"/><line transform="translate(0,80)" x2="-5" y2="0" stroke="#888" stroke-width="1" opacity="1"/><line transform="translate(0,40)" x2="-5" y2="0" stroke="#888" stroke-width="1" opacity="1"/><line transform="translate(0,0)" x2="-5" y2="0" stroke="#888" stroke-width="1" opacity="1"/></g><g class="mark-text role-axis-label" pointer-events="none"><text text-anchor="end" transform="translate(-7,204)" font-family="sans-serif" font-size="14px" fill="#000" opacity="1">0</text><text text-anchor="end" transform="translate(-7,164)" font-family="sans-serif" font-size="14px" fill="#000" opacity="1">20</text><text text-anchor="end" transform="translate(-7,124)" font-family="sans-serif" font-size="14px" fill="#000" opacity="1">40</text><text text-anchor="end" transform="translate(-7,84)" font-family="sans-serif" font-size="14px" fill="#000" opacity="1">60</text><text text-anchor="end" transform="translate(-7,43.99999999999999)" font-family="sans-serif" font-size="14px" fill="#000" opacity="1">80</text><text text-anchor="end" transform="translate(-7,4)" font-family="sans-serif" font-size="14px" fill="#000" opacity="1">100</text></g><g class="mark-rule role-axis-domain" pointer-events="none"><line transform="translate(0,200)" x2="0" y2="-200" stroke="#888" stroke-width="1" opacity="1"/></g><g class="mark-text role-axis-title" pointer-events="none"><text text-anchor="middle" transform="translate(-38,100) rotate(-90) translate(0,-3)" font-family="sans-serif" font-size="16px" font-weight="bold" fill="#000" opacity="1">Value-chain adopted (%)</text></g></g><path class="foreground" aria-hidden="true" d="" pointer-events="none" display="none"/></g></g><g class="mark-group role-scope pathgroup" role="graphics-object" aria-roledescription="group mark container"><g transform="translate(0,0)"><path class="background" aria-hidden="true" d="M0,0h820v200h-820Z"/><g><g class="mark-area role-mark marks" role="graphics-object" aria-roledescription="area mark container"><path aria-label="year: 2020; Value-chain adopted (%): 0; variable: x1" role="graphics-symbol" aria-roledescription="area mark" d="M10,200L30,200L50,200L70,200L90,200L110,0L130,0L150,0L170,0L190,0L210,0L230,0L250,0L270,0L290,0L310,2.220446049250313e-14L330,2.220446049250313e-14L350,2.220446049250313e-14L370,2.220446049250313e-14L390,2.220446049250313e-14L410,2.220446049250313e-14L430,2.220446049250313e-14L450,2.220446049250313e-14L470,2.220446049250313e-14L490,2.220446049250313e-14L510,0.000002618472882964795L530,0.000002618472882964795L550,0.000002618472882964795L570,0.000002618472882964795L590,0.000002618472882964795L610,0L630,0L650,0L670,0L690,0L710,0.000005264294111739787L730,0.000005264294111739787L750,0.000005264294111739787L770,0.000005264294111739787L790,0.000005264294111739787L810,0.000005264294111739787L810,0.000005269747127556457L790,0.000005269747127556457L770,0.000005269747127556457L750,0.000005269747127556457L730,0.000005269747127556457L710,0.000005269747127556457L690,0L670,0L650,0L630,0L610,0L590,0.000002618472882964795L570,0.000002618472882964795L550,0.000002618472882964795L530,0.000002618472882964795L510,0.000002618472882964795L490,2.220446049250313e-14L470,2.220446049250313e-14L450,2.220446049250313e-14L430,2.220446049250313e-14L410,2.220446049250313e-14L390,2.220446049250313e-14L370,2.220446049250313e-14L350,2.220446049250313e-14L330,2.220446049250313e-14L310,2.220446049250313e-14L290,0L270,0L250,0L230,0L210,0L190,0L170,0L150,0L130,0L110,0L90,200L70,200L50,200L30,200L10,200Z" fill="#f58518"/></g></g><path class="foreground" aria-hidden="true" d="" display="none"/></g><g transform="translate(0,0)"><path class="background" aria-hidden="true" d="M0,0h820v200h-820Z"/><g><g class="mark-area role-mark marks" role="graphics-object" aria-roledescription="area mark container"><path aria-label="year: 2020; Value-chain adopted (%): 0; variable: x22" role="graphics-symbol" aria-roledescription="area mark" d="M10,200L30,200L50,200L70,200L90,200L110,200L130,200L150,200L170,200L190,200L210,200L230,200L250,200L270,200L290,200L310,57.825492053468075L330,57.825492053468075L350,57.825492053468075L370,57.825492053468075L390,57.825492053468075L410,57.825492053468075L430,57.825492053468075L450,57.825492053468075L470,57.825492053468075L490,57.825492053468075L510,57.82549294304844L530,57.82549294304844L550,57.82549294304844L570,57.82549294304844L590,57.82549294304844L610,200L630,200L650,200L670,200L690,200L710,200L730,200L750,200L770,200L790,200L810,200L810,200L790,200L770,200L750,200L730,200L710,200L690,200L670,200L650,200L630,200L610,200L590,200L570,200L550,200L530,200L510,200L490,200L470,200L450,200L430,200L410,200L390,200L370,200L350,200L330,200L310,200L290,200L270,200L250,200L230,200L210,200L190,200L170,200L150,200L130,200L110,200L90,200L70,200L50,200L30,200L10,200Z" fill="#bab0ac"/></g></g><path class="foreground" aria-hidden="true" d="" display="none"/></g><g transform="translate(0,0)"><path class="background" aria-hidden="true" d="M0,0h820v200h-820Z"/><g><g class="mark-area role-mark marks" role="graphics-object" aria-roledescription="area mark container"><path aria-label="year: 2020; Value-chain adopted (%): 0; variable: x134" role="graphics-symbol" aria-roledescription="area mark" d="M10,200L30,200L50,200L70,200L90,200L110,0L130,0L150,0L170,0L190,0L210,0L230,0L250,0L270,0L290,0L310,2.220446049250313e-14L330,2.220446049250313e-14L350,2.220446049250313e-14L370,2.220446049250313e-14L390,2.220446049250313e-14L410,2.220446049250313e-14L430,2.220446049250313e-14L450,2.220446049250313e-14L470,2.220446049250313e-14L490,2.220446049250313e-14L510,0.000002618472882964795L530,0.000002618472882964795L550,0.000002618472882964795L570,0.000002618472882964795L590,0.000002618472882964795L610,0L630,0L650,0L670,0L690,0L710,0.000005269747127556457L730,0.000005269747127556457L750,0.000005269747127556457L770,0.000005269747127556457L790,0.000005269747127556457L810,0.000005269747127556457L810,110.9337565938365L790,110.9337565938365L770,110.9337565938365L750,110.9337565938365L730,110.9337565938365L710,110.9337565938365L690,87.62331404452868L670,87.62331404452868L650,87.62331404452868L630,87.62331404452868L610,87.62331404452868L590,0.000002618472882964795L570,0.000002618472882964795L550,0.000002618472882964795L530,0.000002618472882964795L510,0.000002618472882964795L490,2.220446049250313e-14L470,2.220446049250313e-14L450,2.220446049250313e-14L430,2.220446049250313e-14L410,2.220446049250313e-14L390,2.220446049250313e-14L370,2.220446049250313e-14L350,2.220446049250313e-14L330,2.220446049250313e-14L310,2.220446049250313e-14L290,0L270,0L250,0L230,0L210,0L190,0L170,0L150,0L130,0L110,0L90,200L70,200L50,200L30,200L10,200Z" fill="#e45756"/></g></g><path class="foreground" aria-hidden="true" d="" display="none"/></g><g transform="translate(0,0)"><path class="background" aria-hidden="true" d="M0,0h820v200h-820Z"/><g><g class="mark-area role-mark marks" role="graphics-object" aria-roledescription="area mark container"><path aria-label="year: 2020; Value-chain adopted (%): 0; variable: x157" role="graphics-symbol" aria-roledescription="area mark" d="M10,200L30,200L50,200L70,200L90,200L110,0L130,0L150,0L170,0L190,0L210,0L230,0L250,0L270,0L290,0L310,2.220446049250313e-14L330,2.220446049250313e-14L350,2.220446049250313e-14L370,2.220446049250313e-14L390,2.220446049250313e-14L410,2.220446049250313e-14L430,2.220446049250313e-14L450,2.220446049250313e-14L470,2.220446049250313e-14L490,2.220446049250313e-14L510,0.000002618472882964795L530,0.000002618472882964795L550,0.000002618472882964795L570,0.000002618472882964795L590,0.000002618472882964795L610,87.62331404452868L630,87.62331404452868L650,87.62331404452868L670,87.62331404452868L690,87.62331404452868L710,110.9337565938365L730,110.9337565938365L750,110.9337565938365L770,110.9337565938365L790,110.9337565938365L810,110.9337565938365L810,110.9337565938365L790,110.9337565938365L770,110.9337565938365L750,110.9337565938365L730,110.9337565938365L710,110.9337565938365L690,194.7907783903855L670,194.7907783903855L650,194.7907783903855L630,194.7907783903855L610,194.7907783903855L590,0.000002618472882964795L570,0.000002618472882964795L550,0.000002618472882964795L530,0.000002618472882964795L510,0.000002618472882964795L490,2.220446049250313e-14L470,2.220446049250313e-14L450,2.220446049250313e-14L430,2.220446049250313e-14L410,2.220446049250313e-14L390,2.220446049250313e-14L370,2.220446049250313e-14L350,2.220446049250313e-14L330,2.220446049250313e-14L310,2.220446049250313e-14L290,0L270,0L250,0L230,0L210,0L190,0L170,0L150,0L130,0L110,0L90,200L70,200L50,200L30,200L10,200Z" fill="#72b7b2"/></g></g><path class="foreground" aria-hidden="true" d="" display="none"/></g><g transform="translate(0,0)"><path class="background" aria-hidden="true" d="M0,0h820v200h-820Z"/><g><g class="mark-area role-mark marks" role="graphics-object" aria-roledescription="area mark container"><path aria-label="year: 2020; Value-chain adopted (%): 0; variable: x158" role="graphics-symbol" aria-roledescription="area mark" d="M10,200L30,200L50,200L70,200L90,200L110,0L130,0L150,0L170,0L190,0L210,0L230,0L250,0L270,0L290,0L310,2.220446049250313e-14L330,2.220446049250313e-14L350,2.220446049250313e-14L370,2.220446049250313e-14L390,2.220446049250313e-14L410,2.220446049250313e-14L430,2.220446049250313e-14L450,2.220446049250313e-14L470,2.220446049250313e-14L490,2.220446049250313e-14L510,0.000002618472882964795L530,0.000002618472882964795L550,0.000002618472882964795L570,0.000002618472882964795L590,0.000002618472882964795L610,194.7907783903855L630,194.7907783903855L650,194.7907783903855L670,194.7907783903855L690,194.7907783903855L710,110.9337565938365L730,110.9337565938365L750,110.9337565938365L770,110.9337565938365L790,110.9337565938365L810,110.9337565938365L810,162.94313491263313L790,162.94313491263313L770,162.94313491263313L750,162.94313491263313L730,162.94313491263313L710,162.94313491263313L690,194.7907783903855L670,194.7907783903855L650,194.7907783903855L630,194.7907783903855L610,194.7907783903855L590,0.000002618472882964795L570,0.000002618472882964795L550,0.000002618472882964795L530,0.000002618472882964795L510,0.000002618472882964795L490,2.220446049250313e-14L470,2.220446049250313e-14L450,2.220446049250313e-14L430,2.220446049250313e-14L410,2.220446049250313e-14L390,2.220446049250313e-14L370,2.220446049250313e-14L350,2.220446049250313e-14L330,2.220446049250313e-14L310,2.220446049250313e-14L290,0L270,0L250,0L230,0L210,0L190,0L170,0L150,0L130,0L110,0L90,200L70,200L50,200L30,200L10,200Z" fill="#54a24b"/></g></g><path class="foreground" aria-hidden="true" d="" display="none"/></g><g transform="translate(0,0)"><path class="background" aria-hidden="true" d="M0,0h820v200h-820Z"/><g><g class="mark-area role-mark marks" role="graphics-object" aria-roledescription="area mark container"><path aria-label="year: 2020; Value-chain adopted (%): 0; variable: x177" role="graphics-symbol" aria-roledescription="area mark" d="M10,200L30,200L50,200L70,200L90,200L110,0L130,0L150,0L170,0L190,0L210,0L230,0L250,0L270,0L290,0L310,2.220446049250313e-14L330,2.220446049250313e-14L350,2.220446049250313e-14L370,2.220446049250313e-14L390,2.220446049250313e-14L410,2.220446049250313e-14L430,2.220446049250313e-14L450,2.220446049250313e-14L470,2.220446049250313e-14L490,2.220446049250313e-14L510,0.000002618472882964795L530,0.000002618472882964795L550,0.000002618472882964795L570,0.000002618472882964795L590,0.000002618472882964795L610,194.7907783903855L630,194.7907783903855L650,194.7907783903855L670,194.7907783903855L690,194.7907783903855L710,162.94313491263313L730,162.94313491263313L750,162.94313491263313L770,162.94313491263313L790,162.94313491263313L810,162.94313491263313L810,200L790,200L770,200L750,200L730,200L710,200L690,200L670,200L650,200L630,200L610,200L590,57.82549071701328L570,57.82549071701328L550,57.82549071701328L530,57.82549071701328L510,57.82549071701328L490,57.825492053468075L470,57.825492053468075L450,57.825492053468075L430,57.825492053468075L410,57.825492053468075L390,57.825492053468075L370,57.825492053468075L350,57.825492053468075L330,57.825492053468075L310,57.825492053468075L290,0L270,0L250,0L230,0L210,0L190,0L170,0L150,0L130,0L110,0L90,200L70,200L50,200L30,200L10,200Z" fill="#eeca3b"/></g></g><path class="foreground" aria-hidden="true" d="" display="none"/></g><g transform="translate(0,0)"><path class="background" aria-hidden="true" d="M0,0h820v200h-820Z"/><g><g class="mark-area role-mark marks" role="graphics-object" aria-roledescription="area mark container"><path aria-label="year: 2020; Value-chain adopted (%): 0; variable: x178" role="graphics-symbol" aria-roledescription="area mark" d="M10,200L30,200L50,200L70,200L90,200L110,0L130,0L150,0L170,0L190,0L210,0L230,0L250,0L270,0L290,0L310,57.825492053468075L330,57.825492053468075L350,57.825492053468075L370,57.825492053468075L390,57.825492053468075L410,57.825492053468075L430,57.825492053468075L450,57.825492053468075L470,57.825492053468075L490,57.825492053468075L510,57.82549071701328L530,57.82549071701328L550,57.82549071701328L570,57.82549071701328L590,57.82549071701328L610,200L630,200L650,200L670,200L690,200L710,200L730,200L750,200L770,200L790,200L810,200L810,200L790,200L770,200L750,200L730,200L710,200L690,200L670,200L650,200L630,200L610,200L590,57.82549071701328L570,57.82549071701328L550,57.82549071701328L530,57.82549071701328L510,57.82549071701328L490,57.825492053468075L470,57.825492053468075L450,57.825492053468075L430,57.825492053468075L410,57.825492053468075L390,57.825492053468075L370,57.825492053468075L350,57.825492053468075L330,57.825492053468075L310,57.825492053468075L290,200L270,200L250,200L230,200L210,200L190,200L170,200L150,200L130,200L110,200L90,200L70,200L50,200L30,200L10,200Z" fill="#b279a2"/></g></g><path class="foreground" aria-hidden="true" d="" display="none"/></g><g transform="translate(0,0)"><path class="background" aria-hidden="true" d="M0,0h820v200h-820Z"/><g><g class="mark-area role-mark marks" role="graphics-object" aria-roledescription="area mark container"><path aria-label="year: 2020; Value-chain adopted (%): 0; variable: x186" role="graphics-symbol" aria-roledescription="area mark" d="M10,200L30,200L50,200L70,200L90,200L110,200L130,200L150,200L170,200L190,200L210,200L230,200L250,200L270,200L290,200L310,57.825492053468075L330,57.825492053468075L350,57.825492053468075L370,57.825492053468075L390,57.825492053468075L410,57.825492053468075L430,57.825492053468075L450,57.825492053468075L470,57.825492053468075L490,57.825492053468075L510,57.82549071701328L530,57.82549071701328L550,57.82549071701328L570,57.82549071701328L590,57.82549071701328L610,200L630,200L650,200L670,200L690,200L710,200L730,200L750,200L770,200L790,200L810,200L810,200L790,200L770,200L750,200L730,200L710,200L690,200L670,200L650,200L630,200L610,200L590,57.82549180578525L570,57.82549180578525L550,57.82549180578525L530,57.82549180578525L510,57.82549180578525L490,57.825492053468075L470,57.825492053468075L450,57.825492053468075L430,57.825492053468075L410,57.825492053468075L390,57.825492053468075L370,57.825492053468075L350,57.825492053468075L330,57.825492053468075L310,57.825492053468075L290,200L270,200L250,200L230,200L210,200L190,200L170,200L150,200L130,200L110,200L90,200L70,200L50,200L30,200L10,200Z" fill="#ff9da6"/></g></g><path class="foreground" aria-hidden="true" d="" display="none"/></g><g transform="translate(0,0)"><path class="background" aria-hidden="true" d="M0,0h820v200h-820Z"/><g><g class="mark-area role-mark marks" role="graphics-object" aria-roledescription="area mark container"><path aria-label="year: 2020; Value-chain adopted (%): 0; variable: x187" role="graphics-symbol" aria-roledescription="area mark" d="M10,200L30,200L50,200L70,200L90,200L110,200L130,200L150,200L170,200L190,200L210,200L230,200L250,200L270,200L290,200L310,57.825492053468075L330,57.825492053468075L350,57.825492053468075L370,57.825492053468075L390,57.825492053468075L410,57.825492053468075L430,57.825492053468075L450,57.825492053468075L470,57.825492053468075L490,57.825492053468075L510,57.82549180578525L530,57.82549180578525L550,57.82549180578525L570,57.82549180578525L590,57.82549180578525L610,200L630,200L650,200L670,200L690,200L710,200L730,200L750,200L770,200L790,200L810,200L810,200L790,200L770,200L750,200L730,200L710,200L690,200L670,200L650,200L630,200L610,200L590,57.82549294304844L570,57.82549294304844L550,57.82549294304844L530,57.82549294304844L510,57.82549294304844L490,57.825492053468075L470,57.825492053468075L450,57.825492053468075L430,57.825492053468075L410,57.825492053468075L390,57.825492053468075L370,57.825492053468075L350,57.825492053468075L330,57.825492053468075L310,57.825492053468075L290,200L270,200L250,200L230,200L210,200L190,200L170,200L150,200L130,200L110,200L90,200L70,200L50,200L30,200L10,200Z" fill="#9d755d"/></g></g><path class="foreground" aria-hidden="true" d="" display="none"/></g><g transform="translate(0,0)"><path class="background" aria-hidden="true" d="M0,0h820v200h-820Z"/><g><g class="mark-area role-mark marks" role="graphics-object" aria-roledescription="area mark container"><path aria-label="year: 2020; Value-chain adopted (%): 100; variable: Conv" role="graphics-symbol" aria-roledescription="area mark" d="M10,0L30,0L50,0L70,0L90,0L110,0L130,0L150,0L170,0L190,0L210,0L230,0L250,0L270,0L290,0L310,2.220446049250313e-14L330,2.220446049250313e-14L350,2.220446049250313e-14L370,2.220446049250313e-14L390,2.220446049250313e-14L410,2.220446049250313e-14L430,2.220446049250313e-14L450,2.220446049250313e-14L470,2.220446049250313e-14L490,2.220446049250313e-14L510,2.220446049250313e-14L530,2.220446049250313e-14L550,2.220446049250313e-14L570,2.220446049250313e-14L590,2.220446049250313e-14L610,0L630,0L650,0L670,0L690,0L710,0L730,0L750,0L770,0L790,0L810,0L810,0.000005264294111739787L790,0.000005264294111739787L770,0.000005264294111739787L750,0.000005264294111739787L730,0.000005264294111739787L710,0.000005264294111739787L690,0L670,0L650,0L630,0L610,0L590,0.000002618472882964795L570,0.000002618472882964795L550,0.000002618472882964795L530,0.000002618472882964795L510,0.000002618472882964795L490,2.220446049250313e-14L470,2.220446049250313e-14L450,2.220446049250313e-14L430,2.220446049250313e-14L410,2.220446049250313e-14L390,2.220446049250313e-14L370,2.220446049250313e-14L350,2.220446049250313e-14L330,2.220446049250313e-14L310,2.220446049250313e-14L290,0L270,0L250,0L230,0L210,0L190,0L170,0L150,0L130,0L110,0L90,200L70,200L50,200L30,200L10,200Z" fill="#4c78a8"/></g></g><path class="foreground" aria-hidden="true" d="" display="none"/></g></g><g class="mark-group role-legend" role="graphics-symbol" aria-roledescription="legend" aria-label="Symbol legend titled 'variable' for fill color with 10 values: Conv, x1, x134, x157, x158, ending with x22"><g transform="translate(838,0)"><path class="background" aria-hidden="true" d="M0,0h72v149h-72Z" pointer-events="none"/><g><g class="mark-group role-legend-entry"><g transform="translate(0,21)"><path class="background" aria-hidden="true" d="M0,0h0v0h0Z" pointer-events="none"/><g><g class="mark-group role-scope" role="graphics-object" aria-roledescription="group mark container"><g transform="translate(0,0)"><path class="background" aria-hidden="true" d="M0,0h41v11h-41Z" pointer-events="none" opacity="1"/><g><g class="mark-symbol role-legend-symbol" pointer-events="none"><path transform="translate(6,6)" d="M5,0A5,5,0,1,1,-5,0A5,5,0,1,1,5,0" fill="#4c78a8" stroke-width="1.5" opacity="1"/></g><g class="mark-text role-legend-label" pointer-events="none"><text text-anchor="start" transform="translate(16,9)" font-family="sans-serif" font-size="10px" fill="#000" opacity="1">Conv</text></g></g><path class="foreground" aria-hidden="true" d="" pointer-events="none" display="none"/></g><g transform="translate(0,13)"><path class="background" aria-hidden="true" d="M0,0h41v11h-41Z" pointer-events="none" opacity="1"/><g><g class="mark-symbol role-legend-symbol" pointer-events="none"><path transform="translate(6,6)" d="M5,0A5,5,0,1,1,-5,0A5,5,0,1,1,5,0" fill="#f58518" stroke-width="1.5" opacity="1"/></g><g class="mark-text role-legend-label" pointer-events="none"><text text-anchor="start" transform="translate(16,9)" font-family="sans-serif" font-size="10px" fill="#000" opacity="1">x1</text></g></g><path class="foreground" aria-hidden="true" d="" pointer-events="none" display="none"/></g><g transform="translate(0,26)"><path class="background" aria-hidden="true" d="M0,0h41v11h-41Z" pointer-events="none" opacity="1"/><g><g class="mark-symbol role-legend-symbol" pointer-events="none"><path transform="translate(6,6)" d="M5,0A5,5,0,1,1,-5,0A5,5,0,1,1,5,0" fill="#e45756" stroke-width="1.5" opacity="1"/></g><g class="mark-text role-legend-label" pointer-events="none"><text text-anchor="start" transform="translate(16,9)" font-family="sans-serif" font-size="10px" fill="#000" opacity="1">x134</text></g></g><path class="foreground" aria-hidden="true" d="" pointer-events="none" display="none"/></g><g transform="translate(0,39)"><path class="background" aria-hidden="true" d="M0,0h41v11h-41Z" pointer-events="none" opacity="1"/><g><g class="mark-symbol role-legend-symbol" pointer-events="none"><path transform="translate(6,6)" d="M5,0A5,5,0,1,1,-5,0A5,5,0,1,1,5,0" fill="#72b7b2" stroke-width="1.5" opacity="1"/></g><g class="mark-text role-legend-label" pointer-events="none"><text text-anchor="start" transform="translate(16,9)" font-family="sans-serif" font-size="10px" fill="#000" opacity="1">x157</text></g></g><path class="foreground" aria-hidden="true" d="" pointer-events="none" display="none"/></g><g transform="translate(0,52)"><path class="background" aria-hidden="true" d="M0,0h41v11h-41Z" pointer-events="none" opacity="1"/><g><g class="mark-symbol role-legend-symbol" pointer-events="none"><path transform="translate(6,6)" d="M5,0A5,5,0,1,1,-5,0A5,5,0,1,1,5,0" fill="#54a24b" stroke-width="1.5" opacity="1"/></g><g class="mark-text role-legend-label" pointer-events="none"><text text-anchor="start" transform="translate(16,9)" font-family="sans-serif" font-size="10px" fill="#000" opacity="1">x158</text></g></g><path class="foreground" aria-hidden="true" d="" pointer-events="none" display="none"/></g><g transform="translate(0,65)"><path class="background" aria-hidden="true" d="M0,0h41v11h-41Z" pointer-events="none" opacity="1"/><g><g class="mark-symbol role-legend-symbol" pointer-events="none"><path transform="translate(6,6)" d="M5,0A5,5,0,1,1,-5,0A5,5,0,1,1,5,0" fill="#eeca3b" stroke-width="1.5" opacity="1"/></g><g class="mark-text role-legend-label" pointer-events="none"><text text-anchor="start" transform="translate(16,9)" font-family="sans-serif" font-size="10px" fill="#000" opacity="1">x177</text></g></g><path class="foreground" aria-hidden="true" d="" pointer-events="none" display="none"/></g><g transform="translate(0,78)"><path class="background" aria-hidden="true" d="M0,0h41v11h-41Z" pointer-events="none" opacity="1"/><g><g class="mark-symbol role-legend-symbol" pointer-events="none"><path transform="translate(6,6)" d="M5,0A5,5,0,1,1,-5,0A5,5,0,1,1,5,0" fill="#b279a2" stroke-width="1.5" opacity="1"/></g><g class="mark-text role-legend-label" pointer-events="none"><text text-anchor="start" transform="translate(16,9)" font-family="sans-serif" font-size="10px" fill="#000" opacity="1">x178</text></g></g><path class="foreground" aria-hidden="true" d="" pointer-events="none" display="none"/></g><g transform="translate(0,91)"><path class="background" aria-hidden="true" d="M0,0h41v11h-41Z" pointer-events="none" opacity="1"/><g><g class="mark-symbol role-legend-symbol" pointer-events="none"><path transform="translate(6,6)" d="M5,0A5,5,0,1,1,-5,0A5,5,0,1,1,5,0" fill="#ff9da6" stroke-width="1.5" opacity="1"/></g><g class="mark-text role-legend-label" pointer-events="none"><text text-anchor="start" transform="translate(16,9)" font-family="sans-serif" font-size="10px" fill="#000" opacity="1">x186</text></g></g><path class="foreground" aria-hidden="true" d="" pointer-events="none" display="none"/></g><g transform="translate(0,104)"><path class="background" aria-hidden="true" d="M0,0h41v11h-41Z" pointer-events="none" opacity="1"/><g><g class="mark-symbol role-legend-symbol" pointer-events="none"><path transform="translate(6,6)" d="M5,0A5,5,0,1,1,-5,0A5,5,0,1,1,5,0" fill="#9d755d" stroke-width="1.5" opacity="1"/></g><g class="mark-text role-legend-label" pointer-events="none"><text text-anchor="start" transform="translate(16,9)" font-family="sans-serif" font-size="10px" fill="#000" opacity="1">x187</text></g></g><path class="foreground" aria-hidden="true" d="" pointer-events="none" display="none"/></g><g transform="translate(0,117)"><path class="background" aria-hidden="true" d="M0,0h41v11h-41Z" pointer-events="none" opacity="1"/><g><g class="mark-symbol role-legend-symbol" pointer-events="none"><path transform="translate(6,6)" d="M5,0A5,5,0,1,1,-5,0A5,5,0,1,1,5,0" fill="#bab0ac" stroke-width="1.5" opacity="1"/></g><g class="mark-text role-legend-label" pointer-events="none"><text text-anchor="start" transform="translate(16,9)" font-family="sans-serif" font-size="10px" fill="#000" opacity="1">x22</text></g></g><path class="foreground" aria-hidden="true" d="" pointer-events="none" display="none"/></g></g></g><path class="foreground" aria-hidden="true" d="" pointer-events="none" display="none"/></g></g><g class="mark-text role-legend-title" pointer-events="none"><text text-anchor="start" transform="translate(0,13)" font-family="sans-serif" font-size="16px" font-weight="bold" fill="#000" opacity="1">variable</text></g></g><path class="foreground" aria-hidden="true" d="" pointer-events="none" display="none"/></g></g></g><path class="foreground" aria-hidden="true" d="" display="none"/></g></g></g></svg>
